<svg width="246" height="51" viewBox="0 0 246 51" fill="none" xmlns="http://www.w3.org/2000/svg">
<g clip-path="url(#clip0_1550_434)">
<path d="M6.19408 29.0846L9.08543 30.1156C8.5403 28.4098 8.44145 26.5922 8.79033 24.8457C8.90372 24.2771 9.06362 23.7144 9.27295 23.1676L9.29476 23.1923C10.1088 24.1492 11.6526 23.8656 12.0742 22.6834L15.3173 13.5746C15.7389 12.3909 14.7213 11.1956 13.4871 11.4224L3.98014 13.166C2.74453 13.3928 2.2183 14.8717 3.03235 15.8285L3.31436 16.1601C3.00037 16.6196 2.70673 17.0936 2.4349 17.5793C2.04531 18.273 1.69934 18.9928 1.39843 19.7373C0.469535 22.0218 0 24.4342 0 26.9092C0 29.3841 0.469535 31.7966 1.39552 34.081C1.75749 34.9724 2.18196 35.8289 2.66894 36.6491L1.94501 32.701C1.73568 31.5552 2.1398 30.4209 3.02654 29.6662C3.91328 28.9115 5.09802 28.6949 6.19408 29.0846Z" fill="#CFDE29"/>
<path d="M16.2332 10.9392C16.9877 11.8262 17.2043 13.0113 16.8147 14.1078L15.8029 16.9492C17.5546 16.3792 19.4284 16.2817 21.2222 16.6584C21.792 16.7776 22.3546 16.9448 22.9026 17.16L22.843 17.2109C21.8865 18.0253 22.1685 19.5696 23.3518 19.9913L32.4576 23.2355C33.6409 23.6572 34.8358 22.6393 34.609 21.4047L32.8661 11.8946C32.6393 10.6585 31.1609 10.1321 30.2044 10.9465L29.8875 11.2169C29.4311 10.9014 28.9601 10.6047 28.476 10.3313C27.755 9.92128 27.0049 9.55774 26.2286 9.24364C23.9449 8.31735 21.5318 7.84766 19.0591 7.84766C16.5865 7.84766 14.1734 8.31735 11.8896 9.24364C10.9491 9.62463 10.0479 10.0769 9.19019 10.5975L13.1994 9.86166C14.3449 9.65226 15.4788 10.0565 16.2332 10.9435V10.9392Z" fill="white"/>
<path d="M22.0666 43.0744C22.0041 43.0118 21.9431 42.9464 21.8849 42.8766C21.1305 41.9896 20.9124 40.8059 21.3035 39.708L22.3152 36.8666C20.5635 37.4366 18.6898 37.5341 16.8959 37.1574C16.3261 37.0382 15.7635 36.871 15.217 36.6557L15.2766 36.6048C16.2331 35.7905 15.9496 34.2462 14.7663 33.8245L5.66053 30.5803C4.47725 30.1586 3.28233 31.1765 3.50911 32.4111L5.25205 41.9212C5.47883 43.1573 6.95721 43.6837 7.91372 42.8693L8.23207 42.5989C8.68853 42.9159 9.15951 43.2111 9.64359 43.4844C10.3646 43.8945 11.1147 44.258 11.8895 44.5721C14.1732 45.4984 16.5863 45.9681 19.059 45.9681C21.5317 45.9681 23.9448 45.4984 26.2285 44.5721C27.169 44.1912 28.0703 43.7389 28.928 43.2183L24.9187 43.9541C23.8619 44.1475 22.8153 43.8189 22.0666 43.07V43.0744Z" fill="white"/>
<path d="M36.721 19.7365C36.3591 18.8451 35.9346 17.9871 35.4476 17.167L36.1716 21.1165C36.3809 22.2623 35.9768 23.3966 35.09 24.1513C34.2033 24.906 33.0186 25.1227 31.9225 24.7329L29.0311 23.7019C29.5763 25.4077 29.6751 27.2254 29.3262 28.9718C29.2128 29.5404 29.0529 30.1031 28.8436 30.6499L28.8218 30.6252C28.0078 29.6683 26.464 29.9519 26.0424 31.1341L22.7993 40.2429C22.3777 41.4266 23.3953 42.6219 24.6294 42.3951L34.1364 40.6515C35.372 40.4247 35.8983 38.9458 35.0842 37.989L34.8022 37.6574C35.1162 37.1979 35.4098 36.7239 35.6817 36.2382C36.0698 35.5446 36.4172 34.8248 36.7181 34.0802C37.6441 31.7958 38.1137 29.3819 38.1137 26.9084C38.1137 24.4348 37.6441 22.0209 36.7181 19.7365H36.721Z" fill="#CFDE29"/>
<path d="M75.601 33.089L75.5675 18.8775C75.5661 18.021 74.4366 17.7113 73.9976 18.4471L66.9269 30.3275C66.7743 30.5835 66.4995 30.7405 66.2015 30.7405H64.0094C63.7143 30.7405 63.441 30.5864 63.2884 30.3348L56.2643 18.7845C55.8209 18.0545 54.6987 18.37 54.6987 19.2236V33.0861C54.6987 33.5528 54.3207 33.9309 53.8541 33.9309H48.9916C48.5249 33.9309 48.147 33.5528 48.147 33.0861V4.59486C48.147 4.12808 48.5249 3.75 48.9916 3.75H53.4456C53.7421 3.75 54.0154 3.90559 54.1681 4.15862L64.4862 21.2943C64.8162 21.8411 65.6099 21.8382 65.9355 21.29L76.0894 4.16443C76.242 3.9085 76.5168 3.75145 76.8148 3.75145H81.2238C81.6889 3.75145 82.0669 4.12808 82.0683 4.59341L82.1497 33.0846C82.1497 33.5514 81.7732 33.9309 81.3052 33.9309H76.4426C75.9775 33.9309 75.5995 33.5543 75.5981 33.089H75.601Z" fill="white"/>
<path d="M110.646 23.8855H95.0452C94.4274 23.8855 94.0218 24.5268 94.2791 25.0881C95.272 27.2577 97.5019 28.5417 100.515 28.5417C102.673 28.5417 104.298 27.9761 105.743 26.8171C106.089 26.5394 106.59 26.5772 106.89 26.9029L109.374 29.5974C109.687 29.9363 109.669 30.4612 109.338 30.7811C107.199 32.8475 104.167 33.9308 100.342 33.9308C92.3254 33.9308 87.1111 28.8864 87.1111 21.9879C87.1111 15.0894 92.4126 10.0449 99.4804 10.0449C106.548 10.0449 111.549 14.6153 111.549 22.0737C111.549 22.3732 111.52 22.744 111.488 23.1134C111.448 23.5496 111.085 23.8841 110.646 23.8841V23.8855ZM94.8679 19.9622H104.134C104.718 19.9622 105.122 19.3835 104.929 18.8324C104.129 16.5522 102.133 15.1345 99.524 15.1345C96.9146 15.1345 94.8679 16.5275 94.0712 18.8353C93.8808 19.3864 94.2835 19.9637 94.8679 19.9637V19.9622Z" fill="white"/>
<path d="M115.213 3.75171C115.213 1.63883 116.894 0 119.394 0C121.894 0 123.575 1.55158 123.575 3.62229C123.575 5.86459 121.894 7.50197 119.394 7.50197C116.894 7.50197 115.213 5.86314 115.213 3.75026V3.75171ZM116.876 10.736H121.912C122.379 10.736 122.756 11.1141 122.756 11.5809V33.0878C122.756 33.5545 122.379 33.9326 121.912 33.9326H116.876C116.41 33.9326 116.032 33.5545 116.032 33.0878V11.5794C116.032 11.1126 116.41 10.7345 116.876 10.7345V10.736Z" fill="white"/>
<path d="M127.084 30.739L128.613 27.4424C128.818 27.0003 129.352 26.8273 129.782 27.057C131.814 28.1389 134.556 28.8427 137.064 28.8427C140.167 28.8427 141.33 28.0241 141.33 26.7299C141.33 22.936 127.323 26.8156 127.323 17.5469C127.323 13.1495 131.288 10.0449 138.055 10.0449C140.91 10.0449 144.043 10.6324 146.244 11.6838C146.659 11.8815 146.831 12.3832 146.635 12.8005L145.108 16.0593C144.908 16.4868 144.397 16.6642 143.973 16.4592C141.945 15.4747 139.932 15.1345 138.054 15.1345C135.037 15.1345 133.743 16.0826 133.743 17.2895C133.743 21.2564 147.751 17.4189 147.751 26.5597C147.751 30.8713 143.742 33.9323 136.803 33.9323C133.27 33.9323 129.701 33.0569 127.452 31.8427C127.057 31.6289 126.892 31.1476 127.081 30.7404H127.084V30.739Z" fill="white"/>
<path d="M149.891 30.739L151.42 27.4424C151.625 27.0003 152.159 26.8273 152.589 27.057C154.621 28.1389 157.363 28.8427 159.87 28.8427C162.974 28.8427 164.137 28.0241 164.137 26.7299C164.137 22.936 150.129 26.8156 150.129 17.5469C150.129 13.1495 154.095 10.0449 160.862 10.0449C163.717 10.0449 166.849 10.6324 169.05 11.6838C169.466 11.8815 169.637 12.3832 169.441 12.8005L167.915 16.0593C167.714 16.4868 167.204 16.6642 166.78 16.4592C164.752 15.4747 162.738 15.1345 160.86 15.1345C157.844 15.1345 156.55 16.0826 156.55 17.2895C156.55 21.2564 170.558 17.4189 170.558 26.5597C170.558 30.8713 166.548 33.9323 159.61 33.9323C156.076 33.9323 152.507 33.0569 150.259 31.8427C149.863 31.6289 149.699 31.1476 149.888 30.7404H149.891V30.739Z" fill="white"/>
<path d="M198.073 20.6516V33.086C198.073 33.5528 197.695 33.9309 197.228 33.9309H192.193C191.726 33.9309 191.348 33.5528 191.348 33.086V21.6855C191.348 17.9338 189.624 16.2106 186.65 16.2106C183.417 16.2106 181.089 18.1941 181.089 22.462V33.086C181.089 33.5528 180.711 33.9309 180.245 33.9309H175.209C174.743 33.9309 174.365 33.5528 174.365 33.086V11.5791C174.365 11.1124 174.743 10.7343 175.209 10.7343H179.942C180.409 10.7343 180.787 11.1124 180.787 11.5791C180.787 12.264 181.562 12.6683 182.117 12.2684C183.821 11.0426 186.009 10.3896 188.46 10.3896C193.934 10.3896 198.071 13.5801 198.071 20.6516H198.073Z" fill="white"/>
<path d="M226.22 23.8855H210.619C210.001 23.8855 209.596 24.5268 209.853 25.0881C210.846 27.2577 213.076 28.5417 216.089 28.5417C218.247 28.5417 219.872 27.9761 221.317 26.8171C221.663 26.5394 222.164 26.5772 222.464 26.9029L224.948 29.5974C225.261 29.9363 225.243 30.4612 224.912 30.7811C222.773 32.8475 219.741 33.9308 215.916 33.9308C207.899 33.9308 202.685 28.8864 202.685 21.9879C202.685 15.0894 207.987 10.0449 215.054 10.0449C222.122 10.0449 227.123 14.6153 227.123 22.0737C227.123 22.3732 227.094 22.744 227.062 23.1134C227.022 23.5496 226.659 23.8841 226.22 23.8841V23.8855ZM210.44 19.9622H219.706C220.29 19.9622 220.695 19.3835 220.501 18.8324C219.702 16.5522 217.706 15.1345 215.096 15.1345C212.487 15.1345 210.44 16.5275 209.644 18.8353C209.453 19.3864 209.856 19.9637 210.44 19.9637V19.9622Z" fill="white"/>
<path d="M246 11.2598V15.6892C246 16.1763 245.59 16.5602 245.105 16.5326C244.906 16.521 244.706 16.5137 244.491 16.5137C240.784 16.5137 238.328 18.5408 238.328 22.9803V33.0867C238.328 33.5534 237.95 33.9315 237.483 33.9315H232.448C231.981 33.9315 231.603 33.5534 231.603 33.0867V11.5798C231.603 11.113 231.981 10.7349 232.448 10.7349H237.181C237.647 10.7349 238.025 11.113 238.025 11.5798V11.7092C238.025 12.4203 238.844 12.8071 239.401 12.365C240.856 11.2075 242.788 10.5488 245.103 10.4164C245.589 10.3888 245.999 10.7742 245.999 11.2598H246Z" fill="white"/>
<path d="M55.0664 47.3228V48.2171H48.1484V38.4307H54.8571V39.325H49.182V42.8062H54.2422V43.6874H49.182V47.3228H55.0664Z" fill="white"/>
<path d="M72.1587 43.9517V48.2153H71.1658V44.0492C71.1658 42.4976 70.3547 41.7007 68.9577 41.7007C67.379 41.7007 66.3862 42.6794 66.3862 44.3574V48.2168H65.3933V40.8631H66.344V42.2198C66.8746 41.3255 67.8675 40.8079 69.1394 40.8079C70.9289 40.8079 72.1587 41.8418 72.1587 43.9532V43.9517Z" fill="white"/>
<path d="M86.8335 47.7687C86.4425 48.1177 85.8552 48.2864 85.2824 48.2864C83.8985 48.2864 83.1295 47.504 83.1295 46.1473V41.702H81.8154V40.8629H83.1295V39.2546H84.1224V40.8629H86.3581V41.702H84.1224V46.0921C84.1224 46.9587 84.5701 47.4342 85.3944 47.4342C85.7999 47.4342 86.2055 47.3077 86.4846 47.0562L86.8335 47.7687Z" fill="white"/>
<path d="M100.446 40.8064V41.7705C100.361 41.7705 100.278 41.7559 100.209 41.7559C98.6707 41.7559 97.7346 42.7346 97.7346 44.4679V48.2153H96.7417V40.8616H97.6924V42.3013C98.1532 41.3226 99.0894 40.8049 100.446 40.8049V40.8064Z" fill="white"/>
<path d="M117.077 40.8628V48.2164H116.126V46.8743C115.609 47.7686 114.658 48.2862 113.485 48.2862C111.613 48.2862 110.383 47.2378 110.383 45.1264V40.8628H111.376V45.0289C111.376 46.5951 112.187 47.3919 113.584 47.3919C115.122 47.3919 116.086 46.3987 116.086 44.7221V40.8628H117.078H117.077ZM111.892 38.8066C111.892 38.4707 112.158 38.2061 112.492 38.2061C112.826 38.2061 113.092 38.4722 113.092 38.8066C113.092 39.1411 112.813 39.4072 112.492 39.4072C112.171 39.4072 111.892 39.1556 111.892 38.8066ZM114.379 38.8066C114.379 38.4707 114.658 38.2061 114.979 38.2061C115.301 38.2061 115.58 38.4722 115.58 38.8066C115.58 39.1411 115.314 39.4072 114.979 39.4072C114.645 39.4072 114.379 39.1556 114.379 38.8066Z" fill="white"/>
<path d="M140.094 43.952V48.2156H139.102V44.0494C139.102 42.4978 138.32 41.701 136.991 41.701C135.482 41.701 134.531 42.6796 134.531 44.3577V48.217H133.538V44.0509C133.538 42.4993 132.755 41.7024 131.415 41.7024C129.919 41.7024 128.955 42.6811 128.955 44.3591V48.2185H127.962V40.8648H128.913V42.207C129.43 41.3258 130.38 40.8096 131.611 40.8096C132.842 40.8096 133.777 41.3272 134.225 42.3611C134.755 41.4101 135.803 40.8096 137.132 40.8096C138.921 40.8096 140.094 41.8435 140.094 43.9549V43.952Z" fill="white"/>
<path d="M158.347 44.5394C158.347 46.7759 156.781 48.2868 154.685 48.2868C153.51 48.2868 152.504 47.7837 151.89 46.8326V50.929H150.897V40.8619H151.847V42.3161C152.448 41.3374 153.468 40.8066 154.685 40.8066C156.781 40.8066 158.347 42.3161 158.347 44.5394ZM157.355 44.5394C157.355 42.8337 156.168 41.6733 154.615 41.6733C153.063 41.6733 151.876 42.8337 151.876 44.5394C151.876 46.2452 153.051 47.4056 154.615 47.4056C156.179 47.4056 157.355 46.2597 157.355 44.5394Z" fill="white"/>
<path d="M174.881 44.8477H168.732C168.844 46.3862 170.018 47.407 171.624 47.407C172.518 47.407 173.315 47.0857 173.875 46.4415L174.434 47.0842C173.777 47.868 172.757 48.2868 171.597 48.2868C169.304 48.2868 167.739 46.7207 167.739 44.5394C167.739 42.3582 169.262 40.8066 171.331 40.8066C173.399 40.8066 174.895 42.3306 174.895 44.5394C174.895 44.6238 174.881 44.7358 174.881 44.8477ZM168.73 44.1061H173.943C173.817 42.6665 172.768 41.6588 171.329 41.6588C169.89 41.6588 168.855 42.665 168.73 44.1061Z" fill="white"/>
<path d="M185.026 37.8428H186.019V48.2167H185.026V37.8428Z" fill="white"/>
<path d="M203.517 40.863V48.2167H202.566V46.8745C202.048 47.7688 201.098 48.2865 199.925 48.2865C198.052 48.2865 196.823 47.238 196.823 45.1266V40.863H197.815V45.0292C197.815 46.5953 198.627 47.3922 200.023 47.3922C201.561 47.3922 202.525 46.399 202.525 44.7224V40.863H203.518H203.517Z" fill="white"/>
<path d="M221.168 43.9517V48.2153H220.176V44.0492C220.176 42.4976 219.364 41.7007 217.967 41.7007C216.389 41.7007 215.396 42.6794 215.396 44.3574V48.2168H214.403V40.8631H215.354V42.2198C215.884 41.3255 216.877 40.8079 218.149 40.8079C219.939 40.8079 221.168 41.8418 221.168 43.9532V43.9517Z" fill="white"/>
<path d="M238.806 40.8634V47.3227C238.806 49.8529 237.561 51.0003 235.129 51.0003C233.788 51.0003 232.474 50.5946 231.705 49.8675L232.208 49.1128C232.907 49.7424 233.968 50.119 235.1 50.119C236.96 50.119 237.811 49.2655 237.811 47.4492V46.5127C237.197 47.4492 236.148 47.9393 234.946 47.9393C232.85 47.9393 231.257 46.4706 231.257 44.3606C231.257 42.2506 232.85 40.8096 234.946 40.8096C236.176 40.8096 237.239 41.3127 237.854 42.2768V40.8648H238.806V40.8634ZM237.841 44.3577C237.841 42.7639 236.666 41.6733 235.045 41.6733C233.424 41.6733 232.264 42.7639 232.264 44.3577C232.264 45.9514 233.424 47.0566 235.045 47.0566C236.666 47.0566 237.841 45.9529 237.841 44.3577Z" fill="white"/>
</g>
<defs>
<clipPath id="clip0_1550_434">
<rect width="246" height="51" fill="white"/>
</clipPath>
</defs>
</svg>
