<svg width="17" height="17" viewBox="0 0 17 17" fill="none" xmlns="http://www.w3.org/2000/svg">
<g clip-path="url(#clip0_978_3024)">
<path d="M16.4567 15.4843L12.4106 11.2762C13.451 10.0396 14.0209 8.48359 14.0209 6.86374C14.0209 3.07913 10.9418 0 7.1572 0C3.37259 0 0.293457 3.07913 0.293457 6.86374C0.293457 10.6484 3.37259 13.7275 7.1572 13.7275C8.578 13.7275 9.93194 13.299 11.0895 12.4854L15.1663 16.7255C15.3367 16.9024 15.5659 17 15.8115 17C16.044 17 16.2645 16.9114 16.4319 16.7502C16.7876 16.4079 16.799 15.8403 16.4567 15.4843ZM7.1572 1.79054C9.95462 1.79054 12.2304 4.06632 12.2304 6.86374C12.2304 9.66117 9.95462 11.9369 7.1572 11.9369C4.35978 11.9369 2.084 9.66117 2.084 6.86374C2.084 4.06632 4.35978 1.79054 7.1572 1.79054Z" fill="#929292"/>
</g>
<defs>
<clipPath id="clip0_978_3024">
<rect width="17" height="17" fill="white"/>
</clipPath>
</defs>
</svg>
