<svg width="62" height="63" viewBox="0 0 62 63" fill="none" xmlns="http://www.w3.org/2000/svg">
<path d="M24.1417 57.0694C24.1417 57.6046 23.7166 58.0433 23.1814 58.0433C22.6462 58.0433 22.2075 57.6046 22.2075 57.0694V44.8729C22.2075 44.0503 22.5638 43.3091 23.1402 42.7744C23.703 42.2533 24.4578 41.9377 25.2944 41.9377H36.6397C37.4764 41.9377 38.2447 42.2528 38.793 42.7744C39.3688 43.3096 39.7266 44.0503 39.7266 44.8729V57.0694C39.7266 57.6046 39.301 58.0433 38.7658 58.0433C38.2306 58.0433 37.7919 57.6046 37.7919 57.0694V44.8729C37.7919 44.6126 37.6819 44.3654 37.4899 44.1875C37.2708 43.9955 36.9824 43.8719 36.6397 43.8719H31.9337V57.0699C31.9337 57.605 31.509 58.0438 30.9738 58.0438C30.4392 58.0438 30 57.605 30 57.0699V43.8714H25.2944C24.9653 43.8714 24.6769 43.9955 24.4578 44.187C24.2658 44.3649 24.1422 44.6121 24.1422 44.8725L24.1417 57.0694Z" fill="black"/>
<path d="M21.4122 28.932H27.7499C28.2851 28.932 28.7102 29.3576 28.7102 29.8923V35.7918C28.7102 36.327 28.2851 36.7511 27.7499 36.7511H21.4122C20.877 36.7511 20.4519 36.3265 20.4519 35.7918V29.8923C20.4514 29.3576 20.877 28.932 21.4122 28.932ZM21.4122 17.2024H27.7499C28.2851 17.2024 28.7102 17.628 28.7102 18.1627V24.0617C28.7102 24.5969 28.2851 25.022 27.7499 25.022H21.4122C20.877 25.022 20.4519 24.5964 20.4519 24.0617V18.1632C20.4514 17.628 20.877 17.2024 21.4122 17.2024ZM26.776 19.1375H22.3861V23.0878H26.776V19.1375ZM37.3665 23.0878C37.9017 23.0878 38.3263 23.527 38.3263 24.0622C38.3263 24.5973 37.9012 25.0225 37.3665 25.0225H34.1976C33.6625 25.0225 33.2233 24.5969 33.2233 24.0622V18.1632C33.2233 17.628 33.662 17.2029 34.1976 17.2029C34.7328 17.2029 35.1579 17.6285 35.1579 18.1632V23.0878H37.3665ZM34.1976 28.932H40.5218C41.0569 28.932 41.4956 29.3576 41.4956 29.8923V35.7918C41.4956 36.327 41.0569 36.7511 40.5218 36.7511H34.1976C33.6625 36.7511 33.2233 36.3265 33.2233 35.7918V29.8923C33.2233 29.3576 33.6625 28.932 34.1976 28.932ZM39.5619 30.8667H35.1584V34.8174H39.5619V30.8667ZM26.776 30.8667H22.3861V34.8174H26.776V30.8667Z" fill="black"/>
<path d="M47.271 29.7146C46.9971 30.1673 46.4076 30.3317 45.9544 30.0573C45.8031 29.9613 45.68 29.8382 45.5976 29.701L37.284 15.6116C36.8584 14.8844 36.5021 13.9518 36.283 13.1286C36.0629 12.2779 35.9534 11.4005 35.9534 10.4945C35.9534 7.59952 37.1197 4.9799 39.0262 3.07238C40.9197 1.1799 43.5398 0 46.4483 0C49.3428 0 51.9629 1.1799 53.8699 3.07287C55.7629 4.98038 56.9433 7.6 56.9433 10.495C56.9433 11.4005 56.8197 12.2784 56.6006 13.1291C56.3805 14.0075 56.0373 14.8301 55.6126 15.5985L47.271 29.7146ZM46.4483 27.3271L53.9383 14.6372C54.2815 14.0201 54.5559 13.3477 54.7343 12.6482C54.9122 11.9618 55.0081 11.2488 55.0081 10.4945C55.0081 8.13469 54.0488 5.99497 52.4981 4.44473C50.9478 2.89496 48.8076 1.93418 46.4483 1.93418C44.075 1.93418 41.9348 2.89448 40.385 4.44473C38.8478 5.99497 37.888 8.13469 37.888 10.4945C37.888 11.2492 37.9835 11.9618 38.1488 12.6482C38.3267 13.3337 38.6011 13.9925 38.9303 14.6096L46.4483 27.3271Z" fill="black"/>
<path d="M46.4481 4.89746C47.9847 4.89746 49.3837 5.5291 50.3983 6.54369C51.4139 7.5452 52.0451 8.9442 52.0451 10.4945C52.0451 12.0442 51.4134 13.4442 50.3983 14.4593C49.3833 15.4608 47.9847 16.0914 46.4481 16.0914C44.8978 16.0914 43.4983 15.4608 42.4832 14.4593C41.4682 13.4442 40.8511 12.0447 40.8511 10.4945C40.8511 8.9442 41.4682 7.5452 42.4832 6.54369C43.4983 5.52861 44.8973 4.89746 46.4481 4.89746ZM49.027 7.90198C48.3682 7.24368 47.4496 6.83212 46.4481 6.83212C45.433 6.83212 44.5134 7.24368 43.8551 7.90198C43.1963 8.57433 42.7852 9.47937 42.7852 10.4949C42.7852 11.51 43.1963 12.4291 43.8551 13.0879C44.5129 13.7462 45.433 14.1577 46.4481 14.1577C47.4496 14.1577 48.3682 13.7462 49.027 13.0879C49.6988 12.4296 50.1104 11.51 50.1104 10.4949C50.1104 9.47937 49.6988 8.57433 49.027 7.90198Z" fill="black"/>
<path d="M50.9197 47.1231C50.3845 47.1231 49.9604 46.6844 49.9604 46.1493C49.9604 45.6141 50.385 45.1885 50.9197 45.1885H54.4318C55.6393 45.1885 56.7096 45.8885 57.176 46.9995L61.7167 58.0568C61.9086 58.5231 61.977 58.99 61.9222 59.4563C61.8262 60.403 61.1946 61.2804 60.3579 61.7196C59.9328 61.9392 59.4664 62.0493 58.9729 62.0493H2.97445C2.48048 62.0493 2.01415 61.9392 1.58901 61.7196C0.738269 61.2804 0.121174 60.403 0.0116197 59.4563C-0.0295846 58.99 0.038766 58.5231 0.217156 58.0568L4.77192 46.9995C5.23826 45.8885 6.30811 45.1885 7.51564 45.1885H11.0001C11.5352 45.1885 11.9604 45.6146 11.9604 46.1493C11.9604 46.6839 11.5352 47.1231 11.0001 47.1231H7.51564C7.09051 47.1231 6.71967 47.3287 6.55534 47.7402L2.01463 58.797C1.94579 58.9488 1.91865 59.099 1.93222 59.2503C1.97343 59.5658 2.19302 59.8538 2.46739 60.005C2.61815 60.0739 2.78248 60.1151 2.97493 60.1151H58.9739C59.1659 60.1151 59.3302 60.0739 59.4679 60.005C59.7563 59.8538 59.9754 59.5663 60.003 59.2503C60.0166 59.099 60.003 58.9488 59.9342 58.797L55.3935 47.7402C55.2287 47.3282 54.8583 47.1231 54.4332 47.1231H50.9197Z" fill="black"/>
<path d="M45.4742 33.8709C45.4742 33.3357 45.9129 32.8965 46.4481 32.8965C46.9833 32.8965 47.4084 33.3357 47.4084 33.8709V57.0688C47.4084 57.604 46.9828 58.0427 46.4481 58.0427H15.4989C14.9637 58.0427 14.5386 57.604 14.5386 57.0688V14.6653C14.5386 13.8422 14.8954 13.101 15.4717 12.5663C16.0205 12.0447 16.7888 11.7156 17.6255 11.7156H32.8939C33.429 11.7156 33.8541 12.1543 33.8541 12.6899C33.8541 13.2251 33.4285 13.6638 32.8939 13.6638H17.6255C17.2823 13.6638 16.9943 13.7738 16.7752 13.9794C16.5833 14.1573 16.4732 14.4045 16.4732 14.6653V56.1081H45.4747L45.4742 33.8709Z" fill="black"/>
</svg>
