<?xml version="1.0" encoding="iso-8859-1"?>
<!-- Generator: Adobe Illustrator 18.0.0, SVG Export Plug-In . SVG Version: 6.00 Build 0)  -->
<!DOCTYPE svg PUBLIC "-//W3C//DTD SVG 1.1//EN" "http://www.w3.org/Graphics/SVG/1.1/DTD/svg11.dtd">
<svg version="1.1" id="Capa_1" xmlns="http://www.w3.org/2000/svg" xmlns:xlink="http://www.w3.org/1999/xlink" x="0px" y="0px"
	 viewBox="0 0 482.026 482.026" style="enable-background:new 0 0 482.026 482.026;" xml:space="preserve">
<path d="M476.642,108.558c-3.385-2.454-7.759-3.171-11.741-1.896l-93.813,29.983L247.395,74.799
	c-3.625-1.816-7.886-1.848-11.559-0.096l-123.964,59.536l-93.32-42.33c-4.07-1.849-8.802-1.497-12.537,0.924
	C2.263,95.256,0,99.414,0,103.874v244.71c0,5.145,3.011,9.829,7.702,11.965l98.904,44.863c3.561,1.608,7.615,1.545,11.112-0.128
	l123.685-59.409l122.72,61.353c1.84,0.925,3.849,1.387,5.871,1.387c1.347,0,2.692-0.207,3.999-0.622l98.903-31.607
	c5.441-1.736,9.129-6.787,9.129-12.507v-244.71C482.026,114.978,480.026,111.044,476.642,108.558z M125.159,157.006l103.236-49.595
	v215.571L125.159,372.56V157.006z M254.651,107.793l102.217,51.094v215.362l-102.217-51.108V107.793z M26.255,124.25l72.648,32.963
	v215.858l-72.648-32.948V124.25z M455.771,354.287l-72.646,23.228V160.367l72.646-23.213V354.287z"/>
<g>
</g>
<g>
</g>
<g>
</g>
<g>
</g>
<g>
</g>
<g>
</g>
<g>
</g>
<g>
</g>
<g>
</g>
<g>
</g>
<g>
</g>
<g>
</g>
<g>
</g>
<g>
</g>
<g>
</g>
</svg>
