<svg width="40" height="40" viewBox="0 0 40 40" fill="none" xmlns="http://www.w3.org/2000/svg">
<path d="M21.7969 7.74337C21.7969 8.71369 22.5904 9.5 23.5693 9.5H33.68C34.6589 9.5 35.4531 8.71297 35.4531 7.74337V3.35037C35.4531 2.38078 34.6596 1.59375 33.68 1.59375H23.5693C22.5904 1.59375 21.7969 2.38078 21.7969 3.35037V7.74337Z" stroke="black" stroke-width="2" stroke-miterlimit="10" stroke-linecap="round" stroke-linejoin="round"/>
<path d="M18.2031 7.74337C18.2031 8.71369 17.4096 9.5 16.4307 9.5H6.32003C5.34109 9.5 4.54688 8.71297 4.54688 7.74337V3.35037C4.54688 2.38078 5.34037 1.59375 6.32003 1.59375H16.4307C17.4096 1.59375 18.2031 2.38078 18.2031 3.35037V7.74337Z" stroke="black" stroke-width="2" stroke-miterlimit="10" stroke-linecap="round" stroke-linejoin="round"/>
<path d="M18.2031 4.10938H21.7969" stroke="black" stroke-width="2" stroke-miterlimit="10" stroke-linecap="round" stroke-linejoin="round"/>
<path d="M1.3125 16.4942V5.86312C1.3125 4.89281 2.10384 4.10938 3.07703 4.10938H4.54688" stroke="black" stroke-width="2" stroke-miterlimit="10" stroke-linejoin="round"/>
<path d="M38.6875 12.375V37.215C38.6875 38.1853 37.8962 38.9688 36.923 38.9688H3.07703C2.10384 38.9688 1.3125 38.1853 1.3125 37.215V18.6504" stroke="black" stroke-width="2" stroke-miterlimit="10" stroke-linecap="round" stroke-linejoin="round"/>
<path d="M35.4531 4.10938H36.923C37.8962 4.10938 38.6875 4.89281 38.6875 5.86312V10.2188" stroke="black" stroke-width="2" stroke-miterlimit="10" stroke-linejoin="round"/>
<path d="M38.6875 12.375L1.3125 18.6511L5.90962 25.4038C6.93025 26.7004 8.69334 27.1158 10.1718 26.4072L38.6875 12.375Z" stroke="black" stroke-width="2" stroke-miterlimit="10" stroke-linecap="round" stroke-linejoin="round"/>
</svg>
