<svg width="207" height="101" viewBox="0 0 207 101" fill="none" xmlns="http://www.w3.org/2000/svg">
<path d="M68.63 53.66C65.9533 53.66 63.295 53.3117 60.655 52.615C58.015 51.8817 55.7783 50.855 53.945 49.535L57.41 42.715C58.8767 43.7783 60.5817 44.6217 62.525 45.245C64.4683 45.8683 66.43 46.18 68.41 46.18C70.6467 46.18 72.4067 45.74 73.69 44.86C74.9733 43.98 75.615 42.77 75.615 41.23C75.615 39.7633 75.0467 38.6083 73.91 37.765C72.7733 36.9217 70.94 36.5 68.41 36.5H64.34V30.615L75.065 18.46L76.055 21.65H55.87V14.5H82.82V20.275L72.15 32.43L67.64 29.845H70.225C74.955 29.845 78.53 30.9083 80.95 33.035C83.37 35.1617 84.58 37.8933 84.58 41.23C84.58 43.3933 84.0117 45.4283 82.875 47.335C81.7383 49.205 79.9967 50.7267 77.65 51.9C75.3033 53.0733 72.2967 53.66 68.63 53.66ZM88.2538 44.915V38.92L106.404 14.5H115.754L97.9888 38.92L93.6438 37.655H123.949V44.915H88.2538ZM108.989 53V44.915L109.264 37.655V30.45H117.679V53H108.989ZM137.931 46.455V21.045H145.026V46.455H137.931ZM128.416 37.105V30.395H154.596V37.105H128.416Z" fill="#2A343F"/>
<path d="M6.32 96V90.46L6.9 92.06L0.82 82H3.6L8.48 90.1H6.92L11.84 82H14.4L8.32 92.06L8.92 90.46V96H6.32ZM19.6913 96.14C18.5046 96.14 17.4646 95.9067 16.5713 95.44C15.6913 94.96 15.0046 94.3067 14.5113 93.48C14.0313 92.6533 13.7913 91.7133 13.7913 90.66C13.7913 89.5933 14.0246 88.6533 14.4913 87.84C14.9713 87.0133 15.6246 86.3667 16.4513 85.9C17.2913 85.4333 18.2446 85.2 19.3113 85.2C20.3513 85.2 21.2779 85.4267 22.0913 85.88C22.9046 86.3333 23.5446 86.9733 24.0113 87.8C24.4779 88.6267 24.7113 89.6 24.7113 90.72C24.7113 90.8267 24.7046 90.9467 24.6913 91.08C24.6913 91.2133 24.6846 91.34 24.6713 91.46H15.7713V89.8H23.3513L22.3713 90.32C22.3846 89.7067 22.2579 89.1667 21.9913 88.7C21.7246 88.2333 21.3579 87.8667 20.8913 87.6C20.4379 87.3333 19.9113 87.2 19.3113 87.2C18.6979 87.2 18.1579 87.3333 17.6913 87.6C17.2379 87.8667 16.8779 88.24 16.6113 88.72C16.3579 89.1867 16.2313 89.74 16.2313 90.38V90.78C16.2313 91.42 16.3779 91.9867 16.6713 92.48C16.9646 92.9733 17.3779 93.3533 17.9113 93.62C18.4446 93.8867 19.0579 94.02 19.7513 94.02C20.3513 94.02 20.8913 93.9267 21.3713 93.74C21.8513 93.5533 22.2779 93.26 22.6513 92.86L23.9913 94.4C23.5113 94.96 22.9046 95.3933 22.1713 95.7C21.4513 95.9933 20.6246 96.14 19.6913 96.14ZM33.3997 96V93.84L33.2597 93.38V89.6C33.2597 88.8667 33.0397 88.3 32.5997 87.9C32.1597 87.4867 31.493 87.28 30.5997 87.28C29.9997 87.28 29.4064 87.3733 28.8197 87.56C28.2464 87.7467 27.7597 88.0067 27.3597 88.34L26.3797 86.52C26.953 86.08 27.633 85.7533 28.4197 85.54C29.2197 85.3133 30.0464 85.2 30.8997 85.2C32.4464 85.2 33.6397 85.5733 34.4797 86.32C35.333 87.0533 35.7597 88.1933 35.7597 89.74V96H33.3997ZM30.0397 96.14C29.2397 96.14 28.5397 96.0067 27.9397 95.74C27.3397 95.46 26.873 95.08 26.5397 94.6C26.2197 94.1067 26.0597 93.5533 26.0597 92.94C26.0597 92.34 26.1997 91.8 26.4797 91.32C26.773 90.84 27.2464 90.46 27.8997 90.18C28.553 89.9 29.4197 89.76 30.4997 89.76H33.5997V91.42H30.6797C29.8264 91.42 29.253 91.56 28.9597 91.84C28.6664 92.1067 28.5197 92.44 28.5197 92.84C28.5197 93.2933 28.6997 93.6533 29.0597 93.92C29.4197 94.1867 29.9197 94.32 30.5597 94.32C31.173 94.32 31.7197 94.18 32.1997 93.9C32.693 93.62 33.0464 93.2067 33.2597 92.66L33.6797 94.16C33.4397 94.7867 33.0064 95.2733 32.3797 95.62C31.7664 95.9667 30.9864 96.14 30.0397 96.14ZM38.9681 96V85.32H41.3481V88.26L41.0681 87.4C41.3881 86.68 41.8881 86.1333 42.5681 85.76C43.2615 85.3867 44.1215 85.2 45.1481 85.2V87.58C45.0415 87.5533 44.9415 87.54 44.8481 87.54C44.7548 87.5267 44.6615 87.52 44.5681 87.52C43.6215 87.52 42.8681 87.8 42.3081 88.36C41.7481 88.9067 41.4681 89.7267 41.4681 90.82V96H38.9681ZM50.6666 96.14C49.7732 96.14 48.9132 96.0267 48.0866 95.8C47.2732 95.56 46.6266 95.2733 46.1466 94.94L47.1066 93.04C47.5866 93.3467 48.1599 93.6 48.8266 93.8C49.4932 94 50.1599 94.1 50.8266 94.1C51.6132 94.1 52.1799 93.9933 52.5266 93.78C52.8866 93.5667 53.0666 93.28 53.0666 92.92C53.0666 92.6267 52.9466 92.4067 52.7066 92.26C52.4666 92.1 52.1532 91.98 51.7666 91.9C51.3799 91.82 50.9466 91.7467 50.4666 91.68C49.9999 91.6133 49.5266 91.5267 49.0466 91.42C48.5799 91.3 48.1532 91.1333 47.7666 90.92C47.3799 90.6933 47.0666 90.3933 46.8266 90.02C46.5866 89.6467 46.4666 89.1533 46.4666 88.54C46.4666 87.86 46.6599 87.2733 47.0466 86.78C47.4332 86.2733 47.9732 85.8867 48.6666 85.62C49.3732 85.34 50.2066 85.2 51.1666 85.2C51.8866 85.2 52.6132 85.28 53.3466 85.44C54.0799 85.6 54.6866 85.8267 55.1666 86.12L54.2066 88.02C53.6999 87.7133 53.1866 87.5067 52.6666 87.4C52.1599 87.28 51.6532 87.22 51.1466 87.22C50.3866 87.22 49.8199 87.3333 49.4466 87.56C49.0866 87.7867 48.9066 88.0733 48.9066 88.42C48.9066 88.74 49.0266 88.98 49.2666 89.14C49.5066 89.3 49.8199 89.4267 50.2066 89.52C50.5932 89.6133 51.0199 89.6933 51.4866 89.76C51.9666 89.8133 52.4399 89.9 52.9066 90.02C53.3732 90.14 53.7999 90.3067 54.1866 90.52C54.5866 90.72 54.9066 91.0067 55.1466 91.38C55.3866 91.7533 55.5066 92.24 55.5066 92.84C55.5066 93.5067 55.3066 94.0867 54.9066 94.58C54.5199 95.0733 53.9666 95.46 53.2466 95.74C52.5266 96.0067 51.6666 96.14 50.6666 96.14ZM69.9869 96.2C68.8935 96.2 67.8869 96.02 66.9669 95.66C66.0469 95.3 65.2469 94.8 64.5669 94.16C63.8869 93.5067 63.3602 92.7467 62.9869 91.88C62.6135 91 62.4269 90.04 62.4269 89C62.4269 87.96 62.6135 87.0067 62.9869 86.14C63.3602 85.26 63.8869 84.5 64.5669 83.86C65.2469 83.2067 66.0469 82.7 66.9669 82.34C67.8869 81.98 68.8869 81.8 69.9669 81.8C71.0602 81.8 72.0602 81.98 72.9669 82.34C73.8869 82.7 74.6869 83.2067 75.3669 83.86C76.0469 84.5 76.5735 85.26 76.9469 86.14C77.3202 87.0067 77.5069 87.96 77.5069 89C77.5069 90.04 77.3202 91 76.9469 91.88C76.5735 92.76 76.0469 93.52 75.3669 94.16C74.6869 94.8 73.8869 95.3 72.9669 95.66C72.0602 96.02 71.0669 96.2 69.9869 96.2ZM69.9669 93.92C70.6735 93.92 71.3269 93.8 71.9269 93.56C72.5269 93.32 73.0469 92.98 73.4869 92.54C73.9269 92.0867 74.2669 91.5667 74.5069 90.98C74.7602 90.38 74.8869 89.72 74.8869 89C74.8869 88.28 74.7602 87.6267 74.5069 87.04C74.2669 86.44 73.9269 85.92 73.4869 85.48C73.0469 85.0267 72.5269 84.68 71.9269 84.44C71.3269 84.2 70.6735 84.08 69.9669 84.08C69.2602 84.08 68.6069 84.2 68.0069 84.44C67.4202 84.68 66.9002 85.0267 66.4469 85.48C66.0069 85.92 65.6602 86.44 65.4069 87.04C65.1669 87.6267 65.0469 88.28 65.0469 89C65.0469 89.7067 65.1669 90.36 65.4069 90.96C65.6602 91.56 66.0069 92.0867 66.4469 92.54C66.8869 92.98 67.4069 93.32 68.0069 93.56C68.6069 93.8 69.2602 93.92 69.9669 93.92ZM80.3628 96V84.72C80.3628 83.6 80.6895 82.7067 81.3428 82.04C82.0095 81.36 82.9561 81.02 84.1828 81.02C84.6228 81.02 85.0361 81.0667 85.4228 81.16C85.8228 81.2533 86.1561 81.4 86.4228 81.6L85.7428 83.48C85.5561 83.3333 85.3428 83.2267 85.1028 83.16C84.8628 83.08 84.6161 83.04 84.3628 83.04C83.8428 83.04 83.4495 83.1867 83.1828 83.48C82.9161 83.76 82.7828 84.1867 82.7828 84.76V85.96L82.8628 87.08V96H80.3628ZM78.6028 87.4V85.4H85.7228V87.4H78.6028ZM95.573 87.82H102.533V89.96H95.573V87.82ZM95.773 93.82H103.673V96H93.173V82H103.393V84.18H95.773V93.82ZM104.696 96L109.396 89.88L109.356 91.22L104.876 85.32H107.656L110.796 89.52H109.736L112.896 85.32H115.596L111.076 91.22L111.096 89.88L115.776 96H112.956L109.656 91.54L110.696 91.68L107.456 96H104.696ZM123.54 96.14C122.674 96.14 121.88 95.94 121.16 95.54C120.454 95.14 119.887 94.54 119.46 93.74C119.047 92.9267 118.84 91.9 118.84 90.66C118.84 89.4067 119.04 88.38 119.44 87.58C119.854 86.78 120.414 86.1867 121.12 85.8C121.827 85.4 122.634 85.2 123.54 85.2C124.594 85.2 125.52 85.4267 126.32 85.88C127.134 86.3333 127.774 86.9667 128.24 87.78C128.72 88.5933 128.96 89.5533 128.96 90.66C128.96 91.7667 128.72 92.7333 128.24 93.56C127.774 94.3733 127.134 95.0067 126.32 95.46C125.52 95.9133 124.594 96.14 123.54 96.14ZM117.62 99.88V85.32H120V87.84L119.92 90.68L120.12 93.52V99.88H117.62ZM123.26 94C123.86 94 124.394 93.8667 124.86 93.6C125.34 93.3333 125.72 92.9467 126 92.44C126.28 91.9333 126.42 91.34 126.42 90.66C126.42 89.9667 126.28 89.3733 126 88.88C125.72 88.3733 125.34 87.9867 124.86 87.72C124.394 87.4533 123.86 87.32 123.26 87.32C122.66 87.32 122.12 87.4533 121.64 87.72C121.16 87.9867 120.78 88.3733 120.5 88.88C120.22 89.3733 120.08 89.9667 120.08 90.66C120.08 91.34 120.22 91.9333 120.5 92.44C120.78 92.9467 121.16 93.3333 121.64 93.6C122.12 93.8667 122.66 94 123.26 94ZM136.351 96.14C135.165 96.14 134.125 95.9067 133.231 95.44C132.351 94.96 131.665 94.3067 131.171 93.48C130.691 92.6533 130.451 91.7133 130.451 90.66C130.451 89.5933 130.685 88.6533 131.151 87.84C131.631 87.0133 132.285 86.3667 133.111 85.9C133.951 85.4333 134.905 85.2 135.971 85.2C137.011 85.2 137.938 85.4267 138.751 85.88C139.565 86.3333 140.205 86.9733 140.671 87.8C141.138 88.6267 141.371 89.6 141.371 90.72C141.371 90.8267 141.365 90.9467 141.351 91.08C141.351 91.2133 141.345 91.34 141.331 91.46H132.431V89.8H140.011L139.031 90.32C139.045 89.7067 138.918 89.1667 138.651 88.7C138.385 88.2333 138.018 87.8667 137.551 87.6C137.098 87.3333 136.571 87.2 135.971 87.2C135.358 87.2 134.818 87.3333 134.351 87.6C133.898 87.8667 133.538 88.24 133.271 88.72C133.018 89.1867 132.891 89.74 132.891 90.38V90.78C132.891 91.42 133.038 91.9867 133.331 92.48C133.625 92.9733 134.038 93.3533 134.571 93.62C135.105 93.8867 135.718 94.02 136.411 94.02C137.011 94.02 137.551 93.9267 138.031 93.74C138.511 93.5533 138.938 93.26 139.311 92.86L140.651 94.4C140.171 94.96 139.565 95.3933 138.831 95.7C138.111 95.9933 137.285 96.14 136.351 96.14ZM143.773 96V85.32H146.153V88.26L145.873 87.4C146.193 86.68 146.693 86.1333 147.373 85.76C148.066 85.3867 148.926 85.2 149.953 85.2V87.58C149.846 87.5533 149.746 87.54 149.653 87.54C149.559 87.5267 149.466 87.52 149.373 87.52C148.426 87.52 147.673 87.8 147.113 88.36C146.553 88.9067 146.273 89.7267 146.273 90.82V96H143.773ZM152.074 96V85.32H154.574V96H152.074ZM153.334 83.56C152.867 83.56 152.48 83.4133 152.174 83.12C151.88 82.8267 151.734 82.4733 151.734 82.06C151.734 81.6333 151.88 81.28 152.174 81C152.48 80.7067 152.867 80.56 153.334 80.56C153.8 80.56 154.18 80.7 154.474 80.98C154.78 81.2467 154.934 81.5867 154.934 82C154.934 82.44 154.787 82.8133 154.494 83.12C154.2 83.4133 153.814 83.56 153.334 83.56ZM162.875 96.14C161.688 96.14 160.648 95.9067 159.755 95.44C158.875 94.96 158.188 94.3067 157.695 93.48C157.215 92.6533 156.975 91.7133 156.975 90.66C156.975 89.5933 157.208 88.6533 157.675 87.84C158.155 87.0133 158.808 86.3667 159.635 85.9C160.475 85.4333 161.428 85.2 162.495 85.2C163.535 85.2 164.462 85.4267 165.275 85.88C166.088 86.3333 166.728 86.9733 167.195 87.8C167.662 88.6267 167.895 89.6 167.895 90.72C167.895 90.8267 167.888 90.9467 167.875 91.08C167.875 91.2133 167.868 91.34 167.855 91.46H158.955V89.8H166.535L165.555 90.32C165.568 89.7067 165.442 89.1667 165.175 88.7C164.908 88.2333 164.542 87.8667 164.075 87.6C163.622 87.3333 163.095 87.2 162.495 87.2C161.882 87.2 161.342 87.3333 160.875 87.6C160.422 87.8667 160.062 88.24 159.795 88.72C159.542 89.1867 159.415 89.74 159.415 90.38V90.78C159.415 91.42 159.562 91.9867 159.855 92.48C160.148 92.9733 160.562 93.3533 161.095 93.62C161.628 93.8867 162.242 94.02 162.935 94.02C163.535 94.02 164.075 93.9267 164.555 93.74C165.035 93.5533 165.462 93.26 165.835 92.86L167.175 94.4C166.695 94.96 166.088 95.3933 165.355 95.7C164.635 95.9933 163.808 96.14 162.875 96.14ZM176.356 85.2C177.21 85.2 177.97 85.3667 178.636 85.7C179.316 86.0333 179.85 86.5467 180.236 87.24C180.623 87.92 180.816 88.8 180.816 89.88V96H178.316V90.2C178.316 89.2533 178.09 88.5467 177.636 88.08C177.196 87.6133 176.576 87.38 175.776 87.38C175.19 87.38 174.67 87.5 174.216 87.74C173.763 87.98 173.41 88.34 173.156 88.82C172.916 89.2867 172.796 89.88 172.796 90.6V96H170.296V85.32H172.676V88.2L172.256 87.32C172.63 86.64 173.17 86.12 173.876 85.76C174.596 85.3867 175.423 85.2 176.356 85.2ZM188.907 96.14C187.787 96.14 186.787 95.9067 185.907 95.44C185.041 94.96 184.361 94.3067 183.867 93.48C183.374 92.6533 183.127 91.7133 183.127 90.66C183.127 89.5933 183.374 88.6533 183.867 87.84C184.361 87.0133 185.041 86.3667 185.907 85.9C186.787 85.4333 187.787 85.2 188.907 85.2C189.947 85.2 190.861 85.4133 191.647 85.84C192.447 86.2533 193.054 86.8667 193.467 87.68L191.547 88.8C191.227 88.2933 190.834 87.92 190.367 87.68C189.914 87.44 189.421 87.32 188.887 87.32C188.274 87.32 187.721 87.4533 187.227 87.72C186.734 87.9867 186.347 88.3733 186.067 88.88C185.787 89.3733 185.647 89.9667 185.647 90.66C185.647 91.3533 185.787 91.9533 186.067 92.46C186.347 92.9533 186.734 93.3333 187.227 93.6C187.721 93.8667 188.274 94 188.887 94C189.421 94 189.914 93.88 190.367 93.64C190.834 93.4 191.227 93.0267 191.547 92.52L193.467 93.64C193.054 94.44 192.447 95.06 191.647 95.5C190.861 95.9267 189.947 96.14 188.907 96.14ZM200.492 96.14C199.305 96.14 198.265 95.9067 197.372 95.44C196.492 94.96 195.805 94.3067 195.312 93.48C194.832 92.6533 194.592 91.7133 194.592 90.66C194.592 89.5933 194.825 88.6533 195.292 87.84C195.772 87.0133 196.425 86.3667 197.252 85.9C198.092 85.4333 199.045 85.2 200.112 85.2C201.152 85.2 202.079 85.4267 202.892 85.88C203.705 86.3333 204.345 86.9733 204.812 87.8C205.279 88.6267 205.512 89.6 205.512 90.72C205.512 90.8267 205.505 90.9467 205.492 91.08C205.492 91.2133 205.485 91.34 205.472 91.46H196.572V89.8H204.152L203.172 90.32C203.185 89.7067 203.059 89.1667 202.792 88.7C202.525 88.2333 202.159 87.8667 201.692 87.6C201.239 87.3333 200.712 87.2 200.112 87.2C199.499 87.2 198.959 87.3333 198.492 87.6C198.039 87.8667 197.679 88.24 197.412 88.72C197.159 89.1867 197.032 89.74 197.032 90.38V90.78C197.032 91.42 197.179 91.9867 197.472 92.48C197.765 92.9733 198.179 93.3533 198.712 93.62C199.245 93.8867 199.859 94.02 200.552 94.02C201.152 94.02 201.692 93.9267 202.172 93.74C202.652 93.5533 203.079 93.26 203.452 92.86L204.792 94.4C204.312 94.96 203.705 95.3933 202.972 95.7C202.252 95.9933 201.425 96.14 200.492 96.14Z" fill="#2A343F"/>
</svg>
