<svg width="81" height="79" viewBox="0 0 81 79" fill="none" xmlns="http://www.w3.org/2000/svg">
<path d="M16.4298 20.1002C19.9594 20.5946 23.1947 22.0563 25.7854 24.3272C30.1833 28.1818 35.8407 30.4414 41.716 30.6902C42.0766 30.7054 42.4365 30.7132 42.7965 30.713C48.3829 30.713 53.8675 28.8831 58.3469 25.505C60.1627 24.1357 61.773 22.5463 63.1584 20.7722C64.7336 22.1903 66.1723 23.7611 67.4392 25.4581C67.7498 25.8741 68.226 26.0939 68.708 26.0939C69.037 26.0939 69.369 25.9915 69.6531 25.7796C70.3532 25.257 70.497 24.2658 69.9744 23.5658C68.315 21.3431 66.3868 19.3181 64.2554 17.5399C63.3886 14.9745 62.1177 12.5565 60.4724 10.3465C57.0965 5.81133 52.4367 2.58394 46.9969 1.01311C41.735 -0.506155 36.0158 -0.311442 30.893 1.56182C30.0725 1.86171 29.6507 2.77011 29.9507 3.59056C30.2507 4.41085 31.1589 4.83286 31.9796 4.5328C36.4761 2.88842 41.4977 2.71791 46.1192 4.05243C50.8892 5.42981 54.9749 8.25939 57.9347 12.2354C58.3507 12.7942 58.7359 13.3697 59.0967 13.957C58.647 13.7004 58.1935 13.4508 57.733 13.2147C53.1302 10.8547 48.186 9.56543 43.018 9.36819L39.4191 6.19553C38.7638 5.61788 37.7644 5.68067 37.1865 6.33599C36.6089 6.99131 36.6716 7.99081 37.327 8.56846L38.3682 9.48619C35.9654 9.70542 33.5977 10.1678 31.2964 10.8691C30.4607 11.1238 29.9897 12.0076 30.2445 12.8433C30.499 13.6789 31.3839 14.1503 32.2186 13.8951C35.2527 12.9705 38.4156 12.5016 41.6196 12.5016C44.4016 12.5016 47.1153 12.8487 49.7409 13.5313L45.9377 16.6502C45.2623 17.2041 45.1637 18.2008 45.7177 18.8764C46.0306 19.2577 46.4843 19.4551 46.9417 19.4551C47.2945 19.4551 47.6498 19.3376 47.944 19.0964L53.3151 14.6917C54.3223 15.086 55.3149 15.5299 56.2896 16.0297C57.8319 16.8204 59.3096 17.7423 60.7078 18.7747C59.4832 20.3524 58.0538 21.7634 56.4416 22.9794C52.2575 26.135 47.0746 27.7507 41.8495 27.5298C36.6922 27.3115 31.7279 25.3292 27.8706 21.9484C25.2867 19.6837 22.1672 18.1024 18.7613 17.3172C19.4575 15.584 20.3612 13.9507 21.4591 12.4442C21.9735 11.7383 21.8184 10.7487 21.1124 10.2344C20.4064 9.72013 19.4167 9.87514 18.9022 10.5812C17.2507 12.8479 15.9847 15.3644 15.1397 18.0611C15.0008 18.5047 15.0639 18.9868 15.3124 19.3795C15.5609 19.7719 15.9695 20.0356 16.4298 20.1002Z" fill="#2A343F"/>
<path d="M31.5622 64.4821C32.7016 58.7465 31.83 52.7174 29.1077 47.5051C26.3478 42.2208 21.7997 38.0268 16.3014 35.6958C14.2077 34.8081 12.0267 34.2045 9.79739 33.892C10.2378 31.8201 10.8787 29.7901 11.7146 27.8455C12.0596 27.0429 11.6885 26.1127 10.886 25.7677C10.0826 25.4225 9.15295 25.7938 8.80796 26.5964C7.71269 29.1447 6.92304 31.827 6.44865 34.5619C4.66038 36.595 3.20145 38.9049 2.10998 41.4345C-0.614254 47.7482 -0.703312 54.7582 1.85911 61.1729C4.43481 67.6215 9.37062 72.6743 15.7574 75.4007C18.9671 76.771 22.3665 77.4632 25.7993 77.4632C27.684 77.4632 29.5794 77.2544 31.4576 76.8344C31.9112 76.733 32.2974 76.4372 32.5132 76.0257C32.7293 75.6141 32.7533 75.1283 32.579 74.6976C31.2427 71.3934 30.8909 67.861 31.5622 64.4821ZM16.9997 72.4909C11.3924 70.0973 7.0586 65.661 4.79721 59.9993C2.5491 54.3713 2.62645 48.2232 5.01487 42.6874C5.2909 42.0478 5.59651 41.4265 5.9249 40.8203C5.92759 41.338 5.93803 41.8556 5.96381 42.3723C6.22134 47.5383 7.57681 52.4647 9.99022 57.0386L9.04191 61.7414C8.86917 62.5978 9.42345 63.432 10.2799 63.6046C10.3854 63.6257 10.4906 63.636 10.5942 63.636C11.3316 63.636 11.9917 63.1174 12.1431 62.3667L12.4174 61.0064C13.8086 62.9774 15.393 64.7967 17.1509 66.4387C17.4559 66.7236 17.8436 66.8645 18.2303 66.8645C18.6533 66.8645 19.0752 66.6959 19.3866 66.3625C19.9832 65.7241 19.949 64.7232 19.3106 64.1268C16.9929 61.9618 15.0053 59.4572 13.4032 56.6827C12.0121 54.2735 10.9559 51.75 10.2343 49.1349L14.8371 50.869C15.0208 50.9383 15.2093 50.971 15.3944 50.971C16.0339 50.971 16.6362 50.5803 16.8748 49.9465C17.1828 49.1291 16.77 48.2166 15.9523 47.9086L9.45192 45.4596C9.28978 44.3903 9.17795 43.3087 9.12337 42.2146C9.03716 40.4837 9.09648 38.743 9.29152 37.0162C11.2704 37.2878 13.2072 37.8199 15.0663 38.6081C19.8913 40.6536 23.8819 44.3334 26.3032 48.9695C28.6927 53.5447 29.4582 58.8348 28.4588 63.8655C27.7894 67.2358 27.9795 70.7276 29.0026 74.0698C24.924 74.6532 20.8084 74.1168 16.9997 72.4909Z" fill="#2A343F"/>
<path d="M80.8092 47.6297C80.1614 42.2628 77.8763 37.3134 74.2007 33.3168C73.8861 32.9745 73.4336 32.7877 72.9726 32.807C72.508 32.8257 72.0756 33.0478 71.7896 33.4141C69.5965 36.2234 66.713 38.2941 63.4507 39.4023C57.9137 41.2833 53.1277 45.0527 49.9748 50.0162C46.778 55.0484 45.4197 61.084 46.15 67.011C46.4281 69.2679 46.9959 71.4583 47.8398 73.5451C45.8251 74.1997 43.7466 74.6598 41.6443 74.9081C40.7769 75.0106 40.1566 75.7971 40.2591 76.6645C40.3542 77.469 41.0374 78.0607 41.828 78.0607C41.89 78.0607 41.9526 78.0571 42.0158 78.0496C44.7715 77.7239 47.4902 77.0662 50.0967 76.1091C51.757 76.4416 53.4459 76.6104 55.1482 76.6104C56.1672 76.6104 57.1909 76.5506 58.2157 76.431C65.046 75.6332 71.1616 72.2054 75.4362 66.7791C79.7334 61.3241 81.6414 54.5234 80.8092 47.6297ZM72.9511 64.8215C69.2007 69.5822 63.8373 72.5893 57.8487 73.2889C57.1566 73.3697 56.4657 73.4157 55.7765 73.4346C56.2235 73.1734 56.6666 72.9055 57.1011 72.6249C61.4466 69.819 65.0354 66.182 67.7902 61.8051L72.3373 60.2749C73.1653 59.9962 73.6107 59.0992 73.332 58.2713C73.0534 57.4436 72.1567 56.9977 71.3283 57.2767L70.013 57.7195C71.0244 55.5292 71.8077 53.2477 72.3509 50.9042C72.5484 50.0532 72.0183 49.2034 71.1673 49.0061C70.3164 48.8087 69.4665 49.3388 69.2692 50.1897C68.5528 53.2798 67.3773 56.2534 65.7756 59.0276C64.3845 61.4367 62.7271 63.6131 60.823 65.5455L60.0234 60.6925C59.8813 59.8306 59.0699 59.2471 58.2054 59.3888C57.3434 59.5309 56.7597 60.3447 56.9018 61.2067L58.0311 68.0604C57.186 68.7355 56.3053 69.3731 55.385 69.9674C53.9289 70.9076 52.3918 71.7264 50.7986 72.421C50.0444 70.5716 49.5369 68.6283 49.29 66.6242C48.6492 61.4231 49.8406 56.1275 52.6452 51.7126C55.413 47.3557 59.6118 44.0477 64.4685 42.3978C67.722 41.2924 70.6514 39.3819 73.0343 36.8248C75.5795 40.0655 77.1722 43.8977 77.6685 48.0088C78.3989 54.0614 76.7236 60.0323 72.9511 64.8215Z" fill="#2A343F"/>
<path d="M25.1805 8.02512C26.0541 8.02512 26.7623 7.31754 26.7623 6.44469C26.7623 5.57184 26.0541 4.86426 25.1805 4.86426C24.3068 4.86426 23.5986 5.57184 23.5986 6.44469C23.5986 7.31754 24.3068 8.02512 25.1805 8.02512Z" fill="#2A343F"/>
</svg>
