<svg width="81" height="81" viewBox="0 0 81 81" fill="none" xmlns="http://www.w3.org/2000/svg">
<path d="M72.9224 65.7576C72.7304 65.2782 72.605 63.7576 72.5031 62.5219C72.2823 59.84 71.9792 56.1667 70.6976 52.854C70.1436 51.4196 68.9914 48.6986 67.877 46.0677C66.6411 43.1481 65.1021 39.514 64.9323 38.8975C64.2816 36.5396 63.5945 33.7297 62.9295 31.0126C61.7811 26.323 60.6968 21.8934 59.7287 19.3278C58.8482 16.9908 57.9389 15.7642 56.784 15.3501C55.6291 14.9347 54.6623 15.4899 54.3449 15.6741C52.2702 16.868 52.6034 20.9998 53.3716 28.1989C53.5558 29.9206 53.7975 32.1896 53.8615 33.8538C53.1874 32.4025 52.2781 30.0747 51.2146 26.7175C48.5351 18.2501 47.0588 15.2926 45.1423 14.548C44.6132 14.3429 43.7836 14.2123 42.8338 14.7596C39.2842 16.8014 40.5188 20.5466 42.9788 28.0081C43.4295 29.3641 43.4596 29.4999 44.3349 32.072C44.8993 33.7323 45.6009 35.7937 45.9588 37.2398C44.5596 35.3508 42.4863 31.6841 41.1629 29.3863C40.1177 27.5836 39.2333 26.0291 38.4742 24.698C35.28 19.0913 34.3158 17.3984 32.7363 16.9686C31.7996 16.7165 30.9988 17.0731 30.4083 17.4127C29.4585 17.9588 28.8536 18.6994 28.608 19.6165C27.9678 22.007 29.7629 25.453 34.3263 33.3287C36.0887 36.3711 37.5924 39.5611 38.3762 41.5466C37.0437 40.3292 35.2029 38.0758 33.9566 36.55C30.1927 31.9427 27.2179 28.306 24.639 29.7912C23.7663 30.2929 23.1745 31.044 22.9276 31.9649C22.5918 33.2177 22.9028 34.682 23.8525 36.3175C24.3908 37.2476 25.9298 39.2619 28.058 42.0495C31.2849 46.2741 37.6773 54.6436 38.7982 57.6285C37.6198 57.1386 35.506 55.6076 34.0114 54.526C30.0921 51.6874 26.0434 48.7509 23.3091 50.3237C22.0261 51.0617 21.2462 52.0114 20.9927 53.1466C20.1814 56.765 23.2986 56.701 30.437 63.3775C33.5202 66.2527 36.3891 69.2519 41.7495 72.583C46.6891 75.6515 52.9287 76.6064 53.6942 77.253C54.4128 78.494 54.9328 80.0772 54.9393 80.0929C55.4736 81.7349 57.9611 80.9381 57.4241 79.2843C57.3993 79.2085 56.8166 77.4281 55.9557 75.9415C54.725 73.8188 48.7037 73.8266 43.1291 70.3623C38.1646 67.2768 35.3414 64.3794 32.2216 61.4664C29.708 59.1164 24.7461 55.268 23.6265 54.4058C23.5586 54.2478 23.4776 53.9787 23.5455 53.6991C23.6631 53.2197 24.1909 52.8291 24.6116 52.5875C25.8762 51.8599 30.0085 54.8526 32.4777 56.6422C36.1161 59.2783 38.746 61.1855 40.6508 60.0856C41.1119 59.8204 41.4255 59.375 41.5339 58.8303C42.0016 56.5011 38.3958 51.2825 30.1339 40.4663C28.22 37.9608 26.5673 35.7963 26.1114 35.0099C25.5483 34.0393 25.3079 33.1785 25.4516 32.6442C25.496 32.4783 25.5914 32.2601 25.8514 32.089C26.9344 32.089 30.1862 36.0693 31.9342 38.2077C35.5452 42.6282 38.3998 46.1161 40.835 44.7144C41.1354 44.542 41.4176 44.1618 41.5078 43.8261C42.08 41.6955 36.6452 32.1204 36.589 32.0237C33.1466 26.0827 30.7401 21.764 31.1346 20.2971C31.1634 20.1886 31.2235 19.9639 31.7147 19.6818C31.9512 19.5459 32.0609 19.5107 32.0596 19.4976C32.6645 19.7771 34.1538 22.3897 36.2075 25.9951C36.9692 27.3315 37.8563 28.8899 38.9053 30.7004C42.5595 36.9171 45.1763 42.2782 47.7787 40.7837C49.6874 39.6852 48.6671 36.6833 46.8132 31.2347C45.8282 28.3373 46.0659 29.0022 45.465 27.193C43.1643 20.2148 42.5137 17.964 44.1938 16.9856C46.6826 17.6936 50.2923 36.6859 53.8654 38.0732C54.3527 38.2639 54.8661 38.2273 55.3038 37.9739C56.878 37.0699 56.6468 34.2405 55.974 27.9285C55.6343 24.7489 55.0033 18.8327 55.65 17.9444C55.8237 17.8451 55.9074 17.8242 55.91 17.8177C55.9714 17.8477 56.5005 18.1691 57.287 20.2566C58.1989 22.6745 59.3159 27.2322 60.3937 31.6397C61.0639 34.375 61.755 37.2032 62.416 39.5989C62.6185 40.3292 63.7055 42.9169 65.4731 47.0919C66.5797 49.7045 67.7228 52.4059 68.2624 53.8023C69.4081 56.7637 69.6812 60.0791 69.9006 62.7426C69.996 63.9013 70.1253 66.5126 70.8308 67.3343L78.6969 76.6142C79.1633 77.1642 79.9877 77.2347 80.5377 76.7658C81.0877 76.2994 81.1569 75.4751 80.6892 74.9252L72.9224 65.7576Z" fill="#2A343F"/>
<path d="M40.4018 74.6331C33.8121 76.7073 28.1108 78.0409 24.7206 78.3217C24.5586 76.4931 24.3156 74.6788 23.9929 72.9116C23.8635 72.2024 23.1907 71.7387 22.4722 71.8615C21.7628 71.9908 21.2925 72.6713 21.4218 73.3818C21.802 75.4599 22.0672 77.6098 22.2109 79.7702C22.2579 80.4559 22.8288 80.9888 23.516 80.9888C26.9428 80.9888 33.3836 79.5808 41.1869 77.1252C41.8754 76.9084 42.2569 76.1744 42.0413 75.4873C41.8245 74.799 41.0902 74.4189 40.4018 74.6331Z" fill="#2A343F"/>
<path d="M77.8773 50.3412C74.6268 46.1911 72.837 43.9051 70.4906 36.1966C69.6611 33.4677 68.7831 29.4848 67.8542 25.2681C65.7117 15.5401 63.283 4.51493 59.7778 0.453641C59.331 -0.0662666 58.555 -0.14987 58.0063 0.261615C52.7427 4.20925 46.4848 5.37839 40.4334 6.50964C35.8256 7.3705 31.0597 8.26139 26.7536 10.3658C24.2897 11.5703 21.034 14.0679 17.265 16.9587C11.9151 21.0631 5.8506 25.7149 0.863918 27.5084C0.315213 27.7057 -0.036219 28.2439 0.0029742 28.8252C0.380535 34.4031 3.9445 39.4454 8.07155 45.2832C11.8367 50.6103 16.1035 56.6467 18.9869 64.4662C19.5852 66.0847 22.04 65.1952 21.439 63.5636C18.4368 55.4201 14.0629 49.2335 10.205 43.7758C6.55869 38.6172 3.37882 34.117 2.71122 29.5946C7.85468 27.4705 13.6801 23.0017 18.8549 19.0318C22.3601 16.3422 25.6719 13.8027 27.9007 12.7133C31.8866 10.7643 36.2711 9.94521 40.9115 9.07783C46.8676 7.96486 53.0118 6.81663 58.4988 3.11457C61.2489 7.42797 63.4803 17.5609 65.3015 25.8298C66.2421 30.0988 67.1292 34.13 67.9901 36.9569C70.4763 45.133 72.4869 47.6999 75.8183 51.9519C76.5146 52.8415 77.2711 53.8068 78.1072 54.9224C77.322 56.0445 76.1632 57.2372 74.6504 58.4795C74.0925 58.9367 74.0115 59.7596 74.4688 60.3174C74.9286 60.8765 75.7504 60.9575 76.3069 60.499C78.3894 58.7904 79.9101 57.1131 80.8246 55.5129C81.0807 55.0635 81.0493 54.5057 80.7423 54.0903C79.6775 52.6403 78.733 51.4346 77.8773 50.3412Z" fill="#2A343F"/>
<path d="M20.0826 68.02L15.1116 66.0332C14.4505 65.7693 13.9201 65.2389 13.6562 64.5793L11.6652 59.6049C11.4653 59.1085 10.9859 58.7832 10.4515 58.7832C9.91719 58.7832 9.43772 59.1085 9.23914 59.6036L7.24682 64.5793C6.98292 65.2389 6.45251 65.7693 5.79145 66.0332L0.821751 68.02C0.325304 68.2186 0 68.6993 0 69.2336C0 69.7679 0.325304 70.2486 0.820444 70.4472L5.79145 72.434C6.45251 72.6979 6.98292 73.2283 7.24682 73.8879L9.23784 78.8623C9.43772 79.3587 9.91719 79.684 10.4515 79.684C10.9859 79.684 11.4653 79.3587 11.6639 78.8636L13.6562 73.8879C13.9201 73.2283 14.4505 72.6979 15.1116 72.434L20.0813 70.4472C20.5777 70.2486 20.903 69.7679 20.903 69.2336C20.903 68.6993 20.5777 68.2186 20.0826 68.02ZM14.1422 70.0082C12.8201 70.536 11.758 71.5967 11.2302 72.9174L10.4515 74.8624L9.67288 72.9187C9.14508 71.5967 8.08425 70.536 6.76213 70.0082L4.82468 69.2336L6.76083 68.459C8.08425 67.9312 9.14508 66.8705 9.67288 65.5498L10.4515 63.6048L11.2302 65.5485C11.758 66.8705 12.8201 67.9312 14.1422 68.459L16.0784 69.2336L14.1422 70.0082Z" fill="#2A343F"/>
<path d="M66.144 9.05028L69.6936 10.4688C70.0725 10.6203 70.3743 10.922 70.5258 11.2995L71.9472 14.8522C72.1471 15.3485 72.6266 15.6737 73.1609 15.6737C73.6952 15.6737 74.1747 15.3485 74.3733 14.8535L75.796 11.3008C75.9462 10.9233 76.2493 10.6203 76.6282 10.4701L80.1778 9.05158C80.6742 8.85174 80.9995 8.37108 80.9995 7.83687C80.9995 7.30266 80.6742 6.82199 80.1778 6.62346L76.6282 5.20499C76.2493 5.05347 75.9475 4.75175 75.796 4.37428L74.3746 0.821565C74.1747 0.32523 73.6952 0 73.1609 0C72.6266 0 72.1471 0.32523 71.9485 0.820259L70.5258 4.37297C70.3756 4.75045 70.0725 5.05347 69.6936 5.20368L66.144 6.62215C65.6476 6.82199 65.3223 7.30266 65.3223 7.83687C65.3223 8.37108 65.6476 8.85174 66.144 9.05028ZM70.663 7.6305C72.6514 6.83636 73.0381 5.02213 73.1609 4.82229C73.2576 4.98164 73.6547 6.83114 75.6588 7.6305L76.1736 7.83687L75.6575 8.04324C73.6691 8.83737 73.2824 10.6516 73.1609 10.8514C73.0642 10.6921 72.6671 8.8426 70.663 8.04324L70.1483 7.83687L70.663 7.6305Z" fill="#2A343F"/>
<path d="M0.822727 10.3576L5.08303 12.0611C5.60169 12.2688 6.01975 12.6855 6.22747 13.2041L7.93368 17.4678C8.13226 17.9629 8.61172 18.2882 9.14606 18.2882C9.68039 18.2882 10.1599 17.9629 10.3584 17.4678L12.0646 13.2041C12.2724 12.6842 12.6904 12.2675 13.2091 12.0611L17.4694 10.3576C17.9658 10.1591 18.2911 9.67837 18.2911 9.1441C18.2911 8.60982 17.9658 8.1291 17.4694 7.93054L13.2091 6.22844C12.6904 6.02073 12.2724 5.60402 12.0646 5.08542L10.3584 0.820356C10.1599 0.325269 9.68039 0 9.14606 0C8.61172 0 8.13226 0.325269 7.93368 0.820356L6.22747 5.08412C6.01844 5.60402 5.60169 6.02073 5.08303 6.22844L0.822727 7.93054C0.32628 8.1291 0.000976562 8.60982 0.000976562 9.1441C0.000976562 9.67837 0.32628 10.1591 0.822727 10.3576ZM6.05241 8.65423C7.23212 8.18266 8.17929 7.23559 8.65222 6.056L9.14606 4.82286L9.63989 6.056C10.1128 7.23559 11.06 8.18266 12.2397 8.65423L13.4651 9.1441L12.2397 9.63396C11.06 10.1055 10.1128 11.0526 9.63989 12.2322L9.14606 13.4653L8.65222 12.2322C8.17929 11.0526 7.23212 10.1055 6.05241 9.63396L4.82697 9.1441L6.05241 8.65423Z" fill="#2A343F"/>
</svg>
