<svg width="180" height="101" viewBox="0 0 180 101" fill="none" xmlns="http://www.w3.org/2000/svg">
<path d="M60.13 30.175C67.06 31.275 70.58 35.565 70.58 41.23C70.58 47.72 65.575 53.66 54.63 53.66C49.24 53.66 43.685 52.175 39.945 49.535L43.41 42.715C46.325 44.915 50.395 46.18 54.41 46.18C58.865 46.18 61.615 44.365 61.615 41.23C61.615 38.315 59.47 36.5 54.41 36.5H50.34V30.615L58.26 21.65H41.87V14.5H68.82V20.275L60.13 30.175ZM91.1938 53.66C81.7338 53.66 74.6938 46.455 74.6938 33.75C74.6938 21.045 81.7338 13.84 91.1938 13.84C100.709 13.84 107.694 21.045 107.694 33.75C107.694 46.455 100.709 53.66 91.1938 53.66ZM91.1938 46.125C95.6488 46.125 98.7288 42.495 98.7288 33.75C98.7288 25.005 95.6488 21.375 91.1938 21.375C86.7938 21.375 83.7138 25.005 83.7138 33.75C83.7138 42.495 86.7938 46.125 91.1938 46.125ZM139.683 30.395V37.105H130.113V46.455H123.018V37.105H113.503V30.395H123.018V21.045H130.113V30.395H139.683Z" fill="#2A343F"/>
<path d="M1.88 82H4.48V96H1.88V82ZM14.0867 85.2C15.4334 85.2 16.5134 85.5933 17.3267 86.38C18.1401 87.1667 18.5467 88.3333 18.5467 89.88V96H16.0467V90.2C16.0467 89.2667 15.8267 88.5667 15.3867 88.1C14.9467 87.62 14.3201 87.38 13.5067 87.38C12.5867 87.38 11.8601 87.66 11.3267 88.22C10.7934 88.7667 10.5267 89.56 10.5267 90.6V96H8.02672V85.32H10.4067V86.7C10.8201 86.2067 11.3401 85.8333 11.9667 85.58C12.5934 85.3267 13.3001 85.2 14.0867 85.2ZM32.2758 81.16V96H29.8758V94.62C29.4624 95.1267 28.9491 95.5067 28.3358 95.76C27.7358 96.0133 27.0691 96.14 26.3358 96.14C25.3091 96.14 24.3824 95.9133 23.5558 95.46C22.7424 95.0067 22.1024 94.3667 21.6358 93.54C21.1691 92.7 20.9358 91.74 20.9358 90.66C20.9358 89.58 21.1691 88.6267 21.6358 87.8C22.1024 86.9733 22.7424 86.3333 23.5558 85.88C24.3824 85.4267 25.3091 85.2 26.3358 85.2C27.0424 85.2 27.6891 85.32 28.2758 85.56C28.8624 85.8 29.3624 86.16 29.7758 86.64V81.16H32.2758ZM26.6358 94C27.2358 94 27.7758 93.8667 28.2558 93.6C28.7358 93.32 29.1158 92.9267 29.3958 92.42C29.6758 91.9133 29.8158 91.3267 29.8158 90.66C29.8158 89.9933 29.6758 89.4067 29.3958 88.9C29.1158 88.3933 28.7358 88.0067 28.2558 87.74C27.7758 87.46 27.2358 87.32 26.6358 87.32C26.0358 87.32 25.4958 87.46 25.0158 87.74C24.5358 88.0067 24.1558 88.3933 23.8758 88.9C23.5958 89.4067 23.4558 89.9933 23.4558 90.66C23.4558 91.3267 23.5958 91.9133 23.8758 92.42C24.1558 92.9267 24.5358 93.32 25.0158 93.6C25.4958 93.8667 26.0358 94 26.6358 94ZM45.8863 85.32V96H43.5063V94.64C43.1063 95.12 42.6063 95.4933 42.0063 95.76C41.4063 96.0133 40.7596 96.14 40.0663 96.14C38.6396 96.14 37.5129 95.7467 36.6863 94.96C35.8729 94.16 35.4663 92.98 35.4663 91.42V85.32H37.9663V91.08C37.9663 92.04 38.1796 92.76 38.6063 93.24C39.0463 93.7067 39.6663 93.94 40.4663 93.94C41.3596 93.94 42.0663 93.6667 42.5863 93.12C43.1196 92.56 43.3863 91.76 43.3863 90.72V85.32H45.8863ZM52.4595 96.14C51.5929 96.14 50.7462 96.0267 49.9195 95.8C49.0929 95.5733 48.4329 95.2867 47.9395 94.94L48.8995 93.04C49.3795 93.36 49.9529 93.62 50.6195 93.82C51.2995 94.0067 51.9662 94.1 52.6195 94.1C54.1129 94.1 54.8595 93.7067 54.8595 92.92C54.8595 92.5467 54.6662 92.2867 54.2795 92.14C53.9062 91.9933 53.2995 91.8533 52.4595 91.72C51.5795 91.5867 50.8595 91.4333 50.2995 91.26C49.7529 91.0867 49.2729 90.7867 48.8595 90.36C48.4595 89.92 48.2595 89.3133 48.2595 88.54C48.2595 87.5267 48.6795 86.72 49.5195 86.12C50.3729 85.5067 51.5195 85.2 52.9595 85.2C53.6929 85.2 54.4262 85.2867 55.1595 85.46C55.8929 85.62 56.4929 85.84 56.9595 86.12L55.9995 88.02C55.0929 87.4867 54.0729 87.22 52.9395 87.22C52.2062 87.22 51.6462 87.3333 51.2595 87.56C50.8862 87.7733 50.6995 88.06 50.6995 88.42C50.6995 88.82 50.8995 89.1067 51.2995 89.28C51.7129 89.44 52.3462 89.5933 53.1995 89.74C54.0529 89.8733 54.7529 90.0267 55.2995 90.2C55.8462 90.3733 56.3129 90.6667 56.6995 91.08C57.0995 91.4933 57.2995 92.08 57.2995 92.84C57.2995 93.84 56.8662 94.64 55.9995 95.24C55.1329 95.84 53.9529 96.14 52.4595 96.14ZM65.8725 95.42C65.5792 95.66 65.2192 95.84 64.7925 95.96C64.3792 96.08 63.9392 96.14 63.4725 96.14C62.2992 96.14 61.3925 95.8333 60.7525 95.22C60.1125 94.6067 59.7925 93.7133 59.7925 92.54V87.4H58.0325V85.4H59.7925V82.96H62.2925V85.4H65.1525V87.4H62.2925V92.48C62.2925 93 62.4192 93.4 62.6725 93.68C62.9258 93.9467 63.2925 94.08 63.7725 94.08C64.3325 94.08 64.7992 93.9333 65.1725 93.64L65.8725 95.42ZM70.3091 86.88C71.0291 85.76 72.2957 85.2 74.1091 85.2V87.58C73.8957 87.54 73.7024 87.52 73.5291 87.52C72.5557 87.52 71.7957 87.8067 71.2491 88.38C70.7024 88.94 70.4291 89.7533 70.4291 90.82V96H67.9291V85.32H70.3091V86.88ZM76.2298 85.32H78.7298V96H76.2298V85.32ZM77.4898 83.56C77.0365 83.56 76.6565 83.42 76.3498 83.14C76.0432 82.8467 75.8898 82.4867 75.8898 82.06C75.8898 81.6333 76.0432 81.28 76.3498 81C76.6565 80.7067 77.0365 80.56 77.4898 80.56C77.9432 80.56 78.3232 80.7 78.6298 80.98C78.9365 81.2467 79.0898 81.5867 79.0898 82C79.0898 82.44 78.9365 82.8133 78.6298 83.12C78.3365 83.4133 77.9565 83.56 77.4898 83.56ZM92.0511 90.72C92.0511 90.8933 92.0378 91.14 92.0111 91.46H83.6311C83.7778 92.2467 84.1578 92.8733 84.7711 93.34C85.3978 93.7933 86.1711 94.02 87.0911 94.02C88.2644 94.02 89.2311 93.6333 89.9911 92.86L91.3311 94.4C90.8511 94.9733 90.2444 95.4067 89.5111 95.7C88.7778 95.9933 87.9511 96.14 87.0311 96.14C85.8578 96.14 84.8244 95.9067 83.9311 95.44C83.0378 94.9733 82.3444 94.3267 81.8511 93.5C81.3711 92.66 81.1311 91.7133 81.1311 90.66C81.1311 89.62 81.3644 88.6867 81.8311 87.86C82.3111 87.02 82.9711 86.3667 83.8111 85.9C84.6511 85.4333 85.5978 85.2 86.6511 85.2C87.6911 85.2 88.6178 85.4333 89.4311 85.9C90.2578 86.3533 90.8978 87 91.3511 87.84C91.8178 88.6667 92.0511 89.6267 92.0511 90.72ZM86.6511 87.2C85.8511 87.2 85.1711 87.44 84.6111 87.92C84.0644 88.3867 83.7311 89.0133 83.6111 89.8H89.6711C89.5644 89.0267 89.2378 88.4 88.6911 87.92C88.1444 87.44 87.4644 87.2 86.6511 87.2ZM97.7525 96.14C96.8858 96.14 96.0392 96.0267 95.2125 95.8C94.3858 95.5733 93.7258 95.2867 93.2325 94.94L94.1925 93.04C94.6725 93.36 95.2458 93.62 95.9125 93.82C96.5925 94.0067 97.2592 94.1 97.9125 94.1C99.4058 94.1 100.153 93.7067 100.153 92.92C100.153 92.5467 99.9592 92.2867 99.5725 92.14C99.1992 91.9933 98.5925 91.8533 97.7525 91.72C96.8725 91.5867 96.1525 91.4333 95.5925 91.26C95.0458 91.0867 94.5658 90.7867 94.1525 90.36C93.7525 89.92 93.5525 89.3133 93.5525 88.54C93.5525 87.5267 93.9725 86.72 94.8125 86.12C95.6658 85.5067 96.8125 85.2 98.2525 85.2C98.9858 85.2 99.7192 85.2867 100.453 85.46C101.186 85.62 101.786 85.84 102.253 86.12L101.293 88.02C100.386 87.4867 99.3658 87.22 98.2325 87.22C97.4992 87.22 96.9392 87.3333 96.5525 87.56C96.1792 87.7733 95.9925 88.06 95.9925 88.42C95.9925 88.82 96.1925 89.1067 96.5925 89.28C97.0058 89.44 97.6392 89.5933 98.4925 89.74C99.3458 89.8733 100.046 90.0267 100.593 90.2C101.139 90.3733 101.606 90.6667 101.993 91.08C102.393 91.4933 102.593 92.08 102.593 92.84C102.593 93.84 102.159 94.64 101.293 95.24C100.426 95.84 99.2458 96.14 97.7525 96.14ZM114.853 96.2C113.773 96.2 112.726 96.0467 111.713 95.74C110.713 95.4333 109.919 95.0267 109.333 94.52L110.233 92.5C110.806 92.9533 111.506 93.3267 112.333 93.62C113.173 93.9 114.013 94.04 114.853 94.04C115.893 94.04 116.666 93.8733 117.173 93.54C117.693 93.2067 117.953 92.7667 117.953 92.22C117.953 91.82 117.806 91.4933 117.513 91.24C117.233 90.9733 116.873 90.7667 116.433 90.62C115.993 90.4733 115.393 90.3067 114.633 90.12C113.566 89.8667 112.699 89.6133 112.033 89.36C111.379 89.1067 110.813 88.7133 110.333 88.18C109.866 87.6333 109.633 86.9 109.633 85.98C109.633 85.2067 109.839 84.5067 110.253 83.88C110.679 83.24 111.313 82.7333 112.153 82.36C113.006 81.9867 114.046 81.8 115.273 81.8C116.126 81.8 116.966 81.9067 117.793 82.12C118.619 82.3333 119.333 82.64 119.933 83.04L119.113 85.06C118.499 84.7 117.859 84.4267 117.193 84.24C116.526 84.0533 115.879 83.96 115.253 83.96C114.226 83.96 113.459 84.1333 112.953 84.48C112.459 84.8267 112.213 85.2867 112.213 85.86C112.213 86.26 112.353 86.5867 112.633 86.84C112.926 87.0933 113.293 87.2933 113.733 87.44C114.173 87.5867 114.773 87.7533 115.533 87.94C116.573 88.18 117.426 88.4333 118.093 88.7C118.759 88.9533 119.326 89.3467 119.793 89.88C120.273 90.4133 120.513 91.1333 120.513 92.04C120.513 92.8133 120.299 93.5133 119.873 94.14C119.459 94.7667 118.826 95.2667 117.973 95.64C117.119 96.0133 116.079 96.2 114.853 96.2ZM132.891 90.72C132.891 90.8933 132.878 91.14 132.851 91.46H124.471C124.618 92.2467 124.998 92.8733 125.611 93.34C126.238 93.7933 127.011 94.02 127.931 94.02C129.104 94.02 130.071 93.6333 130.831 92.86L132.171 94.4C131.691 94.9733 131.084 95.4067 130.351 95.7C129.618 95.9933 128.791 96.14 127.871 96.14C126.698 96.14 125.664 95.9067 124.771 95.44C123.878 94.9733 123.184 94.3267 122.691 93.5C122.211 92.66 121.971 91.7133 121.971 90.66C121.971 89.62 122.204 88.6867 122.671 87.86C123.151 87.02 123.811 86.3667 124.651 85.9C125.491 85.4333 126.438 85.2 127.491 85.2C128.531 85.2 129.458 85.4333 130.271 85.9C131.098 86.3533 131.738 87 132.191 87.84C132.658 88.6667 132.891 89.6267 132.891 90.72ZM127.491 87.2C126.691 87.2 126.011 87.44 125.451 87.92C124.904 88.3867 124.571 89.0133 124.451 89.8H130.511C130.404 89.0267 130.078 88.4 129.531 87.92C128.984 87.44 128.304 87.2 127.491 87.2ZM137.672 86.88C138.392 85.76 139.659 85.2 141.472 85.2V87.58C141.259 87.54 141.066 87.52 140.892 87.52C139.919 87.52 139.159 87.8067 138.612 88.38C138.066 88.94 137.792 89.7533 137.792 90.82V96H135.292V85.32H137.672V86.88ZM153.984 85.32L149.404 96H146.824L142.244 85.32H144.844L148.164 93.24L151.584 85.32H153.984ZM165.293 90.72C165.293 90.8933 165.28 91.14 165.253 91.46H156.873C157.02 92.2467 157.4 92.8733 158.013 93.34C158.64 93.7933 159.413 94.02 160.333 94.02C161.507 94.02 162.473 93.6333 163.233 92.86L164.573 94.4C164.093 94.9733 163.487 95.4067 162.753 95.7C162.02 95.9933 161.193 96.14 160.273 96.14C159.1 96.14 158.067 95.9067 157.173 95.44C156.28 94.9733 155.587 94.3267 155.093 93.5C154.613 92.66 154.373 91.7133 154.373 90.66C154.373 89.62 154.607 88.6867 155.073 87.86C155.553 87.02 156.213 86.3667 157.053 85.9C157.893 85.4333 158.84 85.2 159.893 85.2C160.933 85.2 161.86 85.4333 162.673 85.9C163.5 86.3533 164.14 87 164.593 87.84C165.06 88.6667 165.293 89.6267 165.293 90.72ZM159.893 87.2C159.093 87.2 158.413 87.44 157.853 87.92C157.307 88.3867 156.973 89.0133 156.853 89.8H162.913C162.807 89.0267 162.48 88.4 161.933 87.92C161.387 87.44 160.707 87.2 159.893 87.2ZM178.155 81.16V96H175.755V94.62C175.341 95.1267 174.828 95.5067 174.215 95.76C173.615 96.0133 172.948 96.14 172.215 96.14C171.188 96.14 170.261 95.9133 169.435 95.46C168.621 95.0067 167.981 94.3667 167.515 93.54C167.048 92.7 166.815 91.74 166.815 90.66C166.815 89.58 167.048 88.6267 167.515 87.8C167.981 86.9733 168.621 86.3333 169.435 85.88C170.261 85.4267 171.188 85.2 172.215 85.2C172.921 85.2 173.568 85.32 174.155 85.56C174.741 85.8 175.241 86.16 175.655 86.64V81.16H178.155ZM172.515 94C173.115 94 173.655 93.8667 174.135 93.6C174.615 93.32 174.995 92.9267 175.275 92.42C175.555 91.9133 175.695 91.3267 175.695 90.66C175.695 89.9933 175.555 89.4067 175.275 88.9C174.995 88.3933 174.615 88.0067 174.135 87.74C173.655 87.46 173.115 87.32 172.515 87.32C171.915 87.32 171.375 87.46 170.895 87.74C170.415 88.0067 170.035 88.3933 169.755 88.9C169.475 89.4067 169.335 89.9933 169.335 90.66C169.335 91.3267 169.475 91.9133 169.755 92.42C170.035 92.9267 170.415 93.32 170.895 93.6C171.375 93.8667 171.915 94 172.515 94Z" fill="#2A343F"/>
</svg>
