<svg width="54" height="54" viewBox="0 0 54 54" fill="none" xmlns="http://www.w3.org/2000/svg">
<path d="M51.3495 39.8935L43.5145 34.4194C42.4899 33.7048 41.2923 33.3281 40.0504 33.3281C38.0757 33.3281 36.222 34.2965 35.093 35.9169L33.2741 38.5235C30.2259 36.4791 26.8244 33.6245 23.5819 30.3825C20.3399 27.1405 17.4859 23.7391 15.442 20.6908L18.0474 18.872C19.3755 17.9472 20.2625 16.5619 20.5442 14.9722C20.8253 13.3837 20.471 11.7786 19.545 10.4499L14.072 2.61485C12.9276 0.97791 11.081 0 9.13169 0C8.45613 0 7.79356 0.119286 7.16288 0.351953C6.44657 0.616508 5.77928 0.941297 5.12498 1.3523L4.04314 2.11408C3.77268 2.32431 3.52111 2.55461 3.28018 2.79555C1.96035 4.11478 1.02378 5.78479 0.49526 7.7595C-1.75996 16.2135 3.827 28.9972 14.3974 39.5676C23.2742 48.4443 33.9385 53.9587 42.2277 53.9598C43.6473 53.9598 44.986 53.7945 46.2061 53.4685C48.1808 52.9406 49.8508 52.004 51.1712 50.6836C51.411 50.4439 51.6401 50.1923 51.8857 49.8746L52.6481 48.7868C53.0207 48.1916 53.3449 47.5243 53.613 46.8027C54.5348 44.3107 53.6042 41.4691 51.3495 39.8935Z" fill="#2A343F"/>
</svg>
