<svg width="81" height="81" viewBox="0 0 81 81" fill="none" xmlns="http://www.w3.org/2000/svg">
<path d="M79.7815 9.44026C78.6104 5.76006 77.0231 3.12499 76.9559 3.01424C76.6956 2.58561 76.1598 2.36264 75.6744 2.47388C75.5487 2.50256 72.5513 3.20162 69.0938 4.92702C64.426 7.25557 61.1654 10.3643 59.6633 13.9154C58.413 16.8728 58.2334 20.4883 59.1205 24.4824C57.2309 22.3739 55.1054 20.5293 52.7883 18.9764C52.0808 17.5798 50.21 14.1414 47.2854 10.5477C46.322 9.36462 44.4691 10.8493 45.4423 12.0442C47.413 14.4662 48.8964 16.8481 49.8241 18.4845L39.0067 16.3775L28.7291 2.37006C29.7271 2.3839 30.7285 2.48031 31.725 2.67559C34.8842 3.29357 38.0048 4.90131 41.0017 7.45333C42.1758 8.45347 43.7007 6.63314 42.5419 5.64684C39.2313 2.82786 35.7456 1.04412 32.1812 0.346543C26.7401 -0.717373 20.3941 0.679264 13.8273 4.38715C8.93297 7.15076 5.66 10.1863 5.52344 10.3138C5.08556 10.7227 5.01579 11.4653 5.38243 11.9428C5.86236 12.9267 7.68118 16.4759 10.7087 20.297C12.4934 22.5499 14.3756 24.478 16.3225 26.0625C15.7693 26.5257 15.231 27.0102 14.71 27.5199C11.9274 30.2395 9.79686 33.4476 8.39811 36.9548C7.16166 40.0536 6.49667 43.3872 6.45956 46.8232C6.39821 52.4419 8.02752 57.8608 11.1723 62.4952C14.2444 67.0218 18.5391 70.4973 23.5918 72.5455C25.0059 73.1175 25.9 70.92 24.4849 70.3465C22.6542 69.6044 20.9344 68.6537 19.3481 67.5231C19.551 66.3988 20.0215 62.3528 17.3319 58.1644C16.9553 57.5785 18.081 55.2777 18.7529 53.9033C19.4466 52.4868 20.1625 51.0225 20.497 49.6436C20.8522 48.1788 20.4524 46.9492 19.3417 46.0865C18.5263 45.4532 17.459 45.1255 16.5184 44.8362C15.9074 44.6484 15.2147 44.4358 14.9673 44.2296C14.4577 43.803 13.6255 42.2264 12.9565 40.9603C12.2144 39.5557 11.5078 38.2189 10.7864 37.3957C12.4098 33.5435 15.0173 30.1347 18.2828 27.5268C21.2659 29.5573 24.6704 30.9584 28.2893 31.2421C24.0925 34.4912 22.7349 38.6406 24.6754 42.6263C26.9415 47.2805 31.6058 46.5369 35.7209 45.8819C36.4329 45.7682 37.1696 45.651 37.8751 45.563C38.1398 45.5299 38.2195 45.602 38.2729 45.649C39.1739 46.4499 39.1472 50.275 39.1279 53.0682C39.1017 56.9319 39.077 60.5814 40.5173 62.4551C41.252 63.4103 42.2866 63.8987 43.4993 63.8987C44.2261 63.8987 45.0158 63.7237 45.8441 63.3688C49.4258 61.8362 53.149 57.2235 52.581 53.574C52.0847 50.3832 51.7562 48.2752 52.5305 46.576C53.2465 45.0033 54.9772 43.5474 58.3858 41.6895C58.794 43.5261 58.9998 45.4369 58.9785 47.3972C58.9058 54.0882 56.229 60.3505 51.442 65.0299C46.092 70.2595 38.5728 72.8422 31.1347 72.023C29.6192 71.8588 29.3575 74.2151 30.875 74.3822C39.0166 75.278 47.2483 72.4501 53.1025 66.7266C58.3437 61.6033 61.2738 54.7482 61.3535 47.4224C61.4593 37.7092 56.4715 29.1039 48.8786 24.1467C50.4475 23.0289 51.6162 22.0624 52.2643 21.5013C55.0326 23.4857 57.4882 25.9305 59.5312 28.7786C64.4354 35.6174 66.3804 43.9543 65.0089 52.255C62.1763 69.3899 45.9213 81.0292 28.7697 78.1978C20.4618 76.8269 13.1861 72.3062 8.28184 65.4674C3.37708 58.6291 1.4321 50.2913 2.80413 41.9911C3.05053 40.4975 0.708732 40.1055 0.461341 41.6044C-1.01459 50.5306 1.07784 59.4962 6.35071 66.8502C11.6246 74.2032 19.4495 79.065 28.3828 80.5397C30.2511 80.8477 32.1213 81 33.9787 81C40.9997 81 47.8296 78.8217 53.6497 74.6546C61.0106 69.3849 65.8767 61.5677 67.3517 52.6416C68.4328 46.1009 67.5961 39.5389 64.9975 33.6053C66.1969 33.2518 68.2378 32.5656 70.4732 31.4503C75.14 29.1217 78.4011 26.013 79.9028 22.4619C81.4059 18.9097 81.3639 14.4068 79.7815 9.44026ZM10.8557 42.0677C11.7394 43.7417 12.575 45.3237 13.4434 46.0495C14.0584 46.5631 14.9144 46.8261 15.8203 47.1045C18.1413 47.8174 18.411 48.1674 18.1883 49.0845C17.9152 50.2122 17.2562 51.5589 16.6194 52.8606C15.3928 55.3681 14.2345 57.7352 15.3325 59.4458C16.8895 61.8703 17.1562 64.2572 17.1295 65.7418C10.0561 59.3687 7.176 49.3025 9.81071 40.1534C10.16 40.7516 10.5272 41.4467 10.8557 42.0677ZM68.312 18.749L64.9371 10.5768C66.5793 9.04228 68.4847 7.8874 70.1076 7.07413C71.49 6.38101 72.8051 5.86289 73.86 5.49556L68.312 18.749ZM76.0494 6.41561C76.5209 7.42811 77.0677 8.73378 77.5348 10.2095C78.0468 11.8291 78.5169 13.8363 78.6104 15.93L70.7013 19.1905L76.0494 6.41561ZM61.8507 14.8394C62.201 14.0118 62.6537 13.2446 63.1767 12.5361L67.0187 21.8379L63.5711 30.0754C63.0867 29.0486 62.5162 27.6999 62.0323 26.1678C61.061 23.1001 60.2417 18.6437 61.8507 14.8394ZM69.4589 29.3032C68.1285 29.9706 66.8589 30.4758 65.8248 30.8402L69.4025 22.2938L78.5095 18.5389C78.3774 19.5583 78.1255 20.5689 77.7153 21.5379C76.1068 25.3421 72.3376 27.861 69.4589 29.3032ZM26.6372 28.6278C26.2176 28.5458 25.8035 28.4454 25.3953 28.3312L38.5386 18.7045L49.361 20.8121C45.4186 23.9158 35.8243 30.4264 26.6372 28.6278ZM14.6254 21.2037C11.8146 18.1765 9.7543 14.9398 8.57129 12.8673L22.3435 15.5504L14.6254 21.2037ZM17.0578 5.37197L22.82 13.2253L8.9587 10.5254C10.7038 9.14857 13.5844 7.08155 17.0578 5.37197ZM26.2557 13.8947L19.2699 4.37331C21.3614 3.51456 23.6062 2.83874 25.9074 2.53815L35.5714 15.7086L26.2557 13.8947ZM25.5165 16.1683L35.3661 18.0866L22.725 27.3449C20.3411 26.2449 18.1958 24.6634 16.3186 22.9053L25.5165 16.1683ZM57.7406 39.3402C53.4592 41.6193 51.3628 43.4094 50.3683 45.5931C49.3001 47.938 49.6915 50.4549 50.2333 53.9384C50.5534 55.9925 48.1102 59.8176 44.9089 61.1875C43.7244 61.6943 42.8808 61.6345 42.4004 61.0091C41.4569 59.782 41.4826 56.0682 41.5029 53.0846C41.5311 48.9564 41.5558 45.3914 39.8513 43.8761C39.2383 43.3313 38.454 43.101 37.5827 43.2077C36.8361 43.3007 36.0786 43.4213 35.3468 43.538C30.9814 44.2331 28.2343 44.5114 26.8114 41.5881C24.5057 36.8534 29.1729 33.3462 31.2866 32.0584C31.7171 31.7963 32.1164 31.4874 32.4875 31.1433C37.5961 30.5332 42.4232 28.3431 46.7248 25.5997C51.8824 28.6788 55.8416 33.5514 57.7406 39.3402Z" fill="white"/>
</svg>
