<svg width="64" height="62" viewBox="0 0 64 62" fill="none" xmlns="http://www.w3.org/2000/svg">
<path d="M9.71486 10.8342L11.752 15.0452L16.3731 15.6741C17.2891 15.7971 17.6172 16.9319 16.9883 17.5335L13.6113 20.7737L14.4453 25.3674C14.6094 26.2698 13.6524 26.9534 12.8594 26.5159L8.74416 24.301L4.62892 26.5159C3.83595 26.9397 2.83791 26.2835 3.05666 25.2991L3.87697 20.76L0.500017 17.5198C-0.156233 16.8909 0.199236 15.7698 1.12892 15.6467L5.73635 15.0178L7.77346 10.8069C8.15627 10.0003 9.33205 10.0139 9.71486 10.8342ZM10.043 16.5217L8.74416 13.8147L7.43166 16.5217C7.28127 16.8362 6.96681 17.0823 6.59767 17.137L3.63088 17.5335L5.80471 19.6116C6.0508 19.8577 6.18752 20.2131 6.11916 20.5823L5.58595 23.5354L8.21095 22.1272C8.52541 21.9631 8.92189 21.9358 9.25002 22.1272L11.8887 23.5491L11.3692 20.6506C11.2871 20.2952 11.3828 19.8987 11.6699 19.6116L13.8438 17.5335L10.9043 17.137C10.5488 17.096 10.207 16.8635 10.043 16.5217ZM32.9844 0.92213L35.0215 5.13307L39.6563 5.76197C40.5723 5.88502 40.9004 7.01979 40.2715 7.63502L36.8945 10.8753L37.7285 15.469C37.8926 16.3713 36.9356 17.0549 36.1426 16.6174L32 14.4026L27.8848 16.6174C27.0918 17.0413 26.0938 16.385 26.3125 15.4006L27.1328 10.8616L23.7422 7.62135C23.086 6.99244 23.4414 5.87135 24.3711 5.7483L28.9785 5.1194L31.0156 0.92213C31.4258 0.0881454 32.5879 0.101817 32.9844 0.92213ZM33.3125 6.60963L32 3.9026L30.7012 6.60963C30.5508 6.92408 30.2363 7.17018 29.8672 7.22486L26.8867 7.62135L29.0606 9.69947C29.3203 9.94557 29.4434 10.301 29.375 10.6702L28.8418 13.6233L31.4805 12.2151C31.7949 12.051 32.1777 12.0237 32.5195 12.2151L35.1582 13.637L34.6387 10.7385C34.5567 10.3831 34.6524 9.98658 34.9395 9.69947L37.1133 7.62135L34.1738 7.21119C33.8047 7.18385 33.4766 6.95143 33.3125 6.60963ZM56.2402 10.8342L58.2774 15.0452L62.8985 15.6741C63.8145 15.7971 64.1563 16.9319 63.5137 17.5335L60.1367 20.7737L60.9707 25.3674C61.1348 26.2698 60.1778 26.9534 59.3848 26.5159L55.2696 24.301L51.1543 26.5159C50.3613 26.9397 49.3633 26.2835 49.5684 25.2991L50.3887 20.76L47.0117 17.5198C46.3555 16.8909 46.711 15.7698 47.6406 15.6467L52.2481 15.0178L54.2852 10.8069C54.6817 10.0003 55.8574 10.0139 56.2402 10.8342ZM56.5684 16.5217L55.2696 13.8147L53.9571 16.5217C53.8067 16.8362 53.5059 17.0823 53.1231 17.137L50.1563 17.5335L52.3164 19.6116C52.5625 19.8577 52.6992 20.2131 52.6309 20.5823L52.0977 23.5354L54.7363 22.1272C55.0508 21.9631 55.4473 21.9358 55.7754 22.1272L58.4277 23.5491L57.9082 20.6506C57.8262 20.2952 57.9219 19.8987 58.209 19.6116L60.3692 17.5335L57.4297 17.137C57.0742 17.096 56.7324 16.8635 56.5684 16.5217ZM26.9277 38.7522C26.627 38.2327 26.8047 37.5628 27.3242 37.262C27.8438 36.9612 28.5137 37.1389 28.8145 37.6585L30.25 40.1467L35.3496 35.0471C35.7735 34.6233 36.4707 34.6233 36.8945 35.0471C37.3184 35.471 37.3184 36.1682 36.8945 36.592L30.7832 42.7034C30.2774 43.2092 29.4297 43.0999 29.0742 42.4846L26.9277 38.7522ZM32 27.1995C37.9473 27.1995 42.7735 32.0256 42.7735 37.9729C42.7735 43.9202 37.9473 48.7463 32 48.7463C26.0528 48.7463 21.2266 43.9202 21.2266 37.9729C21.2266 32.0256 26.0528 27.1995 32 27.1995ZM38.0703 31.9026C34.7207 28.553 29.2793 28.553 25.9297 31.9026C22.5801 35.2522 22.5801 40.6936 25.9297 44.0432C29.2793 47.3928 34.7207 47.3928 38.0703 44.0432C41.4199 40.6799 41.4199 35.2522 38.0703 31.9026ZM32 20.4319C41.6797 20.4319 49.5274 28.2795 49.5274 37.9592C49.5274 41.6233 48.4063 45.0276 46.4785 47.844L51.7149 56.9085C52.2207 57.7561 51.5235 58.7131 50.6211 58.5764L45.2617 57.7288L42.3906 61.2561C41.8848 61.9124 40.9414 61.803 40.5723 61.1467L36.9082 54.803C33.709 55.7327 30.2774 55.7327 27.0918 54.803L23.4278 61.1467C23.0586 61.803 22.1153 61.9124 21.6094 61.2561L18.7383 57.7288L13.3789 58.5764C12.4629 58.7268 11.8203 57.7288 12.2578 56.9495L17.5215 47.844C12.7637 40.885 13.6524 31.5198 19.6133 25.5588C22.7715 22.4006 27.1602 20.4319 32 20.4319ZM45.0293 49.6897C43.3613 51.5491 41.3106 53.0393 38.9863 54.051L41.666 58.6858L43.9629 55.8694C44.2227 55.5413 44.6192 55.4182 45.002 55.4866L48.6934 56.0745L45.0293 49.6897ZM25 54.051C22.6895 53.0393 20.6387 51.5491 18.9707 49.7034L15.293 56.0745L18.9844 55.4866C19.3535 55.4182 19.7637 55.5549 20.0235 55.8694L22.3203 58.6858L25 54.051ZM42.8555 27.1174C36.8672 21.1292 27.1465 21.1292 21.1582 27.1174C15.1699 33.1057 15.1699 42.8264 21.1582 48.8147C27.1602 54.803 36.8672 54.803 42.8555 48.8147C48.8438 42.8264 48.8438 33.1057 42.8555 27.1174Z" fill="#9BA71F"/>
</svg>
