<svg xmlns="http://www.w3.org/2000/svg" version="1.1" xmlns:xlink="http://www.w3.org/1999/xlink" width="512" height="512" x="0" y="0" viewBox="0 0 24 24" style="enable-background:new 0 0 512 512" xml:space="preserve" class=""><g><path d="M20.5 6h-17a2.5 2.5 0 0 1 0-5h17a2.5 2.5 0 0 1 0 5zm-17-4a1.5 1.5 0 0 0 0 3h17a1.5 1.5 0 0 0 0-3zM20.5 14.5h-17a2.5 2.5 0 0 1 0-5h17a2.5 2.5 0 0 1 0 5zm-17-4a1.5 1.5 0 0 0 0 3h17a1.5 1.5 0 0 0 0-3zM20.5 23h-17a2.5 2.5 0 0 1 0-5h17a2.5 2.5 0 0 1 0 5zm-17-4a1.5 1.5 0 0 0 0 3h17a1.5 1.5 0 0 0 0-3z" fill="#cfde29" opacity="1" data-original="#000000"></path></g></svg>