<svg width="48" height="48" viewBox="0 0 48 48" fill="none" xmlns="http://www.w3.org/2000/svg">
<g clip-path="url(#clip0_1460_1922)">
<path d="M47.1048 25.4141C46.5359 24.9919 45.8208 24.8676 45.1425 25.0731L32.483 28.9079C32.4847 28.8234 32.4813 28.738 32.4724 28.6521C32.3618 27.5875 31.4359 26.7858 30.3675 26.8237L27.4318 26.9319C25.7217 26.9949 23.9948 26.9121 22.2987 26.6858L21.0029 26.513C17.9325 26.1032 14.8408 27.0455 12.5206 29.0975L9.22172 32.015V31.4764C9.22172 30.6583 8.55609 29.9929 7.73812 29.9929H1.48359C0.665625 29.993 0 30.6585 0 31.4766V33.2682C0 33.6566 0.314719 33.9713 0.703125 33.9713C1.09153 33.9713 1.40625 33.6566 1.40625 33.2682V31.4766C1.40625 31.434 1.44094 31.3993 1.48359 31.3993H7.73812C7.78078 31.3993 7.81547 31.434 7.81547 31.4766V43.447V43.4577V44.2827C7.81547 44.3254 7.78078 44.3601 7.73812 44.3601H1.48359C1.44094 44.3601 1.40625 44.3254 1.40625 44.2827V35.9871C1.40625 35.5986 1.09153 35.2839 0.703125 35.2839C0.314719 35.2839 0 35.5986 0 35.9871V44.2827C0 45.1008 0.665625 45.7663 1.48359 45.7663H7.73812C8.55619 45.7663 9.22172 45.1007 9.22172 44.2827V43.829L11.7953 42.1094C13.3663 41.0597 15.2583 40.6525 17.1215 40.9631L20.0386 41.4492C24.7847 42.24 29.5733 41.1625 33.5236 38.4162L38.4053 35.0221C38.7241 34.8004 38.8028 34.3622 38.5812 34.0434C38.3595 33.7246 37.9215 33.6458 37.6026 33.8675L32.7209 37.2616C29.0736 39.7974 24.6518 40.792 20.2698 40.062L17.3527 39.5759C15.1353 39.2067 12.8839 39.6909 11.0141 40.9401L9.22181 42.1376V33.8927L13.4524 30.1511C15.4669 28.3694 18.151 27.551 20.8172 27.9071L22.1129 28.08C23.8878 28.3167 25.6948 28.4034 27.4837 28.3374C31.427 28.1922 30.203 28.2288 30.4429 28.2288C30.7653 28.2288 31.0402 28.4745 31.0737 28.7976C31.1049 29.0976 30.9214 29.3766 30.6355 29.4677C24.1805 31.3344 24.9245 31.1193 24.8658 31.1362C23.8597 31.4272 22.9762 32.0087 22.3111 32.8176L21.649 33.6228C21.4024 33.9227 21.4456 34.3658 21.7455 34.6125C21.8764 34.7201 22.0345 34.7725 22.1917 34.7725C22.3947 34.7725 22.5962 34.685 22.7352 34.516L23.3973 33.7108C23.8812 33.1221 24.5242 32.699 25.2562 32.4873C32.2443 30.4665 28.1633 31.6926 45.5502 26.419C45.7977 26.344 46.059 26.3894 46.2668 26.5435C46.4746 26.6977 46.5937 26.9345 46.5937 27.1932C46.5937 27.458 46.4639 27.7063 46.2466 27.8573L39.9248 32.2528C39.6059 32.4745 39.5272 32.9127 39.7488 33.2315C39.8855 33.4281 40.1043 33.5333 40.3268 33.5333C40.4653 33.5333 40.6052 33.4925 40.7274 33.4074L47.0493 29.012C47.6446 28.5981 47.9999 27.9182 47.9999 27.1932C48 26.4846 47.6737 25.8362 47.1048 25.4141Z" fill="black"/>
<path d="M6.40405 42.0906V41.3474C6.40405 40.959 6.08933 40.6443 5.70093 40.6443C5.31252 40.6443 4.9978 40.959 4.9978 41.3474V42.0906C4.9978 42.479 5.31252 42.7937 5.70093 42.7937C6.08933 42.7937 6.40405 42.479 6.40405 42.0906Z" fill="black"/>
<path d="M12.7749 22.4327C14.3173 22.4327 15.7695 22.0391 17.0363 21.3471V21.7295C17.0363 22.118 17.351 22.4327 17.7394 22.4327C19.3864 22.4327 32.4296 22.4326 33.9235 22.4326C34.3119 22.4326 34.6266 22.1179 34.6266 21.7295V11.9693C34.6266 11.5809 34.3119 11.2662 33.9235 11.2662C33.5351 11.2662 33.2204 11.5809 33.2204 11.9693V21.0262H30.6839V19.8015C30.6839 19.4131 30.3691 19.0984 29.9807 19.0984C29.5923 19.0984 29.2776 19.4131 29.2776 19.8015V21.0262H26.7412V6.98408H33.2203V9.25067C33.2203 9.63908 33.535 9.9538 33.9234 9.9538C34.3118 9.9538 34.6265 9.63908 34.6265 9.25067V6.28095C34.6265 5.89255 34.3118 5.57783 33.9234 5.57783H30.6838V2.93689C30.6838 2.54848 30.369 2.23376 29.9806 2.23376C29.5922 2.23376 29.2775 2.54848 29.2775 2.93689V5.57783H26.0381C25.6497 5.57783 25.335 5.89255 25.335 6.28095V10.821H21.2781C20.1336 7.21526 16.7545 4.59523 12.7748 4.59523C7.85705 4.59523 3.85608 8.5962 3.85608 13.514C3.85617 18.4317 7.85714 22.4327 12.7749 22.4327ZM25.335 12.2271V21.0263H22.5918V19.8015C22.5918 19.4131 22.2771 19.0984 21.8887 19.0984C21.5003 19.0984 21.1856 19.4131 21.1856 19.8015V21.0263H18.4425V20.3952C20.4267 18.758 21.6935 16.2811 21.6935 13.5138C21.6935 13.0769 21.6619 12.6473 21.6009 12.227H25.335V12.2271ZM12.7749 6.00139C16.9173 6.00139 20.2874 9.37142 20.2874 13.5139C20.2874 17.6563 16.9173 21.0264 12.7749 21.0264C8.63245 21.0264 5.26242 17.6563 5.26242 13.5139C5.26242 9.37142 8.63245 6.00139 12.7749 6.00139Z" fill="black"/>
<path d="M10.4867 17.1547C11.0669 17.5304 11.4971 17.6808 12.0267 17.734V18.0982C12.0267 18.4866 12.3414 18.8013 12.7298 18.8013C13.1182 18.8013 13.4329 18.4866 13.4329 18.0982V17.6666C14.5203 17.3744 15.2168 16.4382 15.372 15.5151C15.5742 14.312 14.9212 13.2249 13.7473 12.81C13.6438 12.7734 13.5385 12.7356 13.4329 12.6966V10.7055C13.5487 10.7329 13.6619 10.765 13.7689 10.7988C14.1764 10.9276 14.5985 10.6499 14.6369 10.2243C14.6602 9.96644 14.5318 9.7196 14.3086 9.58816C14.0767 9.45138 13.7795 9.32453 13.4329 9.25253V8.92957C13.4329 8.54116 13.1182 8.22644 12.7298 8.22644C12.3414 8.22644 12.0267 8.54116 12.0267 8.92957V9.30025C11.9975 9.30813 11.9682 9.31657 11.9387 9.32538C11.1452 9.56444 10.5526 10.2414 10.3923 11.0921C10.245 11.8742 10.4999 12.6317 11.0577 13.0691C11.3114 13.268 11.6186 13.4506 12.0267 13.6395V16.3178C11.7642 16.272 11.5529 16.1718 11.2298 15.9605C10.8812 15.7325 10.4053 15.8538 10.2138 16.2385C10.0522 16.5632 10.1822 16.9576 10.4867 17.1547ZM13.9851 15.2819C13.9316 15.6003 13.7448 15.9348 13.4328 16.1435V14.1998C14.042 14.4946 14.0248 15.046 13.9851 15.2819ZM11.9254 11.9626C11.7845 11.852 11.7252 11.6127 11.7743 11.3524C11.8051 11.1888 11.8857 11.0037 12.0266 10.8627V12.0368C11.9911 12.0123 11.9573 11.9876 11.9254 11.9626Z" fill="black"/>
<path d="M28.0404 16.1951C27.652 16.1951 27.3373 16.5098 27.3373 16.8982V17.5357C27.3373 17.9241 27.652 18.2388 28.0404 18.2388C28.4288 18.2388 28.7435 17.9241 28.7435 17.5357V16.8982C28.7435 16.5098 28.4287 16.1951 28.0404 16.1951Z" fill="black"/>
<path d="M29.9808 16.1951C29.5924 16.1951 29.2777 16.5098 29.2777 16.8982V17.5357C29.2777 17.9241 29.5924 18.2388 29.9808 18.2388C30.3692 18.2388 30.684 17.9241 30.684 17.5357V16.8982C30.684 16.5098 30.3692 16.1951 29.9808 16.1951Z" fill="black"/>
<path d="M31.9211 16.1951C31.5327 16.1951 31.218 16.5098 31.218 16.8982V17.5357C31.218 17.9241 31.5327 18.2388 31.9211 18.2388C32.3095 18.2388 32.6243 17.9241 32.6243 17.5357V16.8982C32.6243 16.5098 32.3095 16.1951 31.9211 16.1951Z" fill="black"/>
<path d="M28.7435 14.1735C28.7435 13.7851 28.4288 13.4703 28.0404 13.4703C27.652 13.4703 27.3373 13.7851 27.3373 14.1735V14.811C27.3373 15.1994 27.652 15.5141 28.0404 15.5141C28.4288 15.5141 28.7435 15.1994 28.7435 14.811V14.1735Z" fill="black"/>
<path d="M30.684 14.1735C30.684 13.7851 30.3692 13.4703 29.9808 13.4703C29.5924 13.4703 29.2777 13.7851 29.2777 14.1735V14.811C29.2777 15.1994 29.5924 15.5141 29.9808 15.5141C30.3692 15.5141 30.684 15.1994 30.684 14.811V14.1735Z" fill="black"/>
<path d="M32.6243 14.1735C32.6243 13.7851 32.3095 13.4703 31.9211 13.4703C31.5327 13.4703 31.218 13.7851 31.218 14.1735V14.811C31.218 15.1994 31.5327 15.5141 31.9211 15.5141C32.3095 15.5141 32.6243 15.1994 32.6243 14.811V14.1735Z" fill="black"/>
<path d="M28.7435 11.4487C28.7435 11.0603 28.4288 10.7456 28.0404 10.7456C27.652 10.7456 27.3373 11.0603 27.3373 11.4487V12.0862C27.3373 12.4746 27.652 12.7894 28.0404 12.7894C28.4288 12.7894 28.7435 12.4746 28.7435 12.0862V11.4487Z" fill="black"/>
<path d="M30.684 11.4487C30.684 11.0603 30.3692 10.7456 29.9808 10.7456C29.5924 10.7456 29.2777 11.0603 29.2777 11.4487V12.0862C29.2777 12.4746 29.5924 12.7894 29.9808 12.7894C30.3692 12.7894 30.684 12.4746 30.684 12.0862V11.4487Z" fill="black"/>
<path d="M32.6243 11.4487C32.6243 11.0603 32.3095 10.7456 31.9211 10.7456C31.5327 10.7456 31.218 11.0603 31.218 11.4487V12.0862C31.218 12.4746 31.5327 12.7894 31.9211 12.7894C32.3095 12.7894 32.6243 12.4746 32.6243 12.0862V11.4487Z" fill="black"/>
<path d="M28.7435 8.72388C28.7435 8.33547 28.4288 8.02075 28.0404 8.02075C27.652 8.02075 27.3373 8.33547 27.3373 8.72388V9.36138C27.3373 9.74978 27.652 10.0645 28.0404 10.0645C28.4288 10.0645 28.7435 9.74978 28.7435 9.36138V8.72388Z" fill="black"/>
<path d="M30.684 8.72388C30.684 8.33547 30.3692 8.02075 29.9808 8.02075C29.5924 8.02075 29.2777 8.33547 29.2777 8.72388V9.36138C29.2777 9.74978 29.5924 10.0645 29.9808 10.0645C30.3692 10.0645 30.684 9.74978 30.684 9.36138V8.72388Z" fill="black"/>
<path d="M32.6243 8.72388C32.6243 8.33547 32.3095 8.02075 31.9211 8.02075C31.5327 8.02075 31.218 8.33547 31.218 8.72388V9.36138C31.218 9.74978 31.5327 10.0645 31.9211 10.0645C32.3095 10.0645 32.6243 9.74978 32.6243 9.36138V8.72388Z" fill="black"/>
<path d="M23.8292 18.2388C24.2176 18.2388 24.5324 17.9241 24.5324 17.5357V16.8982C24.5324 16.5098 24.2176 16.1951 23.8292 16.1951C23.4408 16.1951 23.1261 16.5098 23.1261 16.8982V17.5357C23.1261 17.9241 23.4408 18.2388 23.8292 18.2388Z" fill="black"/>
<path d="M23.8292 15.5141C24.2176 15.5141 24.5324 15.1994 24.5324 14.811V14.1735C24.5324 13.7851 24.2176 13.4703 23.8292 13.4703C23.4408 13.4703 23.1261 13.7851 23.1261 14.1735V14.811C23.1261 15.1993 23.4408 15.5141 23.8292 15.5141Z" fill="black"/>
<path d="M37.3036 18.6503H38.962L37.9498 21.4937C37.8732 21.709 37.9059 21.9482 38.0377 22.1349C38.1693 22.3216 38.3836 22.4327 38.6122 22.4327H43.8131C44.0416 22.4327 44.2559 22.3216 44.3876 22.1349C44.5193 21.9482 44.5521 21.709 44.4755 21.4938L43.4633 18.6503H45.1987C46.1629 18.6503 46.9473 17.8659 46.9473 16.9017V12.1323C46.9473 11.1681 46.1629 10.3837 45.1987 10.3837H37.3036C36.3393 10.3837 35.5549 11.1681 35.5549 12.1323V16.9017C35.5549 17.8659 36.3393 18.6503 37.3036 18.6503ZM42.8164 21.0264H39.6089L40.4547 18.6503H41.9706L42.8164 21.0264ZM36.9612 12.1323C36.9612 11.9435 37.1148 11.7899 37.3036 11.7899H45.1987C45.3875 11.7899 45.5411 11.9436 45.5411 12.1323V16.9017C45.5411 17.0905 45.3874 17.244 45.1987 17.244H37.3036C37.1147 17.244 36.9612 17.0904 36.9612 16.9017V12.1323Z" fill="black"/>
<path d="M40.8862 15.9015H41.6158C42.0042 15.9015 42.3189 15.5868 42.3189 15.1984C42.3189 14.81 42.0042 14.4952 41.6158 14.4952H40.8862C40.4978 14.4952 40.1831 14.81 40.1831 15.1984C40.1831 15.5868 40.4979 15.9015 40.8862 15.9015Z" fill="black"/>
</g>
<defs>
<clipPath id="clip0_1460_1922">
<rect width="48" height="48" fill="white"/>
</clipPath>
</defs>
</svg>
