<svg xmlns="http://www.w3.org/2000/svg" version="1.1" xmlns:xlink="http://www.w3.org/1999/xlink" width="512" height="512" x="0" y="0" viewBox="0 0 32 32" style="enable-background:new 0 0 512 512" xml:space="preserve" class=""><g><path d="M22.005 23.914c.417.685.542 1.49.352 2.269a2.982 2.982 0 0 1-1.356 1.854l-2.484 1.512a2.979 2.979 0 0 1-1.551.436c-.484 0-.972-.117-1.425-.353-5.216-2.705-8.194-6.722-9.505-8.875C3.131 15.985 2.521 11.283 2.52 8.18c0-1.046.538-2 1.44-2.55l2.485-1.512a2.975 2.975 0 0 1 2.269-.352c.778.189 1.437.67 1.853 1.355l1.56 2.562a3.004 3.004 0 0 1-1.003 4.123l-1.287.783c-.386.235-.574.707-.445 1.121a17.51 17.51 0 0 0 4.44 7.298.984.984 0 0 0 1.205.124l1.286-.783a3.003 3.003 0 0 1 4.123 1.002l1.56 2.563zm-5.916-12.02a4.005 4.005 0 0 1 3.343 4.563 1 1 0 1 0 1.977.305 6.007 6.007 0 0 0-5.014-6.845 1 1 0 0 0-.306 1.976zm.915-5.93a1.001 1.001 0 0 0-.305 1.977c2.112.326 3.97 1.455 5.233 3.179s1.779 3.836 1.453 5.948a1.001 1.001 0 0 0 1.977.305c.408-2.64-.237-5.28-1.816-7.435s-3.902-3.565-6.542-3.973zm.61-3.953a1.003 1.003 0 0 0-1.141.836c-.084.545.29 1.056.836 1.141 6.539 1.009 11.038 7.15 10.029 13.69a1.001 1.001 0 0 0 1.977.305c1.178-7.629-4.071-14.793-11.701-15.971z" fill="#2a343f" opacity="1" data-original="#000000" class=""></path></g></svg>