<svg width="26" height="25" viewBox="0 0 26 25" fill="none" xmlns="http://www.w3.org/2000/svg">
<g clip-path="url(#clip0_1557_467)">
<path d="M18.962 0H7.03795C3.15716 0 0 3.03573 0 6.76726V18.2329C0 21.9642 3.15716 25 7.03795 25H18.9622C22.8428 25 26 21.9642 26 18.2329V6.76726C26 3.03573 22.8428 0 18.962 0ZM24.4757 18.2329C24.4757 21.1561 22.0023 23.5343 18.962 23.5343H7.03795C3.99763 23.5343 1.52423 21.1561 1.52423 18.2329V6.76726C1.52423 3.84387 3.99763 1.4656 7.03795 1.4656H18.9622C22.0023 1.4656 24.4757 3.84387 24.4757 6.76726V18.2329Z" fill="#CFDE29"/>
<path d="M13 5.66431C9.07997 5.66431 5.89087 8.73074 5.89087 12.5C5.89087 16.2693 9.07997 19.3358 13 19.3358C16.9201 19.3358 20.1092 16.2693 20.1092 12.5C20.1092 8.73074 16.9201 5.66431 13 5.66431ZM13 17.8702C9.92063 17.8702 7.4151 15.4612 7.4151 12.5C7.4151 9.53908 9.92063 7.12991 13 7.12991C16.0796 7.12991 18.585 9.53908 18.585 12.5C18.585 15.4612 16.0796 17.8702 13 17.8702Z" fill="#CFDE29"/>
<path d="M20.2791 3.23633C19.1207 3.23633 18.1785 4.14251 18.1785 5.25621C18.1785 6.3701 19.1207 7.27628 20.2791 7.27628C21.4376 7.27628 22.38 6.3701 22.38 5.25621C22.38 4.14232 21.4376 3.23633 20.2791 3.23633ZM20.2791 5.81048C19.9614 5.81048 19.7027 5.56176 19.7027 5.25621C19.7027 4.95046 19.9614 4.70193 20.2791 4.70193C20.5971 4.70193 20.8558 4.95046 20.8558 5.25621C20.8558 5.56176 20.5971 5.81048 20.2791 5.81048Z" fill="#CFDE29"/>
</g>
<defs>
<clipPath id="clip0_1557_467">
<rect width="26" height="25" fill="white"/>
</clipPath>
</defs>
</svg>
