<svg width="13" height="13" viewBox="0 0 13 13" fill="none" xmlns="http://www.w3.org/2000/svg">
<path d="M8.83105 7.33406C8.05774 7.29248 7.66378 7.88961 7.47485 8.17644C7.31663 8.41657 7.37588 8.74435 7.60716 8.90863C7.83843 9.0729 8.15413 9.01138 8.31235 8.77125C8.53558 8.43237 8.63671 8.37907 8.77389 8.38581C9.21297 8.4394 10.9423 9.75515 11.1155 10.1666C11.1589 10.2877 11.1573 10.4065 11.1107 10.551C10.9291 11.1105 10.6286 11.5036 10.2414 11.6879C9.87352 11.863 9.42253 11.8471 8.93745 11.6422C7.12614 10.8757 5.54366 9.80593 4.23407 8.46264C4.23353 8.46208 4.23299 8.46159 4.23251 8.46103C2.94145 7.10264 1.91305 5.4617 1.176 3.58393C0.978544 3.07987 0.963257 2.61155 1.13189 2.22969C1.30939 1.82767 1.68807 1.51562 2.22645 1.32733C2.36607 1.27872 2.48025 1.27718 2.59586 1.32185C2.99354 1.50228 4.26072 3.29773 4.31186 3.74849C4.31917 3.89626 4.26742 4.00119 3.9413 4.23254C3.70996 4.39661 3.6505 4.72439 3.80858 4.96459C3.9666 5.20479 4.28223 5.26645 4.51364 5.10239C4.79004 4.90643 5.36502 4.49852 5.32511 3.69287C5.28114 2.85133 3.70448 0.622742 2.95112 0.335135C2.61608 0.205484 2.26365 0.203236 1.90324 0.328814C1.09232 0.612347 0.506657 1.11789 0.209562 1.79073C-0.0786029 2.44348 -0.0694709 3.20081 0.236282 3.98125C1.02508 5.99077 2.1287 7.74907 3.51643 9.20747C3.51981 9.21105 3.52326 9.21457 3.52678 9.21801C4.9304 10.6562 6.62192 11.7999 8.55479 12.6179C8.94185 12.7814 9.32303 12.8632 9.68756 12.8632C10.0308 12.8632 10.3594 12.7907 10.6642 12.6456C11.3123 12.3372 11.7992 11.7292 12.0724 10.8867C12.1931 10.5132 12.1912 10.1474 12.0672 9.80116C11.7893 9.01686 9.64285 7.37985 8.83105 7.33406Z" fill="#2A343F"/>
</svg>
