<svg width="17" height="14" viewBox="0 0 17 14" fill="none" xmlns="http://www.w3.org/2000/svg">
<path d="M8.31142 11.9214C8.31142 12.0718 8.249 12.216 8.1379 12.3223C8.02681 12.4286 7.87613 12.4883 7.71901 12.4883H2.97979C2.57959 12.5327 2.17409 12.4899 1.79361 12.3632C1.41313 12.2364 1.06753 12.029 0.78265 11.7564C0.497775 11.4838 0.281002 11.1531 0.148547 10.789C0.0160928 10.4249 -0.0286144 10.0369 0.01777 9.65393V2.8514C-0.0286144 2.46844 0.0160928 2.08041 0.148547 1.71633C0.281002 1.35224 0.497775 1.02153 0.78265 0.748928C1.06753 0.476327 1.41313 0.268894 1.79361 0.142147C2.17409 0.0153994 2.57959 -0.0273815 2.97979 0.0170044H12.4582C12.8584 -0.0273815 13.2639 0.0153994 13.6444 0.142147C14.0249 0.268894 14.3705 0.476327 14.6554 0.748928C14.9403 1.02153 15.157 1.35224 15.2895 1.71633C15.4219 2.08041 15.4666 2.46844 15.4203 2.8514V5.11891C15.4203 5.26925 15.3578 5.41344 15.2467 5.51975C15.1356 5.62606 14.985 5.68579 14.8279 5.68579C14.6707 5.68579 14.5201 5.62606 14.409 5.51975C14.2979 5.41344 14.2354 5.26925 14.2354 5.11891V2.8514C14.2354 1.65944 13.7039 1.15076 12.4582 1.15076H2.97979C1.73416 1.15076 1.20258 1.65944 1.20258 2.8514V9.65393C1.20258 10.8459 1.73416 11.3546 2.97979 11.3546H7.71901C7.87613 11.3546 8.02681 11.4143 8.1379 11.5206C8.249 11.6269 8.31142 11.7711 8.31142 11.9214ZM12.542 3.27391C12.4963 3.21364 12.4387 3.16259 12.3724 3.12368C12.3061 3.08478 12.2324 3.05878 12.1555 3.0472C12.0787 3.03561 12.0002 3.03866 11.9246 3.05616C11.849 3.07366 11.7778 3.10528 11.715 3.1492L7.83433 5.84905C7.80079 5.87228 7.76043 5.88479 7.71901 5.88479C7.6776 5.88479 7.63724 5.87228 7.60369 5.84905L3.72305 3.1492C3.6602 3.10542 3.58894 3.07393 3.51336 3.0565C3.43778 3.03908 3.35936 3.03607 3.28257 3.04766C3.20577 3.05924 3.13211 3.08518 3.0658 3.124C2.99948 3.16282 2.9418 3.21376 2.89606 3.27391C2.85032 3.33406 2.8174 3.40224 2.79919 3.47456C2.78099 3.54689 2.77785 3.62193 2.78995 3.69542C2.80205 3.7689 2.82916 3.83939 2.86973 3.90285C2.9103 3.96631 2.96353 4.0215 3.02639 4.06527L6.90623 6.76588C7.14216 6.93086 7.4268 7.01978 7.71901 7.01978C8.01122 7.01978 8.29586 6.93086 8.53179 6.76588L12.4116 4.06527C12.4746 4.02159 12.528 3.96644 12.5686 3.90299C12.6093 3.83953 12.6364 3.76902 12.6486 3.69549C12.6607 3.62196 12.6575 3.54688 12.6392 3.47453C12.6209 3.40218 12.5879 3.33401 12.542 3.27391ZM17 8.80891C17.0001 8.97174 16.9665 9.13297 16.9011 9.28332C16.8358 9.43366 16.74 9.57015 16.6193 9.68492L12.2624 13.8345C12.1514 13.9403 12.0012 13.9998 11.8445 14H10.0886C9.93151 14 9.78083 13.9403 9.66973 13.834C9.55864 13.7277 9.49622 13.5835 9.49622 13.4331V11.7537C9.49608 11.6794 9.51128 11.6058 9.54097 11.5372C9.57066 11.4686 9.61424 11.4062 9.6692 11.3538L14.0064 7.18386C14.1262 7.06815 14.2688 6.97636 14.4259 6.91382C14.5831 6.85128 14.7516 6.81923 14.9218 6.81954C15.0918 6.81897 15.2602 6.85075 15.4173 6.91303C15.5743 6.97532 15.7168 7.06686 15.8365 7.18234L16.6193 7.93138C16.7403 8.04625 16.8362 8.18297 16.9016 8.33361C16.967 8.48425 17.0004 8.6458 17 8.80891ZM14.8452 7.98429L14.3452 8.465L15.2804 9.35991L15.7828 8.88147C15.7933 8.87166 15.8016 8.85989 15.8072 8.84689C15.8128 8.83389 15.8155 8.81993 15.8152 8.80588C15.8154 8.79185 15.8126 8.77792 15.8071 8.76493C15.8015 8.75194 15.7932 8.74017 15.7828 8.7303L15.0008 7.98202C14.9906 7.97189 14.9783 7.9639 14.9648 7.95857C14.9512 7.95323 14.9365 7.95067 14.9218 7.95103C14.9074 7.95148 14.8932 7.95465 14.8801 7.96036C14.8669 7.96607 14.8551 7.9742 14.8452 7.98429ZM14.4408 10.1596L13.5096 9.26846L10.681 11.9895V12.8662H11.5996L14.4408 10.1596Z" fill="#2A343F"/>
</svg>
