<svg width="42" height="42" viewBox="0 0 42 42" fill="none" xmlns="http://www.w3.org/2000/svg">
<g clip-path="url(#clip0_1460_1965)">
<path d="M9.61864 13.1748L4.01864 10.9348C3.58721 10.7627 3.09853 10.8158 2.71412 11.0765C2.32971 11.3372 2.09963 11.7716 2.09994 12.2361V38.8102L0.19244 40.8178C-0.000435609 41.0206 -0.0538901 41.3189 0.0565287 41.5762C0.166948 41.8334 0.420005 42.0001 0.69994 42.0001H41.2999C41.5799 42.0001 41.8329 41.8334 41.9434 41.5762C42.0538 41.3189 42.0003 41.0206 41.8074 40.8178L39.8999 38.8102V12.2361C39.9003 11.7716 39.6702 11.3372 39.2858 11.0765C38.9014 10.8158 38.4127 10.7627 37.9812 10.9348L32.3812 13.1748C31.8472 13.3852 31.4972 13.902 31.4999 14.4761V29.9678L28.6999 27.0201V10.8501L41.715 1.26006C41.9848 1.01894 42.0264 0.611973 41.8109 0.321306C41.5954 0.0306391 41.194 -0.0479356 40.8848 0.140058L27.7703 9.80006H14.2295L1.11504 0.140058C0.804725 -0.0590296 0.393182 0.0167067 0.174074 0.313224C-0.0450349 0.609741 0.00340994 1.02538 0.28484 1.26356L13.2999 10.8536V27.0201L10.4999 29.9671V14.4761C10.5027 13.902 10.1527 13.3852 9.61864 13.1748ZM3.49994 12.2347L9.09994 14.4747V22.6647L8.08704 23.1708C7.74103 23.3436 7.60063 23.7642 7.77344 24.1102C7.94625 24.4562 8.36683 24.5966 8.71284 24.4238L9.09994 24.2327V31.4427L3.49994 37.3367V12.2347ZM6.19284 40.6001L15.5028 30.8001H26.4977L35.8077 40.6001H6.19284ZM37.7383 40.6001L27.3083 29.6178C27.1755 29.478 26.9909 29.3992 26.798 29.4001H15.2018C15.01 29.4 14.8265 29.4787 14.6943 29.6178L4.26154 40.6001H2.33024L14.3002 28.0001H27.6989L39.6689 40.6001H37.7383ZM23.7999 21.0001H23.0999C22.7133 21.0001 22.3999 21.3135 22.3999 21.7001C22.3999 22.0867 22.7133 22.4001 23.0999 22.4001H23.7999V26.6001H18.1999V15.4001H23.7999V21.0001ZM32.8999 14.4754L38.4999 12.2354V24.0654L38.1128 23.8715C37.7668 23.6987 37.3463 23.8391 37.1734 24.1851C37.0006 24.5311 37.141 24.9516 37.487 25.1245L38.4999 25.6327V37.3367L32.8999 31.442V14.4754ZM14.6999 11.2001H27.2999V26.6001H25.1999V15.4001C25.1999 14.6269 24.5731 14.0001 23.7999 14.0001H18.1999C17.4267 14.0001 16.7999 14.6269 16.7999 15.4001V26.6001H14.6999V11.2001Z" fill="black"/>
<path d="M21 5.6C22.9299 5.6 24.5 4.3442 24.5 2.8C24.5 1.2558 22.9299 0 21 0C19.0701 0 17.5 1.2558 17.5 2.8C17.5 4.3442 19.0701 5.6 21 5.6ZM21 1.4C22.1382 1.4 23.1 2.0412 23.1 2.8C23.1 3.5588 22.1382 4.2 21 4.2C19.8618 4.2 18.9 3.5588 18.9 2.8C18.9 2.0412 19.8618 1.4 21 1.4Z" fill="black"/>
</g>
<defs>
<clipPath id="clip0_1460_1965">
<rect width="42" height="42" fill="white"/>
</clipPath>
</defs>
</svg>
