<svg width="56" height="59" viewBox="0 0 56 59" fill="none" xmlns="http://www.w3.org/2000/svg">
<path d="M38.5921 31.2868C39.9244 31.2868 41.0083 30.2018 41.0083 28.8681V23.7896C41.0083 22.4559 39.9244 21.371 38.5921 21.371C37.2599 21.371 36.176 22.4559 36.176 23.7896V28.8681C36.176 30.2018 37.2599 31.2868 38.5921 31.2868ZM38.0771 23.7896C38.0771 23.5102 38.3129 23.2742 38.5921 23.2742C38.8713 23.2742 39.1071 23.5102 39.1071 23.7896V28.8681C39.1071 29.1475 38.8713 29.3835 38.5921 29.3835C38.3129 29.3835 38.0771 29.1475 38.0771 28.8681V23.7896ZM55.0492 0H13.5433C13.0183 0 12.5927 0.426083 12.5927 0.951609V4.24977C12.5927 4.77529 13.0183 5.20138 13.5433 5.20138H14.0161V27.848H13.8738C11.2537 27.848 9.08228 29.8023 8.73436 32.331C7.98043 32.0097 7.15152 31.8317 6.28173 31.8317C2.81802 31.8317 0 34.6528 0 38.1204C0 41.1294 2.13181 43.6789 4.9957 44.2762V51.7066C4.9957 52.2322 5.42133 52.6582 5.94629 52.6582H7.12525V57.9071C7.12525 58.4326 7.55088 58.8587 8.07584 58.8587H11.627C12.0489 58.8587 12.4204 58.5802 12.5392 58.175L14.0163 53.134V55.7604C14.0163 56.2859 14.4419 56.712 14.9669 56.712H17.2886C17.7105 56.712 18.082 56.4335 18.2008 56.0282L19.1883 52.6582H26.0895L27.7089 58.3108C27.8257 58.7188 28.1986 59 28.6226 59H32.1736C32.6986 59 33.1242 58.5739 33.1242 58.0484V52.6584H49.4045L50.392 56.0284C50.5108 56.4336 50.8823 56.7121 51.3042 56.7121H53.6259C54.1509 56.7121 54.5765 56.286 54.5765 55.7605V51.709C54.5765 51.7082 54.5766 51.7075 54.5766 51.7067V5.20138H55.0494C55.5744 5.20138 56 4.77529 56 4.24977V0.951609C55.9998 0.426083 55.5741 0 55.0492 0ZM14.4939 1.90322H54.0986V3.29816H14.4939V1.90322ZM15.9172 5.20138H33.3456V31.8626C32.6995 31.9265 32.0821 32.0886 31.5082 32.334C31.476 32.0985 31.4278 31.8681 31.3649 31.6435V13.8268C31.3649 10.1099 28.3442 7.08604 24.6313 7.08604C20.9184 7.08604 17.8978 10.1099 17.8978 13.8268V27.8479H15.9172V5.20138ZM26.3685 27.8479H19.7991V13.8268C19.7991 11.1593 21.9668 8.98926 24.6314 8.98926C27.296 8.98926 29.4639 11.1593 29.4639 13.8268V28.8759C28.5989 28.2306 27.5275 27.8479 26.3685 27.8479ZM17.0217 35.8898L17.1377 36.9919L15.7785 35.9392L17.6333 32.8809C17.7916 32.62 17.8152 32.2988 17.6968 32.0175L16.743 29.7511H18.7228L19.1797 32.7819L17.2288 35.1909C17.0698 35.387 16.9953 35.6385 17.0217 35.8898ZM10.5855 33.043C10.5855 31.2278 12.0606 29.7511 13.8738 29.7511H14.6798L15.7562 32.3086L13.7128 35.6777C13.4619 36.0916 13.5612 36.628 13.9436 36.9242L17.7343 39.8602C17.9046 39.992 18.1098 40.0592 18.3161 40.0592C18.4748 40.0592 18.6343 40.0194 18.7789 39.9387C19.1113 39.753 19.3012 39.3869 19.2614 39.0079L18.9538 36.0828L20.9206 33.6541C21.0888 33.4463 21.162 33.1773 21.1221 32.9128L20.6454 29.7511H26.3684C27.8345 29.7511 29.0792 30.7169 29.5021 32.0461C29.5056 32.058 29.5094 32.0698 29.5133 32.0816C29.6062 32.3859 29.6567 32.7086 29.6567 33.043V33.5524C28.4445 34.6996 27.6858 36.3224 27.6858 38.1203V41.8507C27.0065 41.395 26.1903 41.1287 25.3129 41.1287H14.9295C14.0521 41.1287 13.2359 41.395 12.5566 41.8507V38.4187C12.5612 38.3206 12.5637 38.2203 12.5637 38.1203C12.5637 36.3189 11.802 34.6933 10.5856 33.5456L10.5855 33.043ZM27.6619 45.0889H12.5806C12.7368 43.9295 13.7292 43.0319 14.9295 43.0319H25.3129C26.5132 43.0319 27.5056 43.9294 27.6619 45.0889ZM6.00511 42.4965C3.70373 42.3533 1.90106 40.4311 1.90106 38.1203C1.90106 35.7021 3.86616 33.7348 6.28161 33.7348C8.69717 33.7348 10.6624 35.7021 10.6624 38.1203C10.6624 38.1958 10.6605 38.2706 10.6566 38.3452C10.6557 38.3619 10.6553 38.3783 10.6553 38.3949V46.0405C10.6553 46.566 11.0809 46.9921 11.6059 46.9921H28.6361C29.1611 46.9921 29.5867 46.566 29.5867 46.0405V38.1203C29.5867 35.7021 31.5518 33.7348 33.9673 33.7348C36.3417 33.7348 38.3478 35.7431 38.3478 38.1203C38.3478 40.4725 36.5811 42.3541 34.2382 42.4968C33.7365 42.5274 33.3453 42.9436 33.3453 43.4467V50.7548H6.89676V43.4462C6.89676 42.9436 6.5063 42.5275 6.00511 42.4965ZM10.9151 56.9552H9.02631V52.658H12.1742L10.9151 56.9552ZM16.5766 54.8086H15.9172V52.6581H17.2067L16.5766 54.8086ZM31.2228 57.0965H29.3387L28.067 52.6581H31.2228V57.0965ZM52.0156 54.8086L51.3855 52.6581H52.675V54.8086H52.0156ZM47.6658 30.4441L48.1171 39.0798L45.1261 41.1746L46.4043 37.2022C46.4736 36.9868 46.4641 36.7539 46.3772 36.5451L44.1692 31.2294L47.0547 27.9369L52.6751 26.9485V28.9079L48.493 29.4505C48.0002 29.5145 47.6399 29.9475 47.6658 30.4441ZM52.6751 25.0163L46.3963 26.1202C46.183 26.1576 45.989 26.2669 45.8462 26.43L42.3496 30.4197C42.1105 30.6926 42.0473 31.0776 42.1864 31.4127L44.4873 36.9522L42.4496 43.2848C42.3244 43.6739 42.4614 44.0995 42.7897 44.3421C42.9573 44.4661 43.1558 44.5282 43.3543 44.5282C43.5449 44.5282 43.7355 44.4711 43.8992 44.3563L49.6388 40.3366C49.9074 40.1485 50.0602 39.8349 50.0431 39.5071L49.6103 31.2247L52.675 30.8269V50.7547H35.2468V44.2804C38.1537 43.6966 40.2492 41.1873 40.2492 38.12C40.2492 35.0912 38.0991 32.556 35.2468 31.9628V5.20138H52.6751V25.0163Z" fill="black"/>
</svg>
