<svg width="49" height="62" viewBox="0 0 49 62" fill="none" xmlns="http://www.w3.org/2000/svg">
<path d="M46.7336 47.5543H45.183C43.9334 47.5543 42.9165 48.571 42.9165 49.8208V53.6378H41.5007L43.8472 26.2621H44.9444C45.5043 26.2621 45.9583 25.8081 45.9583 25.2482V21.1925C45.9583 20.6326 45.5043 20.1786 44.9444 20.1786H43.8117L43.1492 14.8768L43.3462 12.3034L44.1613 11.4883C44.5681 11.85 45.0787 12.0333 45.5907 12.0333C46.1426 12.0333 46.6943 11.8233 47.1143 11.4031L48.3689 10.1485C49.2089 9.30837 49.2089 7.94161 48.3689 7.10145L42.8125 1.54506C41.9725 0.705158 40.6056 0.704905 39.7655 1.54506L38.5107 2.79966C38.1843 3.12601 37.9865 3.53221 37.9137 3.95578H8.44337C7.9321 3.95578 7.50068 4.3365 7.43731 4.84397L5.5205 20.1786H4.3877C3.82776 20.1786 3.37378 20.6326 3.37378 21.1925V25.2482C3.37378 25.8081 3.82776 26.2621 4.3877 26.2621H5.48476L7.83121 53.6378H6.41553V49.8208C6.41553 48.5712 5.39883 47.5543 4.14905 47.5543H2.59852C1.34874 47.5543 0.332031 48.571 0.332031 49.8208V59.4827C0.332031 60.7325 1.34874 61.7492 2.59852 61.7492H4.14905C5.3987 61.7492 6.41553 60.7325 6.41553 59.4827V55.6657H8.0051L8.44704 60.8219C8.49191 61.3464 8.93081 61.7492 9.45728 61.7492H39.8748C40.4011 61.7492 40.84 61.3463 40.885 60.8219L41.327 55.6657H42.9165V59.4827C42.9165 60.7323 43.9332 61.7492 45.183 61.7492H46.7336C47.9832 61.7492 49 60.7325 49 59.4827V49.8208C49 48.571 47.9833 47.5543 46.7336 47.5543ZM4.3877 59.4827C4.3877 59.6142 4.2806 59.7213 4.14905 59.7213H2.59852C2.46696 59.7213 2.35986 59.6142 2.35986 59.4827V49.8208C2.35986 49.6893 2.46696 49.5822 2.59852 49.5822H4.14905C4.2806 49.5822 4.3877 49.6893 4.3877 49.8208V59.4827ZM39.9447 4.23372L41.1996 2.97912C41.2242 2.95441 41.2566 2.94199 41.2892 2.94199C41.3216 2.94199 41.3541 2.95441 41.3787 2.97912L46.9351 8.53551C46.9846 8.58494 46.9846 8.66517 46.9351 8.71472L45.6805 9.96932C45.6312 10.0189 45.5506 10.0189 45.5013 9.96932L44.8838 9.35184C44.8805 9.34842 44.8777 9.34474 44.8743 9.34132L40.5727 5.03978C40.5694 5.03648 40.5659 5.03382 40.5625 5.03053L39.9449 4.41293C39.8953 4.36362 39.8953 4.28314 39.9447 4.23372ZM38.7794 8.2672L39.8551 7.19131L42.7229 10.059L41.647 11.1348C41.4756 11.3062 41.3713 11.533 41.353 11.7745L41.1198 14.8213C41.1191 14.8284 41.1187 14.8357 41.1184 14.8433L41.0602 15.595C41.037 15.8943 40.9071 16.1765 40.6938 16.3896L40.5717 16.5116L33.4028 9.34233L33.525 9.22016C33.7379 9.00698 34.0201 8.87708 34.3188 8.85388L38.14 8.56111C38.3814 8.54274 38.6083 8.43843 38.7794 8.2672ZM41.768 20.1786H39.7726L41.2888 18.6624L41.5465 18.4047L41.768 20.1786ZM13.5129 16.1792C13.7117 16.1447 13.9022 16.0515 14.0558 15.8981L15.4664 17.3087C15.9612 17.8036 16.2687 18.4599 16.3319 19.1559C16.3629 19.4982 16.4128 19.8395 16.479 20.1784H13.5129V16.1792ZM13.3386 13.7468L13.2171 13.6254C13.2163 13.6245 13.2154 13.6236 13.2145 13.6227L11.9049 12.3131L14.7727 9.44525L15.0684 9.74093C15.0693 9.74182 15.0702 9.74271 15.0711 9.74359L16.2064 10.8789L13.3386 13.7468ZM15.4897 14.4643L16.9239 13.0301L18.3345 14.4408C18.7491 14.8554 19.2281 15.191 19.7559 15.4372C20.2872 15.687 20.8517 15.84 21.4323 15.8919C22.6077 15.999 23.7214 16.3518 24.7427 16.9404C24.7502 16.9447 24.7578 16.9486 24.7653 16.9527C24.7717 16.9562 24.7781 16.9598 24.7845 16.9632C24.7849 16.9633 24.7853 16.9636 24.7857 16.9638C25.3843 17.3141 25.9355 17.7402 26.4257 18.2317L28.3733 20.1786H18.5541C18.4562 19.7807 18.3881 19.3773 18.3515 18.9726C18.2454 17.8049 17.7301 16.7046 16.9004 15.8749L15.4897 14.4643ZM18.3577 10.1623L18.2348 10.0394H29.8378L26.9503 12.9269L25.0574 14.8198C23.9761 14.3024 22.8224 13.9823 21.6145 13.8723C21.2694 13.8413 20.9343 13.7505 20.6159 13.6008C20.3006 13.4536 20.0155 13.2538 19.7684 13.0066L18.3578 11.596C18.7536 11.2 18.7535 10.5583 18.3577 10.1623ZM27.8604 16.7984C27.5405 16.4779 27.1992 16.1797 26.8397 15.9052L27.6671 15.0778L32.768 20.1786H31.2418L27.8604 16.7984ZM29.101 13.6439L29.7454 12.9995L31.9688 10.7761L39.1379 17.9453L36.9046 20.1786H36.833H35.636L29.101 13.6439ZM9.3384 5.98374H38.195L37.6107 6.56801L34.163 6.832C33.3814 6.89259 32.6454 7.23136 32.0907 7.78623L31.8656 8.01157H16.2069L15.49 7.2946C15.0939 6.8988 14.4521 6.8988 14.056 7.2946L13.3389 8.01157H12.499C11.9391 8.01157 11.4851 8.46555 11.4851 9.02549V9.86539L9.75423 11.5963C9.3583 11.9923 9.3583 12.6341 9.75423 13.0302L11.4851 14.7612V20.1786H7.56405L9.3384 5.98374ZM5.40162 24.2342V22.2064H43.9305V24.2342H5.40162ZM38.944 59.7213H10.3881L7.52007 26.2621H41.812L38.944 59.7213ZM46.9722 59.4827C46.9722 59.6142 46.8651 59.7213 46.7336 59.7213H45.183C45.0515 59.7213 44.9444 59.6142 44.9444 59.4827V49.8208C44.9444 49.6893 45.0515 49.5822 45.183 49.5822H46.7336C46.8651 49.5822 46.9722 49.6893 46.9722 49.8208V59.4827Z" fill="black"/>
<path d="M23.2303 37.8747L24.8747 35.2055L25.415 36.1413L24.5869 36.6337C24.2519 36.8328 24.0608 37.2064 24.0952 37.5946C24.1295 37.9828 24.3835 38.317 24.7482 38.4542L30.8253 40.7388C30.9407 40.7823 31.0616 40.8037 31.182 40.8037C31.3623 40.8037 31.5416 40.7556 31.7003 40.6612C31.965 40.5038 32.1439 40.2346 32.1863 39.9296L33.0812 33.4993C33.135 33.1132 32.9626 32.7306 32.6379 32.5149C32.3133 32.2993 31.8937 32.2887 31.5587 32.488L30.6442 33.0319L28.1992 28.7969C28.0181 28.4831 27.6835 28.2899 27.3212 28.2899H22.6382C22.2895 28.2899 21.9678 28.4701 21.7827 28.7633C21.7825 28.7624 21.7823 28.7616 21.7822 28.7608C21.7815 28.7618 21.7808 28.7627 21.7801 28.7635L17.9957 34.7748C17.8489 35.0081 17.8033 35.2911 17.8696 35.5588C17.9359 35.8265 18.1082 36.0555 18.347 36.1933L21.8604 38.2211C22.0198 38.3132 22.1942 38.357 22.3663 38.357C22.7068 38.357 23.039 38.185 23.2303 37.8747ZM26.7358 30.3178L29.4017 34.9353C29.5372 35.1701 29.7613 35.3408 30.0237 35.4093C30.2798 35.4763 30.5522 35.4402 30.7819 35.309L30.3525 38.3947L27.4254 37.2943C27.8126 36.9865 27.9255 36.4343 27.6714 35.9943L25.7851 32.7272C25.7827 32.7229 25.7802 32.7186 25.7776 32.7143L24.3943 30.3178H26.7358ZM22.0206 35.9722L20.2731 34.9635L22.6006 31.2666L23.7224 33.2097L22.0206 35.9722Z" fill="black"/>
<path d="M20.6106 46.5404H17.8254L18.2607 45.7864L19.1011 46.2574C19.441 46.4477 19.8602 46.4264 20.1793 46.2026C20.4983 45.9787 20.6607 45.5917 20.597 45.2072L19.5371 38.8022C19.4869 38.4983 19.3011 38.2337 19.0324 38.083C18.7637 37.9324 18.4409 37.9122 18.1558 38.028L12.1394 40.4682C11.7782 40.6145 11.533 40.9552 11.5085 41.3442C11.4841 41.7332 11.685 42.1017 12.0249 42.2922L12.9662 42.8196L10.5999 47.06C10.4366 47.3529 10.4285 47.7075 10.5785 48.0076L12.6064 52.0633C12.7701 52.3907 13.0976 52.6045 13.4632 52.6225C13.48 52.6234 13.4967 52.6238 13.5134 52.6238H20.6106C21.1705 52.6238 21.6245 52.1698 21.6245 51.6098V47.5542C21.6245 46.9944 21.1705 46.5404 20.6106 46.5404ZM13.6151 49.5466L12.632 47.5803L15.2301 42.924C15.4996 42.4409 15.332 41.8324 14.8564 41.5546L17.7434 40.3836L18.2539 43.4689C17.7943 43.2877 17.259 43.4658 17.005 43.9057L15.2008 47.0302L13.6151 49.5466ZM19.5967 50.5961H15.3508L16.6287 48.5682H19.5967V50.5961Z" fill="black"/>
<path d="M38.7251 47.0475L35.2547 41.0367C35.1203 40.8038 34.8988 40.6338 34.6392 40.5642C34.3795 40.4944 34.1027 40.5309 33.8698 40.6656L30.3575 42.6935C29.8726 42.9734 29.7063 43.5936 29.9864 44.0785L31.4078 46.5405H29.7356V45.5175C29.7356 45.1275 29.5119 44.7721 29.1605 44.6034C28.8091 44.4347 28.3919 44.4824 28.0874 44.7265L23.0178 48.7913C22.7775 48.984 22.6378 49.2754 22.6382 49.5834C22.6386 49.8915 22.7789 50.1826 23.0197 50.3748L28.0893 54.4207C28.2724 54.5668 28.4962 54.6421 28.7218 54.6421C28.8714 54.6421 29.0216 54.609 29.1615 54.5417C29.5125 54.3728 29.7356 54.0176 29.7356 53.6282V52.624H35.8191C36.2031 52.624 36.5542 52.407 36.7259 52.0636L38.7538 48.0079C38.9013 47.713 38.8936 47.3669 38.7398 47.0783C38.7353 47.068 38.7308 47.0575 38.7251 47.0475ZM34.0055 42.9287L36.0908 46.5405H33.7493L32.2494 43.9426L34.0055 42.9287ZM35.1925 50.5962H28.7217C28.1905 50.5962 27.7548 51.0047 27.7113 51.5245L25.2751 49.5804L27.7103 47.6279C27.7479 48.1535 28.1863 48.5683 28.7216 48.5683H33.1638H36.2063L35.1925 50.5962Z" fill="black"/>
</svg>
