<svg width="23" height="23" viewBox="0 0 23 23" fill="none" xmlns="http://www.w3.org/2000/svg">
<path fill-rule="evenodd" clip-rule="evenodd" d="M22.3932 20.4712L20.7994 22.0649L20.7617 22.0884C19.9238 22.6133 18.8844 22.8765 17.7031 22.8765C16.5832 22.8765 15.3365 22.6401 14.0124 22.1675C11.3321 21.2099 8.51718 19.3443 6.08598 16.913C3.65503 14.4819 1.78896 11.667 0.831929 8.98682C-0.13975 6.26611 -0.111625 3.86914 0.910885 2.23726L0.934224 2.19976L2.52822 0.605957C2.83916 0.294922 3.25376 0.123535 3.69599 0.123535C4.13803 0.123535 4.55283 0.294922 4.86377 0.605957L8.69018 4.43213C9.00112 4.74316 9.17226 5.1582 9.17226 5.60015C9.17226 6.04243 9.00112 6.45708 8.69018 6.76807L7.17026 8.28804C6.91333 8.8105 6.96938 9.60059 7.33022 10.5215C7.72968 11.5415 8.47285 12.6264 9.4228 13.5762C10.373 14.5263 11.458 15.2695 12.4777 15.6689C13.3988 16.0297 14.1891 16.0859 14.7114 15.8291L16.2311 14.309C16.542 13.998 16.9573 13.8271 17.3991 13.8271C17.8414 13.8271 18.256 13.998 18.5669 14.309L22.3933 18.1352C23.0371 18.7792 23.0371 19.8271 22.3932 20.4712Z" fill="#2A343F"/>
</svg>
