<svg width="44" height="44" viewBox="0 0 44 44" fill="none" xmlns="http://www.w3.org/2000/svg">
<path d="M41.8478 14.9009C42.2616 14.9005 42.6583 14.7359 42.9509 14.4433C43.2435 14.1507 43.4081 13.754 43.4085 13.3402V11.2766C43.4096 10.9851 43.3286 10.6992 43.1747 10.4516C43.0208 10.204 42.8003 10.0048 42.5384 9.87671L23.2089 0.348156C22.7404 0.119078 22.2257 0 21.7042 0C21.1827 0 20.6681 0.119078 20.1996 0.348156L0.870098 9.87671C0.608216 10.0048 0.387702 10.204 0.233818 10.4516C0.0799337 10.6992 -0.00109614 10.9851 1.11993e-05 11.2766V13.3402C0.000404191 13.754 0.164904 14.1506 0.457417 14.4432C0.74993 14.7358 1.14656 14.9004 1.56029 14.9009H2.32412V42.4254H0.785713C0.577332 42.4254 0.377486 42.5082 0.230138 42.6555C0.0827904 42.8029 1.11993e-05 43.0027 1.11993e-05 43.2111C1.11993e-05 43.4195 0.0827904 43.6194 0.230138 43.7667C0.377486 43.9141 0.577332 43.9968 0.785713 43.9968H42.6228C42.8312 43.9968 43.031 43.9141 43.1784 43.7667C43.3257 43.6194 43.4085 43.4195 43.4085 43.2111C43.4085 43.0027 43.3257 42.8029 43.1784 42.6555C43.031 42.5082 42.8312 42.4254 42.6228 42.4254H41.0844V14.9009H41.8478ZM1.56526 11.2862L20.8944 1.75766C21.1464 1.63423 21.4234 1.57006 21.704 1.57006C21.9847 1.57006 22.2616 1.63423 22.5137 1.75766L41.8371 11.2831L41.8478 13.3295C41.8385 13.327 1.57138 13.3402 1.57138 13.3402L1.56526 11.2862ZM34.864 42.4254H32.602V34.537C32.6003 34.0735 32.4149 33.6296 32.0864 33.3026C31.7578 32.9757 31.313 32.7924 30.8495 32.7929H27.2625C27.2684 32.7348 27.2801 24.7161 27.2801 24.7161C27.2796 24.2534 27.0957 23.8099 26.7686 23.4827C26.4415 23.1555 25.998 22.9715 25.5353 22.9709H17.3399C16.8773 22.9715 16.4338 23.1555 16.1067 23.4827C15.7796 23.8099 15.5956 24.2534 15.5951 24.7161C15.5952 26.3867 15.6069 32.7348 15.6127 32.7929H12.5428C12.0804 32.7934 11.6371 32.9773 11.3101 33.3043C10.9832 33.6312 10.7993 34.0746 10.7988 34.537V42.4254H8.54412V19.9681C8.54433 19.7656 8.62487 19.5714 8.76807 19.4282C8.91127 19.285 9.10544 19.2044 9.30796 19.2042H34.1005C34.303 19.2045 34.4971 19.285 34.6403 19.4282C34.7834 19.5714 34.8639 19.7656 34.864 19.9681L34.864 42.4254ZM12.3702 40.8139L15.0334 40.8383V42.4254H12.3702L12.3702 40.8139ZM15.0024 39.2354H12.3702V34.537C12.3713 34.4915 12.3899 34.4483 12.422 34.4161C12.4541 34.384 12.4974 34.3654 12.5428 34.3643H15.8552V36.4997C15.8592 36.7054 15.9438 36.9013 16.0907 37.0454C16.2376 37.1895 16.4352 37.2702 16.6409 37.2702C16.8467 37.2702 17.0443 37.1894 17.1912 37.0454C17.3381 36.9013 17.4226 36.7053 17.4266 36.4996V34.3643H20.9109V42.4254H16.6049V40.8383C16.6044 40.4134 16.4355 40.006 16.1351 39.7055C15.8346 39.405 15.4273 39.2359 15.0024 39.2354ZM21.4376 27.4641C21.646 27.4641 21.8458 27.3813 21.9932 27.2339C22.1405 27.0866 22.2233 26.8868 22.2233 26.6784V24.5423H25.5353C25.5812 24.5428 25.6251 24.5613 25.6575 24.5938C25.6899 24.6263 25.7083 24.6702 25.7087 24.716V32.6187C25.7087 32.6647 25.6904 32.7088 25.6579 32.7413C25.6254 32.7738 25.5813 32.7921 25.5353 32.7921H21.4046V31.0162C21.4041 30.591 21.2349 30.1833 20.9342 29.8826C20.6335 29.5819 20.2259 29.4128 19.8006 29.4122H17.1665V24.7161C17.167 24.6702 17.1855 24.6264 17.2179 24.5939C17.2502 24.5614 17.2941 24.5429 17.3399 24.5423H20.6519V26.6784C20.6519 26.8868 20.7347 27.0866 20.882 27.2339C21.0294 27.3813 21.2292 27.4641 21.4376 27.4641ZM19.8332 32.7921H17.3399C17.2939 32.792 17.2499 32.7737 17.2174 32.7412C17.1849 32.7087 17.1666 32.6647 17.1665 32.6187V30.9911L19.8332 31.0162L19.8332 32.7921ZM22.4823 40.8139L25.1532 40.8383V42.4254H22.4823V40.8139ZM25.1217 39.2354H22.4823V34.3643H25.9696V36.4997C25.9736 36.7054 26.0582 36.9013 26.2051 37.0454C26.352 37.1895 26.5496 37.2702 26.7553 37.2702C26.9611 37.2702 27.1586 37.1894 27.3056 37.0454C27.4525 36.9013 27.537 36.7053 27.541 36.4996V34.3643H30.8495C30.8963 34.3638 30.9413 34.3816 30.9752 34.4138C31.009 34.4461 31.0289 34.4902 31.0306 34.5369V42.4254H26.7246V40.8383C26.7242 40.4133 26.5551 40.0059 26.2547 39.7054C25.9542 39.4049 25.5467 39.2358 25.1217 39.2354ZM39.513 42.4254H36.4354V19.9681C36.4347 19.349 36.1885 18.7555 35.7508 18.3177C35.3131 17.8799 34.7196 17.6336 34.1005 17.6328H9.30796C8.68884 17.6336 8.0953 17.8799 7.65752 18.3176C7.21974 18.7554 6.97346 19.349 6.97272 19.9681V42.4254H3.89552V14.9009H39.513V42.4254Z" fill="black"/>
<path d="M15.506 11.028C15.7144 11.028 15.9143 10.9452 16.0616 10.7978C16.2089 10.6505 16.2917 10.4507 16.2917 10.2423V8.25616C16.2917 8.04778 16.209 7.84793 16.0616 7.70059C15.9143 7.55324 15.7144 7.47046 15.506 7.47046C15.2977 7.47046 15.0978 7.55324 14.9505 7.70059C14.8031 7.84793 14.7203 8.04778 14.7203 8.25616V10.2423C14.7203 10.4507 14.8031 10.6505 14.9505 10.7979C15.0978 10.9452 15.2977 11.028 15.506 11.028Z" fill="black"/>
<path d="M18.6052 11.0281C18.8135 11.0281 19.0134 10.9453 19.1607 10.7979C19.3081 10.6506 19.3909 10.4507 19.3909 10.2424V7.26336C19.3909 7.05498 19.3081 6.85514 19.1607 6.70779C19.0134 6.56044 18.8135 6.47766 18.6052 6.47766C18.3968 6.47766 18.1969 6.56044 18.0496 6.70779C17.9022 6.85514 17.8195 7.05498 17.8195 7.26336V10.2424C17.8195 10.4507 17.9023 10.6506 18.0496 10.7979C18.1969 10.9453 18.3968 11.028 18.6052 11.0281Z" fill="black"/>
<path d="M21.7043 11.028C21.9127 11.028 22.1125 10.9452 22.2599 10.7979C22.4072 10.6505 22.49 10.4507 22.49 10.2423V6.41815C22.49 6.20977 22.4072 6.00992 22.2599 5.86257C22.1125 5.71523 21.9127 5.63245 21.7043 5.63245C21.4959 5.63245 21.2961 5.71523 21.1487 5.86257C21.0014 6.00992 20.9186 6.20977 20.9186 6.41815V10.2423C20.9186 10.4507 21.0014 10.6505 21.1487 10.7979C21.2961 10.9452 21.4959 11.028 21.7043 11.028Z" fill="black"/>
<path d="M24.8033 11.0281C24.9065 11.0281 25.0087 11.0078 25.104 10.9683C25.1993 10.9288 25.286 10.871 25.3589 10.798C25.4319 10.725 25.4898 10.6384 25.5292 10.5431C25.5687 10.4477 25.589 10.3455 25.589 10.2424V7.26336C25.589 7.05498 25.5062 6.85514 25.3589 6.70779C25.2115 6.56044 25.0117 6.47766 24.8033 6.47766C24.5949 6.47766 24.3951 6.56044 24.2477 6.70779C24.1004 6.85514 24.0176 7.05498 24.0176 7.26336V10.2424C24.0176 10.3455 24.0379 10.4477 24.0773 10.5431C24.1168 10.6384 24.1747 10.725 24.2476 10.798C24.3206 10.871 24.4072 10.9288 24.5026 10.9683C24.5979 11.0078 24.7001 11.0281 24.8033 11.0281Z" fill="black"/>
<path d="M27.9024 11.028C28.0056 11.028 28.1078 11.0077 28.2031 10.9682C28.2984 10.9288 28.3851 10.8709 28.458 10.7979C28.531 10.725 28.5889 10.6383 28.6284 10.543C28.6678 10.4477 28.6881 10.3455 28.6881 10.2423V8.25616C28.6881 8.04778 28.6053 7.84793 28.458 7.70059C28.3106 7.55324 28.1108 7.47046 27.9024 7.47046C27.694 7.47046 27.4942 7.55324 27.3468 7.70059C27.1995 7.84793 27.1167 8.04778 27.1167 8.25616V10.2423C27.1167 10.3455 27.137 10.4477 27.1765 10.543C27.2159 10.6383 27.2738 10.725 27.3468 10.7979C27.4197 10.8709 27.5064 10.9288 27.6017 10.9682C27.697 11.0077 27.7992 11.028 27.9024 11.028Z" fill="black"/>
</svg>
