<svg width="82" height="82" viewBox="0 0 82 82" fill="none" xmlns="http://www.w3.org/2000/svg">
<path d="M27.7716 81.8303H8.09176L11.5994 74.1031L0.167786 58.7055V21.3242H5.57062C10.5907 21.3242 14.6749 25.4085 14.6749 30.4285V46.6121C17.6164 45.5914 20.9122 46.6235 22.6619 49.2742L30.7324 60.241L30.7732 60.3043C33.2237 64.1154 33.7263 68.9513 32.1173 73.2402L32.0708 73.3645L27.7716 81.8303ZM15.512 77.0497H24.8376L27.6848 71.4429C28.7216 68.5737 28.3973 65.4894 26.7904 62.9501L18.6861 51.9294C18.0951 51.0104 16.8042 50.7418 15.8073 51.3309C15.2853 51.6395 14.9238 52.1227 14.7887 52.6917C14.67 53.1927 14.7464 53.7019 15.0039 54.133L22.5102 64.2357L18.6729 67.0869L11.0604 56.8416L11.0166 56.7737C10.3623 55.7559 10.0033 54.6096 9.95632 53.4318L9.89414 30.4288C9.89414 28.0447 7.95447 26.1052 5.57047 26.1052H4.94825V57.1251L17.1166 73.5149L15.512 77.0497Z" fill="#2A343F"/>
<path d="M74.076 81.8303H54.3962L50.0971 73.3645L50.0506 73.2402C48.4415 68.9513 48.9441 64.1156 51.3948 60.3043L51.4803 60.1803L59.5061 49.2742C61.2556 46.6236 64.552 45.5918 67.4932 46.6119V30.4285C67.4932 25.4085 71.5773 21.3242 76.5973 21.3242H82V58.7055L70.5684 74.1032L74.076 81.8303ZM57.3302 77.0497H66.6558L65.0512 73.5146L77.2195 57.1248V26.1048H76.5972C74.213 26.1048 72.2737 28.0445 72.2737 30.4285L72.2115 53.4315C72.1645 54.6093 71.8057 55.7556 71.1512 56.7734L71.0593 56.9062L63.4949 67.0866L59.6576 64.2354L67.1643 54.1328C67.4214 53.7018 67.498 53.1927 67.3792 52.6917C67.2443 52.1227 66.8825 51.6394 66.3605 51.3307C65.3641 50.7418 64.0727 51.0103 63.4815 51.9296L55.3776 62.9499C53.7706 65.4893 53.4465 68.5737 54.4832 71.4429L57.3302 77.0497Z" fill="#2A343F"/>
<path d="M40.9625 53.0042L32.5221 48.1812C24.7896 43.7625 19.986 35.4849 19.986 26.5788V5.00662L40.9625 0L61.939 5.00662V26.5788C61.939 35.4849 57.1354 43.7625 49.4029 48.1812L40.9625 53.0042ZM24.7666 8.78065V26.579C24.7666 33.7738 28.6472 40.461 34.8941 44.0306L40.9625 47.4983L47.0308 44.0306C53.2777 40.461 57.1584 33.7738 57.1584 26.579V8.78065L40.9625 4.91488L24.7666 8.78065Z" fill="#2A343F"/>
<path d="M38.2261 33.0914L30.976 25.8412L34.3564 22.4608L38.2261 26.3305L48.5245 16.0322L51.9049 19.4126L38.2261 33.0914Z" fill="#2A343F"/>
</svg>
