<svg width="42" height="43" viewBox="0 0 42 43" fill="none" xmlns="http://www.w3.org/2000/svg">
<path d="M28.9441 22.8022C29.9433 22.8022 30.7562 22.0115 30.7562 21.0395V17.3382C30.7562 16.3662 29.9433 15.5755 28.9441 15.5755C27.9449 15.5755 27.132 16.3662 27.132 17.3382V21.0395C27.132 22.0115 27.9449 22.8022 28.9441 22.8022ZM28.5578 17.3382C28.5578 17.1346 28.7347 16.9626 28.9441 16.9626C29.1535 16.9626 29.3303 17.1346 29.3303 17.3382V21.0395C29.3303 21.2431 29.1535 21.4151 28.9441 21.4151C28.7347 21.4151 28.5578 21.2431 28.5578 21.0395V17.3382ZM41.2869 0H10.1575C9.76373 0 9.44451 0.310535 9.44451 0.693546V3.09729C9.44451 3.4803 9.76373 3.79083 10.1575 3.79083H10.5121V20.296H10.4054C8.44025 20.296 6.81171 21.7203 6.55077 23.5633C5.98532 23.3291 5.36364 23.1994 4.71129 23.1994C2.11351 23.1994 0 25.2555 0 27.7827C0 29.9756 1.59886 31.8337 3.74677 32.2691V37.6845C3.74677 38.0675 4.06599 38.378 4.45972 38.378H5.34394V42.2035C5.34394 42.5865 5.66316 42.897 6.05688 42.897H8.72025C9.03671 42.897 9.31529 42.6941 9.40441 42.3987L10.5122 38.7248V40.6389C10.5122 41.0219 10.8315 41.3325 11.2252 41.3325H12.9664C13.2829 41.3325 13.5615 41.1295 13.6506 40.8341L14.3913 38.378H19.5671L20.7817 42.4977C20.8693 42.7951 21.149 43 21.4669 43H24.1302C24.5239 43 24.8432 42.6895 24.8432 42.3065V38.3781H37.0533L37.794 40.8342C37.8831 41.1296 38.1617 41.3325 38.4782 41.3325H40.2194C40.6132 41.3325 40.9324 41.022 40.9324 40.639V37.6862C40.9324 37.6856 40.9325 37.6851 40.9325 37.6846V3.79083H41.2871C41.6808 3.79083 42 3.4803 42 3.09729V0.693546C41.9998 0.310535 41.6806 0 41.2869 0ZM10.8704 1.38709H40.5739V2.40374H10.8704V1.38709ZM11.9379 3.79083H25.0092V23.2219C24.5247 23.2685 24.0616 23.3866 23.6312 23.5655C23.607 23.3938 23.5708 23.2259 23.5237 23.0622V10.0771C23.5237 7.36823 21.2581 5.1644 18.4735 5.1644C15.6888 5.1644 13.4234 7.36823 13.4234 10.0771V20.2959H11.9379V3.79083ZM19.7764 20.2959H14.8493V10.0771C14.8493 8.13304 16.4751 6.55149 18.4736 6.55149C20.472 6.55149 22.0979 8.13304 22.0979 10.0771V21.0451C21.4492 20.5748 20.6456 20.2959 19.7764 20.2959ZM12.7663 26.157L12.8533 26.9602L11.8338 26.193L13.225 23.9641C13.3437 23.7739 13.3614 23.5398 13.2726 23.3348L12.5572 21.683H14.0421L14.3848 23.8919L12.9216 25.6476C12.8024 25.7905 12.7465 25.9738 12.7663 26.157ZM7.93914 24.0822C7.93914 22.7592 9.04544 21.683 10.4054 21.683H11.0099L11.8172 23.5469L10.2846 26.0024C10.0964 26.304 10.1709 26.695 10.4577 26.9109L13.3007 29.0506C13.4284 29.1467 13.5823 29.1957 13.737 29.1957C13.8561 29.1957 13.9757 29.1667 14.0842 29.1078C14.3335 28.9725 14.4759 28.7057 14.4461 28.4295L14.2153 26.2976L15.6904 24.5276C15.8166 24.3761 15.8715 24.18 15.8416 23.9873L15.484 21.683H19.7763C20.8759 21.683 21.8094 22.3869 22.1266 23.3557C22.1292 23.3643 22.132 23.3729 22.135 23.3815C22.2046 23.6033 22.2425 23.8385 22.2425 24.0822V24.4535C21.3333 25.2895 20.7643 26.4723 20.7643 27.7826V30.5014C20.2548 30.1692 19.6427 29.9751 18.9846 29.9751H11.1971C10.5391 29.9751 9.92691 30.1692 9.41742 30.5014V28.0001C9.4209 27.9286 9.42277 27.8555 9.42277 27.7826C9.42277 26.4697 8.85152 25.2849 7.93923 24.4485L7.93914 24.0822ZM20.7464 32.8614H9.43542C9.55261 32.0164 10.2969 31.3622 11.1971 31.3622H18.9846C19.8849 31.3622 20.6292 32.0163 20.7464 32.8614ZM4.50383 30.972C2.7778 30.8676 1.42579 29.4668 1.42579 27.7826C1.42579 26.0202 2.89962 24.5864 4.71121 24.5864C6.52288 24.5864 7.9968 26.0202 7.9968 27.7826C7.9968 27.8376 7.99537 27.8921 7.99243 27.9465C7.99181 27.9586 7.99145 27.9706 7.99145 27.9827V33.5549C7.99145 33.938 8.31067 34.2485 8.70439 34.2485H21.4771C21.8708 34.2485 22.19 33.938 22.19 33.5549V27.7826C22.19 26.0202 23.6639 24.5864 25.4754 24.5864C27.2563 24.5864 28.7609 26.0501 28.7609 27.7826C28.7609 29.4969 27.4359 30.8682 25.6786 30.9723C25.3024 30.9946 25.009 31.2979 25.009 31.6645V36.9908H5.17257V31.6642C5.17257 31.2979 4.87973 30.9946 4.50383 30.972ZM8.18635 41.5097H6.76973V38.3779H9.13064L8.18635 41.5097ZM12.4325 39.9453H11.9379V38.378H12.905L12.4325 39.9453ZM23.4171 41.6127H22.004L21.0502 38.378H23.4171V41.6127ZM39.0117 39.9453L38.5391 38.378H39.5062V39.9453H39.0117ZM35.7494 22.1881L36.0878 28.4819L33.8446 30.0086L34.8032 27.1135C34.8552 26.9565 34.848 26.7867 34.7829 26.6346L33.1269 22.7604L35.291 20.3608L39.5063 19.6404V21.0684L36.3697 21.4639C36.0002 21.5106 35.7299 21.8261 35.7494 22.1881ZM39.5063 18.2322L34.7972 19.0368C34.6373 19.064 34.4917 19.1437 34.3846 19.2625L31.7622 22.1703C31.5829 22.3692 31.5354 22.6498 31.6398 22.894L33.3655 26.9312L31.8372 31.5465C31.7433 31.8301 31.846 32.1403 32.0923 32.3171C32.218 32.4075 32.3668 32.4527 32.5157 32.4527C32.6587 32.4527 32.8016 32.4111 32.9244 32.3275L37.2291 29.3978C37.4306 29.2608 37.5452 29.0323 37.5324 28.7933L37.2077 22.757L39.5062 22.4671V36.9907H26.4351V32.2721C28.6152 31.8467 30.1869 30.0179 30.1869 27.7824C30.1869 25.5749 28.5743 23.7272 26.4351 23.2949V3.79083H39.5063V18.2322Z" fill="black"/>
</svg>
