<svg width="68" height="61" viewBox="0 0 68 61" fill="none" xmlns="http://www.w3.org/2000/svg">
<path d="M67.3718 12.1759C66.9724 11.8384 66.4452 11.6899 65.9253 11.7688L65.1326 11.8889C64.9761 11.4388 64.7895 10.9955 64.5762 10.5675L65.2238 10.0995C65.6479 9.79294 65.9142 9.32067 65.9543 8.80377C65.9944 8.28701 65.8039 7.78045 65.4321 7.41391L62.5054 4.5303C62.1335 4.16376 61.6201 3.9765 61.0947 4.01563C60.5701 4.05515 60.0907 4.31752 59.7797 4.73548L59.3049 5.37342C58.8705 5.16326 58.4206 4.97941 57.9636 4.82525L58.0855 4.04415C58.1655 3.53184 58.0149 3.01233 57.6724 2.61896C57.3298 2.2256 56.8317 2 56.3056 2H52.1668C51.6407 2 51.1424 2.2256 50.7999 2.61896C50.4573 3.01233 50.3067 3.53184 50.3867 4.04415L50.5087 4.82512C50.052 4.97914 49.602 5.16313 49.1673 5.37342L48.6925 4.73535C48.3813 4.31739 47.902 4.05502 47.3774 4.01563C46.8543 3.9765 46.3388 4.16376 45.9669 4.53017L43.5436 6.91783C43.5169 6.91573 43.4902 6.91377 43.463 6.91377H18.3826C16.3687 6.91377 14.7302 8.52805 14.7302 10.5124V19.3008C10.6253 20.5551 7.63526 24.3312 7.63526 28.7827V33.0026C7.63526 36.5549 9.6131 40.3915 12.6815 42.4971C12.6815 42.4998 12.6811 42.5025 12.6811 42.5053V44.9411H9.41774C7.91549 44.9411 6.42069 45.2985 5.09469 45.9745C4.60607 46.2237 4.41509 46.8158 4.66783 47.2972C4.845 47.6345 5.19284 47.8277 5.55329 47.8277C5.70748 47.8277 5.86394 47.7924 6.0103 47.7177C7.06934 47.1778 8.21565 46.9039 9.4176 46.9039H12.9395C13.606 48.8704 15.4911 50.2923 17.7082 50.2923C19.9252 50.2923 21.8103 48.8703 22.4768 46.9039H25.9987C30.0932 46.9039 33.4243 50.186 33.4243 54.2202V57.3112C33.4243 58.059 32.8069 58.6672 32.0481 58.6672H3.36839C2.6095 58.6672 1.99219 58.059 1.99219 57.3112V54.2202C1.99219 52.6498 2.48944 51.153 3.43028 49.8919C3.75607 49.4551 3.66084 48.8409 3.21765 48.5199C2.77432 48.1987 2.1509 48.2926 1.82511 48.7294C0.631125 50.3302 0 52.2289 0 54.2206V57.3116C0 59.1417 1.51114 60.6305 3.36839 60.6305H51.5797C53.5936 60.6305 55.2321 59.0162 55.2321 57.0319V46.806C55.2321 46.264 54.7862 45.8245 54.236 45.8245C53.6857 45.8245 53.2399 46.264 53.2399 46.806V57.0319C53.2399 57.9339 52.4952 58.6676 51.5797 58.6676H45.4897V47.9657C48.3036 46.663 50.1495 43.8424 50.1495 40.7422C50.1495 37.6961 48.3477 34.8734 45.5592 33.5512C45.0881 33.3279 44.5421 33.3582 44.0987 33.6329C43.654 33.9082 43.3885 34.3814 43.3885 34.8986V39.7608H40.7146V34.8982C40.7146 34.381 40.4491 33.9077 40.0042 33.6321C39.5618 33.358 39.0166 33.3271 38.5463 33.5499C35.6284 34.9323 33.8285 37.8862 33.9607 41.0755C34.0849 44.0657 35.8865 46.6995 38.6135 47.9615V58.6675H35.1212C35.3103 58.2532 35.4163 57.7944 35.4163 57.3115V54.2205C35.4163 49.1039 31.1914 44.9412 25.9986 44.9412H22.7352V42.4969C25.8033 40.3914 27.7811 36.5549 27.7811 33.0027V28.7829C27.7811 23.3102 23.2624 18.858 17.708 18.858C17.3753 18.858 17.0466 18.8748 16.7222 18.9061V10.5127C16.7222 9.61065 17.4668 8.87692 18.3823 8.87692H42.5274C42.5859 9.3649 42.8441 9.80759 43.2483 10.0997L43.8956 10.5675C43.6824 10.9954 43.4957 11.4386 43.3394 11.889L42.5465 11.7689C42.0264 11.6901 41.4993 11.8384 41.1 12.176C40.7008 12.5135 40.4718 13.0044 40.4718 13.5228V17.6008C40.4718 18.1191 40.7009 18.61 41.1 18.9476C41.4994 19.2852 42.0271 19.4335 42.5465 19.3547L43.3394 19.2346C43.4958 19.6849 43.6824 20.1281 43.8956 20.556L43.2483 21.0238C42.8241 21.3304 42.5578 21.8026 42.5177 22.3195C42.4776 22.8363 42.6679 23.3429 43.0399 23.7096L45.9665 26.5931C46.3385 26.9596 46.854 27.1471 47.377 27.1077C47.9016 27.0682 48.3811 26.806 48.6922 26.3877L49.1669 25.7499C49.6015 25.9602 50.0513 26.1441 50.5083 26.2982L50.3863 27.0792C50.3063 27.5915 50.4569 28.111 50.7995 28.5044C51.142 28.8978 51.6403 29.1234 52.1664 29.1234H53.2396V42.6185C53.2396 43.1605 53.6855 43.5999 54.2357 43.5999C54.786 43.5999 55.2318 43.1605 55.2318 42.6185V29.1232H56.3052C56.8313 29.1232 57.3294 28.8976 57.672 28.5043C58.0145 28.1109 58.1651 27.5914 58.0851 27.0791L57.9632 26.298C58.4201 26.1438 58.8698 25.96 59.3045 25.7498L59.7793 26.3876C60.0905 26.8056 60.5697 27.0679 61.0943 27.1075C61.6173 27.1469 62.133 26.9595 62.505 26.5929L65.4317 23.7093C65.8035 23.3428 65.9939 22.8362 65.9539 22.3195C65.9138 21.8027 65.6475 21.3304 65.2233 21.0237L64.5758 20.5559C64.7891 20.1278 64.9759 19.6846 65.1322 19.2344L65.9249 19.3546C66.4449 19.4333 66.9722 19.285 67.3714 18.9475C67.7706 18.61 67.9996 18.1191 67.9996 17.6008V13.5228C68 13.0044 67.7709 12.5135 67.3718 12.1759ZM35.9514 40.9954C35.8624 38.8514 36.9312 36.8484 38.7224 35.7V40.2303C38.7224 41.0537 39.4023 41.7235 40.2381 41.7235H43.8652C44.7008 41.7235 45.3807 41.0537 45.3807 40.2303V35.701C47.0887 36.8015 48.1572 38.7057 48.1572 40.7421C48.1572 43.2559 46.5472 45.5261 44.1509 46.3909C43.7584 46.5326 43.4974 46.9006 43.4974 47.3124V58.5488H40.6058V47.3093C40.6058 46.8984 40.3461 46.5311 39.955 46.3887C37.6235 45.5401 36.0521 43.423 35.9514 40.9954ZM20.7433 45.3394C20.7433 46.9883 19.3819 48.3298 17.7083 48.3298C16.0347 48.3298 14.6733 46.9884 14.6733 45.3394V43.5472C15.6229 43.9082 16.6405 44.1099 17.7083 44.1099C18.7761 44.1099 19.7936 43.9084 20.7433 43.5472V45.3394ZM23.3661 39.2842C22.729 40.0264 22.0224 40.632 21.272 41.094C21.2353 41.1132 21.2002 41.1351 21.1663 41.1585C20.0798 41.8039 18.9035 42.1469 17.7083 42.1469C15.6442 42.1469 13.6349 41.1301 12.0505 39.2841C10.5105 37.4897 9.62745 35.2002 9.62745 33.0027V30.6963H10.5547C11.5334 30.6963 12.4506 30.2484 13.0494 29.5132L13.2295 29.624C14.3696 30.3254 15.6828 30.6963 17.027 30.6963H25.789V33.0027C25.7891 35.2003 24.9059 37.4898 23.3661 39.2842ZM25.7878 28.7335H17.0271C16.0564 28.7335 15.1081 28.4658 14.2849 27.9592L13.5409 27.5016C13.3287 27.371 13.0854 27.3038 12.8399 27.3038C12.7145 27.3038 12.5885 27.3213 12.466 27.3569C12.1036 27.4622 11.8034 27.716 11.6429 28.0528C11.4458 28.4663 11.0187 28.7335 10.555 28.7335H9.62891C9.65613 24.3661 13.2694 20.821 17.7084 20.821C22.1474 20.821 25.7606 24.366 25.7878 28.7335ZM66.0078 17.3811L65.2755 17.2701C64.3998 17.1372 63.5649 17.6452 63.2891 18.477C63.1376 18.9336 62.9483 19.3828 62.726 19.8126C62.3248 20.5891 62.5523 21.5276 63.2672 22.0443L63.8657 22.4767L61.2542 25.0498L60.8151 24.46C60.2905 23.7554 59.3376 23.5315 58.5503 23.9271C58.1144 24.1459 57.6583 24.3325 57.1948 24.4818C56.3505 24.7537 55.8353 25.5768 55.9698 26.4389L56.0825 27.1606H52.3894L52.5021 26.4388C52.6365 25.5765 52.1212 24.7536 51.277 24.4818C50.8138 24.3326 50.3577 24.146 49.9218 23.9271C49.1335 23.5315 48.1812 23.7555 47.6566 24.4602L47.2176 25.0498L44.6063 22.4769L45.2049 22.0443C45.9198 21.5275 46.1473 20.5888 45.7457 19.8126C45.5237 19.3834 45.3344 18.9341 45.1828 18.4772C44.9068 17.6453 44.0705 17.1379 43.1965 17.2704L42.464 17.3813V13.7425L43.1963 13.8535C44.0718 13.9863 44.9068 13.4786 45.1828 12.6466C45.3345 12.1896 45.5237 11.7404 45.7455 11.3113C46.1472 10.5349 45.9198 9.59626 45.2047 9.07936L44.6063 8.64687L47.2176 6.07378L47.6567 6.66357C48.1811 7.36798 49.1335 7.59228 49.9217 7.19656C50.3577 6.97763 50.8138 6.79102 51.2769 6.64184C52.1211 6.37005 52.6364 5.54707 52.5021 4.68458L52.3894 3.96302H56.0825L55.9698 4.68445C55.8352 5.54668 56.3504 6.36979 57.1948 6.64171C57.6583 6.79102 58.1144 6.97763 58.55 7.1963C59.3382 7.59201 60.2904 7.36798 60.8152 6.6633L61.2543 6.07352L63.8657 8.64661L63.2672 9.0791C62.5523 9.59573 62.3247 10.5343 62.7261 11.3109C62.9483 11.7405 63.1377 12.1898 63.2891 12.6461C63.5649 13.4779 64.4004 13.9858 65.2755 13.8531L66.0078 13.7421V17.3811Z" fill="#CFDE29"/>
<path d="M54.2364 9.8374C51.0329 9.8374 48.4268 12.4053 48.4268 15.5616C48.4268 18.7179 51.0329 21.2858 54.2364 21.2858C57.4398 21.2858 60.0461 18.7179 60.0461 15.5616C60.0461 12.4053 57.4398 9.8374 54.2364 9.8374ZM50.4189 15.5617C50.4189 13.8272 51.617 12.364 53.2403 11.9312V19.1924C51.617 18.7594 50.4189 17.2961 50.4189 15.5617ZM55.2325 19.1923V11.931C56.8558 12.3639 58.0539 13.8272 58.0539 15.5616C58.0539 17.296 56.8558 18.7594 55.2325 19.1923Z" fill="#CFDE29"/>
<path d="M35.8282 11.8467H23.0637C22.5134 11.8467 22.0676 12.2861 22.0676 12.8281C22.0676 13.3701 22.5134 13.8096 23.0637 13.8096H35.8282C36.3784 13.8096 36.8243 13.3701 36.8243 12.8281C36.8243 12.2861 36.3783 11.8467 35.8282 11.8467Z" fill="#CFDE29"/>
<path d="M35.8282 16.1196H26.7852C26.235 16.1196 25.7891 16.5591 25.7891 17.1011C25.7891 17.6431 26.235 18.0825 26.7852 18.0825H35.8282C36.3784 18.0825 36.8243 17.6431 36.8243 17.1011C36.8243 16.5591 36.3783 16.1196 35.8282 16.1196Z" fill="#CFDE29"/>
<path d="M35.8286 20.3926H29.4463C28.896 20.3926 28.4502 20.832 28.4502 21.374C28.4502 21.916 28.896 22.3555 29.4463 22.3555H35.8286C36.3788 22.3555 36.8247 21.916 36.8247 21.374C36.8247 20.832 36.3787 20.3926 35.8286 20.3926Z" fill="#CFDE29"/>
<path d="M35.8282 24.084H31.5505C31.0003 24.084 30.5544 24.5234 30.5544 25.0654C30.5544 25.6074 31.0003 26.0469 31.5505 26.0469H35.8282C36.3784 26.0469 36.8243 25.6074 36.8243 25.0654C36.8243 24.5234 36.3783 24.084 35.8282 24.084Z" fill="#CFDE29"/>
</svg>
