<svg width="67" height="74" viewBox="0 0 67 74" fill="none" xmlns="http://www.w3.org/2000/svg">
<path fill-rule="evenodd" clip-rule="evenodd" d="M16.2465 0.259766C13.398 0.259766 11.0491 2.63698 11.0491 5.51974V17.7839H5.85173C3.00328 17.7839 0.661133 20.1611 0.661133 23.0439V66.8611C0.661133 70.7149 3.77571 73.8738 7.58362 73.8738H61.2739C64.1223 73.8738 66.4696 71.4966 66.4696 68.6138V5.51974C66.4696 2.63698 64.1223 0.259766 61.2739 0.259766H16.2465ZM16.2465 3.76528H61.2739C62.2633 3.76528 63.0058 4.5184 63.0058 5.51974V68.6138C63.0058 69.6152 62.2633 70.3666 61.2739 70.3666H13.5708C14.1665 69.3326 14.5129 68.1367 14.5129 66.8611V5.51974C14.5129 4.5184 15.257 3.76528 16.2465 3.76528ZM26.6395 12.5256C23.791 12.5256 21.4438 14.9011 21.4438 17.7839V21.2911C21.4438 24.1739 23.791 26.5511 26.6395 26.5511H30.105C32.9534 26.5511 35.2955 24.1739 35.2955 21.2911V17.7839C35.2955 14.9011 32.9534 12.5256 30.105 12.5256H26.6395ZM40.4912 14.2784C38.1302 14.2254 38.1302 17.8369 40.4912 17.7839H54.3514C56.7124 17.8369 56.7124 14.2254 54.3514 14.2784H40.4912ZM26.6395 16.0311H30.105C31.0944 16.0311 31.8301 16.7826 31.8301 17.7839V21.2911C31.8301 22.2925 31.0944 23.0439 30.105 23.0439H26.6395C25.6501 23.0439 24.9076 22.2925 24.9076 21.2911V17.7839C24.9076 16.7826 25.6501 16.0311 26.6395 16.0311ZM5.85173 21.2911H11.0491V66.8611C11.0491 68.8334 9.53251 70.3666 7.58362 70.3666C5.63473 70.3666 4.1266 68.8334 4.1266 66.8611V23.0439C4.1266 22.0425 4.8623 21.2911 5.85173 21.2911ZM40.4912 21.2911C38.1809 21.2911 38.1809 24.7983 40.4912 24.7983H47.4222C49.7325 24.7983 49.7325 21.2911 47.4222 21.2911H40.4912ZM26.6395 30.0566C23.791 30.0566 21.4438 32.427 21.4438 35.3097V38.817C21.4438 41.6997 23.791 44.0752 26.6395 44.0752H30.105C32.9534 44.0752 35.2955 41.6997 35.2955 38.817V35.3097C35.2955 32.427 32.9534 30.0566 30.105 30.0566H26.6395ZM54.4512 31.8077L40.4912 31.8111C38.0339 31.6515 38.0339 35.4693 40.4912 35.3097H54.3514C56.7413 35.4677 56.8461 31.7894 54.4512 31.8077ZM26.6395 33.5638H30.105C31.0944 33.5638 31.8301 34.3084 31.8301 35.3097V38.817C31.8301 39.8183 31.0944 40.5697 30.105 40.5697H26.6395C25.6501 40.5697 24.9076 39.8183 24.9076 38.817V35.3097C24.9076 34.3084 25.6501 33.5638 26.6395 33.5638ZM40.4912 38.817C38.2326 38.8676 38.2326 42.2718 40.4912 42.3225H47.4222C49.7831 42.3754 49.7831 38.764 47.4222 38.817H40.4912ZM33.5315 49.3164C33.0822 49.3304 32.6558 49.5207 32.3425 49.847L26.6327 55.6171L24.3968 53.3525C22.7645 51.6319 20.2477 54.179 21.9478 55.831L25.4133 59.3365C26.0894 60.0196 27.1844 60.0196 27.8606 59.3365L34.7898 52.3238C35.9196 51.2092 35.1086 49.271 33.5315 49.3164ZM40.4912 49.3352C38.1809 49.3352 38.1809 52.8424 40.4912 52.8424H54.3514C56.6617 52.8424 56.6617 49.3352 54.3514 49.3352H40.4912ZM40.4912 56.348C38.1809 56.348 38.1809 59.8552 40.4912 59.8552H47.4222C49.7325 59.8552 49.7325 56.348 47.4222 56.348H40.4912Z" fill="#2A343F"/>
</svg>
