<svg width="54" height="36" viewBox="0 0 54 36" fill="none" xmlns="http://www.w3.org/2000/svg">
<path d="M39.5663 32.5361C40.9574 32.5361 42.0892 31.4043 42.0892 30.0131C42.0892 28.6218 40.9574 27.4901 39.5663 27.4901C38.1752 27.4901 37.0433 28.6219 37.0433 30.0131C37.0433 31.4042 38.1752 32.5361 39.5663 32.5361ZM39.5663 29.0656C40.0888 29.0656 40.5138 29.4906 40.5138 30.0131C40.5138 30.5355 40.0887 30.9607 39.5663 30.9607C39.0439 30.9607 38.6188 30.5356 38.6188 30.0131C38.6188 29.4905 39.0438 29.0656 39.5663 29.0656Z" fill="black"/>
<path d="M8.97266 27.4901C7.58152 27.4901 6.44971 28.6219 6.44971 30.0131C6.44971 31.4042 7.58152 32.5361 8.97266 32.5361C10.3639 32.5361 11.4957 31.4043 11.4957 30.0131C11.4957 28.6218 10.3639 27.4901 8.97266 27.4901ZM8.97266 30.9607C8.45013 30.9607 8.02518 30.5356 8.02518 30.0131C8.02518 29.4905 8.45024 29.0656 8.97266 29.0656C9.49509 29.0656 9.92025 29.4906 9.92025 30.0131C9.92025 30.5355 9.49509 30.9607 8.97266 30.9607Z" fill="black"/>
<path d="M1.83238 32.7487H4.20673C5.15695 34.3977 6.9366 35.511 8.97254 35.511C11.0086 35.511 12.7882 34.3977 13.7385 32.7487H21.0325C21.4676 32.7487 21.8202 32.396 21.8202 31.9609C21.8202 31.5259 21.4676 31.1732 21.0325 31.1732H14.3475C14.543 30.2662 14.5111 29.2465 14.1925 28.2865H31.2707V31.1732H24.7087C24.2735 31.1732 23.921 31.5259 23.921 31.9609C23.921 32.396 24.2735 32.7487 24.7087 32.7487H34.8003C35.7506 34.3977 37.5302 35.511 39.5663 35.511C41.6023 35.511 43.382 34.3977 44.3322 32.7487H51.9259C52.946 32.7487 53.776 31.9187 53.776 30.8985V29.1278C53.776 28.2318 53.1356 27.483 52.2886 27.3138V25.4023C52.2886 24.9673 51.9361 24.6146 51.5009 24.6146C51.0658 24.6146 50.7132 24.9673 50.7132 25.4023V27.2777H44.3347C43.3658 25.5896 41.5335 24.4938 39.4993 24.517C36.0188 24.5528 33.4596 27.7774 34.1926 31.1732H32.8461C32.8461 30.3849 32.8461 12.827 32.8461 11.9519C32.8461 11.654 33.0885 11.4116 33.3865 11.4116H43.0155C43.3481 11.4116 43.6618 11.5402 43.8985 11.7738L50.1941 17.9845C50.524 18.3099 50.7131 18.7622 50.7131 19.2256V21.7262C50.7131 22.1613 51.0657 22.514 51.5008 22.514C51.9359 22.514 52.2885 22.1613 52.2885 21.7262V19.2256C52.2885 18.3435 51.9284 17.4823 51.3005 16.8628L45.005 10.6523C44.4716 10.126 43.7649 9.83611 43.0155 9.83611H33.3865C32.2199 9.83611 31.2707 10.7853 31.2707 11.9519V23.5326H29.4553V13.2696C29.4553 12.4406 28.7809 11.7663 27.952 11.7663C24.3911 11.7663 25.8449 11.7663 23.5721 11.7663V1.50332C23.5721 0.674304 22.8977 0 22.0688 0C20.996 0 12.8726 0 11.7337 0C10.9047 0 10.2304 0.674409 10.2304 1.50332V11.7663C7.95405 11.7663 9.41262 11.7663 5.85068 11.7663C5.02167 11.7663 4.34736 12.4407 4.34736 13.2696V23.5326H2.3818C1.66433 23.5326 1.08057 24.1163 1.08057 24.8339V26.8742C0.444494 27.1618 0 27.8011 0 28.5434V30.9162C0 31.9266 0.821978 32.7487 1.83238 32.7487ZM44.9413 28.8531H51.9259C52.0748 28.8531 52.2005 28.979 52.2005 29.1278V30.8985C52.2005 31.0474 52.0748 31.1732 51.9259 31.1732H44.9413C45.0974 30.4484 45.1086 29.6327 44.9413 28.8531ZM39.6714 26.0934C41.7861 26.1548 43.4887 27.8799 43.4887 30.0131C43.4887 32.1711 41.7315 33.9355 39.5663 33.9355C37.5868 33.9355 35.9239 32.4532 35.6769 30.5139C35.3708 28.1221 37.2697 26.0298 39.6714 26.0934ZM8.97264 33.9355C6.82979 33.9355 5.05034 32.1949 5.05034 30.0131C5.05034 27.8832 6.78105 26.0908 8.97264 26.0908C11.1178 26.0908 12.8951 27.8316 12.8951 30.0131C12.8949 32.1612 11.1468 33.9355 8.97264 33.9355ZM31.2708 25.108V26.711H13.3676C12.8552 26.0278 12.2025 25.4837 11.4624 25.108H31.2708ZM25.4913 16.1589V13.3416H27.8798V23.5326H17.6889V13.3416H20.0774V16.1589C20.0774 16.722 20.5355 17.1801 21.0985 17.1801H24.4703C25.0332 17.1801 25.4913 16.7221 25.4913 16.1589ZM23.9158 13.3416V15.6047H21.6529V13.3416H23.9158ZM15.7698 1.57526H18.0327V3.83828H15.7698V1.57526ZM11.8057 1.57526H14.1942V4.39253C14.1942 4.9556 14.6522 5.41375 15.2154 5.41375H18.587C19.15 5.41375 19.6081 4.95571 19.6081 4.39253V1.57526H21.9967V11.7662C19.8907 11.7662 13.9236 11.7662 11.8058 11.7662L11.8057 1.57526ZM9.88652 13.3416H12.1495V15.6047H9.88652V13.3416ZM5.92263 13.3416H8.31105V16.1589C8.31105 16.722 8.76909 17.1801 9.33227 17.1801H12.7039C13.267 17.1801 13.7251 16.7221 13.7251 16.1589V13.3416H16.1135V23.5326H5.92263V13.3416ZM2.65604 25.108H6.48287C5.74282 25.4837 5.09004 26.0278 4.5777 26.711H2.65604V25.108ZM1.57547 28.5434C1.57547 28.4156 1.66465 28.2864 1.8683 28.2864H3.75268C3.44252 29.2215 3.3962 30.2381 3.59765 31.1731H1.83238C1.69069 31.1731 1.57547 31.0578 1.57547 30.9161V28.5434Z" fill="black"/>
<path d="M44.9878 22.6664C45.2661 22.9049 45.6212 23.0362 45.9878 23.0362H47.5644C48.4119 23.0362 49.1014 22.3467 49.1014 21.4991V19.8132C49.1014 19.4048 48.9346 19.006 48.6439 18.7191L43.3192 13.4661C43.0297 13.1805 42.6464 13.0233 42.2399 13.0233H36.4734C35.6259 13.0233 34.9364 13.7128 34.9364 14.5603V18.5864C34.9364 19.4339 35.6258 20.1234 36.4734 20.1234H42.0199L44.9878 22.6664ZM36.5117 14.5988H42.2239L47.5259 19.8293V21.4607H46.0019L43.0337 18.9176C42.7553 18.6791 42.4002 18.5479 42.0337 18.5479H36.5116V14.5988H36.5117Z" fill="black"/>
<path d="M36.3435 20.9385C35.9084 20.9385 35.5558 21.2912 35.5558 21.7262C35.5558 22.1613 35.9084 22.5139 36.3435 22.5139H37.3705C37.8057 22.5139 38.1583 22.1613 38.1583 21.7262C38.1583 21.2912 37.8057 20.9385 37.3705 20.9385H36.3435Z" fill="black"/>
</svg>
