<svg width="69" height="61" viewBox="0 0 69 61" fill="none" xmlns="http://www.w3.org/2000/svg">
<path d="M28.9746 30.9622C28.363 30.9622 27.8279 31.4973 27.8279 32.1089C27.8279 32.7205 28.363 33.2557 28.9746 33.2557C29.5862 33.2557 30.1214 32.7205 30.1214 32.1089C30.1214 31.4973 29.5862 30.9622 28.9746 30.9622Z" fill="black"/>
<path d="M61.9251 54.7388C62.5367 54.7388 63.0718 54.2037 63.0718 53.5921C63.0718 52.9805 62.5367 52.4453 61.9251 52.4453C61.3135 52.4453 60.7783 52.9805 60.7783 53.5921C60.7783 54.2037 61.237 54.7388 61.9251 54.7388Z" fill="black"/>
<path d="M22.0179 52.5212C21.4062 52.5212 20.8711 53.0564 20.8711 53.668C20.8711 54.2796 21.4062 54.8148 22.0179 54.8148C22.6295 54.8148 23.1646 54.2796 23.1646 53.668C23.1646 53.0564 22.6295 52.5212 22.0179 52.5212Z" fill="black"/>
<path d="M30.4273 43.6531C29.8157 43.6531 29.2805 44.1882 29.2805 44.7998C29.2805 45.4114 29.8157 45.9466 30.4273 45.9466C31.0389 45.9466 31.574 45.4114 31.574 44.7998C31.574 44.1882 31.0389 43.6531 30.4273 43.6531Z" fill="black"/>
<path d="M67.7352 33.5618C68.3468 33.5618 68.882 33.0267 68.882 32.4151V19.6478C68.882 19.5714 68.882 19.4949 68.882 19.342L66.8943 11.3147C66.1298 8.10376 64.1421 6.1925 61.5427 6.1925H45.5646C44.953 6.1925 44.4178 6.72765 44.4178 7.33926V25.3816H38.7605L36.0082 19.4185L40.4424 17.5072C40.7482 17.3543 40.9775 17.1249 41.054 16.8956C41.1304 16.5898 41.1304 16.284 41.054 16.0546L34.9379 1.91126C34.6321 1.14676 33.9441 0.535154 33.1796 0.229352C32.4151 -0.0764506 31.4977 -0.0764506 30.7331 0.229352L11.0089 8.63892C9.40343 9.32697 8.63892 11.2382 9.32698 12.8437L9.55633 13.4553C8.48602 13.3789 7.41571 13.6847 6.4983 14.3727C5.19864 15.2901 4.51059 16.5898 4.35769 18.1188C3.59318 18.0423 2.82867 18.1952 2.14062 18.5775C0.840957 19.2656 0.0764505 20.7181 0.0764505 22.1707C0.0764505 23.241 0.535154 24.2348 1.14676 24.9993C0.458704 25.9168 0.0764505 26.9871 0.0764505 28.1338C0.0764505 30.9625 2.36997 33.1796 5.12219 33.1796C7.87441 33.1796 10.1679 30.886 10.1679 28.1338C10.1679 27.828 10.1679 27.4458 10.0915 27.14C11.0853 27.0635 12.0792 26.6813 12.9966 26.0697C13.5318 25.6874 13.9905 25.2287 14.3727 24.6935L15.2901 26.8342V32.4151C15.2901 33.0267 15.8253 33.5618 16.4369 33.5618H22.4765C22.7058 34.6321 23.241 35.626 23.929 36.3905H21.7884C18.1188 36.3905 14.8314 36.3905 12.9202 40.3659C11.3911 39.7543 9.55633 39.8308 7.95086 40.6717C6.0396 41.5891 4.89284 43.4239 4.66349 45.4881C3.51673 45.641 2.52287 46.0997 1.75836 46.8642C0.611605 48.011 0 49.8458 0 52.2158V59.6315C0 60.2431 0.535154 60.7782 1.14676 60.7782H67.6588C68.2704 60.7782 68.8056 60.2431 68.8056 59.6315V37.6137C68.8056 37.0021 68.2704 36.4669 67.6588 36.4669H61.6192C62.3073 35.626 62.8424 34.7086 63.0718 33.6383H67.7352V33.5618ZM64.6772 11.9263L66.2827 18.501H54.8151V8.56247H61.5427C63.5305 8.56247 64.3714 10.6266 64.6772 11.9263ZM46.7113 8.56247H52.5216V19.6478C52.5216 20.2594 53.0567 20.7946 53.6683 20.7946H66.5885V24.1584H64.4479C63.8363 24.1584 63.3011 24.6935 63.3011 25.3052C63.3011 25.9168 63.8363 26.4519 64.4479 26.4519H66.5885V31.2683H63.2247C62.8424 27.9809 60.0137 25.458 56.6499 25.458C53.2861 25.458 50.4574 27.9809 50.0752 31.2683H46.7113V8.56247ZM35.4731 33.5618H50.2281C50.4574 34.6321 50.9926 35.626 51.6806 36.3905H34.0205C34.7086 35.626 35.1673 34.6321 35.4731 33.5618ZM44.4178 31.2683H35.5495C35.3966 29.8922 34.785 28.669 33.9441 27.7516H44.4178V31.2683ZM36.2376 25.458H22.0178L33.9441 20.3359L36.2376 25.458ZM11.9263 10.7795L31.6506 2.29352C31.8035 2.21707 31.8799 2.21707 32.0328 2.21707C32.1857 2.21707 32.2622 2.21707 32.4151 2.29352C32.6444 2.36997 32.7973 2.52287 32.9502 2.75222L38.4547 15.8253L17.0485 25.0758L11.3911 12.0027C11.2382 11.544 11.3911 10.9324 11.9263 10.7795ZM11.6969 24.1584C10.7795 24.77 9.70923 24.9993 8.63892 24.6935C8.18022 24.5406 7.64506 24.77 7.41571 25.1523C7.10991 25.5345 7.18636 26.0697 7.41571 26.4519C7.72151 26.9106 7.95086 27.4458 7.95086 28.0574C7.95086 29.5864 6.72765 30.8096 5.19864 30.8096C3.66963 30.8096 2.36997 29.6628 2.36997 28.1338C2.36997 27.2164 2.75222 26.3755 3.51673 25.9168C3.82253 25.6874 4.05188 25.3052 3.97543 24.9229C3.89898 24.5406 3.66963 24.1584 3.36383 24.0055C2.82867 23.6997 2.36997 22.8587 2.36997 22.1707C2.36997 21.4826 2.67577 20.9475 3.28738 20.6417C3.82253 20.3359 4.51059 20.3359 5.12219 20.7181C5.50444 21.0239 6.0396 20.9475 6.42185 20.7181C6.8041 20.4123 6.95701 19.9536 6.8041 19.4949C6.3454 18.0423 7.10991 16.8956 7.87441 16.3604C8.71537 15.7488 9.78568 15.7488 10.7795 16.3604L13.226 21.9413C12.9966 22.7823 12.4615 23.6232 11.6969 24.1584ZM17.6601 27.7516H24.0055C23.1645 28.7454 22.5529 29.9686 22.4 31.2683H17.6601V27.7516ZM24.6171 32.1093C24.6171 29.7393 26.6048 27.7516 28.9748 27.7516C31.3448 27.7516 33.3325 29.7393 33.3325 32.1093C33.3325 34.4792 31.4212 36.4669 28.9748 36.4669C26.6048 36.4669 24.6171 34.4792 24.6171 32.1093ZM5.81025 47.7816C6.1925 47.7816 6.42185 47.6287 6.6512 47.3994C6.88056 47.17 6.95701 46.8642 6.95701 46.5584C6.80411 44.1884 8.18022 43.1946 8.94472 42.7359C10.2444 42.1243 11.8498 42.2007 12.7673 42.9652C13.0731 43.1946 13.4553 43.271 13.8376 43.1946C14.2198 43.1181 14.5256 42.8123 14.6021 42.4301C15.7488 39.1427 17.4307 38.7605 20.6417 38.7605C20.2594 49.0813 14.1434 51.1455 3.89898 51.1455H2.44642C2.59932 49.9987 2.90512 49.1577 3.44028 48.5461C3.97543 48.011 4.73994 47.7052 5.81025 47.7816ZM66.5885 58.5612H2.36997V53.439H3.89898C13.5318 53.439 22.4765 51.6042 22.9352 38.7605H66.5885V58.5612ZM52.2922 32.1093C52.2922 29.7393 54.2799 27.7516 56.6499 27.7516C59.0199 27.7516 61.0076 29.7393 61.0076 32.1093C61.0076 34.4792 59.0199 36.4669 56.6499 36.4669C54.2799 36.4669 52.2922 34.4792 52.2922 32.1093Z" fill="black"/>
<path d="M18.0423 14.3724C18.1952 14.3724 18.3481 14.3724 18.501 14.296L29.5864 9.47957C30.198 9.25022 30.4273 8.56216 30.198 7.95056C29.9686 7.33895 29.2806 7.1096 28.669 7.33895L17.5836 12.1553C16.972 12.3847 16.7427 13.0727 16.972 13.6844C17.2014 14.0666 17.5836 14.3724 18.0423 14.3724Z" fill="black"/>
<path d="M19.3419 19.0357C19.4948 19.4944 19.9535 19.7237 20.4122 19.7237C20.5651 19.7237 20.718 19.7237 20.8709 19.6473L31.9562 14.8309C32.5678 14.6015 32.7972 13.9135 32.5678 13.3019C32.3385 12.6903 31.6504 12.4609 31.0388 12.6903L19.9535 17.5067C19.3419 17.736 19.0361 18.4241 19.3419 19.0357Z" fill="black"/>
<path d="M54.6624 44.4939C54.0508 44.4939 53.5156 45.0291 53.5156 45.6407C53.5156 46.2523 54.0508 46.7874 54.6624 46.7874C55.274 46.7874 55.8091 46.2523 55.8091 45.6407C55.8091 45.0291 55.274 44.4939 54.6624 44.4939Z" fill="black"/>
<path d="M38.6077 49.9985C37.9961 49.9985 37.4609 50.5337 37.4609 51.1453C37.4609 51.7569 37.9961 52.2921 38.6077 52.2921C39.2193 52.2921 39.7545 51.7569 39.7545 51.1453C39.7545 50.5337 39.2193 49.9985 38.6077 49.9985Z" fill="black"/>
<path d="M51.5276 51.145C50.916 51.145 50.3809 51.6802 50.3809 52.2918C50.3809 52.9034 50.916 53.4385 51.5276 53.4385C52.1392 53.4385 52.6744 52.9034 52.6744 52.2918C52.6744 51.6802 52.1392 51.145 51.5276 51.145Z" fill="black"/>
<path d="M56.6499 30.9622C56.0383 30.9622 55.5032 31.4973 55.5032 32.1089C55.5032 32.7205 56.0383 33.2557 56.6499 33.2557C57.2615 33.2557 57.7967 32.7205 57.7967 32.1089C57.7967 31.4973 57.2615 30.9622 56.6499 30.9622Z" fill="black"/>
</svg>
