<svg width="52" height="42" viewBox="0 0 52 42" fill="none" xmlns="http://www.w3.org/2000/svg">
<path d="M2.45863 22.9383H3.56972C3.926 24.2187 5.10159 25.1613 6.49391 25.1613C7.88623 25.1613 9.06181 24.2187 9.41809 22.9383H15.3816C15.7379 24.2187 16.9135 25.1613 18.3058 25.1613C19.6981 25.1613 20.8737 24.2187 21.23 22.9383H21.7676C22.1239 24.2187 23.2995 25.1613 24.6918 25.1613C26.0841 25.1613 27.2597 24.2187 27.616 22.9383H28.0789C29.1397 22.9383 30.0028 22.0752 30.0028 21.0143V17.5678C30.0028 17.3862 29.9425 17.219 29.8418 17.0838L29.852 17.0885C29.9607 17.1394 30.0783 17.165 30.1962 17.165C30.2897 17.165 30.3835 17.1489 30.4732 17.1164C30.6758 17.0429 30.8409 16.892 30.9322 16.6968L32.7271 12.8594V15.9244C32.7271 16.3731 33.0909 16.7369 33.5396 16.7369C33.9883 16.7369 34.3521 16.3731 34.3521 15.9244V9.20443C34.3521 9.19814 34.3513 9.19204 34.3512 9.18585C34.3508 9.1694 34.3501 9.15294 34.3487 9.13659C34.3477 9.12461 34.3464 9.11282 34.3449 9.10104C34.3432 9.08743 34.3411 9.07393 34.3387 9.06042C34.3361 9.0464 34.3333 9.03259 34.3301 9.01888C34.3274 9.00781 34.3247 8.99684 34.3216 8.98597C34.3175 8.97094 34.3129 8.95611 34.3078 8.94139C34.3045 8.93154 34.3009 8.92189 34.2971 8.91214C34.2915 8.89751 34.2856 8.88309 34.2791 8.86887C34.2746 8.85892 34.2697 8.84917 34.2649 8.83942C34.2583 8.82632 34.2514 8.81342 34.2441 8.80083C34.2379 8.79006 34.2314 8.7796 34.2248 8.76904C34.2179 8.75807 34.2108 8.7473 34.2034 8.73674C34.1953 8.72516 34.1867 8.71399 34.178 8.70282C34.171 8.69388 34.1639 8.68504 34.1565 8.67641C34.1466 8.66483 34.1364 8.65366 34.1258 8.64269C34.1183 8.63487 34.1107 8.62715 34.1029 8.61964C34.092 8.60918 34.0808 8.59902 34.0692 8.58917C34.0603 8.58155 34.0513 8.57404 34.042 8.56683C34.0313 8.55829 34.0202 8.55007 34.0089 8.54204C33.9974 8.53392 33.9858 8.5262 33.9739 8.51858C33.9641 8.51239 33.9543 8.50629 33.9441 8.5005C33.9297 8.49218 33.9149 8.48446 33.8998 8.47704C33.8944 8.4743 33.8893 8.47115 33.8838 8.46851L17.7354 0.91541C17.54 0.824106 17.3166 0.814051 17.1141 0.887582C16.9115 0.961012 16.7464 1.11193 16.6551 1.30714L13.3118 8.45521C13.1217 8.86166 13.2971 9.3453 13.7035 9.53543L17.0836 11.1163L14.4461 16.7552H12.1753V10.0051C12.1753 9.55635 11.8115 9.19255 11.3628 9.19255H5.22072C4.41188 9.19255 3.7053 9.6182 3.23121 10.3912L1.02649 13.9856C1.00537 14.02 0.986883 14.056 0.971141 14.0931C0.862875 14.3484 0.8125 14.5951 0.8125 14.8698V21.2922C0.8125 22.1999 1.55096 22.9383 2.45863 22.9383ZM6.4938 23.5363C5.71604 23.5363 5.0833 22.9036 5.0833 22.1258C5.0833 21.3481 5.71604 20.7153 6.4938 20.7153C7.27157 20.7153 7.9043 21.3481 7.9043 22.1258C7.90441 22.9036 7.27167 23.5363 6.4938 23.5363ZM18.3057 23.5363C17.528 23.5363 16.8952 22.9036 16.8952 22.1258C16.8952 21.3481 17.528 20.7153 18.3057 20.7153C19.0835 20.7153 19.7162 21.3481 19.7162 22.1258C19.7162 22.9036 19.0835 23.5363 18.3057 23.5363ZM24.6917 23.5363C23.9139 23.5363 23.2812 22.9036 23.2812 22.1258C23.2812 21.3481 23.9139 20.7153 24.6917 20.7153C25.4694 20.7153 26.1022 21.3481 26.1022 22.1258C26.1022 22.9036 25.4694 23.5363 24.6917 23.5363ZM17.7829 2.73155L32.4593 9.59616L29.8043 15.2724L15.1279 8.40778L17.7829 2.73155ZM18.5556 11.8049L29.1395 16.7554H16.2401L18.5556 11.8049ZM2.4506 14.7719L4.61632 11.241C4.87591 10.8178 5.13541 10.8178 5.22072 10.8178H10.5503V17.5679C10.5503 18.0166 10.9141 18.3804 11.3628 18.3804H28.3778V21.0144C28.3778 21.1765 28.2409 21.3134 28.0789 21.3134H27.616C27.2597 20.033 26.0841 19.0904 24.6918 19.0904C23.2995 19.0904 22.1239 20.033 21.7676 21.3134H21.23C20.8737 20.033 19.6981 19.0904 18.3058 19.0904C16.9135 19.0904 15.7379 20.033 15.3816 21.3134H9.41799C9.06171 20.033 7.88613 19.0904 6.4938 19.0904C5.10148 19.0904 3.9259 20.033 3.56962 21.3134H2.45852C2.44806 21.3134 2.4374 21.3028 2.4374 21.2923V19.6613H3.0353C3.484 19.6613 3.8478 19.2975 3.8478 18.8488C3.8478 18.4001 3.484 18.0363 3.0353 18.0363H2.4375V14.8698C2.4375 14.8311 2.44085 14.8034 2.4506 14.7719ZM4.3548 16.5004H8.99173C9.44044 16.5004 9.80423 16.1366 9.80423 15.6879V12.3894C9.80423 11.9407 9.44044 11.5769 8.99173 11.5769H5.75565C5.42973 11.5769 5.1352 11.7717 5.00784 12.0718L3.60699 15.3703C3.50045 15.6213 3.52676 15.909 3.67727 16.1363C3.82769 16.3637 4.0821 16.5004 4.3548 16.5004ZM6.29332 13.2019H8.17923V14.8755H5.58259L6.29332 13.2019ZM51.1274 40.0416C50.7979 39.2338 50.3141 38.2147 49.4887 37.4967C48.7587 36.8616 47.4871 36.2427 45.5751 36.8998C45.5607 36.9047 45.5466 36.9101 45.5326 36.9158C43.2221 37.8565 38.7177 37.6902 37.6129 37.3801L31.4945 25.9053C31.3534 25.6405 31.0777 25.4751 30.7776 25.4751H1.625C1.1763 25.4751 0.8125 25.8388 0.8125 26.2876V40.3485C0.8125 40.7972 1.1763 41.161 1.625 41.161H50.375C50.6456 41.161 50.8984 41.0263 51.0494 40.8017C51.2002 40.5771 51.2295 40.2921 51.1274 40.0416ZM2.4375 39.5359V37.816H2.96908C3.41778 37.816 3.78158 37.4522 3.78158 37.0035C3.78158 36.5548 3.41778 36.191 2.96908 36.191H2.4375V27.1H30.2899L36.3167 38.4031C36.3893 38.5393 36.4991 38.652 36.6335 38.7279C37.8722 39.4291 43.4234 39.5159 46.1229 38.4298C47.5752 37.9381 48.4291 38.4543 49.0794 39.5359H2.4375ZM34.4506 19.7771C34.2047 19.9723 34.0842 20.3014 34.1706 20.6238C34.2392 20.8798 34.4235 21.072 34.6515 21.1645L34.0501 22.9933C34.045 23.0092 34.0402 23.0253 34.0359 23.0414C33.7406 24.1705 34.0254 25.262 34.8173 26.0361C35.4404 26.6453 36.2951 26.9722 37.1884 26.9722C37.5248 26.9722 37.8667 26.9258 38.2039 26.8306C39.4448 26.5157 40.4157 25.6043 40.7394 24.4493C41.0382 23.3829 40.7391 22.2951 39.9187 21.4651C39.9071 21.4533 39.8951 21.4418 39.8827 21.4307L38.4488 20.1479C38.5997 19.9539 38.6619 19.6945 38.5933 19.4389C38.5069 19.1163 38.238 18.8918 37.9274 18.8457C37.9634 18.5337 37.8159 18.2157 37.5266 18.0487C37.2373 17.8816 36.8883 17.913 36.6361 18.1C36.4409 17.8542 36.112 17.7338 35.7894 17.82C35.4668 17.9064 35.2422 18.1753 35.196 18.4859C34.8841 18.4501 34.5662 18.5975 34.3992 18.8867C34.2324 19.1759 34.2636 19.5249 34.4506 19.7771ZM39.1746 24.011C39.0069 24.6093 38.4789 25.0871 37.7965 25.2576C37.7876 25.2598 37.7788 25.2622 37.7701 25.2647C37.0937 25.4584 36.3977 25.3086 35.9532 24.8742C35.6955 24.6222 35.427 24.1758 35.6022 23.4752L36.4652 20.8508L36.7205 20.7823L38.779 22.6239C39.281 23.143 39.2718 23.6639 39.1746 24.011ZM40.1523 28.553C39.9162 28.7891 39.8561 29.1343 39.9714 29.4263C39.6834 29.5513 39.4818 29.8379 39.4818 30.1718C39.4818 30.4368 39.6093 30.6714 39.8056 30.8198L38.7522 32.4293C38.743 32.4434 38.7343 32.4577 38.726 32.4722C38.1484 33.4863 38.1411 34.6144 38.7057 35.5671C39.3172 36.5991 40.4889 37.2239 41.7711 37.2111C41.7881 37.2113 41.8049 37.2114 41.8217 37.2114C43.0822 37.2114 44.2331 36.5854 44.8366 35.5671C45.4013 34.6144 45.3939 33.4862 44.8163 32.4721C44.8081 32.4577 44.7993 32.4435 44.7903 32.4295L43.7374 30.8193C43.9333 30.6709 44.0605 30.4365 44.0605 30.1718C44.0605 29.8379 43.8589 29.5513 43.5708 29.4263C43.6861 29.1343 43.626 28.7891 43.3899 28.553C43.1539 28.3169 42.8086 28.2569 42.5166 28.3721C42.3917 28.0841 42.1051 27.8825 41.7711 27.8825C41.4372 27.8825 41.1506 28.0841 41.0257 28.3721C40.7337 28.2568 40.3884 28.3169 40.1523 28.553ZM43.4386 34.7386C43.1217 35.2731 42.4876 35.5992 41.7848 35.586C41.7757 35.5859 41.7666 35.5859 41.7574 35.586C41.0536 35.5987 40.4204 35.2732 40.1036 34.7386C39.9198 34.4284 39.776 33.9277 40.1266 33.2964L41.6395 30.9848L41.9039 30.9846L43.4154 33.2963C43.7661 33.9277 43.6224 34.4285 43.4386 34.7386ZM16.7711 37.0035C16.7711 37.4522 16.4073 37.816 15.9586 37.816H14.6145C14.1658 37.816 13.802 37.4522 13.802 37.0035C13.802 36.5548 14.1658 36.191 14.6145 36.191H15.9586C16.4074 36.191 16.7711 36.5548 16.7711 37.0035ZM13.3295 33.3224C13.3295 33.7711 12.9657 34.1349 12.517 34.1349H11.1729C10.7242 34.1349 10.3604 33.7711 10.3604 33.3224C10.3604 32.8737 10.7242 32.5099 11.1729 32.5099H12.517C12.9658 32.5099 13.3295 32.8736 13.3295 33.3224ZM22.8951 33.3224C22.8951 33.7711 22.5313 34.1349 22.0826 34.1349H20.7386C20.2899 34.1349 19.9261 33.7711 19.9261 33.3224C19.9261 32.8737 20.2899 32.5099 20.7386 32.5099H22.0826C22.5314 32.5099 22.8951 32.8736 22.8951 33.3224ZM16.7711 29.6031C16.7711 30.0518 16.4073 30.4156 15.9586 30.4156H14.6145C14.1658 30.4156 13.802 30.0518 13.802 29.6031C13.802 29.1544 14.1658 28.7906 14.6145 28.7906H15.9586C16.4074 28.7906 16.7711 29.1543 16.7711 29.6031ZM27.4377 29.6031C27.4377 30.0518 27.0739 30.4156 26.6252 30.4156H25.2811C24.8324 30.4156 24.4686 30.0518 24.4686 29.6031C24.4686 29.1544 24.8324 28.7906 25.2811 28.7906H26.6252C27.0739 28.7906 27.4377 29.1543 27.4377 29.6031ZM7.32042 29.6031C7.32042 30.0518 6.95663 30.4156 6.50792 30.4156H5.16384C4.71514 30.4156 4.35134 30.0518 4.35134 29.6031C4.35134 29.1544 4.71514 28.7906 5.16384 28.7906H6.50792C6.95663 28.7906 7.32042 29.1543 7.32042 29.6031ZM31.8709 37.0035C31.8709 37.4522 31.5071 37.816 31.0584 37.816H29.7143C29.2656 37.816 28.9018 37.4522 28.9018 37.0035C28.9018 36.5548 29.2656 36.191 29.7143 36.191H31.0584C31.5071 36.191 31.8709 36.5548 31.8709 37.0035Z" fill="black"/>
</svg>
