<svg xmlns="http://www.w3.org/2000/svg" version="1.1" xmlns:xlink="http://www.w3.org/1999/xlink" width="512" height="512" x="0" y="0" viewBox="0 0 512 512" style="enable-background:new 0 0 512 512" xml:space="preserve" class=""><g><path fill="#e1ea7b" d="M161.405 69.609a7.58 7.58 0 0 1-2.688-.494 7.611 7.611 0 0 1-4.431-9.81l15.587-41.26C173.951 7.252 184.444 0 195.981 0h54.123c11.539 0 22.031 7.252 26.108 18.046l15.587 41.26a7.61 7.61 0 0 1-4.43 9.81c-3.928 1.488-8.324-.497-9.81-4.43l-15.588-41.26c-1.853-4.906-6.622-8.202-11.867-8.202h-54.123c-5.244 0-10.014 3.296-11.867 8.203l-15.587 41.259a7.617 7.617 0 0 1-7.122 4.923zM347.114 512H98.971c-10.992 0-19.987-8.75-20.29-19.738l-9.729-353.16h308.18l-9.729 353.16C367.101 503.25 358.106 512 347.114 512z" opacity="1" data-original="#407093" class=""></path><path fill="#cddd22" d="M239.479 435.982V222.31c0-9.077-7.359-16.436-16.436-16.436s-16.436 7.359-16.436 16.436v213.672c0 9.077 7.359 16.436 16.436 16.436s16.436-7.358 16.436-16.436zM315.497 435.982V222.31c0-9.077-7.359-16.436-16.436-16.436s-16.436 7.359-16.436 16.436v213.672c0 9.077 7.359 16.436 16.436 16.436s16.436-7.358 16.436-16.436zM129.561 435.982V222.31c0-9.077 7.359-16.436 16.436-16.436s16.436 7.359 16.436 16.436v213.672c0 9.077-7.359 16.436-16.436 16.436s-16.436-7.358-16.436-16.436z" opacity="1" data-original="#2b4d66" class=""></path><path fill="#cddd22" d="M347.114 512h-6.963l10.273-372.898h26.709l-9.729 353.16c-.303 10.988-9.298 19.738-20.29 19.738z" opacity="1" data-original="#365e7d" class=""></path><path fill="#52657a" d="M377.133 98.011H68.952c-5.673 0-10.273-4.599-10.273-10.273V67.193c0-5.673 4.599-10.273 10.273-10.273h308.18c5.673 0 10.273 4.599 10.273 10.273v20.545c0 5.674-4.599 10.273-10.272 10.273z" opacity="1" data-original="#e4f6ff" class=""></path><path fill="#8598ad" d="M397.678 139.102H48.407c-5.673 0-10.273-4.599-10.273-10.273v-20.545c0-5.673 4.599-10.273 10.273-10.273h349.271c5.673 0 10.273 4.599 10.273 10.273v20.545c0 5.674-4.599 10.273-10.273 10.273z" opacity="1" data-original="#ffe07d" class=""></path><path fill="#758ba3" d="M397.678 139.102h-23.223c6.018 0 10.896-4.878 10.896-10.896v-19.299c0-6.018-4.878-10.896-10.896-10.896h23.223c5.673 0 10.273 4.599 10.273 10.273v20.545c0 5.674-4.599 10.273-10.273 10.273z" opacity="1" data-original="#ffd064" class=""></path><path fill="#3d4c5c" d="M377.133 98.011H353.91c6.018 0 10.896-4.878 10.896-10.896V67.816c0-6.018-4.878-10.896-10.896-10.896h23.223c5.673 0 10.273 4.599 10.273 10.273v20.545c-.001 5.674-4.6 10.273-10.273 10.273z" opacity="1" data-original="#d3effb" class=""></path><path fill="#52657a" d="M368.966 221.283h-42.544c-6.133 0-10.897 5.402-10.069 11.479 6.676 48.969 52.613 98.439 52.613 98.439s45.936-49.47 52.613-98.439c.829-6.077-3.935-11.479-10.069-11.479z" opacity="1" data-original="#b3e59f" class=""></path><path fill="#52657a" d="M329.977 274.242c15.821 32.004 38.99 56.959 38.99 56.959s23.244-25.037 39.067-57.116a117.583 117.583 0 0 0-38.805-6.574 117.53 117.53 0 0 0-39.252 6.731z" opacity="1" data-original="#78c2a4" class=""></path><path fill="#333f4d" d="M369.227 297.721a7.609 7.609 0 0 1-7.056-4.762l-11.613-28.763a7.61 7.61 0 0 1 4.208-9.907 7.608 7.608 0 0 1 9.907 4.208l4.046 10.018 1.231-3.518a7.612 7.612 0 0 1 14.369 5.027l-7.905 22.6a7.611 7.611 0 0 1-7.005 5.096l-.182.001z" opacity="1" data-original="#66b394" class=""></path><path fill="#52657a" d="M369.228 290.11c-49.07 0-90.065 37.374-94.589 86.235L264.157 489.56c-1.115 12.043 8.363 22.44 20.458 22.44h168.704c12.057 0 21.523-10.335 20.466-22.346l-9.929-112.875c-4.314-49.047-45.39-86.669-94.628-86.669z" opacity="1" data-original="#b3e59f" class=""></path><path fill="#333f4d" d="M463.856 376.78c-1.858-21.124-10.548-40.118-23.759-54.911C434.473 370.445 411.652 462.733 320.77 512h132.549c12.057 0 21.523-10.335 20.466-22.346z" opacity="1" data-original="#95d6a4" class=""></path></g></svg>