<svg xmlns="http://www.w3.org/2000/svg" version="1.1" xmlns:xlink="http://www.w3.org/1999/xlink" width="512" height="512" x="0" y="0" viewBox="0 0 68 68" style="enable-background:new 0 0 512 512" xml:space="preserve" class=""><g><path fill="#1d2943" d="M13.599 8.465v-2.31a.931.931 0 0 1 1.862 0v2.31h1.427v-2.31c0-1.3-1.058-2.358-2.359-2.358a2.36 2.36 0 0 0-2.357 2.358v2.31h1.427zM41.796 8.465v-2.31a.932.932 0 0 1 1.862 0v2.31h1.427v-2.31a2.36 2.36 0 0 0-2.358-2.358 2.361 2.361 0 0 0-2.358 2.358v2.31h1.427z" opacity="1" data-original="#1d2943" class=""></path><path fill="#dce765" d="M52.732 15.924v25.24c0 4.21-3.41 7.61-7.61 7.61h-32.99c-4.2 0-7.61-3.4-7.61-7.61v-25.24z" opacity="1" data-original="#6eb954" class=""></path><path fill="#cddd22" d="M52.732 27.634v13.53c0 4.21-3.41 7.61-7.61 7.61h-6.51v-3.18c0-3.13 1.22-6.07 3.43-8.28.89-.89 1.89-1.62 2.98-2.17-1.08-.81-1.77-1.8-2.01-2.89-.36-1.67.46-3.47 1.96-4.28.55-.3 1.2-.46 1.86-.46.55 0 1.08.11 1.57.31.54-.34 1.17-.53 1.81-.55.71.02 1.36.22 1.92.55.19-.08.4-.14.6-.19zM14.118 20.624a5.057 5.057 0 0 0-5.057 5.058V45.87c0 .85.134 1.655.393 2.415a7.61 7.61 0 0 1-4.93-7.12V15.917h48.212v4.706z" opacity="1" data-original="#4b9534" class=""></path><path fill="#4c5c75" d="M55.257 13.6v1.367a.951.951 0 0 1-.951.95H2.95a.951.951 0 0 1-.951-.95V13.6c0-.526.426-.952.951-.952h51.355c.525 0 .95.426.95.952zM7.55 8.038 2.41 9.699c-.641.207-.492 1.153.181 1.153h52.075c.673 0 .822-.946.181-1.153l-5.14-1.661a12.366 12.366 0 0 0-3.803-.6H11.353c-1.291 0-2.575.203-3.803.6z" opacity="1" data-original="#4c5c75" class=""></path><path fill="#111d33" d="M2.951 10.852h51.355v1.796H2.951zM16.24 48.777v5.486a2.012 2.012 0 0 1-4.023 0v-5.486z" opacity="1" data-original="#111d33" class=""></path><path fill="#4c5c75" d="M18.314 54.27c0 2.258-1.835 4.078-4.092 4.078s-4.077-1.82-4.077-4.077 1.82-4.092 4.077-4.092 4.092 1.835 4.092 4.092z" opacity="1" data-original="#4c5c75" class=""></path><path fill="#31445b" d="M18.313 54.274a4.089 4.089 0 0 1-4.089 4.079 4.06 4.06 0 0 1-3.197-1.547 4.088 4.088 0 0 0 6.622-3.197 4.03 4.03 0 0 0-.892-2.542 4.09 4.09 0 0 1 1.556 3.207z" opacity="1" data-original="#31445b" class=""></path><path fill="#57b3fe" d="M15.91 54.266c0 .93-.755 1.678-1.684 1.678s-1.678-.749-1.678-1.678a1.68 1.68 0 1 1 3.363 0z" opacity="1" data-original="#57b3fe" class=""></path><path fill="#5094ff" d="M15.906 54.263c0 .934-.748 1.681-1.682 1.681a1.64 1.64 0 0 1-1.401-.767c.26.176.571.27.914.27.923 0 1.68-.748 1.68-1.672 0-.342-.103-.653-.28-.913.468.29.769.81.769 1.401z" opacity="1" data-original="#5094ff" class=""></path><path fill="#111d33" d="M45.038 48.777v5.486a2.012 2.012 0 0 1-4.023 0v-5.486z" opacity="1" data-original="#111d33" class=""></path><path fill="#4c5c75" d="M47.112 54.27c0 2.258-1.835 4.078-4.092 4.078s-4.077-1.82-4.077-4.077 1.82-4.092 4.077-4.092 4.092 1.835 4.092 4.092z" opacity="1" data-original="#4c5c75" class=""></path><path fill="#31445b" d="M47.111 54.274a4.089 4.089 0 0 1-4.089 4.079 4.06 4.06 0 0 1-3.197-1.547 4.088 4.088 0 0 0 6.622-3.197 4.03 4.03 0 0 0-.893-2.542 4.09 4.09 0 0 1 1.557 3.207z" opacity="1" data-original="#31445b" class=""></path><path fill="#57b3fe" d="M44.708 54.266a1.68 1.68 0 0 1-1.684 1.678c-.929 0-1.678-.749-1.678-1.678a1.68 1.68 0 1 1 3.362 0z" opacity="1" data-original="#57b3fe" class=""></path><path fill="#5094ff" d="M44.704 54.263c0 .934-.748 1.681-1.682 1.681a1.64 1.64 0 0 1-1.401-.767c.26.176.57.27.913.27.924 0 1.682-.748 1.682-1.672 0-.342-.104-.653-.28-.913.467.29.768.81.768 1.401z" opacity="1" data-original="#5094ff" class=""></path><path fill="#31445b" d="M37.986 7.438H19.27a2.526 2.526 0 0 1 2.526-2.526H35.46a2.526 2.526 0 0 1 2.526 2.526z" opacity="1" data-original="#31445b" class=""></path><path fill="#cddd22" d="M37.863 34.581a8.704 8.704 0 0 1-8.704 8.704c-4.807 0-8.711-3.897-8.711-8.704s3.904-8.71 8.711-8.71 8.704 3.903 8.704 8.71z" opacity="1" data-original="#4b9534" class=""></path><path fill="#ffffff" d="M36.81 33.528a8.704 8.704 0 0 1-8.704 8.704c-4.808 0-8.712-3.897-8.712-8.704s3.904-8.711 8.712-8.711c4.806 0 8.703 3.904 8.703 8.711z" opacity="1" data-original="#ffffff" class=""></path><path fill="#ffd06c" d="M33.513 33.464a5.416 5.416 0 0 1-6.803 5.233l-.235.52a.406.406 0 0 1-.742-.005l-.91-2.085a.406.406 0 0 1 .246-.548l2.161-.708a.407.407 0 0 1 .496.553l-.221.492a3.512 3.512 0 0 0 4.107-3.452c0-.25-.03-.5-.082-.746a.952.952 0 0 1 .731-1.132.95.95 0 0 1 1.132.732c.081.375.12.76.12 1.146zM24.664 34.162a.96.96 0 0 1-.75 1.121c-.063.01-.126.015-.188.015a.947.947 0 0 1-.93-.765 5.42 5.42 0 0 1 6.899-6.249l.202-.448a.405.405 0 0 1 .742 0l.91 2.084a.406.406 0 0 1-.246.55l-2.161.707a.409.409 0 0 1-.5-.554l.259-.577a3.513 3.513 0 0 0-4.309 3.418c0 .23.024.467.072.698z" opacity="1" data-original="#ffd06c" class=""></path><path fill="#36712d" d="m10.432 15.918-.734 3.377-.733-3.377zM16.743 15.918l-.734 3.377-.733-3.377zM23.053 15.918l-.733 3.377-.734-3.377zM29.364 15.918l-.734 3.377-.733-3.377zM35.675 15.918l-.734 3.377-.734-3.377zM41.985 15.918l-.734 3.377-.733-3.377zM48.296 15.918l-.734 3.377-.734-3.377z" opacity="1" data-original="#36712d" class=""></path><path fill="#4c5c75" d="M56.055 31.94c-.21.969-.997 1.727-1.828 2.267-.704.466-1.482.823-2.158 1.326a10.084 10.084 0 0 0-3.574.01c-.55-.394-1.153-.705-1.738-1.053-.156-.091-.311-.182-.458-.283-.831-.54-1.608-1.298-1.819-2.267-.219-1.015.293-2.149 1.207-2.643.905-.503 2.14-.329 2.87.393a2.194 2.194 0 0 1 1.701-.914h.01a2.179 2.179 0 0 1 1.7.914c.75-.722 1.966-.896 2.88-.393.192.11.366.238.521.393.576.576.85 1.454.686 2.25z" opacity="1" data-original="#4c5c75" class=""></path><path fill="#4c5c75" d="M63.131 54.66a3.695 3.695 0 0 1-3.693 3.693H41.225a3.691 3.691 0 0 1-3.693-3.694c0-.493.1-.978.283-1.426.192-.439.467-.86.814-1.207l.375-.356a3.711 3.711 0 0 0 1.106-2.634V45.6c0-2.816 1.143-5.376 2.99-7.223a10.208 10.208 0 0 1 7.232-2.999c2.679 0 5.12 1.033 6.939 2.734a10.137 10.137 0 0 1 3.282 7.488v3.437c0 .988.394 1.939 1.106 2.634l.366.356a3.71 3.71 0 0 1 1.106 2.633z" opacity="1" data-original="#4c5c75" class=""></path><path fill="#31445b" d="M44.477 31.94c.21.969.997 1.727 1.828 2.267.704.466 1.482.823 2.158 1.326a10.084 10.084 0 0 1 3.575.01c.549-.394 1.152-.705 1.737-1.053-.174-.987-1.125-1.7-2.093-1.965-.997-.284-2.049-.22-3.073-.302-1.033-.082-2.111-.348-2.806-1.106a2.522 2.522 0 0 1-.64-1.427c-.576.576-.85 1.454-.686 2.25zM37.532 54.66a3.695 3.695 0 0 0 3.694 3.693h18.212c1.8 0 3.282-1.28 3.62-2.962-.52-.814-1.353-1.454-2.258-1.829-1.427-.585-3.008-.622-4.553-.658-3.611-.082-7.232-.156-10.852-.238-1.08-.018-2.24-.073-3.09-.74-1.043-.823-1.263-2.304-1.271-3.63a20.359 20.359 0 0 1 1.654-8.128c.229-.53.768-1.38.704-2.057a10.137 10.137 0 0 0-3.282 7.488v3.437c0 .988-.393 1.939-1.106 2.634l-.366.356a3.71 3.71 0 0 0-1.106 2.633z" opacity="1" data-original="#31445b" class=""></path><path fill="#ffd06c" d="M51.504 25.837a.954.954 0 0 1-.67-1.632l1.327-1.314-1.362-.667a.955.955 0 0 1-.175-1.604l3.002-2.392a.954.954 0 1 1 1.189 1.492l-1.823 1.453 1.213.594a.956.956 0 0 1 .252 1.535l-2.283 2.26a.952.952 0 0 1-.67.275zM56.947 27.346a.954.954 0 0 1-.167-1.893l1.84-.33-.743-1.321a.954.954 0 0 1 .795-1.42l3.746-.146c.528-.045.97.39.99.915.02.527-.39.97-.916.99l-2.186.086.636 1.131a.954.954 0 0 1-.664 1.407l-3.162.566a.948.948 0 0 1-.169.015zM61.738 33.84a.957.957 0 0 1-.293-.045l-3.058-.984a.955.955 0 0 1 .586-1.816l1.779.573-.036-1.517a.955.955 0 0 1 1.368-.881l3.376 1.63a.954.954 0 0 1-.829 1.717l-1.97-.951.03 1.299a.954.954 0 0 1-.953.976z" opacity="1" data-original="#ffd06c" class=""></path><path fill="#febc1f" d="M54.732 22.466a.981.981 0 0 1-.277.84l-2.28 2.26a.96.96 0 0 1-.668.267.921.921 0 0 1-.677-.276.941.941 0 0 1-.238-.926.905.905 0 0 0 .238.44.96.96 0 0 0 .677.276.93.93 0 0 0 .668-.277l2.28-2.26a.84.84 0 0 0 .248-.44c.02.03.02.067.029.096zM54.817 19.718l-1.838 1.457-.372-.191 2.21-1.752a.948.948 0 0 0 .325-.496.935.935 0 0 1-.325.982zM61.038 25.576a.974.974 0 0 1-.763 1.192l-3.158.563c-.058.01-.115.02-.172.02a.958.958 0 0 1-.916-1.212c.105.42.487.715.916.715.057 0 .114 0 .172-.01l3.158-.572a.94.94 0 0 0 .696-.525c.028-.057.047-.114.067-.171zM63.403 23.153a.945.945 0 0 1-.915.992l-2.185.076-.277-.486 2.462-.086a.931.931 0 0 0 .877-.697.493.493 0 0 1 .038.2zM62.679 32.473l.009.391a.935.935 0 0 1-.382.782.88.88 0 0 1-.572.191.976.976 0 0 1-.286-.038l-3.062-.992a.938.938 0 0 1-.62-1.145.952.952 0 0 0 .62.658l3.062.983a.938.938 0 0 0 .858-.143.912.912 0 0 0 .373-.687zM65.903 32.072a.947.947 0 0 1-1.269.449l-1.965-.945-.01-.496 1.975.945a.943.943 0 0 0 1.269-.44.47.47 0 0 0 .057-.161.91.91 0 0 1-.057.648z" opacity="1" data-original="#febc1f" class=""></path><path fill="#febc1f" d="m62.669 31.576.019.802c0 .028 0 .066-.01.095l-.018-.906z" opacity="1" data-original="#febc1f" class=""></path><path fill="#bf7d5a" d="M66 62.594v-2.63c0-.889-.72-1.61-1.61-1.61H3.61c-.889 0-1.61.721-1.61 1.61v2.63c0 .888.721 1.609 1.61 1.609H64.39c.889 0 1.609-.72 1.609-1.61z" opacity="1" data-original="#bf7d5a" class=""></path><path fill="#aa6256" d="M66 60.816v-.852c0-.889-.72-1.61-1.61-1.61H3.61c-.889 0-1.609.721-1.609 1.61v.852z" opacity="1" data-original="#aa6256" class=""></path></g></svg>