<svg width="139" height="47" viewBox="0 0 139 47" fill="none" xmlns="http://www.w3.org/2000/svg">
<circle cx="23.0584" cy="23.0584" r="23.0584" fill="white"/>
<g clip-path="url(#clip0_1557_532)">
<path d="M14.7036 26.635L13.6183 30.6863L9.65175 30.7703C8.46633 28.5716 7.79395 26.056 7.79395 23.3828C7.79395 20.7978 8.42261 18.3601 9.53697 16.2136H9.53782L13.0692 16.861L14.6161 20.3712C14.2923 21.3151 14.1159 22.3284 14.1159 23.3828C14.116 24.5271 14.3233 25.6235 14.7036 26.635Z" fill="#FBBB00"/>
<path d="M38.6993 20.4709C38.8783 21.4139 38.9717 22.3878 38.9717 23.3831C38.9717 24.4992 38.8543 25.5878 38.6308 26.638C37.8719 30.2114 35.889 33.3317 33.1422 35.5398L33.1413 35.539L28.6934 35.312L28.0639 31.3822C29.8866 30.3133 31.311 28.6405 32.0613 26.638H23.7256V20.4709H32.1829H38.6993Z" fill="#518EF8"/>
<path d="M33.1407 35.5383L33.1416 35.5392C30.4701 37.6865 27.0765 38.9713 23.3823 38.9713C17.4458 38.9713 12.2843 35.6531 9.65137 30.7701L14.7032 26.6348C16.0196 30.1482 19.4089 32.6493 23.3823 32.6493C25.0902 32.6493 26.6903 32.1876 28.0632 31.3816L33.1407 35.5383Z" fill="#28B446"/>
<path d="M33.3331 11.3828L28.2831 15.5172C26.8621 14.629 25.1824 14.1159 23.3829 14.1159C19.3195 14.1159 15.8668 16.7317 14.6163 20.3712L9.53796 16.2136H9.53711C12.1315 11.2115 17.3581 7.79395 23.3829 7.79395C27.1653 7.79395 30.6334 9.14128 33.3331 11.3828Z" fill="#F14336"/>
</g>
<path d="M96.6693 36.2799L92.9966 38.2103C92.6368 38.3995 92.2161 38.094 92.2849 37.6931L92.9863 33.6041L90.015 30.7087C89.7237 30.4249 89.8844 29.9306 90.2868 29.8722L94.393 29.2756L96.2296 25.5555C96.4096 25.1908 96.9296 25.1908 97.1095 25.5555L98.9461 29.2756L103.052 29.8722C103.455 29.9306 103.615 30.4249 103.324 30.7087L100.353 33.6046L101.054 37.6936C101.123 38.0942 100.702 38.3998 100.343 38.2108L96.6693 36.2799Z" fill="#FFB800"/>
<path d="M114.335 36.2796L110.663 38.21C110.303 38.3993 109.882 38.0937 109.951 37.6928L110.652 33.6038L107.681 30.708C107.39 30.4241 107.55 29.9298 107.953 29.8714L112.059 29.2749L113.896 25.5548C114.076 25.1901 114.596 25.1901 114.776 25.5548L116.612 29.2749L120.718 29.8714C121.121 29.9298 121.281 30.4241 120.99 30.708L118.019 33.6038L118.72 37.6928C118.789 38.0935 118.368 38.399 118.009 38.21L114.335 36.2796Z" fill="#FFB800"/>
<path d="M132.179 36.2804L128.498 38.2111C128.137 38.4004 127.715 38.0948 127.784 37.6938L128.487 33.6042L125.509 30.7079C125.216 30.424 125.378 29.9296 125.781 29.8712L129.897 29.2745L131.739 25.5538C131.919 25.1891 132.44 25.1891 132.621 25.5538L134.462 29.2745L138.578 29.8712C138.981 29.9296 139.142 30.424 138.851 30.7079L135.872 33.6042L136.575 37.6938C136.644 38.0946 136.222 38.4002 135.862 38.2111L132.179 36.2804Z" fill="#E5E5E5"/>
<path d="M61.3383 36.2796L57.6656 38.21C57.3057 38.3993 56.885 38.0937 56.9538 37.6928L57.6552 33.6038L54.6839 30.708C54.3926 30.4241 54.5533 29.9298 54.9558 29.8714L59.062 29.2749L60.8986 25.5548C61.0785 25.1901 61.5985 25.1901 61.7784 25.5548L63.615 29.2749L67.7212 29.8714C68.1237 29.9298 68.2842 30.4241 67.9931 30.708L65.0218 33.6038L65.7232 37.6928C65.792 38.0935 65.3713 38.399 65.0115 38.21L61.3383 36.2796Z" fill="#FFB800"/>
<path d="M79.0043 36.2796L75.3316 38.21C74.9718 38.3993 74.5511 38.0937 74.6198 37.6928L75.3212 33.6038L72.35 30.708C72.0586 30.4241 72.2193 29.9298 72.6218 29.8714L76.728 29.2749L78.5646 25.5548C78.7445 25.1901 79.2645 25.1901 79.4445 25.5548L81.2811 29.2749L85.3873 29.8714C85.7897 29.9298 85.9502 30.4241 85.6591 30.708L82.6878 33.6038L83.3892 37.6928C83.458 38.0935 83.0373 38.399 82.6775 38.21L79.0043 36.2796Z" fill="#FFB800"/>
<path d="M55.8023 13.6176V12.5263L61.3831 5.38668H63.0667L57.5327 12.5263L56.7377 12.2769H65.4518V13.6176H55.8023ZM61.8664 16.2988V13.6176L61.9131 12.2769V9.90743H63.3785V16.2988H61.8664ZM67.7196 16.3924C67.4286 16.3924 67.1792 16.2936 66.9713 16.0962C66.7635 15.8883 66.6596 15.6285 66.6596 15.3167C66.6596 15.005 66.7635 14.7503 66.9713 14.5529C67.1792 14.3554 67.4286 14.2567 67.7196 14.2567C68.0002 14.2567 68.2392 14.3554 68.4367 14.5529C68.6445 14.7503 68.7485 15.005 68.7485 15.3167C68.7485 15.6285 68.6445 15.8883 68.4367 16.0962C68.2392 16.2936 68.0002 16.3924 67.7196 16.3924ZM73.7456 16.4235C72.9766 16.4235 72.2283 16.304 71.5008 16.065C70.7838 15.826 70.1966 15.5038 69.7393 15.0985L70.4564 13.867C70.8201 14.2099 71.293 14.4905 71.875 14.7088C72.457 14.927 73.0753 15.0361 73.73 15.0361C74.5614 15.0361 75.2006 14.8595 75.6475 14.5061C76.0943 14.1528 76.3178 13.6799 76.3178 13.0875C76.3178 12.6822 76.2191 12.3289 76.0216 12.0275C75.8241 11.7261 75.4812 11.4975 74.9927 11.3416C74.5147 11.1753 73.8548 11.0922 73.013 11.0922H70.5343L71.1111 5.38668H77.2687V6.7429H71.6879L72.4985 5.97905L72.0465 10.4842L71.2358 9.73595H73.3403C74.4315 9.73595 75.3097 9.87625 75.9748 10.1568C76.64 10.4374 77.1232 10.8272 77.4246 11.326C77.726 11.8145 77.8767 12.3808 77.8767 13.0252C77.8767 13.6487 77.726 14.2203 77.4246 14.7399C77.1232 15.2492 76.6659 15.6597 76.0528 15.9715C75.45 16.2728 74.681 16.4235 73.7456 16.4235ZM84.2489 16.2988V5.38668H88.5047C89.4608 5.38668 90.2766 5.53737 90.9521 5.83875C91.6276 6.14014 92.1473 6.57662 92.511 7.14821C92.8747 7.7198 93.0566 8.40051 93.0566 9.19034C93.0566 9.98017 92.8747 10.6609 92.511 11.2325C92.1473 11.7937 91.6276 12.225 90.9521 12.5263C90.2766 12.8277 89.4608 12.9784 88.5047 12.9784H85.1063L85.8078 12.2613V16.2988H84.2489ZM91.5445 16.2988L88.7697 12.3393H90.4377L93.2437 16.2988H91.5445ZM85.8078 12.4172L85.1063 11.6534H88.4579C89.4556 11.6534 90.2091 11.4403 90.7183 11.0142C91.2379 10.5777 91.4977 9.96978 91.4977 9.19034C91.4977 8.4109 91.2379 7.80814 90.7183 7.38204C90.2091 6.95595 89.4556 6.7429 88.4579 6.7429H85.1063L85.8078 5.96346V12.4172ZM100.41 16.2988V14.5529L100.332 14.2255V11.2481C100.332 10.6141 100.145 10.1257 99.7704 9.78272C99.4066 9.42937 98.8558 9.2527 98.118 9.2527C97.6295 9.2527 97.1515 9.33584 96.6838 9.50212C96.2161 9.65801 95.8212 9.87105 95.4991 10.1413L94.8755 9.01887C95.3016 8.67591 95.8108 8.4161 96.4032 8.23943C97.006 8.05236 97.6347 7.95883 98.2894 7.95883C99.4222 7.95883 100.295 8.23423 100.908 8.78503C101.522 9.33584 101.828 10.1776 101.828 11.3104V16.2988H100.41ZM97.6971 16.3924C97.0839 16.3924 96.5435 16.2884 96.0758 16.0806C95.6186 15.8727 95.2652 15.5869 95.0158 15.2232C94.7664 14.8491 94.6417 14.4282 94.6417 13.9605C94.6417 13.5136 94.7456 13.1083 94.9534 12.7446C95.1717 12.3808 95.5198 12.0899 95.9979 11.8716C96.4863 11.6534 97.1411 11.5442 97.9621 11.5442H100.581V12.6199H98.0244C97.2762 12.6199 96.7721 12.7446 96.5123 12.994C96.2525 13.2434 96.1226 13.5448 96.1226 13.8982C96.1226 14.3035 96.2837 14.6308 96.6059 14.8802C96.928 15.1193 97.3749 15.2388 97.9465 15.2388C98.5077 15.2388 98.9961 15.1141 99.4118 14.8647C99.8379 14.6152 100.145 14.2515 100.332 13.7734L100.628 14.8023C100.43 15.2908 100.082 15.6805 99.5833 15.9715C99.0845 16.2521 98.4557 16.3924 97.6971 16.3924ZM107.435 16.3924C106.603 16.3924 105.959 16.1689 105.502 15.722C105.044 15.2752 104.816 14.636 104.816 13.8046V6.22847H106.312V13.7423C106.312 14.1891 106.421 14.5321 106.64 14.7711C106.868 15.0102 107.19 15.1297 107.606 15.1297C108.074 15.1297 108.464 14.9998 108.775 14.7399L109.243 15.8156C109.014 16.013 108.739 16.1585 108.417 16.2521C108.105 16.3456 107.778 16.3924 107.435 16.3924ZM103.413 9.26829V8.03677H108.682V9.26829H103.413ZM111.052 16.2988V8.03677H112.549V16.2988H111.052ZM111.801 6.44672C111.51 6.44672 111.265 6.35318 111.068 6.16612C110.881 5.97905 110.787 5.75042 110.787 5.48021C110.787 5.19961 110.881 4.96578 111.068 4.77872C111.265 4.59165 111.51 4.49812 111.801 4.49812C112.092 4.49812 112.331 4.59165 112.518 4.77872C112.715 4.95539 112.814 5.17883 112.814 5.44903C112.814 5.72963 112.72 5.96866 112.533 6.16612C112.346 6.35318 112.102 6.44672 111.801 6.44672ZM119.818 7.95883C120.493 7.95883 121.086 8.08873 121.595 8.34855C122.115 8.60836 122.52 9.00328 122.811 9.5333C123.102 10.0633 123.247 10.7336 123.247 11.5442V16.2988H121.751V11.7157C121.751 10.9155 121.553 10.3127 121.158 9.90743C120.774 9.50212 120.228 9.29946 119.522 9.29946C118.992 9.29946 118.529 9.40339 118.134 9.61124C117.739 9.81909 117.433 10.1257 117.214 10.531C117.007 10.9363 116.903 11.4403 116.903 12.0431V16.2988H115.406V8.03677H116.84V10.266L116.607 9.67359C116.877 9.13318 117.292 8.71229 117.854 8.4109C118.415 8.10952 119.07 7.95883 119.818 7.95883ZM129.633 19.4166C128.875 19.4166 128.137 19.3075 127.42 19.0892C126.713 18.8814 126.136 18.58 125.69 18.1851L126.407 17.0315C126.791 17.3641 127.264 17.6239 127.825 17.8109C128.386 18.0084 128.974 18.1071 129.587 18.1071C130.564 18.1071 131.281 17.8785 131.738 17.4212C132.195 16.9639 132.424 16.2677 132.424 15.3323V13.5864L132.58 11.9496L132.502 10.2971V8.03677H133.92V15.1764C133.92 16.6314 133.557 17.7018 132.829 18.3877C132.102 19.0736 131.036 19.4166 129.633 19.4166ZM129.446 15.9559C128.646 15.9559 127.929 15.7896 127.295 15.457C126.672 15.1141 126.173 14.6412 125.799 14.0385C125.435 13.4357 125.253 12.7394 125.253 11.9496C125.253 11.1493 125.435 10.453 125.799 9.86066C126.173 9.25789 126.672 8.79023 127.295 8.45767C127.929 8.12511 128.646 7.95883 129.446 7.95883C130.153 7.95883 130.797 8.10432 131.379 8.39531C131.961 8.67591 132.424 9.1124 132.767 9.70477C133.12 10.2971 133.297 11.0454 133.297 11.9496C133.297 12.8433 133.12 13.5864 132.767 14.1788C132.424 14.7711 131.961 15.218 131.379 15.5194C130.797 15.8104 130.153 15.9559 129.446 15.9559ZM129.618 14.6464C130.169 14.6464 130.657 14.5321 131.083 14.3035C131.509 14.0748 131.842 13.7579 132.081 13.3525C132.33 12.9472 132.455 12.4796 132.455 11.9496C132.455 11.4195 132.33 10.9519 132.081 10.5466C131.842 10.1413 131.509 9.82948 131.083 9.61124C130.657 9.3826 130.169 9.26829 129.618 9.26829C129.067 9.26829 128.573 9.3826 128.137 9.61124C127.711 9.82948 127.373 10.1413 127.124 10.5466C126.885 10.9519 126.765 11.4195 126.765 11.9496C126.765 12.4796 126.885 12.9472 127.124 13.3525C127.373 13.7579 127.711 14.0748 128.137 14.3035C128.573 14.5321 129.067 14.6464 129.618 14.6464Z" fill="white"/>
<defs>
<clipPath id="clip0_1557_532">
<rect width="31.1776" height="31.1776" fill="white" transform="translate(7.79395 7.79395)"/>
</clipPath>
</defs>
</svg>
