<svg width="335" height="70" viewBox="0 0 335 70" fill="none" xmlns="http://www.w3.org/2000/svg">
<path d="M8.43503 39.5938L12.3724 40.9973C11.6301 38.6753 11.4955 36.2008 11.9706 33.8233C12.125 33.0493 12.3427 32.2832 12.6278 31.5389L12.6575 31.5725C13.7661 32.8751 15.8684 32.4891 16.4425 30.8797L20.8589 18.4795C21.433 16.8681 20.0473 15.2409 18.3666 15.5497L5.42011 17.9232C3.73746 18.2321 3.02085 20.2453 4.12942 21.5479L4.51346 21.9992C4.08587 22.6248 3.686 23.2701 3.31581 23.9313C2.78528 24.8756 2.31414 25.8555 1.90436 26.869C0.639407 29.9789 0 33.2631 0 36.6323C0 40.0016 0.639407 43.2857 1.90041 46.3957C2.39332 47.6092 2.97136 48.7751 3.63453 49.8916L2.64869 44.5171C2.36363 42.9571 2.91396 41.4131 4.1215 40.3856C5.32905 39.3582 6.94242 39.0633 8.43503 39.5938Z" fill="#CFDE29"/>
<path d="M22.1061 14.8925C23.1335 16.1 23.4285 17.7134 22.898 19.206L21.5202 23.0741C23.9056 22.2981 26.4573 22.1655 28.9001 22.6782C29.6761 22.8405 30.4422 23.0682 31.1885 23.3612L31.1073 23.4304C29.8048 24.539 30.1888 26.6413 31.8002 27.2154L44.2003 31.6319C45.8117 32.206 47.4389 30.8203 47.1301 29.1396L44.7566 16.1931C44.4478 14.5104 42.4345 13.7938 41.132 14.9024L40.7004 15.2706C40.0788 14.841 39.4374 14.4372 38.7782 14.065C37.7964 13.5068 36.7749 13.0119 35.7178 12.5843C32.6078 11.3233 29.3217 10.6839 25.9544 10.6839C22.5872 10.6839 19.301 11.3233 16.1911 12.5843C14.9103 13.1029 13.683 13.7186 12.515 14.4273L17.9747 13.4256C19.5346 13.1405 21.0787 13.6909 22.1061 14.8984V14.8925Z" fill="#2A343F"/>
<path d="M30.0502 58.6395C29.965 58.5544 29.8819 58.4653 29.8027 58.3703C28.7753 57.1627 28.4784 55.5513 29.0109 54.0567L30.3887 50.1886C28.0033 50.9646 25.4516 51.0972 23.0088 50.5845C22.2328 50.4222 21.4667 50.1946 20.7223 49.9016L20.8035 49.8323C22.1061 48.7237 21.7201 46.6214 20.1087 46.0473L7.70851 41.6308C6.09713 41.0568 4.46991 42.4425 4.77872 44.1231L7.15225 57.0697C7.46107 58.7523 9.47431 59.4689 10.7769 58.3604L11.2104 57.9922C11.832 58.4237 12.4734 58.8256 13.1326 59.1977C14.1145 59.756 15.1359 60.2509 16.1911 60.6785C19.301 61.9395 22.5871 62.5789 25.9544 62.5789C29.3217 62.5789 32.6078 61.9395 35.7177 60.6785C36.9985 60.1598 38.2259 59.5442 39.3938 58.8355L33.9341 59.8371C32.495 60.1004 31.0697 59.653 30.0502 58.6335V58.6395Z" fill="#2A343F"/>
<path d="M50.0065 26.869C49.5135 25.6555 48.9355 24.4876 48.2723 23.3711L49.2582 28.7476C49.5432 30.3075 48.9929 31.8516 47.7854 32.879C46.5778 33.9064 44.9644 34.2014 43.4718 33.6709L39.5344 32.2673C40.2768 34.5894 40.4114 37.0639 39.9363 39.4414C39.7819 40.2154 39.5641 40.9815 39.2791 41.7258L39.2494 41.6922C38.1408 40.3896 36.0385 40.7756 35.4644 42.385L31.0479 54.7852C30.4738 56.3966 31.8596 58.0238 33.5402 57.715L46.4868 55.3414C48.1694 55.0326 48.886 53.0194 47.7774 51.7168L47.3934 51.2655C47.821 50.6399 48.2209 49.9946 48.5911 49.3334C49.1196 48.3891 49.5927 47.4092 50.0025 46.3957C51.2635 43.2857 51.9029 39.9996 51.9029 36.6323C51.9029 33.2651 51.2635 29.9789 50.0025 26.869H50.0065Z" fill="#CFDE29"/>
<path d="M102.953 45.0456L102.907 25.6991C102.905 24.5331 101.367 24.1114 100.769 25.1131L91.1404 41.2864C90.9325 41.6348 90.5584 41.8486 90.1525 41.8486H87.1673C86.7655 41.8486 86.3933 41.6387 86.1854 41.2963L76.6201 25.5724C76.0163 24.5786 74.4881 25.0082 74.4881 26.1702V45.0416C74.4881 45.6771 73.9734 46.1918 73.3379 46.1918H66.7162C66.0807 46.1918 65.566 45.6771 65.566 45.0416V6.25555C65.566 5.6201 66.0807 5.10541 66.7162 5.10541H72.7816C73.1855 5.10541 73.5576 5.31722 73.7655 5.66167L87.8166 28.9892C88.266 29.7335 89.3469 29.7295 89.7903 28.9832L103.618 5.66959C103.826 5.32118 104.2 5.10739 104.606 5.10739H110.61C111.243 5.10739 111.758 5.6201 111.76 6.25357L111.871 45.0397C111.871 45.6751 111.358 46.1918 110.72 46.1918H104.099C103.465 46.1918 102.951 45.6791 102.949 45.0456H102.953Z" fill="#2A343F"/>
<path d="M150.677 32.5168H129.432C128.59 32.5168 128.038 33.3898 128.388 34.1539C129.74 37.1075 132.777 38.8554 136.881 38.8554C139.818 38.8554 142.032 38.0854 143.999 36.5076C144.47 36.1295 145.153 36.181 145.561 36.6244L148.944 40.2926C149.37 40.7539 149.346 41.4685 148.895 41.904C145.983 44.717 141.853 46.1918 136.645 46.1918C125.728 46.1918 118.627 39.3246 118.627 29.9334C118.627 20.5422 125.847 13.675 135.471 13.675C145.096 13.675 151.906 19.8969 151.906 30.0502C151.906 30.458 151.866 30.9628 151.823 31.4656C151.769 32.0595 151.274 32.5148 150.677 32.5148V32.5168ZM129.19 27.1758H141.808C142.604 27.1758 143.154 26.388 142.891 25.6377C141.802 22.5337 139.084 20.6036 135.531 20.6036C131.977 20.6036 129.19 22.5001 128.105 25.6417C127.846 26.3919 128.394 27.1778 129.19 27.1778V27.1758Z" fill="#2A343F"/>
<path d="M156.896 5.10734C156.896 2.231 159.185 0 162.59 0C165.995 0 168.283 2.11222 168.283 4.93116C168.283 7.98369 165.995 10.2127 162.59 10.2127C159.185 10.2127 156.896 7.98171 156.896 5.10536V5.10734ZM159.161 14.6153H166.018C166.654 14.6153 167.169 15.13 167.169 15.7655V45.0436C167.169 45.679 166.654 46.1937 166.018 46.1937H159.161C158.526 46.1937 158.011 45.679 158.011 45.0436V15.7635C158.011 15.128 158.526 14.6133 159.161 14.6133V14.6153Z" fill="#2A343F"/>
<path d="M173.062 41.8466L175.144 37.3589C175.423 36.7571 176.15 36.5215 176.736 36.8343C179.503 38.3071 183.237 39.2652 186.652 39.2652C190.878 39.2652 192.462 38.1507 192.462 36.3889C192.462 31.2241 173.386 36.5057 173.386 23.8877C173.386 17.9015 178.787 13.675 188.002 13.675C191.89 13.675 196.156 14.4748 199.153 15.906C199.719 16.1753 199.952 16.8582 199.685 17.4264L197.607 21.8626C197.333 22.4446 196.639 22.6861 196.061 22.407C193.299 21.0668 190.557 20.6036 188 20.6036C183.892 20.6036 182.13 21.8943 182.13 23.5374C182.13 28.9377 201.206 23.7135 201.206 36.1572C201.206 42.0267 195.746 46.1938 186.297 46.1938C181.485 46.1938 176.625 45.002 173.563 43.3491C173.024 43.0581 172.8 42.4028 173.058 41.8486H173.062V41.8466Z" fill="#2A343F"/>
<path d="M204.119 41.8466L206.202 37.3589C206.481 36.7571 207.208 36.5215 207.794 36.8343C210.561 38.3071 214.295 39.2652 217.709 39.2652C221.936 39.2652 223.519 38.1507 223.519 36.3889C223.519 31.2241 204.444 36.5057 204.444 23.8877C204.444 17.9015 209.844 13.675 219.059 13.675C222.947 13.675 227.213 14.4748 230.21 15.906C230.777 16.1753 231.01 16.8582 230.743 17.4264L228.664 21.8626C228.391 22.4446 227.696 22.6861 227.118 22.407C224.357 21.0668 221.615 20.6036 219.057 20.6036C214.95 20.6036 213.188 21.8943 213.188 23.5374C213.188 28.9377 232.263 23.7135 232.263 36.1572C232.263 42.0267 226.804 46.1938 217.355 46.1938C212.543 46.1938 207.683 45.002 204.62 43.3491C204.082 43.0581 203.858 42.4028 204.115 41.8486H204.119V41.8466Z" fill="#2A343F"/>
<path d="M269.733 28.1142V45.0417C269.733 45.6771 269.218 46.1918 268.583 46.1918H261.726C261.09 46.1918 260.575 45.6771 260.575 45.0417V29.5217C260.575 24.4143 258.228 22.0685 254.177 22.0685C249.775 22.0685 246.605 24.7687 246.605 30.5788V45.0417C246.605 45.6771 246.091 46.1918 245.455 46.1918H238.598C237.963 46.1918 237.448 45.6771 237.448 45.0417V15.7635C237.448 15.1281 237.963 14.6134 238.598 14.6134H245.044C245.679 14.6134 246.194 15.1281 246.194 15.7635C246.194 16.6959 247.249 17.2462 248.005 16.7019C250.325 15.0331 253.304 14.1442 256.642 14.1442C264.097 14.1442 269.731 18.4874 269.731 28.1142H269.733Z" fill="#2A343F"/>
<path d="M308.064 32.5168H286.819C285.978 32.5168 285.425 33.3898 285.776 34.1539C287.128 37.1075 290.164 38.8554 294.268 38.8554C297.206 38.8554 299.419 38.0854 301.387 36.5076C301.858 36.1295 302.541 36.181 302.949 36.6244L306.332 40.2926C306.757 40.7539 306.734 41.4685 306.282 41.904C303.37 44.717 299.241 46.1918 294.032 46.1918C283.115 46.1918 276.014 39.3246 276.014 29.9334C276.014 20.5422 283.234 13.675 292.859 13.675C302.483 13.675 309.293 19.8969 309.293 30.0502C309.293 30.458 309.254 30.9628 309.21 31.4656C309.157 32.0595 308.662 32.5148 308.064 32.5148V32.5168ZM286.575 27.1758H299.193C299.989 27.1758 300.539 26.388 300.276 25.6377C299.187 22.5337 296.469 20.6036 292.916 20.6036C289.363 20.6036 286.575 22.5001 285.491 25.6417C285.231 26.3919 285.78 27.1778 286.575 27.1778V27.1758Z" fill="#2A343F"/>
<path d="M335 15.328V21.3578C335 22.021 334.442 22.5436 333.781 22.506C333.509 22.4901 333.238 22.4802 332.945 22.4802C327.897 22.4802 324.552 25.2398 324.552 31.2835V45.0416C324.552 45.6771 324.037 46.1918 323.402 46.1918H316.544C315.909 46.1918 315.394 45.6771 315.394 45.0416V15.7635C315.394 15.128 315.909 14.6134 316.544 14.6134H322.99C323.625 14.6134 324.14 15.128 324.14 15.7635V15.9397C324.14 16.9077 325.255 17.4343 326.013 16.8325C327.994 15.2567 330.625 14.36 333.779 14.1798C334.44 14.1422 334.998 14.6668 334.998 15.328H335Z" fill="#2A343F"/>
<path d="M74.9889 64.4218V65.6393H65.568V52.3166H74.7038V53.5341H66.9755V58.2732H73.8664V59.4728H66.9755V64.4218H74.9889Z" fill="#2A343F"/>
<path d="M98.2649 59.8331V65.6373H96.9128V59.9657C96.9128 57.8535 95.8082 56.7687 93.9058 56.7687C91.756 56.7687 90.4039 58.101 90.4039 60.3854V65.6392H89.0519V55.6284H90.3465V57.4754C91.0691 56.258 92.4211 55.5532 94.1533 55.5532C96.5902 55.5532 98.2649 56.9607 98.2649 59.8351V59.8331Z" fill="#2A343F"/>
<path d="M118.249 65.0296C117.716 65.5047 116.917 65.7343 116.137 65.7343C114.252 65.7343 113.205 64.6693 113.205 62.8223V56.7707H111.415V55.6285H113.205V53.4391H114.557V55.6285H117.602V56.7707H114.557V62.7471C114.557 63.9269 115.167 64.5742 116.289 64.5742C116.841 64.5742 117.394 64.402 117.774 64.0596L118.249 65.0296Z" fill="#2A343F"/>
<path d="M136.786 55.5512V56.8637C136.671 56.8637 136.558 56.8439 136.463 56.8439C134.369 56.8439 133.094 58.1762 133.094 60.5358V65.6372H131.742V55.6265H133.036V57.5863C133.664 56.254 134.939 55.5493 136.786 55.5493V55.5512Z" fill="#2A343F"/>
<path d="M159.434 55.6285V65.6392H158.14V63.8121C157.435 65.0295 156.14 65.7343 154.543 65.7343C151.993 65.7343 150.318 64.307 150.318 61.4326V55.6285H151.67V61.3C151.67 63.432 152.775 64.5168 154.677 64.5168C156.772 64.5168 158.084 63.1648 158.084 60.8823V55.6285H159.436H159.434ZM152.373 52.8293C152.373 52.372 152.735 52.0117 153.191 52.0117C153.646 52.0117 154.008 52.374 154.008 52.8293C154.008 53.2846 153.628 53.6469 153.191 53.6469C152.753 53.6469 152.373 53.3044 152.373 52.8293ZM155.76 52.8293C155.76 52.372 156.14 52.0117 156.578 52.0117C157.015 52.0117 157.395 52.374 157.395 52.8293C157.395 53.2846 157.033 53.6469 156.578 53.6469C156.122 53.6469 155.76 53.3044 155.76 52.8293Z" fill="#2A343F"/>
<path d="M190.779 59.8331V65.6373H189.427V59.9658C189.427 57.8535 188.362 56.7687 186.553 56.7687C184.498 56.7687 183.203 58.101 183.203 60.3854V65.6393H181.851V59.9677C181.851 57.8555 180.784 56.7707 178.959 56.7707C176.922 56.7707 175.609 58.103 175.609 60.3874V65.6412H174.257V55.6305H175.552V57.4576C176.257 56.258 177.549 55.5552 179.226 55.5552C180.903 55.5552 182.176 56.26 182.785 57.6675C183.508 56.3728 184.935 55.5552 186.745 55.5552C189.181 55.5552 190.779 56.9627 190.779 59.8371V59.8331Z" fill="#2A343F"/>
<path d="M215.635 60.6328C215.635 63.6775 213.503 65.7342 210.648 65.7342C209.049 65.7342 207.679 65.0493 206.841 63.7547V69.3312H205.489V55.6265H206.784V57.6061C207.602 56.2738 208.991 55.5512 210.648 55.5512C213.503 55.5512 215.635 57.6061 215.635 60.6328ZM214.285 60.6328C214.285 58.3108 212.667 56.7311 210.553 56.7311C208.439 56.7311 206.824 58.3108 206.824 60.6328C206.824 62.9549 208.423 64.5346 210.553 64.5346C212.683 64.5346 214.285 62.9747 214.285 60.6328Z" fill="#2A343F"/>
<path d="M238.151 61.0525H229.777C229.929 63.1469 231.529 64.5366 233.716 64.5366C234.934 64.5366 236.019 64.0991 236.781 63.2221L237.543 64.0971C236.648 65.1641 235.258 65.7342 233.679 65.7342C230.557 65.7342 228.425 63.6022 228.425 60.6328C228.425 57.6635 230.5 55.5512 233.316 55.5512C236.133 55.5512 238.17 57.6259 238.17 60.6328C238.17 60.7477 238.151 60.9001 238.151 61.0525ZM229.775 60.0429H236.874C236.702 58.0831 235.274 56.7113 233.315 56.7113C231.355 56.7113 229.945 58.0812 229.775 60.0429Z" fill="#2A343F"/>
<path d="M251.966 51.5169H253.318V65.6393H251.966V51.5169Z" fill="#2A343F"/>
<path d="M277.147 55.6285V65.6393H275.852V63.8121C275.147 65.0295 273.853 65.7343 272.255 65.7343C269.705 65.7343 268.031 64.307 268.031 61.4326V55.6285H269.383V61.3C269.383 63.432 270.487 64.5168 272.39 64.5168C274.484 64.5168 275.796 63.1648 275.796 60.8823V55.6285H277.149H277.147Z" fill="#2A343F"/>
<path d="M301.185 59.8331V65.6373H299.833V59.9657C299.833 57.8535 298.728 56.7687 296.826 56.7687C294.676 56.7687 293.324 58.101 293.324 60.3854V65.6392H291.972V55.6284H293.266V57.4754C293.989 56.258 295.341 55.5532 297.073 55.5532C299.51 55.5532 301.185 56.9607 301.185 59.8351V59.8331Z" fill="#2A343F"/>
<path d="M325.203 55.6285V64.4218C325.203 67.8663 323.509 69.4282 320.197 69.4282C318.37 69.4282 316.58 68.8759 315.533 67.8861L316.218 66.8587C317.17 67.7158 318.615 68.2286 320.157 68.2286C322.689 68.2286 323.849 67.0665 323.849 64.594V63.3192C323.012 64.594 321.584 65.2612 319.947 65.2612C317.093 65.2612 314.923 63.2618 314.923 60.3894C314.923 57.517 317.093 55.5552 319.947 55.5552C321.622 55.5552 323.069 56.2402 323.906 57.5526V55.6305H325.203V55.6285ZM323.889 60.3854C323.889 58.2158 322.289 56.7311 320.082 56.7311C317.875 56.7311 316.295 58.2158 316.295 60.3854C316.295 62.5551 317.875 64.0596 320.082 64.0596C322.289 64.0596 323.889 62.557 323.889 60.3854Z" fill="#2A343F"/>
</svg>
