<svg width="175" height="35" viewBox="0 0 175 35" fill="none" xmlns="http://www.w3.org/2000/svg">
<path d="M23.8218 12.1283C23.8218 18.8299 18.4935 24.263 11.9197 24.263C5.34588 24.263 0.0175781 18.8299 0.0175781 12.1283C0.0175781 5.43129 5.34677 0 11.9197 0C18.4926 0 23.8218 5.43129 23.8218 12.1283Z" fill="#D9C594"/>
<path d="M16.6793 5.8877L9.89329 12.801L7.15989 10.0116L4.42383 12.801L9.89329 18.3734L19.4127 8.67346L16.6793 5.8877Z" fill="white"/>
<path d="M43.1947 14.6167C42.6398 15.1116 41.7609 15.2998 40.4435 15.2998H35.3176V20.9003H31.5518V4.42188H40.4426C41.7601 4.42188 42.6389 4.58835 43.1938 5.08507C43.9333 5.76364 44.5778 6.82673 44.5778 9.88483C44.5787 12.8733 43.912 13.9581 43.1947 14.6167ZM38.9672 12.2861C39.8212 12.2861 40.076 12.2372 40.2384 12.097C40.4915 11.859 40.7018 11.4383 40.7018 9.83959C40.7018 8.23635 40.4701 7.83826 40.2384 7.62292C40.0769 7.48359 39.8221 7.41121 38.9672 7.41121H35.3194V12.287L38.9672 12.2861ZM45.8491 20.9003V7.95407H49.3814V9.93007C50.698 8.54307 51.3682 7.92873 52.3847 7.92873H53.7465V11.4872H52.1068C51.1356 11.4872 50.3979 11.5776 49.3814 12.0047V20.9003H45.8491ZM55.6854 20.1023C54.8553 19.2573 54.5322 18.0784 54.5322 14.4276C54.5322 10.7561 54.8544 9.60345 55.6854 8.73126C56.2171 8.16488 56.9123 7.95407 58.2039 7.95407H62.5229C63.8172 7.95407 64.4866 8.16488 65.0397 8.73126C65.8706 9.60345 66.1937 10.7552 66.1937 14.4276C66.1937 18.1028 65.8706 19.2573 65.0397 20.1023C64.4866 20.6931 63.8172 20.9003 62.5229 20.9003H58.2039C56.9123 20.9003 56.2411 20.6922 55.6854 20.1023ZM58.3415 17.816C58.48 18.0051 58.6656 18.0521 59.2666 18.0521H61.4593C62.0595 18.0521 62.2441 17.9806 62.3835 17.816C62.5681 17.6296 62.6836 17.2044 62.6836 14.4276C62.6836 11.6509 62.5681 11.2266 62.3835 11.0149C62.245 10.8511 62.0595 10.8032 61.4593 10.8032H59.2666C58.6656 10.8032 58.48 10.852 58.3415 11.0149C58.1569 11.2266 58.0406 11.6509 58.0406 14.4276C58.0406 17.2044 58.1569 17.6296 58.3415 17.816ZM75.335 20.1023C75.105 20.7836 74.8307 20.9483 74.1356 20.9483H71.8257C71.1563 20.9483 70.8545 20.7836 70.6263 20.1023L66.6074 7.95407H70.3724L72.9593 17.1582H73.2106L75.754 7.95407H79.3565L75.335 20.1023ZM83.2111 15.2537C83.2333 17.2994 83.3718 17.8431 83.5103 18.0051C83.6736 18.196 84.0421 18.243 84.6422 18.243H86.7897C87.5061 18.243 87.6925 18.1706 87.8301 18.0051C87.9446 17.8639 87.9917 17.5129 88.0148 16.5954H91.271C91.2471 18.5262 91.0411 19.5151 90.4179 20.1503C90.0246 20.5474 89.5142 20.8994 88.1524 20.8994H83.441C82.1467 20.8994 81.4773 20.6922 80.9234 20.1014C80.0924 19.2564 79.7702 18.2421 79.7702 14.4267C79.7702 10.6141 80.0924 9.60254 80.9234 8.73035C81.456 8.16397 82.1467 7.95316 83.441 7.95316H87.7378C89.0303 7.95316 89.7246 8.16397 90.2546 8.73035C91.0864 9.58173 91.271 10.5896 91.271 14.3118V14.7344C91.271 15.1116 91.1761 15.2537 90.7597 15.2537H83.2111ZM83.2111 13.2279H87.9002C87.9002 11.4863 87.7831 11.014 87.6206 10.8267C87.4839 10.6846 87.2744 10.615 86.5588 10.615H84.6422C84.0421 10.615 83.6736 10.6638 83.5103 10.8511C83.3487 11.014 83.2333 11.4139 83.2111 13.2279ZM93.0705 20.9003V7.95407H96.6038V9.67221C98.2426 8.16397 98.7504 7.92783 99.9284 7.92783H101.475C102.562 7.92783 103.255 8.16397 103.739 8.65888C104.27 9.1764 104.477 9.8613 104.477 11.7658V20.8994H100.946V12.192C100.946 11.65 100.853 11.3442 100.668 11.1325C100.458 10.919 100.229 10.8511 99.6026 10.8511H98.6101C98.01 10.8511 97.456 10.9904 96.6029 11.3931V20.9003H93.0705ZM122.188 20.9003H111.521V4.42188H122.259V6.0233H113.342V11.5559H120.987V13.132H113.342V19.3007H122.187L122.188 20.9003ZM122.949 20.9003L127.314 14.4973L123.021 8.30873H125.008L128.377 13.2279H128.584L131.887 8.30873H133.782L129.485 14.5471L133.874 20.9003H131.886L128.399 15.8427H128.213L124.817 20.9003H122.949ZM137.06 8.30873V9.97892C138.697 8.61273 139.276 8.2834 140.569 8.2834H142.001C143.41 8.2834 144.101 8.51954 144.632 9.05878C145.35 9.81607 145.603 10.8032 145.603 14.5941C145.603 18.4095 145.35 19.3957 144.632 20.1512C144.102 20.6931 143.41 20.9284 142.001 20.9284H140.569C139.3 20.9284 138.674 20.5981 137.06 19.231V24.4334H135.35V8.30873H137.06ZM137.06 10.9687V18.2186C138.328 19.041 139.07 19.3713 140.132 19.3713H141.654C142.649 19.3713 143.041 19.2057 143.319 18.9279C143.778 18.4556 143.897 17.7255 143.897 14.5941C143.897 11.4872 143.778 10.7317 143.319 10.2847C143.041 9.97892 142.649 9.83959 141.654 9.83959H140.086C139.021 9.83959 138.284 10.1662 137.06 10.9687ZM149.278 15.1587C149.3 18.0313 149.486 18.6674 149.834 19.0193C150.111 19.3007 150.432 19.3704 151.31 19.3704H154.382C155.146 19.3704 155.467 19.2781 155.722 19.0193C155.998 18.7334 156.114 18.3353 156.138 17.0415H157.799C157.755 18.9686 157.546 19.6309 156.945 20.2389C156.486 20.713 155.883 20.8994 154.706 20.8994H151.15C149.878 20.8994 149.162 20.7356 148.632 20.1955C147.849 19.3948 147.57 18.3842 147.57 14.5932C147.57 10.8258 147.849 9.81426 148.632 9.01173C149.162 8.47159 149.878 8.30783 151.15 8.30783H154.247C155.491 8.30783 156.256 8.4924 156.739 8.9873C157.524 9.81426 157.8 10.8258 157.8 14.4747V14.8728C157.8 15.061 157.729 15.1578 157.524 15.1578H149.278V15.1587ZM149.278 13.7672H156.115C156.091 11.1795 155.908 10.5435 155.539 10.1906C155.284 9.93007 154.959 9.81516 154.059 9.81516H151.311C150.433 9.81516 150.111 9.90926 149.809 10.2133C149.463 10.5661 149.301 11.1325 149.278 13.7672ZM160.159 20.9003V8.30873H161.867V10.3571C163.367 8.75388 163.923 8.28249 164.96 8.28249H166.378V10.0739H164.8C163.852 10.0739 163.208 10.2133 161.868 11.1551V20.9003H160.159ZM173.992 20.5257L172.906 20.8071C172.359 20.9267 171.802 20.9892 171.243 20.9935C170.435 20.9935 169.858 20.8524 169.42 20.4072C169.003 19.9829 168.888 19.4409 168.888 18.4267V9.81426H166.837V8.30873H168.888V5.15202H170.619V8.30873H174.019V9.81516H170.619V18.0313C170.619 18.6882 170.69 18.9704 170.875 19.1369C171.015 19.3016 171.268 19.3957 171.96 19.3957H173.994V20.5257H173.992ZM102.136 28.2262H102.828V34.5622H102.136V28.2262ZM105.306 30.5794V32.7681C105.306 33.766 105.369 34.0501 105.953 34.0501C106.205 34.0501 106.752 33.9949 106.752 33.9949L106.797 34.5631C106.797 34.5631 106.194 34.6635 105.88 34.6635C104.954 34.6635 104.64 34.3062 104.64 32.9879V30.5794H104.002V29.9841H104.64V28.5835H105.305V29.9841H106.733V30.5794H105.306ZM107.962 28.0805H108.672L108.097 30.0854H107.567L107.962 28.0805ZM112.685 30.6527C112.685 30.6527 111.688 30.5062 111.113 30.5062C110.557 30.5062 110.134 30.6618 110.134 31.2028C110.134 31.6326 110.35 31.752 111.301 31.9167C112.424 32.1094 112.847 32.3374 112.847 33.2259C112.847 34.2971 112.182 34.6545 111.103 34.6545C110.528 34.6545 109.522 34.4808 109.522 34.4808L109.558 33.8854C109.558 33.8854 110.582 34.0411 111.04 34.0411C111.776 34.0411 112.172 33.8764 112.172 33.2539C112.172 32.778 111.938 32.6586 110.96 32.503C109.944 32.3383 109.459 32.1456 109.459 31.23C109.459 30.223 110.259 29.8927 111.077 29.8927C111.751 29.8927 112.703 30.0664 112.703 30.0664L112.685 30.6527ZM117.486 28.2262H118.995L120.702 34.5622H120.019L119.57 32.9318H116.91L116.461 34.5622H115.778L117.486 28.2262ZM117.064 32.3012H119.417L118.474 28.8305H118.007L117.064 32.3012ZM121.792 27.9891H122.466V34.5631H121.792V27.9891ZM124.045 27.9891H124.719V34.5631H124.045V27.9891ZM129.674 28.2262H131.183L132.89 34.5622H132.207L131.758 32.9318H129.098L128.649 34.5622H127.966L129.674 28.2262ZM129.252 32.3012H131.605L130.662 28.8305H130.195L129.252 32.3012ZM137.548 32.1999C137.548 34.0212 137.062 34.6536 135.427 34.6536C134.888 34.6536 133.928 34.5532 133.928 34.5532V27.9882H134.593V30.2121C134.593 30.2121 135.275 29.8918 135.913 29.8918C137.134 29.8927 137.548 30.5523 137.548 32.1999ZM136.864 32.1999C136.864 31.0192 136.631 30.5053 135.841 30.5053C135.22 30.5053 134.592 30.7713 134.592 30.7713V33.994C134.592 33.994 135.176 34.0402 135.417 34.0402C136.65 34.0411 136.864 33.4819 136.864 32.1999ZM142.476 32.2189C142.476 33.8854 142.072 34.6545 140.553 34.6545C139.044 34.6545 138.63 33.8854 138.63 32.2189C138.63 30.6446 139.133 29.8927 140.553 29.8927C141.982 29.8927 142.476 30.6437 142.476 32.2189ZM141.784 32.2189C141.784 30.9459 141.514 30.4881 140.553 30.4881C139.6 30.4881 139.322 30.9459 139.322 32.2189C139.322 33.519 139.492 34.0592 140.553 34.0592C141.623 34.0592 141.784 33.5181 141.784 32.2189ZM147.224 29.9841V34.5622H146.55V34.2419C146.55 34.2419 145.876 34.6536 145.22 34.6536C143.962 34.6536 143.702 34.0583 143.702 32.3745V29.9841H144.376V32.3645C144.376 33.6285 144.483 34.0411 145.319 34.0411C145.984 34.0411 146.551 33.7018 146.551 33.7018V29.985H147.224V29.9841ZM149.591 30.5794V32.7681C149.591 33.766 149.654 34.0501 150.238 34.0501C150.49 34.0501 151.037 33.9949 151.037 33.9949L151.083 34.5631C151.083 34.5631 150.48 34.6635 150.166 34.6635C149.24 34.6635 148.925 34.3062 148.925 32.9879V30.5794H148.288V29.9841H148.925V28.5835H149.59V29.9841H151.019V30.5794H149.591ZM153.646 28.2262H158.139V28.8586H156.243V34.5622H155.56V28.8586H153.646V28.2262ZM158.306 29.9841H158.971V30.6066C158.971 30.6066 159.752 30.0574 160.615 29.8837V30.5794C159.771 30.7532 158.98 31.2028 158.98 31.2028V34.5631H158.306V29.9841ZM165.067 29.9841V34.5622H164.394V34.2419C164.394 34.2419 163.72 34.6536 163.064 34.6536C161.806 34.6536 161.546 34.0583 161.546 32.3745V29.9841H162.22V32.3645C162.22 33.6285 162.327 34.0411 163.163 34.0411C163.828 34.0411 164.395 33.7018 164.395 33.7018V29.985H165.067V29.9841ZM169.519 30.6527C169.519 30.6527 168.521 30.5062 167.946 30.5062C167.39 30.5062 166.967 30.6618 166.967 31.2028C166.967 31.6326 167.183 31.752 168.135 31.9167C169.258 32.1094 169.68 32.3374 169.68 33.2259C169.68 34.2971 169.015 34.6545 167.937 34.6545C167.361 34.6545 166.356 34.4808 166.356 34.4808L166.391 33.8854C166.391 33.8854 167.416 34.0411 167.874 34.0411C168.61 34.0411 169.006 33.8764 169.006 33.2539C169.006 32.778 168.771 32.6586 167.793 32.503C166.777 32.3383 166.293 32.1456 166.293 31.23C166.293 30.223 167.092 29.8927 167.91 29.8927C168.584 29.8927 169.536 30.0664 169.536 30.0664L169.519 30.6527ZM171.788 30.5794V32.7681C171.788 33.766 171.851 34.0501 172.435 34.0501C172.687 34.0501 173.234 33.9949 173.234 33.9949L173.279 34.5631C173.279 34.5631 172.676 34.6635 172.362 34.6635C171.436 34.6635 171.122 34.3062 171.122 32.9879V30.5794H170.485V29.9841H171.122V28.5835H171.787V29.9841H173.215V30.5794H171.788Z" fill="white"/>
</svg>
