<svg xmlns="http://www.w3.org/2000/svg" version="1.1" xmlns:xlink="http://www.w3.org/1999/xlink" width="512" height="512" x="0" y="0" viewBox="0 0 464.001 464.001" style="enable-background:new 0 0 512 512" xml:space="preserve" class=""><g><path d="M242.664 50.665 216.088 8.001h-37.432A48.8 48.8 0 0 0 136.8 31.697L112 72.001l88 56 42.664-77.336z" style="" fill="#b9c71f" data-original="#6a9923" opacity="1" class=""></path><path d="M382.792 84.905 352 32.001a45.079 45.079 0 0 0-40-24h-95.912l71.912 136-40 24 119.056 13.544L424 64.001l-41.208 20.904z" style="" fill="#d2e038" data-original="#88b337" class="" opacity="1"></path><path d="m432 176.001-96 56 40 72h64l16.72-27a48.8 48.8 0 0 0 1.136-49.352L432 176.001z" style="" fill="#b9c71f" data-original="#6a9923" opacity="1" class=""></path><path d="M280 304.001v-40l-80 88 80 104v-32h64a43.576 43.576 0 0 0 40-24l56-96H280z" style="" fill="#d2e038" data-original="#88b337" class="" opacity="1"></path><path d="m80 312.001-19.48 44.896 24.344 42.168A50.76 50.76 0 0 0 128 424.001h32v-112H80z" style="" fill="#b9c71f" data-original="#6a9923" opacity="1" class=""></path><path d="m176 240.001-48-104-128 8 45.752 28.368L16 232.001a49.503 49.503 0 0 0 0 48l44.512 76.896 16.656-28.896 59.456-103.2 39.376 15.2z" style="" fill="#d2e038" data-original="#88b337" class="" opacity="1"></path></g></svg>