<svg width="68" height="62" viewBox="0 0 68 62" fill="none" xmlns="http://www.w3.org/2000/svg">
<path d="M30.3766 35.476C30.3766 36.044 30.8803 36.5043 31.5016 36.5043C32.123 36.5043 32.6267 36.044 32.6267 35.476C32.6267 32.0744 29.184 29.2629 24.7513 28.8496V27.7637C24.7513 27.1957 24.2476 26.7354 23.6263 26.7354C23.0049 26.7354 22.5012 27.1957 22.5012 27.7637V28.8496C18.0685 29.2609 14.6259 32.0744 14.6259 35.476C14.6259 38.8777 18.0685 41.6891 22.5012 42.1025V51.345C19.3139 50.9768 16.876 49.0755 16.876 46.7875C16.876 46.2196 16.3723 45.7592 15.7509 45.7592C15.1296 45.7592 14.6259 46.2196 14.6259 46.7875C14.6259 50.1892 18.0685 53.0006 22.5012 53.414V54.4999C22.5012 55.0678 23.0049 55.5282 23.6263 55.5282C24.2476 55.5282 24.7513 55.0678 24.7513 54.4999V53.414C29.184 53.0026 32.6267 50.1892 32.6267 46.7875C32.6267 43.3858 29.184 40.5744 24.7513 40.161V30.9185C27.9386 31.2867 30.3766 33.188 30.3766 35.476ZM16.876 35.476C16.876 33.188 19.3139 31.2867 22.5012 30.9185V40.0335C19.3139 39.6654 16.876 37.764 16.876 35.476ZM30.3766 46.7875C30.3766 49.0755 27.9386 50.9768 24.7513 51.345V42.23C27.9386 42.5981 30.3766 44.4995 30.3766 46.7875Z" fill="#CFDE29"/>
<path d="M4.05033 31.0265C3.48677 30.7874 2.81788 31.0111 2.55626 31.5262C0.862967 34.8571 -0.00961258 38.4872 0.000141925 42.16C0.000141925 55.124 7.94864 61.698 23.6263 61.698C26.7941 61.7435 29.9548 61.4106 33.0283 60.7078C33.6289 60.5618 33.9862 59.9985 33.8265 59.4496C33.6669 58.9007 33.0506 58.5741 32.45 58.72C29.5641 59.3714 26.5986 59.6811 23.6263 59.6414C9.24245 59.6414 2.25025 53.9229 2.25025 42.16C2.23001 38.7848 3.03207 35.4477 4.59823 32.391C4.85888 31.8759 4.61366 31.2652 4.05033 31.0265Z" fill="#CFDE29"/>
<path d="M64.1283 25.707H39.3771C37.5131 25.707 36.002 27.0882 36.002 28.792V58.6131C36.002 60.3169 37.5131 61.6981 39.3771 61.6981H64.1283C65.9923 61.6981 67.5034 60.3169 67.5034 58.6131V28.792C67.5034 27.0882 65.9923 25.707 64.1283 25.707ZM65.2533 58.6131C65.2533 59.181 64.7496 59.6414 64.1283 59.6414H39.3771C38.7558 59.6414 38.2521 59.181 38.2521 58.6131V28.792C38.2521 28.2241 38.7558 27.7637 39.3771 27.7637H64.1283C64.7496 27.7637 65.2533 28.2241 65.2533 28.792V58.6131Z" fill="#CFDE29"/>
<path d="M43.8771 39.0732H59.6278C60.8705 39.0732 61.8779 38.1526 61.8779 37.0171V32.9048C61.8779 31.7692 60.8705 30.8486 59.6278 30.8486H43.8771C42.6344 30.8486 41.627 31.7692 41.627 32.9048V37.0171C41.627 38.1526 42.6344 39.0732 43.8771 39.0732ZM43.8771 32.9048H59.6278V37.0171H43.8771V32.9048Z" fill="#CFDE29"/>
<path d="M46.1272 42.1597H42.752C42.1307 42.1597 41.627 42.6196 41.627 43.187C41.627 43.7544 42.1307 44.2143 42.752 44.2143H46.1272C46.7485 44.2143 47.2522 43.7544 47.2522 43.187C47.2522 42.6196 46.7485 42.1597 46.1272 42.1597Z" fill="#CFDE29"/>
<path d="M46.1272 46.2734H42.752C42.1307 46.2734 41.627 46.7334 41.627 47.3008C41.627 47.8682 42.1307 48.3281 42.752 48.3281H46.1272C46.7485 48.3281 47.2522 47.8682 47.2522 47.3008C47.2522 46.7334 46.7485 46.2734 46.1272 46.2734Z" fill="#CFDE29"/>
<path d="M46.1272 50.3862H42.752C42.1307 50.3862 41.627 50.8462 41.627 51.4136C41.627 51.981 42.1307 52.4409 42.752 52.4409H46.1272C46.7485 52.4409 47.2522 51.981 47.2522 51.4136C47.2522 50.8462 46.7485 50.3862 46.1272 50.3862Z" fill="#CFDE29"/>
<path d="M46.1272 54.5H42.752C42.1307 54.5 41.627 54.96 41.627 55.5273C41.627 56.0947 42.1307 56.5547 42.752 56.5547H46.1272C46.7485 56.5547 47.2522 56.0947 47.2522 55.5273C47.2522 54.96 46.7485 54.5 46.1272 54.5Z" fill="#CFDE29"/>
<path d="M54.0022 42.1597H50.627C50.0057 42.1597 49.502 42.6196 49.502 43.187C49.502 43.7544 50.0057 44.2143 50.627 44.2143H54.0022C54.6235 44.2143 55.1272 43.7544 55.1272 43.187C55.1272 42.6196 54.6235 42.1597 54.0022 42.1597Z" fill="#CFDE29"/>
<path d="M54.0022 46.2734H50.627C50.0057 46.2734 49.502 46.7334 49.502 47.3008C49.502 47.8682 50.0057 48.3281 50.627 48.3281H54.0022C54.6235 48.3281 55.1272 47.8682 55.1272 47.3008C55.1272 46.7334 54.6235 46.2734 54.0022 46.2734Z" fill="#CFDE29"/>
<path d="M54.0022 50.3862H50.627C50.0057 50.3862 49.502 50.8462 49.502 51.4136C49.502 51.981 50.0057 52.4409 50.627 52.4409H54.0022C54.6235 52.4409 55.1272 51.981 55.1272 51.4136C55.1272 50.8462 54.6235 50.3862 54.0022 50.3862Z" fill="#CFDE29"/>
<path d="M54.0022 54.5H50.627C50.0057 54.5 49.502 54.96 49.502 55.5273C49.502 56.0947 50.0057 56.5547 50.627 56.5547H54.0022C54.6235 56.5547 55.1272 56.0947 55.1272 55.5273C55.1272 54.96 54.6235 54.5 54.0022 54.5Z" fill="#CFDE29"/>
<path d="M61.8781 42.1597H58.503C57.8816 42.1597 57.3779 42.6196 57.3779 43.187C57.3779 43.7544 57.8816 44.2143 58.503 44.2143H61.8781C62.4995 44.2143 63.0032 43.7544 63.0032 43.187C63.0032 42.6196 62.4995 42.1597 61.8781 42.1597Z" fill="#CFDE29"/>
<path d="M61.8781 46.2734H58.503C57.8816 46.2734 57.3779 46.7334 57.3779 47.3008C57.3779 47.8682 57.8816 48.3281 58.503 48.3281H61.8781C62.4995 48.3281 63.0032 47.8682 63.0032 47.3008C63.0032 46.7334 62.4995 46.2734 61.8781 46.2734Z" fill="#CFDE29"/>
<path d="M61.8781 50.3862H58.503C57.8816 50.3862 57.3779 50.8462 57.3779 51.4136C57.3779 51.981 57.8816 52.4409 58.503 52.4409H61.8781C62.4995 52.4409 63.0032 51.981 63.0032 51.4136C63.0032 50.8462 62.4995 50.3862 61.8781 50.3862Z" fill="#CFDE29"/>
<path d="M61.8781 54.5H58.503C57.8816 54.5 57.3779 54.96 57.3779 55.5273C57.3779 56.0947 57.8816 56.5547 58.503 56.5547H61.8781C62.4995 56.5547 63.0032 56.0947 63.0032 55.5273C63.0032 54.96 62.4995 54.5 61.8781 54.5Z" fill="#CFDE29"/>
<path d="M7.11646 1.29788C4.1542 3.77818 9.35869 11.4288 12.4256 15.4238H11.8136C10.7685 15.4204 9.76515 15.7987 9.0268 16.4748C8.29096 17.1525 7.87737 18.0682 7.87587 19.0229C7.88071 20.3043 8.63288 21.4861 9.84921 22.1233C8.53597 23.3929 7.29886 24.7265 6.14329 26.1183C5.77048 26.5727 5.87122 27.2172 6.3683 27.558C6.86538 27.8987 7.57056 27.8066 7.94337 27.3523C9.33304 25.6906 10.8361 24.1107 12.4436 22.622H35.4397C36.8465 22.622 38.1464 21.9361 38.8498 20.8225C39.5532 19.7089 39.5532 18.337 38.8498 17.2234C38.1464 16.1098 36.8465 15.4238 35.4397 15.4238H34.8276C37.8934 11.4288 43.0979 3.77921 40.1379 1.29788C38.7766 0.158509 37.1902 0.989388 35.7918 1.71641C34.5201 2.51242 33.0394 2.98449 31.502 3.08406C30.2815 3.08171 29.118 2.61172 28.2945 1.78839C27.0633 0.644329 25.3812 0 23.6255 0C21.8698 0 20.1876 0.644329 18.9565 1.78839C18.1317 2.61303 16.9658 3.08315 15.7434 3.08406C14.2067 2.98552 12.7268 2.51334 11.4569 1.71641C10.0596 0.987331 8.4744 0.159538 7.11646 1.29788ZM36.6356 17.9309C37.1197 18.3722 37.2646 19.0369 37.0025 19.6141C36.7405 20.1913 36.1234 20.567 35.4397 20.5654H11.8136C10.8815 20.5654 10.126 19.8748 10.126 19.0229C10.126 18.1711 10.8815 17.4805 11.8136 17.4805H35.4397C35.8877 17.4806 36.3175 17.6425 36.6356 17.9309ZM15.7434 5.14069C17.4997 5.14047 19.1824 4.49541 20.4135 3.3504C21.2351 2.52537 22.3992 2.05511 23.6199 2.05511C24.8405 2.05511 26.0046 2.52537 26.8263 3.3504C28.059 4.49629 29.7438 5.14138 31.502 5.14069C33.4337 5.04793 35.3025 4.48176 36.9123 3.50156C37.426 3.17019 38.0071 2.93627 38.6213 2.81362C39.7756 3.78023 36.7245 9.60975 32.06 15.4238H29.2519V10.2823C29.2519 9.71434 28.7482 9.25395 28.1268 9.25395C27.5055 9.25395 27.0018 9.71434 27.0018 10.2823V15.4238H20.2514V10.2823C20.2514 9.71434 19.7477 9.25395 19.1264 9.25395C18.505 9.25395 18.0013 9.71434 18.0013 10.2823V15.4238H15.1977C10.5332 9.60975 7.4821 3.78023 8.65216 2.79819C9.25364 2.94503 9.82403 3.18277 10.3397 3.50156C11.9472 4.48163 13.8138 5.04784 15.7434 5.14069Z" fill="#CFDE29"/>
</svg>
