<svg width="85" height="85" viewBox="0 0 85 85" fill="none" xmlns="http://www.w3.org/2000/svg">
<path d="M81.3477 69.4698H80.4525V66.2403C80.4525 65.6903 80.0064 65.2442 79.4564 65.2442C78.9064 65.2442 78.4603 65.6903 78.4603 66.2403V69.4698H73.7818C71.6115 66.3643 68.0125 64.3275 63.9448 64.3275C57.6655 64.3275 52.5013 69.1776 51.993 75.3278H51.2044H51.2017C50.6539 75.326 50.2088 74.8801 50.2088 74.3319V45.2285C50.2088 44.7346 50.5704 44.3248 51.0425 44.2469L64.7393 44.2325C66.898 44.2325 68.9274 45.073 70.4537 46.5995L76.0933 52.2391C77.6196 53.7654 78.4602 55.7949 78.4602 57.9536V58.2717C78.4602 58.8217 78.9062 59.2678 79.4563 59.2678C80.0063 59.2678 80.4523 58.8217 80.4523 58.2717V57.9536C80.4523 55.2629 79.4045 52.7331 77.5019 50.8306L71.8624 45.191C69.9598 43.2882 67.4301 42.2404 64.7391 42.2404H55.2902C55.3011 42.2089 55.3138 42.1782 55.3237 42.1461L56.6434 37.9023C56.7374 37.6 56.6821 37.2709 56.4943 37.0159C56.3065 36.7609 56.0089 36.6105 55.6921 36.6105H55.5983L55.8395 35.8359C56.1249 34.9193 55.9624 33.9501 55.3935 33.1765C55.1468 32.8411 54.842 32.568 54.4978 32.3658C54.6326 31.9114 54.7045 31.4383 54.7045 30.96C54.7045 28.2344 52.487 26.0169 49.7614 26.0169C49.6931 26.0169 49.6251 26.0184 49.5572 26.021C49.4421 22.6826 46.6904 20.0025 43.3245 20.0025C43.1956 20.0025 43.066 20.0066 42.9363 20.0149C42.1703 18.7698 40.894 17.9294 39.4458 17.7188C39.1931 17.3014 38.7414 16.8938 37.994 16.6626C37.9354 16.3891 37.8164 16.1247 37.6304 15.8918L36.4987 14.4751C35.9965 13.8463 35.1678 13.6313 34.4458 13.874L23.1443 1.55017C22.1764 0.494807 20.542 0.368469 19.4232 1.26197L13.1964 6.23579C12.0777 7.12946 11.8399 8.75143 12.6552 9.92831L14.5232 12.6252L11.897 14.9455C11.0583 14.9739 10.2633 15.2906 9.62627 15.8534L3.59492 21.182C2.86511 21.8268 2.45954 22.7022 2.385 23.6037C2.37487 23.6608 2.36806 23.7187 2.36806 23.7777V52.9013C2.36806 54.5613 3.48834 55.9634 5.0122 56.3946L2.8349 63.397C2.54985 64.3135 2.71288 65.2827 3.28198 66.0559C3.85125 66.829 4.72831 67.2724 5.68838 67.2724H6.53423L6.20701 68.3248C5.50792 68.3854 4.85863 68.6852 4.35677 69.1871L1.53931 72.0045C0.975027 72.569 0.664246 73.3195 0.664246 74.1178V74.3317C0.664246 75.9795 2.00482 77.32 3.65253 77.32H8.90443C9.39667 81.2694 12.7719 84.3362 16.8524 84.3362C20.9329 84.3362 24.3082 81.2694 24.8004 77.32H55.9971C56.4893 81.2694 59.8647 84.3362 63.9451 84.3362C68.0254 84.3362 71.4007 81.2694 71.8929 77.3202H81.3478C82.9955 77.3202 84.3361 75.9795 84.3361 74.3317V72.4583C84.3361 70.8106 82.9955 69.47 81.3478 69.47L81.3477 69.4698ZM22.1307 70.304H27.1608L29.5247 72.7692C29.7125 72.9651 29.9723 73.0758 30.2437 73.0758H48.2168V74.3317C48.2168 74.6812 48.2802 75.0156 48.3911 75.3277H24.8001C24.5516 73.3342 23.5689 71.5668 22.1307 70.304ZM48.2168 45.2284V71.0835H38.9391L47.0769 44.9465C47.2072 44.528 47.5894 44.2466 48.028 44.2466H48.3859C48.2784 44.5545 48.2169 44.8841 48.2169 45.2282L48.2168 45.2284ZM48.0278 42.2545C46.7123 42.2545 45.5657 43.0984 45.1745 44.3545L36.8527 71.0835H30.6686L28.3047 68.6183C28.1168 68.4224 27.8571 68.3117 27.5857 68.3117H8.29715L17.5349 38.602H54.2411C54.2426 38.602 54.244 38.6024 54.2455 38.6024C54.2468 38.6024 54.2481 38.602 54.2494 38.602H54.3396L53.4217 41.554C53.3083 41.9184 53.0042 42.1783 52.6383 42.2399L48.0278 42.2545ZM9.62942 25.5399L14.4339 21.2952C15.087 20.7182 15.4823 19.9565 15.6116 19.1566L17.7429 17.2737L22.1764 23.6741C21.8088 24.2774 21.8053 25.0568 22.2076 25.6686C21.8928 25.9998 21.6626 26.2488 21.5377 26.3853C19.9312 27.345 18.9402 29.082 18.9402 30.9597C18.9402 31.3203 18.9798 31.6802 19.0525 32.033C18.0492 32.2762 17.2299 33.0252 16.9115 34.0479L16.1137 36.6102H13.3644C12.0484 36.6102 10.9016 37.4545 10.511 38.7113L9.62959 41.5458V25.5399H9.62942ZM15.2192 16.845C15.0907 16.6081 14.9368 16.3808 14.751 16.1705C14.5667 15.962 14.3604 15.7807 14.1397 15.6223L18.2526 11.9886C18.4158 11.8443 18.6256 11.7717 18.843 11.7857C19.0604 11.7991 19.2595 11.8964 19.4038 12.0596C19.548 12.2228 19.6199 12.4325 19.6066 12.65C19.5932 12.8675 19.4959 13.0667 19.3325 13.2109L15.2193 16.845H15.2192ZM18.2 36.6102L18.8134 34.6404C18.9439 34.2217 19.3261 33.9403 19.7647 33.9403H19.765L52.9869 33.9508C53.307 33.9508 53.5992 34.099 53.7889 34.3567C53.9787 34.6145 54.0328 34.9376 53.9377 35.243L53.512 36.61H18.2001L18.2 36.6102ZM37.307 18.5371C37.5821 18.6036 37.704 18.6948 37.7344 18.7361C37.7515 18.9677 37.8491 19.1872 38.0121 19.3555C38.1997 19.5494 38.458 19.6588 38.7278 19.6588C39.9211 19.6588 40.9899 20.3702 41.451 21.4714C41.6319 21.9037 42.09 22.1512 42.5503 22.0662C42.8091 22.0186 43.0695 21.9943 43.3245 21.9943C45.6648 21.9943 47.5686 23.8984 47.5686 26.2385C47.5686 26.5048 47.5427 26.7752 47.4914 27.0425C47.4245 27.3918 47.549 27.7504 47.818 27.9832C48.0869 28.2159 48.4596 28.2873 48.7958 28.1713C49.1071 28.0634 49.432 28.0087 49.7614 28.0087C51.3885 28.0087 52.7123 29.3325 52.7123 30.9597C52.7123 31.3018 52.6519 31.6395 52.5372 31.9584L21.0817 31.9485C20.9826 31.6305 20.9323 31.3 20.9323 30.9597C20.9323 29.7484 21.5915 28.6303 22.6528 28.0416C22.7493 27.9882 23.1119 27.6133 23.458 27.2457C23.8254 27.6928 24.3597 27.9264 24.8994 27.9264C25.3074 27.9264 25.7185 27.7933 26.0615 27.5195L37.307 18.5371ZM35.9945 17.0358L24.9175 25.8836L23.9444 24.6654L35.0215 15.8175L35.9945 17.0358ZM14.2928 8.79393C14.0717 8.47468 14.1362 8.03474 14.4397 7.79236L20.6665 2.81853C20.9699 2.57614 21.4132 2.61018 21.676 2.89689L32.8084 15.0358L23.6714 22.334L19.2462 15.9455L20.6515 14.7039C21.2135 14.2075 21.5485 13.5217 21.595 12.7732C21.6413 12.0246 21.3933 11.3029 20.8967 10.7408C20.4002 10.1787 19.7144 9.84381 18.966 9.79733C18.2169 9.75234 17.4956 9.99903 16.9336 10.4958L16.0267 11.2971L14.2928 8.79393ZM4.91408 22.6748L10.9454 17.3462C11.2474 17.0796 11.6284 16.9357 12.028 16.9357C12.0624 16.9357 12.0969 16.9367 12.1314 16.9388C12.5682 16.9659 12.9685 17.1614 13.2582 17.4893C13.8563 18.1663 13.7921 19.2039 13.1151 19.8023L7.0839 25.1307C6.40673 25.729 5.36913 25.6646 4.77114 24.9878C4.17282 24.3107 4.23707 23.2731 4.91408 22.6748ZM4.36042 52.9013V27.1426C4.79538 27.3626 5.27367 27.4956 5.77487 27.5266C6.42084 27.5681 7.0688 27.4322 7.6374 27.142V47.9525L5.6047 54.4899C4.8915 54.3126 4.36058 53.6686 4.36058 52.9015L4.36042 52.9013ZM5.68838 65.2801C5.3683 65.2801 5.07594 65.1322 4.88619 64.8747C4.69643 64.6172 4.64215 64.2939 4.73727 63.9883L12.4133 39.3026C12.5437 38.8838 12.9258 38.6022 13.3644 38.6022H15.4488L7.15363 65.2801H5.68838ZM2.65627 74.3314V74.1174C2.65627 73.8511 2.75986 73.6011 2.94796 73.413L5.76541 70.5956C5.9535 70.4075 6.20352 70.3039 6.46965 70.3039H11.5736C10.1354 71.5664 9.15279 73.334 8.90427 75.3275H3.65236C3.10302 75.3275 2.65627 74.8808 2.65627 74.3314ZM16.8523 82.3437C13.5329 82.3437 10.8324 79.6431 10.8324 76.3238C10.8324 73.0045 13.5329 70.3039 16.8523 70.3039C20.1716 70.3039 22.8722 73.0045 22.8722 76.3238C22.8722 79.6431 20.1716 82.3437 16.8523 82.3437ZM78.4605 71.4618V74.3316C78.4605 74.8798 78.0154 75.3257 77.4676 75.3275H75.8967C75.7838 73.9615 75.4417 72.6605 74.9079 71.4618H78.4605ZM63.9449 66.3195C69.1251 66.3195 73.3977 70.2773 73.8994 75.3277H71.8929C71.4007 71.3785 68.0252 68.3117 63.9451 68.3117C59.8649 68.3117 56.4893 71.3785 55.9971 75.3277H53.9906C54.4922 70.2773 58.7647 66.3195 63.9449 66.3195ZM63.9449 82.3435C60.6254 82.3435 57.925 79.6429 57.925 76.3236C57.925 73.0043 60.6256 70.3037 63.9449 70.3037C67.2642 70.3037 69.9648 73.0043 69.9648 76.3236C69.9648 79.6429 67.2642 82.3435 63.9449 82.3435ZM82.3439 74.3312C82.3439 74.8806 81.8972 75.3273 81.3478 75.3273H80.2785C80.3894 75.0152 80.4528 74.6809 80.4528 74.3314V71.4617H81.348C81.8974 71.4617 82.3441 71.9084 82.3441 72.4578V74.3312H82.3439Z" fill="#2A343F"/>
</svg>
