<svg width="218" height="101" viewBox="0 0 218 101" fill="none" xmlns="http://www.w3.org/2000/svg">
<path d="M74.345 28.965C85.73 28.965 90.24 34.08 90.24 40.9C90.24 47.72 85.235 53.66 74.235 53.66C68.9 53.66 63.29 52.175 59.55 49.535L63.07 42.715C65.985 44.915 70 46.18 74.015 46.18C78.47 46.18 81.22 44.31 81.22 41.175C81.22 38.15 79.24 36.17 72.255 36.17H62.41L64.39 14.5H87.875V21.65H71.815L71.21 28.965H74.345ZM110.355 53.66C100.895 53.66 93.855 46.455 93.855 33.75C93.855 21.045 100.895 13.84 110.355 13.84C119.87 13.84 126.855 21.045 126.855 33.75C126.855 46.455 119.87 53.66 110.355 53.66ZM110.355 46.125C114.81 46.125 117.89 42.495 117.89 33.75C117.89 25.005 114.81 21.375 110.355 21.375C105.955 21.375 102.875 25.005 102.875 33.75C102.875 42.495 105.955 46.125 110.355 46.125ZM158.844 30.395V37.105H149.274V46.455H142.179V37.105H132.664V30.395H142.179V21.045H149.274V30.395H158.844Z" fill="#2A343F"/>
<path d="M7.64 82C8.85333 82 9.90667 82.2 10.8 82.6C11.7067 83 12.4 83.5733 12.88 84.32C13.36 85.0667 13.6 85.9533 13.6 86.98C13.6 87.9933 13.36 88.88 12.88 89.64C12.4 90.3867 11.7067 90.96 10.8 91.36C9.90667 91.76 8.85333 91.96 7.64 91.96H4.48V96H1.88V82H7.64ZM7.52 89.76C8.65333 89.76 9.51333 89.52 10.1 89.04C10.6867 88.56 10.98 87.8733 10.98 86.98C10.98 86.0867 10.6867 85.4 10.1 84.92C9.51333 84.44 8.65333 84.2 7.52 84.2H4.48V89.76H7.52ZM18.2388 86.88C18.9588 85.76 20.2254 85.2 22.0388 85.2V87.58C21.8254 87.54 21.6321 87.52 21.4588 87.52C20.4854 87.52 19.7254 87.8067 19.1788 88.38C18.6321 88.94 18.3588 89.7533 18.3588 90.82V96H15.8588V85.32H18.2388V86.88ZM28.8619 96.14C27.7819 96.14 26.8085 95.9067 25.9419 95.44C25.0752 94.9733 24.3952 94.3267 23.9019 93.5C23.4219 92.66 23.1819 91.7133 23.1819 90.66C23.1819 89.6067 23.4219 88.6667 23.9019 87.84C24.3952 87.0133 25.0752 86.3667 25.9419 85.9C26.8085 85.4333 27.7819 85.2 28.8619 85.2C29.9552 85.2 30.9352 85.4333 31.8019 85.9C32.6685 86.3667 33.3419 87.0133 33.8219 87.84C34.3152 88.6667 34.5619 89.6067 34.5619 90.66C34.5619 91.7133 34.3152 92.66 33.8219 93.5C33.3419 94.3267 32.6685 94.9733 31.8019 95.44C30.9352 95.9067 29.9552 96.14 28.8619 96.14ZM28.8619 94C29.7819 94 30.5419 93.6933 31.1419 93.08C31.7419 92.4667 32.0419 91.66 32.0419 90.66C32.0419 89.66 31.7419 88.8533 31.1419 88.24C30.5419 87.6267 29.7819 87.32 28.8619 87.32C27.9419 87.32 27.1819 87.6267 26.5819 88.24C25.9952 88.8533 25.7019 89.66 25.7019 90.66C25.7019 91.66 25.9952 92.4667 26.5819 93.08C27.1819 93.6933 27.9419 94 28.8619 94ZM41.2925 83.04C40.2392 83.04 39.7125 83.6133 39.7125 84.76V85.4H42.6525V87.4H39.7925V96H37.2925V87.4H35.5325V85.4H37.2925V84.72C37.2925 83.5733 37.6258 82.6733 38.2925 82.02C38.9592 81.3533 39.8992 81.02 41.1125 81.02C42.0725 81.02 42.8258 81.2133 43.3725 81.6L42.6725 83.48C42.2458 83.1867 41.7858 83.04 41.2925 83.04ZM54.2191 90.72C54.2191 90.8933 54.2057 91.14 54.1791 91.46H45.7991C45.9457 92.2467 46.3257 92.8733 46.9391 93.34C47.5657 93.7933 48.3391 94.02 49.2591 94.02C50.4324 94.02 51.3991 93.6333 52.1591 92.86L53.4991 94.4C53.0191 94.9733 52.4124 95.4067 51.6791 95.7C50.9457 95.9933 50.1191 96.14 49.1991 96.14C48.0257 96.14 46.9924 95.9067 46.0991 95.44C45.2057 94.9733 44.5124 94.3267 44.0191 93.5C43.5391 92.66 43.2991 91.7133 43.2991 90.66C43.2991 89.62 43.5324 88.6867 43.9991 87.86C44.4791 87.02 45.1391 86.3667 45.9791 85.9C46.8191 85.4333 47.7657 85.2 48.8191 85.2C49.8591 85.2 50.7857 85.4333 51.5991 85.9C52.4257 86.3533 53.0657 87 53.5191 87.84C53.9857 88.6667 54.2191 89.6267 54.2191 90.72ZM48.8191 87.2C48.0191 87.2 47.3391 87.44 46.7791 87.92C46.2324 88.3867 45.8991 89.0133 45.7791 89.8H51.8391C51.7324 89.0267 51.4057 88.4 50.8591 87.92C50.3124 87.44 49.6324 87.2 48.8191 87.2ZM59.9205 96.14C59.0538 96.14 58.2071 96.0267 57.3805 95.8C56.5538 95.5733 55.8938 95.2867 55.4005 94.94L56.3605 93.04C56.8405 93.36 57.4138 93.62 58.0805 93.82C58.7605 94.0067 59.4271 94.1 60.0805 94.1C61.5738 94.1 62.3205 93.7067 62.3205 92.92C62.3205 92.5467 62.1271 92.2867 61.7405 92.14C61.3671 91.9933 60.7605 91.8533 59.9205 91.72C59.0405 91.5867 58.3205 91.4333 57.7605 91.26C57.2138 91.0867 56.7338 90.7867 56.3205 90.36C55.9205 89.92 55.7205 89.3133 55.7205 88.54C55.7205 87.5267 56.1405 86.72 56.9805 86.12C57.8338 85.5067 58.9805 85.2 60.4205 85.2C61.1538 85.2 61.8871 85.2867 62.6205 85.46C63.3538 85.62 63.9538 85.84 64.4205 86.12L63.4605 88.02C62.5538 87.4867 61.5338 87.22 60.4005 87.22C59.6671 87.22 59.1071 87.3333 58.7205 87.56C58.3471 87.7733 58.1605 88.06 58.1605 88.42C58.1605 88.82 58.3605 89.1067 58.7605 89.28C59.1738 89.44 59.8071 89.5933 60.6605 89.74C61.5138 89.8733 62.2138 90.0267 62.7605 90.2C63.3071 90.3733 63.7738 90.6667 64.1605 91.08C64.5605 91.4933 64.7605 92.08 64.7605 92.84C64.7605 93.84 64.3271 94.64 63.4605 95.24C62.5938 95.84 61.4138 96.14 59.9205 96.14ZM70.2134 96.14C69.3468 96.14 68.5001 96.0267 67.6734 95.8C66.8468 95.5733 66.1868 95.2867 65.6934 94.94L66.6534 93.04C67.1334 93.36 67.7068 93.62 68.3734 93.82C69.0534 94.0067 69.7201 94.1 70.3734 94.1C71.8668 94.1 72.6134 93.7067 72.6134 92.92C72.6134 92.5467 72.4201 92.2867 72.0334 92.14C71.6601 91.9933 71.0534 91.8533 70.2134 91.72C69.3334 91.5867 68.6134 91.4333 68.0534 91.26C67.5068 91.0867 67.0268 90.7867 66.6134 90.36C66.2134 89.92 66.0134 89.3133 66.0134 88.54C66.0134 87.5267 66.4334 86.72 67.2734 86.12C68.1268 85.5067 69.2734 85.2 70.7134 85.2C71.4468 85.2 72.1801 85.2867 72.9134 85.46C73.6468 85.62 74.2468 85.84 74.7134 86.12L73.7534 88.02C72.8468 87.4867 71.8268 87.22 70.6934 87.22C69.9601 87.22 69.4001 87.3333 69.0134 87.56C68.6401 87.7733 68.4534 88.06 68.4534 88.42C68.4534 88.82 68.6534 89.1067 69.0534 89.28C69.4668 89.44 70.1001 89.5933 70.9534 89.74C71.8068 89.8733 72.5068 90.0267 73.0534 90.2C73.6001 90.3733 74.0668 90.6667 74.4534 91.08C74.8534 91.4933 75.0534 92.08 75.0534 92.84C75.0534 93.84 74.6201 94.64 73.7534 95.24C72.8868 95.84 71.7068 96.14 70.2134 96.14ZM77.2064 85.32H79.7064V96H77.2064V85.32ZM78.4664 83.56C78.0131 83.56 77.6331 83.42 77.3264 83.14C77.0197 82.8467 76.8664 82.4867 76.8664 82.06C76.8664 81.6333 77.0197 81.28 77.3264 81C77.6331 80.7067 78.0131 80.56 78.4664 80.56C78.9197 80.56 79.2997 80.7 79.6064 80.98C79.9131 81.2467 80.0664 81.5867 80.0664 82C80.0664 82.44 79.9131 82.8133 79.6064 83.12C79.3131 83.4133 78.9331 83.56 78.4664 83.56ZM87.7877 96.14C86.7077 96.14 85.7343 95.9067 84.8677 95.44C84.001 94.9733 83.321 94.3267 82.8277 93.5C82.3477 92.66 82.1077 91.7133 82.1077 90.66C82.1077 89.6067 82.3477 88.6667 82.8277 87.84C83.321 87.0133 84.001 86.3667 84.8677 85.9C85.7343 85.4333 86.7077 85.2 87.7877 85.2C88.881 85.2 89.861 85.4333 90.7277 85.9C91.5943 86.3667 92.2677 87.0133 92.7477 87.84C93.241 88.6667 93.4877 89.6067 93.4877 90.66C93.4877 91.7133 93.241 92.66 92.7477 93.5C92.2677 94.3267 91.5943 94.9733 90.7277 95.44C89.861 95.9067 88.881 96.14 87.7877 96.14ZM87.7877 94C88.7077 94 89.4677 93.6933 90.0677 93.08C90.6677 92.4667 90.9677 91.66 90.9677 90.66C90.9677 89.66 90.6677 88.8533 90.0677 88.24C89.4677 87.6267 88.7077 87.32 87.7877 87.32C86.8677 87.32 86.1077 87.6267 85.5077 88.24C84.921 88.8533 84.6277 89.66 84.6277 90.66C84.6277 91.66 84.921 92.4667 85.5077 93.08C86.1077 93.6933 86.8677 94 87.7877 94ZM101.938 85.2C103.285 85.2 104.365 85.5933 105.178 86.38C105.992 87.1667 106.398 88.3333 106.398 89.88V96H103.898V90.2C103.898 89.2667 103.678 88.5667 103.238 88.1C102.798 87.62 102.172 87.38 101.358 87.38C100.438 87.38 99.7116 87.66 99.1783 88.22C98.6449 88.7667 98.3783 89.56 98.3783 90.6V96H95.8783V85.32H98.2583V86.7C98.6716 86.2067 99.1916 85.8333 99.8183 85.58C100.445 85.3267 101.152 85.2 101.938 85.2ZM113.65 85.2C115.223 85.2 116.423 85.58 117.25 86.34C118.09 87.0867 118.51 88.22 118.51 89.74V96H116.15V94.7C115.843 95.1667 115.403 95.5267 114.83 95.78C114.27 96.02 113.59 96.14 112.79 96.14C111.99 96.14 111.29 96.0067 110.69 95.74C110.09 95.46 109.623 95.08 109.29 94.6C108.97 94.1067 108.81 93.5533 108.81 92.94C108.81 91.98 109.163 91.2133 109.87 90.64C110.59 90.0533 111.716 89.76 113.25 89.76H116.01V89.6C116.01 88.8533 115.783 88.28 115.33 87.88C114.89 87.48 114.23 87.28 113.35 87.28C112.75 87.28 112.156 87.3733 111.57 87.56C110.996 87.7467 110.51 88.0067 110.11 88.34L109.13 86.52C109.69 86.0933 110.363 85.7667 111.15 85.54C111.936 85.3133 112.77 85.2 113.65 85.2ZM113.31 94.32C113.936 94.32 114.49 94.18 114.97 93.9C115.463 93.6067 115.81 93.1933 116.01 92.66V91.42H113.43C111.99 91.42 111.27 91.8933 111.27 92.84C111.27 93.2933 111.45 93.6533 111.81 93.92C112.17 94.1867 112.67 94.32 113.31 94.32ZM121.718 81.16H124.218V96H121.718V81.16ZM153.727 82L149.087 96H146.327L142.867 85.64L139.347 96H136.567L131.927 82H134.627L138.107 92.64L141.727 82H144.127L147.667 92.7L151.247 82H153.727ZM159.604 96.14C158.524 96.14 157.551 95.9067 156.684 95.44C155.817 94.9733 155.137 94.3267 154.644 93.5C154.164 92.66 153.924 91.7133 153.924 90.66C153.924 89.6067 154.164 88.6667 154.644 87.84C155.137 87.0133 155.817 86.3667 156.684 85.9C157.551 85.4333 158.524 85.2 159.604 85.2C160.697 85.2 161.677 85.4333 162.544 85.9C163.411 86.3667 164.084 87.0133 164.564 87.84C165.057 88.6667 165.304 89.6067 165.304 90.66C165.304 91.7133 165.057 92.66 164.564 93.5C164.084 94.3267 163.411 94.9733 162.544 95.44C161.677 95.9067 160.697 96.14 159.604 96.14ZM159.604 94C160.524 94 161.284 93.6933 161.884 93.08C162.484 92.4667 162.784 91.66 162.784 90.66C162.784 89.66 162.484 88.8533 161.884 88.24C161.284 87.6267 160.524 87.32 159.604 87.32C158.684 87.32 157.924 87.6267 157.324 88.24C156.737 88.8533 156.444 89.66 156.444 90.66C156.444 91.66 156.737 92.4667 157.324 93.08C157.924 93.6933 158.684 94 159.604 94ZM170.075 86.88C170.795 85.76 172.061 85.2 173.875 85.2V87.58C173.661 87.54 173.468 87.52 173.295 87.52C172.321 87.52 171.561 87.8067 171.015 88.38C170.468 88.94 170.195 89.7533 170.195 90.82V96H167.695V85.32H170.075V86.88ZM180.355 91.42L178.495 93.18V96H175.995V81.16H178.495V90.12L183.675 85.32H186.675L182.215 89.8L187.095 96H184.055L180.355 91.42ZM198.301 90.72C198.301 90.8933 198.288 91.14 198.261 91.46H189.881C190.028 92.2467 190.408 92.8733 191.021 93.34C191.648 93.7933 192.421 94.02 193.341 94.02C194.514 94.02 195.481 93.6333 196.241 92.86L197.581 94.4C197.101 94.9733 196.494 95.4067 195.761 95.7C195.028 95.9933 194.201 96.14 193.281 96.14C192.108 96.14 191.074 95.9067 190.181 95.44C189.288 94.9733 188.594 94.3267 188.101 93.5C187.621 92.66 187.381 91.7133 187.381 90.66C187.381 89.62 187.614 88.6867 188.081 87.86C188.561 87.02 189.221 86.3667 190.061 85.9C190.901 85.4333 191.848 85.2 192.901 85.2C193.941 85.2 194.868 85.4333 195.681 85.9C196.508 86.3533 197.148 87 197.601 87.84C198.068 88.6667 198.301 89.6267 198.301 90.72ZM192.901 87.2C192.101 87.2 191.421 87.44 190.861 87.92C190.314 88.3867 189.981 89.0133 189.861 89.8H195.921C195.814 89.0267 195.488 88.4 194.941 87.92C194.394 87.44 193.714 87.2 192.901 87.2ZM203.083 86.88C203.803 85.76 205.069 85.2 206.883 85.2V87.58C206.669 87.54 206.476 87.52 206.303 87.52C205.329 87.52 204.569 87.8067 204.023 88.38C203.476 88.94 203.203 89.7533 203.203 90.82V96H200.703V85.32H203.083V86.88ZM212.342 96.14C211.476 96.14 210.629 96.0267 209.802 95.8C208.976 95.5733 208.316 95.2867 207.822 94.94L208.782 93.04C209.262 93.36 209.836 93.62 210.502 93.82C211.182 94.0067 211.849 94.1 212.502 94.1C213.996 94.1 214.742 93.7067 214.742 92.92C214.742 92.5467 214.549 92.2867 214.162 92.14C213.789 91.9933 213.182 91.8533 212.342 91.72C211.462 91.5867 210.742 91.4333 210.182 91.26C209.636 91.0867 209.156 90.7867 208.742 90.36C208.342 89.92 208.142 89.3133 208.142 88.54C208.142 87.5267 208.562 86.72 209.402 86.12C210.256 85.5067 211.402 85.2 212.842 85.2C213.576 85.2 214.309 85.2867 215.042 85.46C215.776 85.62 216.376 85.84 216.842 86.12L215.882 88.02C214.976 87.4867 213.956 87.22 212.822 87.22C212.089 87.22 211.529 87.3333 211.142 87.56C210.769 87.7733 210.582 88.06 210.582 88.42C210.582 88.82 210.782 89.1067 211.182 89.28C211.596 89.44 212.229 89.5933 213.082 89.74C213.936 89.8733 214.636 90.0267 215.182 90.2C215.729 90.3733 216.196 90.6667 216.582 91.08C216.982 91.4933 217.182 92.08 217.182 92.84C217.182 93.84 216.749 94.64 215.882 95.24C215.016 95.84 213.836 96.14 212.342 96.14Z" fill="#2A343F"/>
</svg>
