<svg width="81" height="81" viewBox="0 0 81 81" fill="none" xmlns="http://www.w3.org/2000/svg">
<path d="M57.5214 49.7518C56.7959 49.1021 55.6813 49.1655 55.0351 49.8891C51.3619 53.993 46.0652 56.3451 40.4991 56.3451C34.9347 56.3451 29.6363 53.993 25.9631 49.8891C25.3133 49.1655 24.2022 49.1021 23.4768 49.7518C22.7513 50.3997 22.6914 51.5123 23.3394 52.2377C27.68 57.0863 33.9346 59.8662 40.4991 59.8662C47.0654 59.8662 53.32 57.0845 57.6588 52.2377C58.3068 51.5123 58.2451 50.3997 57.5214 49.7518Z" fill="#2A343F"/>
<path d="M40.5 0C18.1687 0 0 18.1676 0 40.4976C0 62.8276 18.1687 80.9952 40.5 80.9952C62.8313 80.9952 81 62.8276 81 40.4976C81 18.1676 62.8313 0 40.5 0ZM40.5 77.4737C20.1091 77.4737 3.52174 60.8873 3.52174 40.4976C3.52174 20.1079 20.1091 3.52153 40.5 3.52153C60.8909 3.52153 77.4783 20.1079 77.4783 40.4976C77.4783 60.8873 60.8909 77.4737 40.5 77.4737Z" fill="#2A343F"/>
<path d="M54.5866 28.1719C49.7319 28.1719 45.7822 32.1208 45.7822 36.9747C45.7822 37.9465 46.5711 38.7352 47.5431 38.7352C48.5151 38.7352 49.304 37.9465 49.304 36.9747C49.304 34.0627 51.6741 31.693 54.5866 31.693C57.4991 31.693 59.8692 34.0627 59.8692 36.9747C59.8692 37.9465 60.6581 38.7352 61.6301 38.7352C62.6021 38.7352 63.3909 37.9465 63.3909 36.9747C63.3909 32.1208 59.4413 28.1719 54.5866 28.1719Z" fill="#2A343F"/>
<path d="M31.6966 36.9747C31.6966 37.9465 32.4854 38.7352 33.4574 38.7352C34.4294 38.7352 35.2183 37.9465 35.2183 36.9747C35.2183 32.1208 31.2687 28.1719 26.414 28.1719C21.5592 28.1719 17.6096 32.1208 17.6096 36.9747C17.6096 37.9465 18.3985 38.7352 19.3705 38.7352C20.3425 38.7352 21.1314 37.9465 21.1314 36.9747C21.1314 34.0627 23.5015 31.693 26.414 31.693C29.3264 31.693 31.6966 34.0627 31.6966 36.9747Z" fill="#2A343F"/>
</svg>
