<svg width="81" height="81" viewBox="0 0 81 81" fill="none" xmlns="http://www.w3.org/2000/svg">
<path d="M76.866 56.1798C72.8956 52.2118 66.8884 50.9899 61.6829 53.0174L59.4039 50.7398C59.5847 50.6034 59.7589 50.454 59.9236 50.2893L65.6099 44.6063C66.542 43.675 67.0552 42.4327 67.0552 41.1084C67.0552 39.7841 66.542 38.5418 65.6099 37.6104H65.61C64.5767 36.5778 63.1964 36.099 61.8408 36.1727C61.8747 35.924 61.893 35.6716 61.893 35.4162C61.893 33.9478 61.3233 32.5711 60.2889 31.5396C59.2853 30.5367 57.9863 30.005 56.6693 29.944C57.2973 28.0349 56.856 25.8394 55.3515 24.3319C54.1215 23.1027 52.4478 22.5825 50.8408 22.7685C50.8642 22.5606 50.8776 22.3504 50.8776 22.1379C50.8776 20.6695 50.3091 19.2927 49.2768 18.2611C47.1399 16.1255 43.6628 16.1256 41.5259 18.2611L37.8914 21.8932L37.6102 21.6121C36.25 20.2526 34.0342 20.2545 32.6712 21.6167L31.4651 22.8221L27.9501 19.3062C29.9782 14.1017 28.7545 8.09867 24.7836 4.13027C21.4775 0.826261 16.742 -0.624514 12.1185 0.249817C11.4568 0.374518 9.44339 0.754007 9.03017 2.297C8.62613 3.80608 10.0629 5.04311 10.7536 5.63762C10.8235 5.69783 16.4283 11.2886 16.4283 11.2886C17.8836 12.743 17.9814 15.084 16.665 16.6533C15.0928 17.9705 12.7469 17.8732 11.2896 16.4167C11.2896 16.4167 5.69535 10.8153 5.63491 10.7453C5.03993 10.0552 3.80124 8.61998 2.29455 9.02513C0.754332 9.43996 0.374655 11.451 0.249995 12.1113C-0.625001 16.7355 0.826945 21.4694 4.13424 24.7745C8.10471 28.7423 14.1117 29.9642 19.3173 27.9369L23.3868 32.0037C22.8901 33.289 22.6585 34.7037 22.7435 36.1243C22.9365 39.3128 21.249 42.4402 17.1005 46.5819L12.7793 50.9003C11.3168 50.149 9.47408 50.3833 8.25025 51.6062L2.19821 57.6545C1.4648 58.3873 1.06108 59.3645 1.06108 60.4059C1.06108 61.4474 1.46496 62.4246 2.19805 63.1573L18.9106 79.8591C19.6685 80.6165 20.6642 80.9952 21.66 80.9952C22.6557 80.9952 23.6514 80.6165 24.4094 79.8589L30.4615 73.8107C31.1949 73.0779 31.5986 72.1007 31.5986 71.0592C31.5986 70.4295 31.4501 69.8238 31.1713 69.2809L38.522 61.9348C40.7009 59.7576 41.0549 59.8165 43.3627 60.2023C43.7511 60.2673 44.1914 60.341 44.6867 60.4117C46.7012 60.7015 49.0403 59.6763 50.3676 58.9663L53.05 61.6477C52.3419 63.4675 52.0132 65.4469 52.0962 67.422C52.123 68.0607 52.6484 68.5605 53.2807 68.5605C53.2974 68.5605 53.3145 68.5601 53.3315 68.5593C53.9861 68.5318 54.4945 67.978 54.467 67.3222C54.3881 65.4394 54.7564 63.5547 55.5323 61.8716C55.7408 61.4191 55.6454 60.8843 55.2931 60.5322L36.3072 41.5541C37.0794 40.0968 37.5165 38.5469 37.5646 37.0251C38.9311 38.2018 40.7286 39.1604 42.4858 39.6335C43.9248 40.0209 45.2712 40.084 46.4804 39.8333C46.4802 39.8468 46.4794 39.8601 46.4794 39.8736C46.4804 41.3399 47.0503 42.7152 48.0824 43.7437C49.0533 44.7165 50.3293 45.2777 51.6996 45.3406C51.5587 45.8044 51.4856 46.2921 51.4856 46.7914C51.4856 48.1157 51.9988 49.358 52.9307 50.2892C53.8948 51.2526 55.1607 51.7343 56.4271 51.7341C56.6199 51.7341 56.8126 51.7216 57.0045 51.6991L60.5716 55.2639C60.9225 55.6146 61.4538 55.7098 61.9042 55.5028C66.3811 53.4469 71.7205 54.3948 75.1898 57.8619C77.9403 60.6105 79.1474 64.5499 78.4186 68.4004C78.2966 69.0455 78.1583 69.3833 78.0693 69.5484C77.8987 69.4364 77.6189 69.1857 77.1615 68.6551C77.0589 68.5359 71.3868 62.8546 71.3868 62.8546C69.0327 60.5017 65.2237 60.3725 62.7155 62.5609C62.6751 62.5962 62.6373 62.6339 62.6019 62.6743C60.4102 65.1829 60.5395 68.9927 62.896 71.3478L69.5902 78.0204C69.4234 78.1098 69.0849 78.2473 68.4423 78.3686C64.5876 79.0966 60.6437 77.8907 57.8944 75.1428C57.0222 74.2674 56.2977 73.2718 55.7408 72.1836C55.4418 71.5994 54.7271 71.3688 54.1437 71.6681C53.5605 71.9676 53.3302 72.6838 53.6292 73.2679C54.2985 74.5757 55.1683 75.7714 56.2164 76.8233C58.8888 79.494 62.4945 80.954 66.2205 80.9538C67.1044 80.9538 67.9952 80.8716 68.8816 80.7041C69.5433 80.5794 71.5567 80.1999 71.9699 78.6569C72.374 77.148 70.9372 75.9108 70.2465 75.3163C70.1766 75.2561 64.5718 69.6653 64.5718 69.6653C63.1165 68.2109 63.0187 65.87 64.3351 64.3007C65.9073 62.9835 68.2532 63.0809 69.7105 64.5372C69.7105 64.5372 75.3048 70.1386 75.3652 70.2087C75.9603 70.8989 77.1998 72.3346 78.7056 71.9288C80.2455 71.514 80.6251 69.5029 80.7498 68.8427C81.6253 64.2189 80.1732 59.485 76.866 56.1798ZM53.6743 26.0137C54.8625 27.2042 54.8812 29.1525 53.7176 30.3612L49.9038 34.1727C49.249 33.2225 45.6462 29.6434 45.6462 29.6434L49.2768 26.0149C50.4897 24.8027 52.4629 24.803 53.6743 26.0137ZM43.2022 19.944C44.4149 18.732 46.3886 18.7323 47.6007 19.944C48.1838 20.5266 48.5048 21.3059 48.5048 22.1382C48.5048 22.9705 48.1838 23.7498 47.6007 24.3324L43.9663 27.9646L39.5713 23.5725L43.2022 19.944ZM20.4285 25.69C20.078 25.3395 19.5467 25.2443 19.096 25.4511C14.6187 27.5068 9.27965 26.5591 5.81051 23.0921C3.05992 20.3434 1.85286 16.404 2.58168 12.5535C2.70365 11.9085 2.84192 11.5706 2.93099 11.4055C3.10152 11.5176 3.38138 11.7682 3.83873 12.2989C3.9414 12.418 9.61345 18.0993 9.61345 18.0993C11.9679 20.4524 15.7767 20.5816 18.2848 18.3931C18.3251 18.3579 18.3629 18.3199 18.3984 18.2796C20.5901 15.771 20.4608 11.9612 18.1043 9.60617C18.1043 9.60617 11.5232 3.10415 11.4101 2.9335C11.5769 2.84413 11.9154 2.70659 12.558 2.58538C16.4122 1.85682 20.3564 3.06327 23.1078 5.81302C26.5757 9.27866 27.5241 14.6116 25.4678 19.0836C25.2599 19.5358 25.3555 20.0698 25.7071 20.4215L29.7857 24.5012L25.3645 28.9194C25.0805 29.2034 24.8195 29.5114 24.5776 29.836L20.4285 25.69ZM48.0837 35.9915C47.7765 36.2986 47.5113 36.6366 47.2888 36.9975C44.7614 38.5661 40.7651 36.8383 38.7764 34.9196L38.5298 34.6735C36.7119 32.859 35.745 31.8929 35.6558 31.8013C35.6542 31.7997 35.6526 31.7985 35.651 31.7969C35.6466 31.7924 35.6425 31.7877 35.6381 31.7832C35.6317 31.7769 35.6254 31.7723 35.6191 31.7666C35.1654 31.3315 34.4463 31.3239 33.9847 31.7609C33.5085 32.2119 33.4877 32.964 33.9379 33.441C33.9422 33.4454 33.9493 33.4528 33.9618 33.4655C34.7716 34.2749 35.1997 35.4086 35.1997 36.744C35.1997 38.8448 34.1279 41.17 32.3325 42.9642C31.8687 43.4278 31.8679 44.1801 32.3306 44.6447C32.5625 44.8773 32.8666 44.9938 33.1706 44.9938C33.4739 44.9938 33.7772 44.8781 34.0088 44.6466C34.3525 44.3031 34.6711 43.9437 34.9694 43.5744L48.5997 57.1992C47.218 57.8487 45.8806 58.1824 45.0229 58.0588C44.5541 57.9918 44.1286 57.9207 43.7532 57.8579C41.0038 57.3984 39.7718 57.3282 36.8457 60.2523L29.6234 67.4702L23.6555 61.5062C23.1916 61.0426 22.4403 61.0434 21.9776 61.5081C21.5147 61.9727 21.5157 62.7252 21.9797 63.1887L28.783 69.9876C28.7832 69.9878 28.7835 69.9881 28.7836 69.9884L28.7844 69.9892L28.7857 69.9905C29.0695 70.2741 29.2258 70.6537 29.2258 71.0594C29.2258 71.465 29.0695 71.8447 28.7855 72.1283L22.7332 78.1767C22.1412 78.7682 21.1782 78.768 20.5866 78.1767L3.87417 61.475C3.59036 61.1912 3.43406 60.8116 3.43406 60.4061C3.43406 60.0006 3.59036 59.6208 3.87432 59.3372L9.92637 53.2888C10.5183 52.6975 11.4813 52.6976 12.073 53.2888L18.0575 59.2695C18.5215 59.733 19.2726 59.7324 19.7355 59.2676C20.1984 58.8031 20.1974 58.0506 19.7336 57.5871L14.5907 52.4476L18.7761 48.2647C23.4553 43.5929 25.3502 39.9192 25.112 35.9814C24.9919 33.9719 25.7309 31.9105 27.0401 30.6017L34.3472 23.2995C34.7784 22.8682 35.5052 22.8664 35.9339 23.2949L37.0512 24.4115L44.784 32.1394C44.9927 32.348 45.2008 32.5543 45.4062 32.7577C46.3889 33.7314 47.8056 35.1353 48.1908 35.8838L48.0837 35.9915ZM51.9592 42.9703C51.1252 42.9703 50.3445 42.6484 49.7587 42.0613C49.1749 41.4795 48.853 40.702 48.8524 39.8722C48.8519 39.0401 49.1742 38.2594 49.7597 37.6741L54.2144 33.2225C54.8206 32.6165 55.6171 32.3136 56.4135 32.3136C57.21 32.3136 58.0065 32.6165 58.6128 33.2225C58.6132 33.2228 58.6136 33.2233 58.614 33.2236C59.1983 33.806 59.5202 34.5848 59.5202 35.4167C59.5202 36.2479 59.1987 37.0264 58.6139 37.61C58.6134 37.6104 58.6129 37.6108 58.6126 37.6112L54.1573 42.0637C53.5738 42.6484 52.7931 42.9703 51.9592 42.9703ZM54.607 48.6071C54.1243 48.1249 53.8587 47.4802 53.8587 46.7917C53.8587 46.1032 54.1245 45.4585 54.6073 44.976L60.2892 39.2933C60.7916 38.7912 61.4516 38.5402 62.1116 38.5402C62.7716 38.5402 63.4316 38.7912 63.9341 39.2933H63.9342C64.4167 39.7755 64.6824 40.4202 64.6824 41.1087C64.6824 41.7972 64.4166 42.4419 63.9341 42.9241L58.2478 48.6071C57.2437 49.6101 55.6103 49.6099 54.607 48.6071Z" fill="#2A343F"/>
</svg>
