<svg width="184" height="101" viewBox="0 0 184 101" fill="none" xmlns="http://www.w3.org/2000/svg">
<path d="M32.385 14.5H48.995V53H40.085V21.65H32.385V14.5ZM73.6681 30.175C80.5981 31.275 84.1181 35.565 84.1181 41.23C84.1181 47.72 79.1131 53.66 68.1681 53.66C62.7781 53.66 57.2231 52.175 53.4831 49.535L56.9481 42.715C59.8631 44.915 63.9331 46.18 67.9481 46.18C72.4031 46.18 75.1531 44.365 75.1531 41.23C75.1531 38.315 73.0081 36.5 67.9481 36.5H63.8781V30.615L71.7981 21.65H55.4081V14.5H82.3581V20.275L73.6681 30.175ZM104.732 53.66C95.2719 53.66 88.2319 46.455 88.2319 33.75C88.2319 21.045 95.2719 13.84 104.732 13.84C114.247 13.84 121.232 21.045 121.232 33.75C121.232 46.455 114.247 53.66 104.732 53.66ZM104.732 46.125C109.187 46.125 112.267 42.495 112.267 33.75C112.267 25.005 109.187 21.375 104.732 21.375C100.332 21.375 97.2519 25.005 97.2519 33.75C97.2519 42.495 100.332 46.125 104.732 46.125ZM153.221 30.395V37.105H143.651V46.455H136.556V37.105H127.041V30.395H136.556V21.045H143.651V30.395H153.221Z" fill="#2A343F"/>
<path d="M14.32 82V96H11.72V90H4.48V96H1.88V82H4.48V87.78H11.72V82H14.32ZM21.9114 85.2C23.4847 85.2 24.6847 85.58 25.5114 86.34C26.3514 87.0867 26.7714 88.22 26.7714 89.74V96H24.4114V94.7C24.1047 95.1667 23.6647 95.5267 23.0914 95.78C22.5314 96.02 21.8514 96.14 21.0514 96.14C20.2514 96.14 19.5514 96.0067 18.9514 95.74C18.3514 95.46 17.8847 95.08 17.5514 94.6C17.2314 94.1067 17.0714 93.5533 17.0714 92.94C17.0714 91.98 17.4247 91.2133 18.1314 90.64C18.8514 90.0533 19.9781 89.76 21.5114 89.76H24.2714V89.6C24.2714 88.8533 24.0447 88.28 23.5914 87.88C23.1514 87.48 22.4914 87.28 21.6114 87.28C21.0114 87.28 20.4181 87.3733 19.8314 87.56C19.2581 87.7467 18.7714 88.0067 18.3714 88.34L17.3914 86.52C17.9514 86.0933 18.6247 85.7667 19.4114 85.54C20.1981 85.3133 21.0314 85.2 21.9114 85.2ZM21.5714 94.32C22.1981 94.32 22.7514 94.18 23.2314 93.9C23.7247 93.6067 24.0714 93.1933 24.2714 92.66V91.42H21.6914C20.2514 91.42 19.5314 91.8933 19.5314 92.84C19.5314 93.2933 19.7114 93.6533 20.0714 93.92C20.4314 94.1867 20.9314 94.32 21.5714 94.32ZM35.8998 85.2C36.9398 85.2 37.8665 85.4267 38.6798 85.88C39.5065 86.3333 40.1532 86.9733 40.6198 87.8C41.0865 88.6267 41.3198 89.58 41.3198 90.66C41.3198 91.74 41.0865 92.7 40.6198 93.54C40.1532 94.3667 39.5065 95.0067 38.6798 95.46C37.8665 95.9133 36.9398 96.14 35.8998 96.14C34.4598 96.14 33.3198 95.66 32.4798 94.7V99.88H29.9798V85.32H32.3598V86.72C32.7732 86.2133 33.2798 85.8333 33.8798 85.58C34.4932 85.3267 35.1665 85.2 35.8998 85.2ZM35.6198 94C36.5398 94 37.2932 93.6933 37.8798 93.08C38.4798 92.4667 38.7798 91.66 38.7798 90.66C38.7798 89.66 38.4798 88.8533 37.8798 88.24C37.2932 87.6267 36.5398 87.32 35.6198 87.32C35.0198 87.32 34.4798 87.46 33.9998 87.74C33.5198 88.0067 33.1398 88.3933 32.8598 88.9C32.5798 89.4067 32.4398 89.9933 32.4398 90.66C32.4398 91.3267 32.5798 91.9133 32.8598 92.42C33.1398 92.9267 33.5198 93.32 33.9998 93.6C34.4798 93.8667 35.0198 94 35.6198 94ZM49.6108 85.2C50.6508 85.2 51.5774 85.4267 52.3908 85.88C53.2174 86.3333 53.8641 86.9733 54.3308 87.8C54.7974 88.6267 55.0308 89.58 55.0308 90.66C55.0308 91.74 54.7974 92.7 54.3308 93.54C53.8641 94.3667 53.2174 95.0067 52.3908 95.46C51.5774 95.9133 50.6508 96.14 49.6108 96.14C48.1708 96.14 47.0308 95.66 46.1908 94.7V99.88H43.6908V85.32H46.0708V86.72C46.4841 86.2133 46.9908 85.8333 47.5908 85.58C48.2041 85.3267 48.8774 85.2 49.6108 85.2ZM49.3308 94C50.2508 94 51.0041 93.6933 51.5908 93.08C52.1908 92.4667 52.4908 91.66 52.4908 90.66C52.4908 89.66 52.1908 88.8533 51.5908 88.24C51.0041 87.6267 50.2508 87.32 49.3308 87.32C48.7308 87.32 48.1908 87.46 47.7108 87.74C47.2308 88.0067 46.8508 88.3933 46.5708 88.9C46.2908 89.4067 46.1508 89.9933 46.1508 90.66C46.1508 91.3267 46.2908 91.9133 46.5708 92.42C46.8508 92.9267 47.2308 93.32 47.7108 93.6C48.1908 93.8667 48.7308 94 49.3308 94ZM67.1088 85.32L62.1088 96.86C61.6421 98.02 61.0754 98.8333 60.4088 99.3C59.7421 99.78 58.9354 100.02 57.9888 100.02C57.4554 100.02 56.9288 99.9333 56.4088 99.76C55.8888 99.5867 55.4621 99.3467 55.1287 99.04L56.1287 97.2C56.3688 97.4267 56.6488 97.6067 56.9688 97.74C57.3021 97.8733 57.6354 97.94 57.9688 97.94C58.4088 97.94 58.7688 97.8267 59.0488 97.6C59.3421 97.3733 59.6088 96.9933 59.8488 96.46L60.0288 96.04L55.3687 85.32H57.9688L61.3288 93.22L64.7088 85.32H67.1088ZM80.9186 96.2C79.5053 96.2 78.2253 95.8933 77.0786 95.28C75.9453 94.6533 75.0519 93.7933 74.3986 92.7C73.7586 91.6067 73.4386 90.3733 73.4386 89C73.4386 87.6267 73.7653 86.3933 74.4186 85.3C75.0719 84.2067 75.9653 83.3533 77.0986 82.74C78.2453 82.1133 79.5253 81.8 80.9386 81.8C82.0853 81.8 83.1319 82 84.0786 82.4C85.0253 82.8 85.8253 83.38 86.4786 84.14L84.7986 85.72C83.7853 84.6267 82.5386 84.08 81.0586 84.08C80.0986 84.08 79.2386 84.2933 78.4786 84.72C77.7186 85.1333 77.1253 85.7133 76.6986 86.46C76.2719 87.2067 76.0586 88.0533 76.0586 89C76.0586 89.9467 76.2719 90.7933 76.6986 91.54C77.1253 92.2867 77.7186 92.8733 78.4786 93.3C79.2386 93.7133 80.0986 93.92 81.0586 93.92C82.5386 93.92 83.7853 93.3667 84.7986 92.26L86.4786 93.86C85.8253 94.62 85.0186 95.2 84.0586 95.6C83.1119 96 82.0653 96.2 80.9186 96.2ZM98.7769 85.32V96H96.3969V94.64C95.9969 95.12 95.4969 95.4933 94.8969 95.76C94.2969 96.0133 93.6502 96.14 92.9569 96.14C91.5302 96.14 90.4035 95.7467 89.5769 94.96C88.7635 94.16 88.3569 92.98 88.3569 91.42V85.32H90.8569V91.08C90.8569 92.04 91.0702 92.76 91.4969 93.24C91.9369 93.7067 92.5569 93.94 93.3569 93.94C94.2502 93.94 94.9569 93.6667 95.4769 93.12C96.0102 92.56 96.2769 91.76 96.2769 90.72V85.32H98.7769ZM105.35 96.14C104.483 96.14 103.637 96.0267 102.81 95.8C101.983 95.5733 101.323 95.2867 100.83 94.94L101.79 93.04C102.27 93.36 102.843 93.62 103.51 93.82C104.19 94.0067 104.857 94.1 105.51 94.1C107.003 94.1 107.75 93.7067 107.75 92.92C107.75 92.5467 107.557 92.2867 107.17 92.14C106.797 91.9933 106.19 91.8533 105.35 91.72C104.47 91.5867 103.75 91.4333 103.19 91.26C102.643 91.0867 102.163 90.7867 101.75 90.36C101.35 89.92 101.15 89.3133 101.15 88.54C101.15 87.5267 101.57 86.72 102.41 86.12C103.263 85.5067 104.41 85.2 105.85 85.2C106.583 85.2 107.317 85.2867 108.05 85.46C108.783 85.62 109.383 85.84 109.85 86.12L108.89 88.02C107.983 87.4867 106.963 87.22 105.83 87.22C105.097 87.22 104.537 87.3333 104.15 87.56C103.777 87.7733 103.59 88.06 103.59 88.42C103.59 88.82 103.79 89.1067 104.19 89.28C104.603 89.44 105.237 89.5933 106.09 89.74C106.943 89.8733 107.643 90.0267 108.19 90.2C108.737 90.3733 109.203 90.6667 109.59 91.08C109.99 91.4933 110.19 92.08 110.19 92.84C110.19 93.84 109.757 94.64 108.89 95.24C108.023 95.84 106.843 96.14 105.35 96.14ZM118.763 95.42C118.47 95.66 118.11 95.84 117.683 95.96C117.27 96.08 116.83 96.14 116.363 96.14C115.19 96.14 114.283 95.8333 113.643 95.22C113.003 94.6067 112.683 93.7133 112.683 92.54V87.4H110.923V85.4H112.683V82.96H115.183V85.4H118.043V87.4H115.183V92.48C115.183 93 115.31 93.4 115.563 93.68C115.816 93.9467 116.183 94.08 116.663 94.08C117.223 94.08 117.69 93.9333 118.063 93.64L118.763 95.42ZM125.268 96.14C124.188 96.14 123.215 95.9067 122.348 95.44C121.481 94.9733 120.801 94.3267 120.308 93.5C119.828 92.66 119.588 91.7133 119.588 90.66C119.588 89.6067 119.828 88.6667 120.308 87.84C120.801 87.0133 121.481 86.3667 122.348 85.9C123.215 85.4333 124.188 85.2 125.268 85.2C126.361 85.2 127.341 85.4333 128.208 85.9C129.075 86.3667 129.748 87.0133 130.228 87.84C130.721 88.6667 130.968 89.6067 130.968 90.66C130.968 91.7133 130.721 92.66 130.228 93.5C129.748 94.3267 129.075 94.9733 128.208 95.44C127.341 95.9067 126.361 96.14 125.268 96.14ZM125.268 94C126.188 94 126.948 93.6933 127.548 93.08C128.148 92.4667 128.448 91.66 128.448 90.66C128.448 89.66 128.148 88.8533 127.548 88.24C126.948 87.6267 126.188 87.32 125.268 87.32C124.348 87.32 123.588 87.6267 122.988 88.24C122.401 88.8533 122.108 89.66 122.108 90.66C122.108 91.66 122.401 92.4667 122.988 93.08C123.588 93.6933 124.348 94 125.268 94ZM146.839 85.2C148.185 85.2 149.252 85.5933 150.039 86.38C150.825 87.1533 151.219 88.32 151.219 89.88V96H148.719V90.2C148.719 89.2667 148.512 88.5667 148.099 88.1C147.685 87.62 147.092 87.38 146.319 87.38C145.479 87.38 144.805 87.66 144.299 88.22C143.792 88.7667 143.539 89.5533 143.539 90.58V96H141.039V90.2C141.039 89.2667 140.832 88.5667 140.419 88.1C140.005 87.62 139.412 87.38 138.639 87.38C137.785 87.38 137.105 87.6533 136.599 88.2C136.105 88.7467 135.859 89.54 135.859 90.58V96H133.359V85.32H135.739V86.68C136.139 86.2 136.639 85.8333 137.239 85.58C137.839 85.3267 138.505 85.2 139.239 85.2C140.039 85.2 140.745 85.3533 141.359 85.66C141.985 85.9533 142.479 86.3933 142.839 86.98C143.279 86.42 143.845 85.9867 144.539 85.68C145.232 85.36 145.999 85.2 146.839 85.2ZM164.551 90.72C164.551 90.8933 164.538 91.14 164.511 91.46H156.131C156.278 92.2467 156.658 92.8733 157.271 93.34C157.898 93.7933 158.671 94.02 159.591 94.02C160.764 94.02 161.731 93.6333 162.491 92.86L163.831 94.4C163.351 94.9733 162.744 95.4067 162.011 95.7C161.278 95.9933 160.451 96.14 159.531 96.14C158.358 96.14 157.324 95.9067 156.431 95.44C155.538 94.9733 154.844 94.3267 154.351 93.5C153.871 92.66 153.631 91.7133 153.631 90.66C153.631 89.62 153.864 88.6867 154.331 87.86C154.811 87.02 155.471 86.3667 156.311 85.9C157.151 85.4333 158.098 85.2 159.151 85.2C160.191 85.2 161.118 85.4333 161.931 85.9C162.758 86.3533 163.398 87 163.851 87.84C164.318 88.6667 164.551 89.6267 164.551 90.72ZM159.151 87.2C158.351 87.2 157.671 87.44 157.111 87.92C156.564 88.3867 156.231 89.0133 156.111 89.8H162.171C162.064 89.0267 161.738 88.4 161.191 87.92C160.644 87.44 159.964 87.2 159.151 87.2ZM169.333 86.88C170.053 85.76 171.319 85.2 173.133 85.2V87.58C172.919 87.54 172.726 87.52 172.553 87.52C171.579 87.52 170.819 87.8067 170.273 88.38C169.726 88.94 169.453 89.7533 169.453 90.82V96H166.953V85.32H169.333V86.88ZM178.592 96.14C177.726 96.14 176.879 96.0267 176.052 95.8C175.226 95.5733 174.566 95.2867 174.072 94.94L175.032 93.04C175.512 93.36 176.086 93.62 176.752 93.82C177.432 94.0067 178.099 94.1 178.752 94.1C180.246 94.1 180.992 93.7067 180.992 92.92C180.992 92.5467 180.799 92.2867 180.412 92.14C180.039 91.9933 179.432 91.8533 178.592 91.72C177.712 91.5867 176.992 91.4333 176.432 91.26C175.886 91.0867 175.406 90.7867 174.992 90.36C174.592 89.92 174.392 89.3133 174.392 88.54C174.392 87.5267 174.812 86.72 175.652 86.12C176.506 85.5067 177.652 85.2 179.092 85.2C179.826 85.2 180.559 85.2867 181.292 85.46C182.026 85.62 182.626 85.84 183.092 86.12L182.132 88.02C181.226 87.4867 180.206 87.22 179.072 87.22C178.339 87.22 177.779 87.3333 177.392 87.56C177.019 87.7733 176.832 88.06 176.832 88.42C176.832 88.82 177.032 89.1067 177.432 89.28C177.846 89.44 178.479 89.5933 179.332 89.74C180.186 89.8733 180.886 90.0267 181.432 90.2C181.979 90.3733 182.446 90.6667 182.832 91.08C183.232 91.4933 183.432 92.08 183.432 92.84C183.432 93.84 182.999 94.64 182.132 95.24C181.266 95.84 180.086 96.14 178.592 96.14Z" fill="#2A343F"/>
</svg>
