<svg width="82" height="82" viewBox="0 0 82 82" fill="none" xmlns="http://www.w3.org/2000/svg">
<path d="M20.4254 71.3056C18.3113 71.3841 18.3129 74.4179 20.4254 74.4958H25.2107C27.3248 74.4173 27.3232 71.3834 25.2107 71.3056H24.4132V60.14C24.4132 59.2592 23.6989 58.5449 22.8181 58.5449H20.4256C18.3115 58.6234 18.3131 61.6573 20.4256 61.7351H21.223V71.3056H20.4254Z" fill="white"/>
<path d="M33.1862 74.4948C35.8248 74.4948 37.9714 72.3482 37.9714 69.7096V63.3292C37.7301 56.9881 28.64 56.9929 28.4009 63.3292V69.7096C28.4009 72.3482 30.5476 74.4948 33.1862 74.4948ZM31.5911 63.3292C31.6717 61.2156 34.7015 61.2172 34.7813 63.3292V69.7096C34.7007 71.8232 31.6709 71.8216 31.5911 69.7096V63.3292Z" fill="white"/>
<path d="M45.1493 74.4948C47.7879 74.4948 49.9346 72.3482 49.9346 69.7096V63.3292C49.6932 56.9881 40.6032 56.9929 40.3641 63.3292V69.7096C40.3641 72.3482 42.5107 74.4948 45.1493 74.4948ZM43.5542 63.3292C43.6348 61.2156 46.6647 61.2172 46.7444 63.3292V69.7096C46.6639 71.8232 43.634 71.8216 43.5542 69.7096V63.3292Z" fill="white"/>
<path d="M53.9368 74.2902C54.6905 74.7182 55.6746 74.4571 56.109 73.682L63.2869 60.9213C63.7188 60.1536 63.4464 59.1811 62.6787 58.7492C61.9111 58.3171 60.9384 58.5896 60.5065 59.3574L53.3286 72.118C52.8965 72.8858 53.1689 73.8583 53.9368 74.2902Z" fill="white"/>
<path d="M54.7199 61.7351C56.834 61.6566 56.8324 58.6228 54.7199 58.5449H54.7188C52.6045 58.6237 52.6074 61.6576 54.7199 61.7351Z" fill="white"/>
<path d="M61.8967 71.3047H61.8955C61.0147 71.3047 60.301 72.019 60.301 72.8998C60.3795 75.0129 63.4138 75.0131 63.4918 72.8998C63.4918 72.019 62.7776 71.3047 61.8967 71.3047Z" fill="white"/>
<path d="M78.9634 59.3418L81.9559 46.1363C82.0631 45.6633 81.9492 45.1673 81.6466 44.7883C81.344 44.4095 80.8854 44.1887 80.4004 44.1887H72.8947C80.4107 23.047 63.6368 -0.379884 41.1608 0.00469092C18.689 -0.380681 1.90627 23.0492 9.42757 44.1887H1.9219C1.43684 44.1887 0.978251 44.4095 0.675664 44.7883C0.373076 45.1673 0.259187 45.6633 0.366377 46.1363L3.35891 59.3418L0.366377 72.5475C0.122648 73.51 0.929442 74.5202 1.92206 74.4951H10.8545V80.0779C10.8545 80.9587 11.5688 81.673 12.4496 81.673H69.8727C70.7535 81.673 71.4677 80.9587 71.4677 80.0779V74.4951H80.4004C81.393 74.5202 82.1998 73.51 81.9561 72.5475L78.9634 59.3418ZM41.161 3.19454C65.7012 3.00744 80.2405 31.6882 65.642 51.3664H16.6801C2.07758 31.6835 16.6294 3.00489 41.161 3.19454ZM3.91879 71.305L6.54988 59.6943C6.60236 59.4623 6.60236 59.2214 6.54988 58.9893L3.91879 47.3789H10.6843C11.3082 48.7537 12.0242 50.087 12.8285 51.3664H12.4493C11.5685 51.3664 10.8542 52.0807 10.8542 52.9615V71.305H3.91879ZM68.2774 78.4828H14.0445V54.5566H68.2774V78.4828ZM75.7721 59.6943L78.4032 71.305H71.4676V52.9615C71.4676 52.0807 70.7533 51.3664 69.8725 51.3664H69.4935C70.2978 50.087 71.0138 48.7537 71.6376 47.3789H78.4032L75.7721 58.9893C75.7196 59.2214 75.7196 59.4623 75.7721 59.6943Z" fill="white"/>
<path d="M27.6027 44.0291H49.9338C54.3315 44.0291 57.9093 40.4513 57.9093 36.0537V26.4832C57.9093 23.8446 55.7626 21.6981 53.124 21.6981H45.1486C45.1486 17.3004 41.5708 13.7227 37.1732 13.7227H35.5781C34.6973 13.7227 33.983 14.4369 33.983 15.3177V24.8882H27.6027C26.7218 24.8882 26.0076 25.6025 26.0076 26.4833V42.434C26.0076 43.3148 26.7217 44.0291 27.6027 44.0291ZM37.1732 16.9128C39.8117 16.9128 41.9584 19.0595 41.9584 21.6981V23.2932C41.9584 24.174 42.6727 24.8882 43.5535 24.8882H53.124C54.0035 24.8882 54.7191 25.6036 54.7191 26.4832V36.0537C54.7191 38.6923 52.5724 40.8389 49.9338 40.8389H37.1732V16.9128ZM29.1977 28.0784H33.983V40.8389H29.1977V28.0784Z" fill="white"/>
</svg>
