<svg width="72" height="72" viewBox="0 0 72 72" fill="none" xmlns="http://www.w3.org/2000/svg">
<path d="M35.7495 57.4783C53.2386 57.5204 63.7612 37.3027 53.3182 22.9838C52.9057 22.412 52.1058 22.2841 51.536 22.6976C50.9643 23.1105 50.8365 23.9094 51.2499 24.4807C53.6388 27.785 54.9013 31.6867 54.9013 35.7643C54.9013 42.0132 51.8819 47.5557 47.2406 51.0553C47.2756 49.2421 47.2435 47.2507 46.5809 45.5723C45.5835 42.669 43.2832 40.1408 40.4682 38.9141C42.5038 37.4437 43.836 35.0564 43.836 32.3584C43.4587 21.6555 28.0418 21.6511 27.663 32.3585C27.663 35.067 29.0053 37.4628 31.0544 38.9317C28.2446 40.1962 25.9782 42.5449 24.9174 45.5729C24.3938 47.1621 26.7394 47.996 27.3276 46.4173C30.0563 38.5234 41.4739 38.5273 44.1758 46.4294C44.8931 48.1194 44.6485 50.8852 44.687 52.6966C42.0163 54.1132 38.9771 54.9237 35.7495 54.9237C10.3448 53.8727 10.3469 17.6545 35.7496 16.6049C39.8255 16.6049 43.7257 17.8678 47.0286 20.2578C47.6015 20.6725 48.3995 20.544 48.811 19.9715C49.2243 19.4002 49.0965 18.6013 48.5248 18.1884C44.7843 15.481 40.3666 14.0503 35.7495 14.0503C6.95615 15.2419 6.96087 56.2894 35.7495 57.4783ZM35.7495 26.8232C43.0613 27.0555 43.0603 37.6616 35.7494 37.8929C28.437 37.6605 28.4394 27.0544 35.7495 26.8232Z" fill="#CFDE29"/>
<path d="M7.75298 13.7047L5.75738 15.7017C4.95193 16.4546 5.55622 17.9202 6.66015 17.8821L16.5982 17.8821C17.3033 17.8821 17.875 17.3102 17.875 16.6048V6.66275C17.875 6.14634 17.5639 5.68047 17.087 5.48275C16.6088 5.28504 16.0614 5.39295 15.6955 5.75967L13.6993 7.75607L6.32033 0.374202C5.82159 -0.124734 5.01361 -0.124734 4.51487 0.374202L0.374054 4.51667C-0.124685 5.01561 -0.124685 5.8239 0.374054 6.32284L7.75298 13.7047ZM5.41761 3.08346L12.7965 10.4653C13.2953 10.9643 14.1033 10.9643 14.602 10.4653L15.3214 9.74622V15.3275H9.74235L10.4612 14.6078C10.9599 14.1089 10.9599 13.3006 10.4612 12.8016L3.08224 5.41976L5.41761 3.08346Z" fill="#CFDE29"/>
<path d="M4.51487 71.1545C5.01361 71.6534 5.82159 71.6534 6.32033 71.1545L13.6993 63.7726L15.6955 65.769C16.4483 66.5764 17.9128 65.9696 17.875 64.8659L17.875 54.9239C17.875 54.2185 17.3033 53.6466 16.5982 53.6466H6.6601C5.55773 53.612 4.95034 55.0708 5.75743 55.827L7.75298 57.824L0.374054 65.2059C-0.124685 65.7048 -0.124685 66.5131 0.374054 67.012L4.51487 71.1545ZM10.4612 58.7271C10.9599 58.2281 10.9599 57.4199 10.4612 56.9209L9.74234 56.2012H15.3214V61.7825L14.602 61.0634C14.1032 60.5644 13.2953 60.5644 12.7965 61.0634L5.4176 68.4452L3.08223 66.1089L10.4612 58.7271Z" fill="#CFDE29"/>
<path d="M66.985 0.374202C66.4863 -0.124734 65.6783 -0.124734 65.1795 0.374202L57.8006 7.75606L55.8044 5.75967C55.054 4.95481 53.586 5.55815 53.6249 6.6628L53.6249 16.6048C53.6249 17.3102 54.1966 17.8821 54.9017 17.8821H64.8398C65.9421 17.9168 66.5496 16.4577 65.7424 15.7017L63.7469 13.7047L71.1258 6.32284C71.6246 5.8239 71.6246 5.01561 71.1258 4.51667L66.985 0.374202ZM61.0387 12.8016C60.54 13.3006 60.54 14.1088 61.0387 14.6078L61.7575 15.3275H56.1785V9.74621L56.8979 10.4653C57.3966 10.9643 58.2046 10.9643 58.7033 10.4653L66.0823 3.08346L68.4176 5.41975L61.0387 12.8016Z" fill="#CFDE29"/>
<path d="M63.747 57.8236L65.7426 55.8266C66.5481 55.0739 65.9437 53.608 64.8398 53.6462C64.8399 53.6462 54.9018 53.6462 54.9018 53.6462C54.1967 53.6462 53.625 54.2181 53.625 54.9235V64.8656C53.625 65.382 53.9361 65.8479 54.413 66.0456C54.8912 66.2427 55.4386 66.1341 55.8045 65.7687L57.8007 63.7723L65.1797 71.1541C65.6784 71.6531 66.4864 71.6531 66.9851 71.1541L71.1259 67.0117C71.6247 66.5127 71.6247 65.7044 71.1259 65.2055L63.747 57.8236ZM66.0824 68.4449L58.7035 61.063C58.2047 60.5641 57.3967 60.5641 56.898 61.063L56.1786 61.7821V56.2008H61.7576L61.0388 56.9205C60.5401 57.4195 60.5401 58.2278 61.0388 58.7267L68.4178 66.1086L66.0824 68.4449Z" fill="#CFDE29"/>
</svg>
