<svg width="56" height="54" viewBox="0 0 56 54" fill="none" xmlns="http://www.w3.org/2000/svg">
<path d="M23.7214 42.5908H22.9439C22.9132 42.5124 22.8809 42.4344 22.8476 42.3575L23.3972 41.8079C23.9233 41.2816 23.9233 40.4255 23.3971 39.8992L21.6755 38.1776C21.4205 37.9227 21.0816 37.7822 20.721 37.7822C20.3605 37.7824 20.0215 37.9227 19.7667 38.1775L19.2171 38.7271C19.1401 38.6936 19.0622 38.6614 18.9838 38.6307V37.8532C18.9838 37.1089 18.3783 36.5035 17.6341 36.5035H15.1992C14.455 36.5035 13.8496 37.1089 13.8496 37.8532V38.6307C13.7712 38.6614 13.6933 38.6936 13.6163 38.7271L13.0667 38.1775C12.8117 37.9227 12.4729 37.7824 12.1125 37.7822C11.752 37.7822 11.4128 37.9227 11.1581 38.1775L9.43622 39.8993C8.91012 40.4256 8.91012 41.2817 9.43633 41.808L9.98594 42.3575C9.95247 42.4345 9.9202 42.5125 9.88958 42.5908H9.11203C8.36784 42.5908 7.76245 43.1962 7.76245 43.9405V46.3754C7.76245 47.1197 8.36795 47.7251 9.11203 47.7251H9.88958C9.92031 47.8034 9.95247 47.8813 9.98594 47.9585L9.43644 48.508C9.18148 48.7628 9.04105 49.1019 9.04105 49.4624C9.04105 49.823 9.18148 50.162 9.43633 50.4167L11.1581 52.1386C11.6843 52.6649 12.5405 52.6648 13.0668 52.1385L13.6163 51.589C13.6934 51.6224 13.7713 51.6546 13.8497 51.6853V52.4628C13.8497 53.2071 14.4552 53.8125 15.1993 53.8125H17.6342C18.3784 53.8125 18.9839 53.2071 18.9839 52.4628V51.6853C19.0623 51.6546 19.1402 51.6224 19.2172 51.589L19.7668 52.1386C20.293 52.6648 21.1492 52.6648 21.6755 52.1385L23.3972 50.4168C23.6521 50.162 23.7926 49.823 23.7926 49.4624C23.7926 49.1019 23.6521 48.7628 23.3973 48.5081L22.8477 47.9584C22.8811 47.8814 22.9133 47.8035 22.944 47.7251H23.7215C24.4657 47.7251 25.071 47.1197 25.071 46.3754V43.9405C25.071 43.1963 24.4655 42.5908 23.7214 42.5908ZM23.4304 46.0845H22.7415C22.1742 46.0845 21.6637 46.4448 21.471 46.9811C21.4143 47.1386 21.35 47.2946 21.2795 47.4446C21.0375 47.9601 21.144 48.5754 21.5445 48.9755L22.0312 49.4623L20.721 50.7725L20.234 50.2856C19.8336 49.8854 19.2185 49.7789 18.7035 50.0206C18.5533 50.0911 18.3973 50.1555 18.2397 50.2123C17.7034 50.405 17.343 50.9156 17.343 51.4827V52.1716H15.4901V51.4828C15.4901 50.9156 15.1297 50.405 14.5936 50.2124C14.4359 50.1556 14.2798 50.0912 14.1298 50.0209C13.6148 49.7789 12.9997 49.8855 12.5988 50.2859L12.1121 50.7726L10.8019 49.4624L11.2885 48.9758C11.689 48.5754 11.7955 47.9601 11.5536 47.4449C11.483 47.2943 11.4185 47.1383 11.3621 46.9812C11.1693 46.445 10.6587 46.0846 10.0916 46.0846H9.40264V44.2316H10.0916C10.6588 44.2316 11.1694 43.8713 11.3621 43.3348C11.4184 43.1777 11.4828 43.022 11.5535 42.8716C11.7953 42.3563 11.6889 41.7412 11.2885 41.3405L10.8018 40.8538L12.112 39.5436L12.5987 40.0303C12.9991 40.4308 13.6143 40.5373 14.1298 40.2952C14.2797 40.2248 14.4355 40.1605 14.5931 40.1038C15.1295 39.9111 15.4899 39.4006 15.4899 38.8334V38.1444H17.3428V38.8334C17.3428 39.4007 17.7032 39.9112 18.2397 40.1039C18.3971 40.1605 18.5529 40.2248 18.703 40.2954C19.2186 40.5374 19.8337 40.4308 20.2339 40.0303L20.7207 39.5436L22.0309 40.8538L21.5441 41.3404C21.1437 41.741 21.0372 42.3562 21.2792 42.8717C21.3497 43.0214 21.414 43.1773 21.4705 43.3346C21.6631 43.871 22.1738 44.2315 22.7411 44.2315H23.4301V46.0845H23.4304Z" fill="black"/>
<path d="M18.2121 42.1732C17.9572 41.9181 17.6182 41.7777 17.2576 41.7777H15.5755C15.2149 41.7777 14.876 41.9181 14.6211 42.173L13.4317 43.3624C13.1767 43.6174 13.0364 43.9564 13.0364 44.3169V45.999C13.0364 46.3592 13.1767 46.6981 13.4317 46.9534L14.6212 48.143C14.8762 48.3977 15.215 48.5381 15.5754 48.5381H17.2575C17.6179 48.5381 17.9568 48.3977 18.2119 48.1429L19.4015 46.9532C19.6563 46.6983 19.7966 46.3594 19.7966 45.999V44.3169C19.7966 43.9562 19.6562 43.6173 19.4013 43.3624L18.2121 42.1732ZM18.1561 45.8784L17.1372 46.8973H15.6959L14.677 45.8784V44.4374L15.696 43.4183H17.1371L18.1561 44.4374V45.8784Z" fill="black"/>
<path d="M27.884 44.3376H26.7903C26.3373 44.3376 25.97 44.7048 25.97 45.158C25.97 45.6111 26.3373 45.9783 26.7903 45.9783H27.884C28.3371 45.9783 28.7043 45.6111 28.7043 45.158C28.7043 44.7048 28.3371 44.3376 27.884 44.3376Z" fill="black"/>
<path d="M31.7122 44.3376H30.6184C30.1653 44.3376 29.7981 44.7048 29.7981 45.158C29.7981 45.6111 30.1653 45.9783 30.6184 45.9783H31.7122C32.1653 45.9783 32.5325 45.6111 32.5325 45.158C32.5325 44.7048 32.1653 44.3376 31.7122 44.3376Z" fill="black"/>
<path d="M39.3684 44.3376H38.2747C37.8215 44.3376 37.4543 44.7048 37.4543 45.158C37.4543 45.6111 37.8215 45.9783 38.2747 45.9783H39.3684C39.8215 45.9783 40.1887 45.6111 40.1887 45.158C40.1887 44.7048 39.8215 44.3376 39.3684 44.3376Z" fill="black"/>
<path d="M35.5403 44.3376H34.4465C33.9934 44.3376 33.6262 44.7048 33.6262 45.158C33.6262 45.6111 33.9934 45.9783 34.4465 45.9783H35.5403C35.9934 45.9783 36.3606 45.6111 36.3606 45.158C36.3606 44.7048 35.9934 44.3376 35.5403 44.3376Z" fill="black"/>
<path d="M6.27659 44.3376H2.51333C2.03219 44.3376 1.64063 43.9461 1.64063 43.4649V15.6607C1.64063 15.1795 2.03219 14.788 2.51333 14.788H9.82144L8.4875 16.1218C8.16714 16.4422 8.16714 16.9616 8.4875 17.2819C8.64762 17.442 8.85763 17.5221 9.06752 17.5221C9.27741 17.5221 9.48741 17.442 9.64753 17.2819L12.3819 14.5475C12.7023 14.2271 12.7023 13.7078 12.3819 13.3874L9.64753 10.653C9.32717 10.3328 8.80775 10.3328 8.4875 10.653C8.16714 10.9735 8.16714 11.4928 8.4875 11.8132L9.82155 13.1471H2.51333C1.12744 13.1472 0 14.2748 0 15.6607V43.465C0 44.8508 1.12744 45.9783 2.51333 45.9783H6.27659C6.72963 45.9783 7.09691 45.6111 7.09691 45.158C7.09691 44.7049 6.72963 44.3376 6.27659 44.3376Z" fill="black"/>
<path d="M42.9719 14.7878H46.9616C47.4428 14.7878 47.8343 15.1793 47.8343 15.6605V21.5412C46.4207 21.9064 45.3734 23.1924 45.3734 24.7187C45.3734 26.2449 46.4207 27.5309 47.8343 27.8961V33.9538L46.5004 32.6198C46.1799 32.2995 45.6606 32.2995 45.3402 32.6198C45.0199 32.9403 45.0199 33.4596 45.3402 33.7799L48.0746 36.5143C48.2349 36.6744 48.4449 36.7545 48.6547 36.7545C48.8646 36.7545 49.0746 36.6744 49.2349 36.5143L51.9692 33.7799C52.2896 33.4595 52.2896 32.9402 51.9692 32.6198C51.6488 32.2995 51.1295 32.2995 50.8091 32.6198L49.4752 33.9538V27.8961C50.8888 27.5309 51.9361 26.2449 51.9361 24.7187C51.9361 23.1924 50.8888 21.9064 49.4752 21.5412V15.6605C49.4752 14.2747 48.3476 13.1472 46.9618 13.1472H42.9722C42.519 13.1472 42.1519 13.5144 42.1519 13.9675C42.1519 14.4207 42.5188 14.7878 42.9719 14.7878ZM50.2952 24.7187C50.2952 25.6233 49.5592 26.3593 48.6545 26.3593C47.7499 26.3593 47.0139 25.6233 47.0139 24.7187C47.0139 23.814 47.7499 23.078 48.6545 23.078C49.5592 23.078 50.2952 23.814 50.2952 24.7187Z" fill="black"/>
<path d="M48.6546 37.8124C45.4049 37.8124 42.5824 39.8985 41.631 43.0034C41.4982 43.4365 41.7418 43.8953 42.175 44.0281C42.608 44.1611 43.0669 43.9174 43.1996 43.484C43.9384 41.073 46.1306 39.453 48.6546 39.453C51.8002 39.453 54.3594 42.0122 54.3594 45.1578C54.3594 48.3034 51.8002 50.8626 48.6546 50.8626C46.1306 50.8626 43.9384 49.2425 43.1996 46.8315C43.0668 46.3983 42.6079 46.1545 42.175 46.2875C41.7418 46.4203 41.4982 46.879 41.631 47.3121C42.5824 50.4171 45.4049 52.5032 48.6546 52.5032C52.7049 52.5032 56 49.208 56 45.1578C56 41.1075 52.7049 37.8124 48.6546 37.8124Z" fill="black"/>
<path d="M47.9852 48.175C48.2027 48.175 48.4113 48.0886 48.5653 47.9349L52.465 44.0351C52.7854 43.7146 52.7854 43.1953 52.465 42.875C52.1446 42.5547 51.6253 42.5547 51.3049 42.875L47.9852 46.1948L46.0493 44.2589C45.729 43.9384 45.2095 43.9385 44.8893 44.2588C44.5688 44.5791 44.5688 45.0985 44.8892 45.4188L47.4051 47.9349C47.5589 48.0886 47.7675 48.175 47.9852 48.175Z" fill="black"/>
<path d="M8.80856 26.4429C8.35553 26.4429 7.98825 26.8101 7.98825 27.2632V30.5568H7.22021C6.76718 30.5568 6.3999 30.924 6.3999 31.3772C6.3999 31.8303 6.76718 32.1975 7.22021 32.1975H19.3842C19.8373 32.1975 20.2046 31.8303 20.2046 31.3772C20.2046 30.924 19.8373 30.5568 19.3842 30.5568H18.6162V28.9424C18.6162 28.4892 18.2489 28.122 17.7959 28.122C17.3429 28.122 16.9756 28.4892 16.9756 28.9424V30.5568H15.6204V25.5841C15.6204 25.131 15.2532 24.7638 14.8001 24.7638C14.3471 24.7638 13.9798 25.131 13.9798 25.5841V30.5568H12.6247V28.1028C12.6247 27.6497 12.2574 27.2825 11.8043 27.2825C11.3513 27.2825 10.984 27.6497 10.984 28.1028V30.5568H9.62887V27.2632C9.62887 26.8101 9.26159 26.4429 8.80856 26.4429Z" fill="black"/>
<path d="M40.43 7.35722L27.8776 0.109922C27.6239 -0.0366406 27.311 -0.0366406 27.0573 0.109922L14.5047 7.35722C14.2509 7.50378 14.0945 7.77448 14.0945 8.06761V18.539H5.51633C4.61563 18.539 3.88281 19.2718 3.88281 20.1726V25.8124C3.88281 26.2655 4.25009 26.6327 4.70312 26.6327C5.15616 26.6327 5.52344 26.2655 5.52344 25.8124V23.7975H20.9611L20.9676 33.5817L5.52344 33.589V29.6405C5.52344 29.1874 5.15616 28.8202 4.70312 28.8202C4.25009 28.8202 3.88281 29.1874 3.88281 29.6405V33.589C3.88281 34.4897 4.61563 35.2225 5.51633 35.2225H20.9676C21.8683 35.2225 22.6011 34.4898 22.6011 33.589V27.947L27.0573 30.5197C27.1842 30.593 27.3258 30.6296 27.4675 30.6296C27.6091 30.6296 27.7507 30.593 27.8776 30.5197L31.4037 28.4839C31.7961 28.2574 31.9305 27.7557 31.704 27.3633C31.4776 26.9709 30.9757 26.8367 30.5834 27.0631L28.2878 28.3885V15.7885L39.1997 9.4885V22.0885L33.8988 25.1489C33.5065 25.3754 33.3721 25.8771 33.5986 26.2695C33.7505 26.5326 34.0262 26.6797 34.3097 26.6797C34.4489 26.6797 34.59 26.6443 34.7191 26.5697L40.4301 23.2725C40.6839 23.1259 40.8403 22.8552 40.8403 22.5621V8.06761C40.8402 7.77448 40.6839 7.50367 40.43 7.35722ZM20.9605 22.1569H5.52136L5.51633 20.1796L20.9605 20.1726V22.1569ZM26.6471 28.3884L22.6011 26.0525V20.1725C22.6011 19.2718 21.8683 18.5388 20.9676 18.5388H15.7352V9.48839L26.6473 15.7884V28.3884H26.6471ZM27.4675 14.3675L16.5554 8.0675L27.4675 1.76739L38.3794 8.0675L27.4675 14.3675Z" fill="black"/>
</svg>
