<svg width="48" height="48" viewBox="0 0 48 48" fill="none" xmlns="http://www.w3.org/2000/svg">
<path d="M6.09242 12.1581V8.73977C6.09242 8.31223 6.43906 7.96558 6.86661 7.96558C7.29416 7.96558 7.64081 8.31223 7.64081 8.73977V12.1581C7.64081 12.5857 7.29416 12.9323 6.86661 12.9323C6.43906 12.9323 6.09242 12.5857 6.09242 12.1581ZM18.3192 38.1535C18.3192 42.0295 15.1658 45.1829 11.2898 45.1829C7.41377 45.1829 4.26039 42.0295 4.26039 38.1535C4.26039 34.2775 7.41377 31.1241 11.2898 31.1241C15.1658 31.1241 18.3192 34.2775 18.3192 38.1535ZM16.4877 39.8883C15.9012 40.0213 15.3668 40.0792 14.8754 40.0792C13.2132 40.0792 12.0374 39.4238 10.9575 38.8218C9.51406 38.0174 8.25561 37.317 5.80964 38.1855C5.82706 41.193 8.27835 43.6345 11.2898 43.6345C13.7057 43.6345 15.7602 42.0626 16.4877 39.8883ZM16.7708 38.1535C16.7708 35.1314 14.312 32.6725 11.2898 32.6725C8.84865 32.6725 6.77594 34.277 6.06881 36.4866C8.70223 35.7942 10.2893 36.6768 11.7113 37.4693C13.1393 38.2653 14.3847 38.9591 16.7693 38.2097C16.7695 38.191 16.7708 38.1724 16.7708 38.1535ZM48 32.0506V47.2258C48 47.6534 47.6534 48 47.2258 48H2.79571C1.2541 48 0 46.7459 0 45.2043V26.107C0 24.5828 1.22613 23.3405 2.74384 23.3126V20.4612V18.2158V2.32258C2.74384 1.04197 3.78581 0 5.06642 0H26.2642C27.5448 0 28.5868 1.04187 28.5868 2.32258V18.2158V20.4612V31.2765H31.7683V25.0254C31.7683 23.1554 32.8896 21.54 34.5024 20.7982C32.8523 19.6591 31.7683 17.7558 31.7683 15.6035V10.1055H30.607C30.1794 10.1055 29.8328 9.7589 29.8328 9.33136C29.8328 8.90381 30.1794 8.55716 30.607 8.55716H31.8175C32.2006 5.44229 34.861 3.02206 38.0776 3.02206C41.2943 3.02206 43.9546 5.44239 44.3378 8.55716H46.6107C47.0383 8.55716 47.3849 8.90381 47.3849 9.33136V12.2164C47.3849 14.1046 46.1219 15.7228 44.3564 16.2202C44.1716 18.1168 43.1434 19.7692 41.6529 20.7982C43.2657 21.54 44.387 23.1554 44.387 25.0254V31.2765H47.2258C47.6534 31.2765 48 31.6231 48 32.0506ZM33.3165 25.7419V27.1172H42.8385V25.7419H33.3165ZM45.8363 10.1056H44.3867V14.5565C45.2525 14.1261 45.8363 13.2339 45.8363 12.2166V10.1056ZM33.3805 8.55726H42.7745C42.4035 6.29913 40.439 4.57055 38.0774 4.57055C35.7159 4.57055 33.7514 6.29913 33.3805 8.55726ZM38.0774 20.3646C40.7026 20.3646 42.8384 18.2289 42.8384 15.6037V10.1057H33.3164V15.6037C33.3165 18.2288 35.4523 20.3646 38.0774 20.3646ZM33.4376 24.1935H42.7174C42.336 22.8951 41.0943 21.913 39.668 21.913H36.4869C35.0606 21.913 33.8189 22.8951 33.4376 24.1935ZM33.3165 31.2765H42.8385V28.6656H33.3165V31.2765ZM27.0383 31.2765V21.2354H4.29223V23.3114H19.7841C21.3257 23.3114 22.5798 24.5655 22.5798 26.1071V45.2044C22.5798 45.6525 22.4733 46.0759 22.2851 46.4517H23.5558V32.0506C23.5558 31.6231 23.9025 31.2765 24.33 31.2765H27.0383ZM8.26471 24.8597V27.3506H21.0314V26.107C21.0314 25.4193 20.4718 24.8596 19.784 24.8596H8.26471V24.8597ZM4.29223 19.687H27.0383V18.99H4.29223V19.687ZM4.29223 2.32258V17.4416H27.0383V2.32258C27.0383 1.89571 26.6911 1.54839 26.2641 1.54839H5.06642C4.63945 1.54839 4.29223 1.89561 4.29223 2.32258ZM1.54839 26.107V27.3506H6.71632V24.8597H2.79571C2.10794 24.8597 1.54839 25.4193 1.54839 26.107ZM19.784 46.4516C20.4718 46.4516 21.0314 45.8921 21.0314 45.2043V28.899H1.54839V45.2043C1.54839 45.8921 2.10794 46.4516 2.79571 46.4516H19.784ZM46.4516 32.8248H25.1042V46.4516H26.2641H46.4516V32.8248ZM26.459 44.3226V34.9539C26.459 34.5263 26.8057 34.1797 27.2332 34.1797H40.1303C40.5579 34.1797 40.9045 34.5263 40.9045 34.9539V44.3226C40.9045 44.7501 40.5579 45.0968 40.1303 45.0968H27.2332C26.8056 45.0968 26.459 44.7501 26.459 44.3226ZM28.0074 43.5484H39.3561V35.7281H28.0074V43.5484ZM41.412 36.9296C41.412 35.6802 42.4285 34.6635 43.6781 34.6635C44.9276 34.6635 45.9441 35.6802 45.9441 36.9296C45.9441 38.1791 44.9276 39.1957 43.6781 39.1957C42.4285 39.1957 41.412 38.1792 41.412 36.9296ZM42.9604 36.9296C42.9604 37.3253 43.2824 37.6473 43.6781 37.6473C44.0738 37.6473 44.3957 37.3253 44.3957 36.9296C44.3957 36.5339 44.0738 36.2119 43.6781 36.2119C43.2824 36.2119 42.9604 36.534 42.9604 36.9296ZM41.412 42.3468C41.412 41.0974 42.4285 40.0808 43.6781 40.0808C44.9276 40.0808 45.9441 41.0974 45.9441 42.3468C45.9441 43.5963 44.9275 44.6129 43.6781 44.6129C42.4286 44.6129 41.412 43.5963 41.412 42.3468ZM42.9604 42.3468C42.9604 42.7425 43.2824 43.0645 43.6781 43.0645C44.0738 43.0645 44.3957 42.7425 44.3957 42.3468C44.3957 41.9511 44.0738 41.6292 43.6781 41.6292C43.2824 41.6292 42.9604 41.9511 42.9604 42.3468ZM36.4086 36.9114C36.1063 36.6092 35.6161 36.6092 35.3138 36.9114L30.955 41.2703C30.6526 41.5726 30.6526 42.0628 30.955 42.3651C31.1061 42.5163 31.3042 42.5919 31.5024 42.5919C31.7006 42.5919 31.8987 42.5163 32.0499 42.365L36.4086 38.0063C36.7109 37.7039 36.7109 37.2138 36.4086 36.9114ZM31.6571 39.6614L33.7051 37.6134C34.0074 37.3111 34.0074 36.8209 33.7051 36.5186C33.4027 36.2164 32.9125 36.2163 32.6102 36.5187L30.5622 38.5667C30.2598 38.8691 30.2598 39.3592 30.5622 39.6615C30.7133 39.8127 30.9114 39.8883 31.1096 39.8883C31.3078 39.8883 31.5059 39.8126 31.6571 39.6614ZM35.7065 39.6149L33.6585 41.6629C33.356 41.9654 33.3561 42.4555 33.6585 42.7578C33.8096 42.909 34.0077 42.9846 34.2059 42.9846C34.4041 42.9846 34.6022 42.909 34.7534 42.7578L36.8014 40.7098C37.1038 40.4074 37.1037 39.9172 36.8014 39.6149C36.4991 39.3127 36.0088 39.3127 35.7065 39.6149Z" fill="black"/>
</svg>
