<svg id="Layer_1" enable-background="new 0 0 512 512" height="512" viewBox="0 0 512 512" width="512" xmlns="http://www.w3.org/2000/svg"><path d="m418.908 202.143c-1.516-1.661-3.661-2.608-5.91-2.608h-3.7c-4.571-40.033-31.53-70.375-63.842-70.375-21.686 0-41.608 13.688-53.506 36.24-7.586-3.12-15.595-4.772-23.778-4.772-24.248 0-46.986 14.456-61.627 38.908h-46.81l237.069-136.872c2.834-1.636 4.803-4.214 5.543-7.258.693-2.85.247-5.856-1.259-8.463l-16.098-27.884c-8.113-14.051-28.277-13.605-43.085-5.058l-69.741 40.265-5.297-9.175c-4.75-8.225-15.305-11.051-23.53-6.304l-61.675 35.608c-8.225 4.749-11.053 15.304-6.304 23.529l5.297 9.175-69.741 40.265c-14.487 8.364-25.167 25.975-17.162 39.842l16.098 27.882c1.506 2.609 3.887 4.5 6.704 5.324 1.03.301 2.085.451 3.141.451 1.979 0 3.958-.532 5.785-1.56l23.453 255.359c1.539 16.725 15.569 29.338 32.636 29.338h182.292c17.066 0 31.097-12.612 32.637-29.339l24.467-266.395c.205-2.239-.541-4.462-2.057-6.123zm-73.451-56.984c23.664 0 43.551 23.292 47.718 54.375h-63.375c-6.534-10.914-14.681-19.834-23.857-26.367 9.091-17.43 23.803-28.008 39.514-28.008zm-77.284 31.468c15.753 0 30.887 8.367 42.27 22.908h-84.54c11.383-14.541 26.517-22.908 42.27-22.908zm-78.959-86.704c-.203-.351-.172-.697-.111-.925.062-.229.208-.544.56-.747l61.674-35.607c.565-.328 1.347-.117 1.674.448l5.297 9.175-63.796 36.833zm-81.606 89.283c-2.504-4.337 3.096-13.246 11.306-17.985l230.991-133.364c8.362-4.828 18.678-5.215 21.229-.799l13.835 23.963-263.526 152.147zm272.957 293.989c-.777 8.44-7.958 14.805-16.704 14.805h-182.292c-8.746 0-15.927-6.364-16.703-14.803l-23.665-257.663h263.029zm-193.429-58.862c.378 4.118 3.832 7.269 7.966 7.269h27.752c2.249 0 4.394-.947 5.91-2.608 1.516-1.662 2.262-3.884 2.057-6.124l-13.656-148.681c-.378-4.118-3.832-7.269-7.966-7.269h-27.753c-2.249 0-4.394.947-5.91 2.608-1.516 1.662-2.262 3.884-2.057 6.124zm14.764-141.413 12.186 132.681h-11.685l-12.186-132.681zm56.813 148.682h27.636c4.41 0 7.989-3.569 8-7.98l.375-148.681c.005-2.125-.835-4.165-2.336-5.67-1.501-1.504-3.539-2.35-5.664-2.35h-27.637c-4.41 0-7.989 3.569-8 7.98l-.375 148.681c-.005 2.125.835 4.165 2.336 5.67 1.502 1.504 3.54 2.35 5.665 2.35zm8.355-148.682h11.637l-.335 132.681h-11.636zm50.552 148.682h27.752c4.135 0 7.588-3.151 7.966-7.269l13.656-148.681c.206-2.24-.541-4.462-2.057-6.124-1.516-1.661-3.661-2.608-5.91-2.608h-27.753c-4.135 0-7.588 3.151-7.966 7.269l-13.655 148.681c-.206 2.239.541 4.462 2.057 6.124 1.516 1.661 3.661 2.608 5.91 2.608zm20.954-148.682h11.686l-12.186 132.681h-11.685z"/></svg>