<svg xmlns="http://www.w3.org/2000/svg" version="1.1" xmlns:xlink="http://www.w3.org/1999/xlink" width="512" height="512" x="0" y="0" viewBox="0 0 100 100" style="enable-background:new 0 0 512 512" xml:space="preserve" class=""><g><path d="M65.946 97.5c-.416 0-.834-.036-1.25-.11-14.298-2.575-28.552-10.37-40.134-21.951S5.185 49.603 2.612 35.304c-.486-2.7.645-5.506 2.88-7.151a80.235 80.235 0 0 1 9.167-5.818c2.134-1.16 4.65-1.226 6.735-.175 7.128 3.593 11.853 9.577 14.043 17.786.594 2.221.065 4.63-1.415 6.443L29.3 52.168c-.757.927-.849 2.205-.228 3.18a50.27 50.27 0 0 0 15.58 15.58c.976.622 2.254.529 3.182-.227l5.778-4.722c1.813-1.48 4.219-2.008 6.444-1.415 8.208 2.19 14.193 6.916 17.786 14.044 1.051 2.083.986 4.6-.175 6.734a80.25 80.25 0 0 1-5.82 9.166 7.37 7.37 0 0 1-5.9 2.992zM18.233 25.938c-.472 0-.96.124-1.41.37a75.702 75.702 0 0 0-8.648 5.488c-.857.631-1.293 1.693-1.11 2.706 2.41 13.4 9.76 26.802 20.695 37.738 10.936 10.935 24.338 18.285 37.738 20.696 1.015.182 2.075-.254 2.705-1.11a75.716 75.716 0 0 0 5.49-8.648c.45-.828.492-1.776.109-2.533-3.03-6.011-7.908-9.842-14.914-11.711-.821-.218-1.726-.015-2.416.549l-5.777 4.72c-2.441 1.995-5.847 2.213-8.47.544a54.77 54.77 0 0 1-16.972-16.972c-1.669-2.625-1.451-6.03.544-8.47l4.722-5.778c.562-.69.767-1.591.547-2.414-1.869-7.006-5.7-11.884-11.71-14.915a2.494 2.494 0 0 0-1.123-.26zM95.202 52.376l-.097-.002a2.262 2.262 0 0 1-2.165-2.354c.483-11.526-3.902-22.799-12.03-30.929a41.271 41.271 0 0 0-30.93-12.03c-1.201.03-2.302-.916-2.354-2.166a2.261 2.261 0 0 1 2.165-2.354c12.788-.542 25.294 4.33 34.317 13.352 9.021 9.021 13.888 21.53 13.352 34.316a2.262 2.262 0 0 1-2.258 2.167z" fill="#cfde29" opacity="1" data-original="#000000" class=""></path><path d="M83.167 52.376a2.261 2.261 0 0 1-2.26-2.394 29.254 29.254 0 0 0-8.496-22.393c-5.891-5.89-14.058-8.979-22.392-8.496a2.25 2.25 0 0 1-2.39-2.125 2.261 2.261 0 0 1 2.125-2.39 33.773 33.773 0 0 1 25.855 9.813 33.777 33.777 0 0 1 9.814 25.856 2.261 2.261 0 0 1-2.256 2.129z" fill="#cfde29" opacity="1" data-original="#000000" class=""></path><path d="M71.147 52.376a2.262 2.262 0 0 1-2.255-2.472 17.218 17.218 0 0 0-4.98-13.816 17.213 17.213 0 0 0-13.816-4.98 2.262 2.262 0 1 1-.42-4.504 21.725 21.725 0 0 1 17.435 6.286 21.726 21.726 0 0 1 6.285 17.434 2.261 2.261 0 0 1-2.25 2.052z" fill="#cfde29" opacity="1" data-original="#000000" class=""></path></g></svg>