<svg xmlns="http://www.w3.org/2000/svg" version="1.1" xmlns:xlink="http://www.w3.org/1999/xlink" width="512" height="512" x="0" y="0" viewBox="0 0 682.667 682.667" style="enable-background:new 0 0 512 512" xml:space="preserve" class=""><g><defs><clipPath id="a" clipPathUnits="userSpaceOnUse"><path d="M0 512h512V0H0Z" fill="#cfde29" opacity="1" data-original="#000000"></path></clipPath></defs><path d="M0 0h398.824" style="stroke-width:15;stroke-linecap:round;stroke-linejoin:round;stroke-miterlimit:10;stroke-dasharray:none;stroke-opacity:1" transform="matrix(1.33333 0 0 -1.33333 75.45 113.56)" fill="none" stroke="#cfde29" stroke-width="15" stroke-linecap="round" stroke-linejoin="round" stroke-miterlimit="10" stroke-dasharray="none" stroke-opacity="" data-original="#000000" opacity="1"></path><path d="M0 0h224.896" style="stroke-width:15;stroke-linecap:round;stroke-linejoin:round;stroke-miterlimit:10;stroke-dasharray:none;stroke-opacity:1" transform="matrix(1.33333 0 0 -1.33333 191.97 205.78)" fill="none" stroke="#cfde29" stroke-width="15" stroke-linecap="round" stroke-linejoin="round" stroke-miterlimit="10" stroke-dasharray="none" stroke-opacity="" data-original="#000000" opacity="1"></path><g clip-path="url(#a)" transform="matrix(1.33333 0 0 -1.33333 0 682.667)"><path d="M0 0h-135.493a3.574 3.574 0 0 0-3.571 3.572v34.186a3.574 3.574 0 0 0 3.571 3.571h280.566c1.956 0 3.572-1.616 3.572-3.571V3.572c0-1.956-1.616-3.572-3.572-3.572Z" style="stroke-width:15;stroke-linecap:round;stroke-linejoin:round;stroke-miterlimit:10;stroke-dasharray:none;stroke-opacity:1" transform="translate(250.246 184.751)" fill="none" stroke="#cfde29" stroke-width="15" stroke-linecap="round" stroke-linejoin="round" stroke-miterlimit="10" stroke-dasharray="none" stroke-opacity="" data-original="#000000" opacity="1"></path><path d="M0 0v.114" style="stroke-width:15;stroke-linecap:round;stroke-linejoin:round;stroke-miterlimit:10;stroke-dasharray:none;stroke-opacity:1" transform="translate(360.426 465.665)" fill="none" stroke="#cfde29" stroke-width="15" stroke-linecap="round" stroke-linejoin="round" stroke-miterlimit="10" stroke-dasharray="none" stroke-opacity="" data-original="#000000" opacity="1"></path><path d="M0 0v.113" style="stroke-width:15;stroke-linecap:round;stroke-linejoin:round;stroke-miterlimit:10;stroke-dasharray:none;stroke-opacity:1" transform="translate(321.904 465.779)" fill="none" stroke="#cfde29" stroke-width="15" stroke-linecap="round" stroke-linejoin="round" stroke-miterlimit="10" stroke-dasharray="none" stroke-opacity="" data-original="#000000" opacity="1"></path><path d="M0 0v.113" style="stroke-width:15;stroke-linecap:round;stroke-linejoin:round;stroke-miterlimit:10;stroke-dasharray:none;stroke-opacity:1" transform="translate(398.948 465.467)" fill="none" stroke="#cfde29" stroke-width="15" stroke-linecap="round" stroke-linejoin="round" stroke-miterlimit="10" stroke-dasharray="none" stroke-opacity="" data-original="#000000" opacity="1"></path><path d="M0 0h163.866" style="stroke-width:15;stroke-linecap:round;stroke-linejoin:round;stroke-miterlimit:10;stroke-dasharray:none;stroke-opacity:1" transform="translate(111.976 465.665)" fill="none" stroke="#cfde29" stroke-width="15" stroke-linecap="round" stroke-linejoin="round" stroke-miterlimit="10" stroke-dasharray="none" stroke-opacity="" data-original="#000000" opacity="1"></path><path d="M0 0v226.432c0 6.067 4.932 10.999 10.998 10.999h376.828c6.067 0 10.998-4.932 10.998-10.999v-475.003c0-6.038-4.931-10.998-10.998-10.998H10.998C4.932-259.569 0-254.609 0-248.571V-34.64" style="stroke-width:15;stroke-linecap:round;stroke-linejoin:round;stroke-miterlimit:10;stroke-dasharray:none;stroke-opacity:1" transform="translate(56.588 267.07)" fill="none" stroke="#cfde29" stroke-width="15" stroke-linecap="round" stroke-linejoin="round" stroke-miterlimit="10" stroke-dasharray="none" stroke-opacity="" data-original="#000000" opacity="1"></path><path d="m0 0-17.178 29.764 13.748 7.965c1.134.681 1.162 2.183-.198 3.119L-57.57 62.901c-.766.227-1.134.34-1.361.227-.226-.142-.312-.539-.482-1.304l-7.852-57.742c.114-1.644 1.446-2.381 2.608-1.701l13.748 7.909 17.206-29.764c.453-.794 1.304-.879 2.098-.425l15.448 8.929L-.681-2.041C.113-1.559.481-.793 0 0Z" style="stroke-width:15;stroke-linecap:round;stroke-linejoin:round;stroke-miterlimit:10;stroke-dasharray:none;stroke-opacity:1" transform="translate(382.025 87.267)" fill="none" stroke="#cfde29" stroke-width="15" stroke-linecap="round" stroke-linejoin="round" stroke-miterlimit="10" stroke-dasharray="none" stroke-opacity="" data-original="#000000" opacity="1"></path><path d="M0 0h67.321c2.296 0 4.195-1.899 4.195-4.224v-32.881c0-2.325-1.899-4.224-4.195-4.224H0c-2.296 0-4.195 1.899-4.195 4.224v32.881C-4.195-1.899-2.296 0 0 0Z" style="stroke-width:15;stroke-linecap:round;stroke-linejoin:round;stroke-miterlimit:10;stroke-dasharray:none;stroke-opacity:1" transform="translate(115.377 144.782)" fill="none" stroke="#cfde29" stroke-width="15" stroke-linecap="round" stroke-linejoin="round" stroke-miterlimit="10" stroke-dasharray="none" stroke-opacity="" data-original="#000000" opacity="1"></path><path d="M0 0h-121.235a3.575 3.575 0 0 0-3.572 3.571v34.186a3.575 3.575 0 0 0 3.572 3.572h280.566c1.956 0 3.571-1.616 3.571-3.572V3.571c0-1.955-1.615-3.571-3.571-3.571H34.609" style="stroke-width:15;stroke-linecap:round;stroke-linejoin:round;stroke-miterlimit:10;stroke-dasharray:none;stroke-opacity:1" transform="translate(235.988 264.745)" fill="none" stroke="#cfde29" stroke-width="15" stroke-linecap="round" stroke-linejoin="round" stroke-miterlimit="10" stroke-dasharray="none" stroke-opacity="" data-original="#000000" opacity="1"></path></g></g></svg>