<svg width="83" height="82" viewBox="0 0 83 82" fill="none" xmlns="http://www.w3.org/2000/svg">
<path d="M81.8186 39.2573L74.4536 31.5684C73.5358 30.6103 72.0157 30.5778 71.0578 31.4961C70.1003 32.4141 70.0679 33.9353 70.9856 34.8934L74.5334 38.5971H59.27C58.7854 34.9781 57.2223 31.6973 54.9162 29.0903C59.0327 22.7334 61.5947 15.6005 62.4619 8.13003L65.5216 11.4046C65.9945 11.9107 66.6346 12.1666 67.2766 12.1666C67.8642 12.1666 68.4529 11.9522 68.9161 11.5191C69.885 10.6129 69.9363 9.09241 69.0306 8.12298L62.1458 0.75437C61.2749 -0.21217 59.6523 -0.256854 58.7296 0.660359L51.0444 8.02881C50.0868 8.94683 50.0545 10.468 50.9722 11.426C51.4438 11.9185 52.0747 12.1663 52.7065 12.1663C53.3039 12.1663 53.9024 11.9445 54.368 11.4983L57.5849 8.41399C56.7423 14.6284 54.5943 20.5674 51.2414 25.9179C48.4343 24.09 45.0883 23.0268 41.4987 23.0268C37.9092 23.0268 34.563 24.0902 31.7561 25.9179C28.4031 20.5676 26.2551 14.6284 25.4126 8.41399L28.6295 11.4983C29.095 11.9446 29.6935 12.1663 30.291 12.1663C30.9227 12.1663 31.5535 11.9184 32.0253 11.426C32.943 10.468 32.9107 8.94699 31.9531 8.02881L24.2675 0.660519C23.3447 -0.256694 21.7222 -0.21201 20.8514 0.754531L13.9667 8.12282C13.0609 9.09225 13.1123 10.6128 14.0813 11.5189C14.5444 11.952 15.1332 12.1664 15.7208 12.1664C16.3625 12.1664 17.0028 11.9105 17.4758 11.4044L20.5354 8.12987C21.4026 15.6003 23.9647 22.7332 28.0812 29.0901C25.7751 31.6971 24.2119 34.9779 23.7273 38.597H8.46377L12.0116 34.8932C12.9293 33.9351 12.8969 32.4142 11.9393 31.496C10.9817 30.5778 9.46171 30.6098 8.54353 31.5682L1.17858 39.2573C0.271934 40.2269 0.271774 41.7729 1.17858 42.7424L8.54353 50.4314C9.01519 50.9238 9.64605 51.1716 10.2779 51.1716C10.8752 51.1716 11.4738 50.9498 11.9393 50.5036C12.8969 49.5856 12.9293 48.0644 12.0116 47.1064L8.46377 43.4026H23.7272C24.2118 47.0216 25.7749 50.3024 28.081 52.9095C23.9645 59.2664 21.4025 66.3992 20.5352 73.8697L17.4756 70.5952C16.5696 69.6256 15.05 69.5745 14.0811 70.4806C13.1122 71.3868 13.0609 72.9073 13.9666 73.8767L20.8512 81.2452C21.7225 82.2119 23.3444 82.2572 24.2674 81.3392L31.9525 73.9708C32.91 73.0527 32.9424 71.5316 32.0247 70.5735C31.1068 69.6155 29.5866 69.583 28.6289 70.5013L25.412 73.5856C26.2546 67.3712 28.4026 61.4322 31.7555 56.0817C34.5625 57.9095 37.9085 58.9728 41.4981 58.9728C45.0877 58.9728 48.4338 57.9094 51.2407 56.0817C54.5938 61.432 56.7418 67.3712 57.5842 73.5856L54.3673 70.5013C53.4097 69.5831 51.8895 69.6153 50.9715 70.5735C50.0538 71.5316 50.0862 73.0526 51.0437 73.9708L58.729 81.3392C59.652 82.2574 61.2741 82.2119 62.1451 81.2452L69.0298 73.8767C69.9356 72.9073 69.8842 71.3868 68.9153 70.4806C67.9465 69.5746 66.4266 69.6259 65.5208 70.5952L62.4611 73.8697C61.5939 66.3992 59.0319 59.2664 54.9154 52.9095C57.2215 50.3024 58.7846 47.0216 59.2692 43.4026H74.5326L70.9848 47.1064C70.0671 48.0644 70.0995 49.5854 71.057 50.5036C71.5225 50.9499 72.121 51.1716 72.7185 51.1716C73.3502 51.1716 73.981 50.9237 74.4528 50.4314L81.8178 42.7424C82.7252 41.7729 82.7254 40.2269 81.8186 39.2573ZM28.3698 40.9998C28.3698 33.7393 34.2594 27.8324 41.4986 27.8324C48.7378 27.8324 54.6274 33.7393 54.6274 40.9998C54.6274 48.2603 48.7378 54.1672 41.4986 54.1672C34.2594 54.1672 28.3698 48.2603 28.3698 40.9998Z" fill="#2A343F"/>
<path d="M44.5447 36.2592L40.1732 40.6419L38.4525 38.9169C37.5157 37.9777 35.9951 37.976 35.0562 38.9133C34.1174 39.8507 34.1158 41.3721 35.0529 42.3114L38.4732 45.7408C38.9237 46.1924 39.5353 46.4463 40.1731 46.4463C40.8108 46.4463 41.4224 46.1924 41.873 45.7408L47.9443 39.6537C48.8814 38.7144 48.8798 37.1929 47.941 36.2557C47.0023 35.3183 45.4814 35.3199 44.5447 36.2592Z" fill="#2A343F"/>
</svg>
