<svg width="28" height="30" viewBox="0 0 28 30" fill="none" xmlns="http://www.w3.org/2000/svg">
<g clip-path="url(#clip0_1550_481)">
<path d="M23.9414 3.92995C21.5759 1.39551 18.4307 -0.000141752 15.0856 1.07985e-08C14.5374 1.07985e-08 14.0933 0.47604 14.0933 1.06322C14.0933 1.6504 14.5376 2.12644 15.0856 2.12644C17.9007 2.1263 20.5473 3.30081 22.5379 5.43363C24.5287 7.56645 25.6249 10.4023 25.6248 13.4186C25.6248 14.0057 26.069 14.4818 26.6171 14.4818C27.1652 14.4818 27.6095 14.0057 27.6095 13.4187C27.6096 9.83423 26.307 6.46439 23.9414 3.92995Z" fill="#CFDE29"/>
<path d="M19.8593 13.4187C19.8593 14.0059 20.3036 14.4819 20.8518 14.4818C21.3998 14.4818 21.844 14.0057 21.844 13.4186C21.8437 9.42651 18.8119 6.1783 15.0857 6.17773C15.0856 6.17773 15.0859 6.17773 15.0857 6.17773C14.5377 6.17773 14.0934 6.65363 14.0933 7.24081C14.0933 7.828 14.5374 8.30404 15.0855 8.30418C17.7176 8.3046 19.859 10.5989 19.8593 13.4187Z" fill="#CFDE29"/>
<path d="M17.6636 18.8383C16.151 18.7544 15.3804 19.9596 15.0109 20.5386C14.7014 21.0233 14.8173 21.6849 15.2697 22.0165C15.7221 22.3481 16.3396 22.2239 16.649 21.7392C17.0857 21.0552 17.2835 20.9476 17.5518 20.9612C18.4106 21.0694 21.7932 23.7251 22.1319 24.5556C22.2169 24.8001 22.2137 25.0399 22.1225 25.3315C21.7674 26.4607 21.1795 27.2543 20.4222 27.6263C19.7027 27.9797 18.8205 27.9477 17.8717 27.534C14.3288 25.9868 11.2335 23.8276 8.67194 21.1163C8.67088 21.1151 8.66982 21.1142 8.6689 21.113C6.14359 18.3712 4.13205 15.059 2.69038 11.2689C2.30416 10.2514 2.27426 9.30616 2.60411 8.53539C2.9513 7.72394 3.69198 7.09409 4.74505 6.71402C5.01815 6.61592 5.24149 6.61281 5.46761 6.70297C6.24547 7.06716 8.72407 10.6912 8.8241 11.601C8.83839 11.8993 8.73717 12.1111 8.0993 12.578C7.64679 12.9092 7.53049 13.5708 7.8397 14.0556C8.14878 14.5405 8.76615 14.6649 9.21879 14.3338C9.75941 13.9383 10.8841 13.1149 10.806 11.4887C10.72 9.79014 7.63607 5.29186 6.16251 4.71134C5.50717 4.44965 4.81783 4.44511 4.11287 4.69858C2.52671 5.27088 1.38115 6.29129 0.800039 7.64938C0.23639 8.96692 0.254252 10.4955 0.852302 12.0708C2.39519 16.1269 4.55386 19.676 7.26824 22.6197C7.27486 22.6269 7.28161 22.634 7.28849 22.6409C10.034 25.5438 13.3426 27.8524 17.1232 29.5035C17.8803 29.8334 18.6259 29.9986 19.3389 29.9986C20.0103 29.9986 20.6531 29.8523 21.2493 29.5594C22.5169 28.9369 23.4692 27.7097 24.0037 26.0091C24.2398 25.2552 24.2359 24.5169 23.9935 23.818C23.4499 22.2349 19.2515 18.9307 17.6636 18.8383Z" fill="#CFDE29"/>
</g>
<defs>
<clipPath id="clip0_1550_481">
<rect width="28" height="30" fill="white"/>
</clipPath>
</defs>
</svg>
