<svg width="29" height="28" viewBox="0 0 29 28" fill="none" xmlns="http://www.w3.org/2000/svg">
<path d="M14.1981 22.1666C14.1981 22.3987 14.1026 22.6213 13.9326 22.7853C13.7627 22.9494 13.5322 23.0416 13.2918 23.0416H6.04183C5.42962 23.1101 4.80928 23.0441 4.22723 22.8485C3.64518 22.6528 3.11648 22.3326 2.68069 21.9119C2.24489 21.4911 1.91327 20.9806 1.71064 20.4187C1.50802 19.8567 1.43962 19.2577 1.51058 18.6666V8.16663C1.43962 7.57552 1.50802 6.97658 1.71064 6.4146C1.91327 5.85262 2.24489 5.34215 2.68069 4.92138C3.11648 4.50061 3.64518 4.18043 4.22723 3.98479C4.80928 3.78915 5.42962 3.72312 6.04183 3.79163H20.5418C21.154 3.72312 21.7744 3.78915 22.3564 3.98479C22.9385 4.18043 23.4672 4.50061 23.903 4.92138C24.3388 5.34215 24.6704 5.85262 24.873 6.4146C25.0756 6.97658 25.144 7.57552 25.0731 8.16663V11.6666C25.0731 11.8987 24.9776 12.1213 24.8076 12.2853C24.6377 12.4494 24.4072 12.5416 24.1668 12.5416C23.9265 12.5416 23.696 12.4494 23.526 12.2853C23.3561 12.1213 23.2606 11.8987 23.2606 11.6666V8.16663C23.2606 6.32679 22.4474 5.54163 20.5418 5.54163H6.04183C4.13629 5.54163 3.32308 6.32679 3.32308 8.16663V18.6666C3.32308 20.5065 4.13629 21.2916 6.04183 21.2916H13.2918C13.5322 21.2916 13.7627 21.3838 13.9326 21.5479C14.1026 21.712 14.1981 21.9346 14.1981 22.1666ZM20.6699 8.81879C20.6001 8.72576 20.5119 8.64696 20.4105 8.58691C20.309 8.52686 20.1963 8.48674 20.0788 8.46885C19.9612 8.45097 19.8412 8.45567 19.7255 8.48269C19.6099 8.50971 19.5009 8.55851 19.4048 8.62629L13.4682 12.7936C13.4169 12.8295 13.3552 12.8488 13.2918 12.8488C13.2285 12.8488 13.1667 12.8295 13.1154 12.7936L7.17887 8.62629C7.08271 8.55873 6.97371 8.51011 6.85809 8.48322C6.74247 8.45633 6.6225 8.45169 6.50502 8.46956C6.38754 8.48744 6.27486 8.52748 6.17341 8.5874C6.07196 8.64732 5.98373 8.72595 5.91375 8.81879C5.84377 8.91164 5.79342 9.01688 5.76557 9.12852C5.73771 9.24015 5.73291 9.35599 5.75142 9.46941C5.76994 9.58284 5.81141 9.69163 5.87347 9.78959C5.93553 9.88754 6.01696 9.97273 6.11312 10.0403L12.0485 14.2088C12.4094 14.4635 12.8448 14.6007 13.2918 14.6007C13.7389 14.6007 14.1743 14.4635 14.5352 14.2088L20.4705 10.0403C20.5669 9.97288 20.6485 9.88775 20.7107 9.7898C20.7729 9.69185 20.8145 9.58301 20.833 9.46952C20.8515 9.35603 20.8466 9.24013 20.8186 9.12846C20.7907 9.01679 20.7401 8.91156 20.6699 8.81879ZM27.4897 17.3623C27.4898 17.6136 27.4384 17.8625 27.3385 18.0946C27.2385 18.3266 27.092 18.5373 26.9073 18.7145L20.2422 25.1195C20.0724 25.2828 19.8426 25.3746 19.603 25.375H16.9168C16.6765 25.375 16.446 25.2828 16.276 25.1187C16.1061 24.9546 16.0106 24.732 16.0106 24.5V21.9076C16.0104 21.793 16.0336 21.6794 16.079 21.5735C16.1245 21.4676 16.1911 21.3714 16.2752 21.2905L22.9102 14.854C23.0934 14.6754 23.3116 14.5337 23.552 14.4371C23.7924 14.3406 24.0503 14.2911 24.3106 14.2916C24.5707 14.2907 24.8283 14.3398 25.0685 14.4359C25.3087 14.5321 25.5267 14.6734 25.7099 14.8516L26.9073 16.0078C27.0924 16.1851 27.2392 16.3961 27.3392 16.6287C27.4392 16.8612 27.4904 17.1105 27.4897 17.3623ZM24.1934 16.0895L23.4285 16.8315L24.8592 18.2128L25.6277 17.4743C25.6438 17.4591 25.6565 17.441 25.665 17.4209C25.6735 17.4009 25.6777 17.3793 25.6772 17.3576C25.6775 17.336 25.6733 17.3145 25.6648 17.2944C25.6563 17.2744 25.6437 17.2562 25.6277 17.241L24.4315 16.086C24.4159 16.0703 24.3971 16.058 24.3763 16.0498C24.3555 16.0415 24.3331 16.0376 24.3106 16.0381C24.2886 16.0388 24.2668 16.0437 24.2467 16.0525C24.2266 16.0613 24.2085 16.0739 24.1934 16.0895ZM23.5748 19.4471L22.1501 18.0716L17.8231 22.2716V23.625H19.2284L23.5748 19.4471Z" fill="#CFDE29"/>
</svg>
