<svg width="31" height="30" viewBox="0 0 31 30" fill="none" xmlns="http://www.w3.org/2000/svg">
<path d="M7.94693 18.9805C7.66309 18.9805 7.38166 18.86 7.18985 18.6289C4.59118 15.4878 4.12085 11.1364 5.99151 7.54343C6.23176 7.08171 6.81349 6.89421 7.29302 7.12812C7.77062 7.36109 7.96291 7.92499 7.72218 8.38718C6.19155 11.3267 6.57663 14.8873 8.70255 17.457C9.03677 17.8611 8.96944 18.4512 8.55143 18.7747C8.37318 18.913 8.15957 18.9805 7.94693 18.9805Z" fill="#CFDE29"/>
<path d="M8.53188 6.61843C8.28194 6.61843 8.03249 6.52562 7.84261 6.34C7.46674 5.97156 7.47013 5.37812 7.85084 5.01437L8.19524 4.68484C8.57595 4.32109 9.18917 4.3239 9.56553 4.69281C9.94141 5.06125 9.93802 5.65468 9.5573 6.01843L9.21291 6.34796C9.02449 6.52843 8.77794 6.61843 8.53188 6.61843Z" fill="#CFDE29"/>
<path d="M23.0705 18.9817C22.8583 18.9817 22.6442 18.9142 22.4655 18.7759C22.048 18.4525 21.9802 17.8623 22.3144 17.4583C24.6631 14.62 24.8481 10.5269 22.7663 7.50483C20.3948 4.06233 15.5278 2.78733 11.6843 4.60233C11.2028 4.82921 10.624 4.63561 10.3891 4.17108C10.1541 3.70561 10.3537 3.14452 10.8347 2.91717C15.6092 0.66155 21.4314 2.18733 24.3783 6.46421C26.9237 10.1584 26.697 15.1609 23.8271 18.6297C23.6357 18.8612 23.3543 18.9817 23.0705 18.9817Z" fill="#CFDE29"/>
<path d="M15.517 17.7987C15.5165 17.7987 15.5165 17.7987 15.517 17.7987C14.0905 17.7987 12.7255 17.3065 11.674 16.4126C9.67544 14.7138 9.12567 11.832 10.3662 9.55993C11.3606 7.73931 13.3896 6.56274 15.5359 6.56274C16.0057 6.56274 16.4741 6.61853 16.927 6.72868C19.4734 7.34696 21.3208 9.64149 21.3208 12.1849C21.3208 14.0051 20.4034 15.7212 18.8679 16.7754C17.8924 17.4448 16.7342 17.7987 15.517 17.7987ZM15.5359 8.43774C14.0992 8.43774 12.742 9.22196 12.0794 10.436C11.2526 11.9496 11.6202 13.871 12.9527 15.004C13.6502 15.597 14.5608 15.9237 15.5165 15.9237C16.3298 15.9237 17.1014 15.6893 17.7471 15.2463C18.772 14.5432 19.3838 13.399 19.3838 12.1849C19.3838 10.4895 18.1525 8.95946 16.4557 8.54743C16.1564 8.47478 15.8469 8.43774 15.5359 8.43774Z" fill="#CFDE29"/>
<path d="M15.5084 28.1211C15.2963 28.1211 15.0822 28.0536 14.9035 27.9153C14.4859 27.5919 14.4181 27.0017 14.7523 26.5977L22.3144 17.457C22.6491 17.0525 23.258 16.9878 23.6765 17.3113C24.094 17.6347 24.1618 18.2248 23.8276 18.6289L16.2655 27.7695C16.0737 28.0006 15.7923 28.1211 15.5084 28.1211Z" fill="#CFDE29"/>
<path d="M15.5096 28.1211C15.2258 28.1211 14.9444 28.0006 14.7525 27.7695L7.19048 18.6289C6.85626 18.2248 6.92359 17.6347 7.34161 17.3113C7.75865 16.9878 8.36848 17.0525 8.70367 17.457L16.2657 26.5977C16.6 27.0017 16.5326 27.5919 16.1146 27.9153C15.9354 28.0536 15.7218 28.1211 15.5096 28.1211Z" fill="#CFDE29"/>
</svg>
