<svg width="44" height="44" viewBox="0 0 44 44" fill="none" xmlns="http://www.w3.org/2000/svg">
<path d="M42.5193 10.6889C43.3277 10.6889 43.9855 10.0312 43.9855 9.22281V6.04055C43.9855 5.23213 43.3278 4.57445 42.5193 4.57445H34.4747C34.1187 4.57445 33.8302 4.86303 33.8302 5.21898C33.8302 5.57494 34.1187 5.86352 34.4747 5.86352H42.5192C42.6169 5.86352 42.6964 5.94292 42.6964 6.04055V9.22281C42.6964 9.32044 42.6169 9.39984 42.5192 9.39984H32.0944V2.20894C32.0944 0.990945 31.1035 0 29.8855 0H14.1146C12.8966 0 11.9057 0.990945 11.9057 2.20894V4.57445H1.48074C0.672328 4.57445 0.0146484 5.23213 0.0146484 6.04055V9.22281C0.0146484 10.0312 0.672328 10.6889 1.48074 10.6889H2.24911V42.7109H0.659437C0.303484 42.7109 0.0149062 42.9995 0.0149062 43.3555C0.0149062 43.7114 0.303484 44 0.659437 44H43.3405C43.6966 44 43.9851 43.7114 43.9851 43.3555C43.9851 42.9995 43.6966 42.7109 43.3405 42.7109H41.751V10.6889H42.5193ZM32.0944 15.2649V14.0611H37.4757V16.1909H31.8902C32.021 15.909 32.0944 15.5954 32.0944 15.2649ZM6.52441 14.0611H11.9057V15.2649C11.9057 15.5955 11.9792 15.909 12.1099 16.1909H6.52441V14.0611ZM11.9057 12.772H6.52441V10.6889H11.9057V12.772ZM6.52441 17.4799H37.4757V19.6092H6.52441V17.4799ZM37.4757 10.6889V12.772H32.0944V10.6889H37.4757ZM14.1146 1.28906H29.8855C30.3927 1.28906 30.8054 1.70173 30.8054 2.20894V15.2649C30.8054 15.7721 30.3927 16.1848 29.8855 16.1848H14.1146C13.6074 16.1848 13.1948 15.7721 13.1948 15.2649V2.20894C13.1948 1.70173 13.6074 1.28906 14.1146 1.28906ZM1.30371 9.22281V6.04055C1.30371 5.94292 1.38312 5.86352 1.48074 5.86352H11.9057V9.39984H1.48074C1.38312 9.39984 1.30371 9.32044 1.30371 9.22281ZM13.6306 42.7109C13.4275 42.7109 13.2623 42.5457 13.2623 42.3426V40.418H16.0616V42.3426C16.0616 42.5457 15.8963 42.7109 15.6933 42.7109H13.6306ZM12.2389 29.1758C12.2914 29.1171 12.348 29.0506 12.3904 28.9293L13.9333 24.3452C14.0977 23.8568 14.5544 23.5287 15.0698 23.5287H28.9304C29.4457 23.5287 29.9025 23.8569 30.0669 24.3452L31.6098 28.9293C31.6635 29.0416 31.6318 29.0238 31.7613 29.1758L33.4574 30.8995C33.9765 31.4271 34.2625 32.1252 34.2625 32.8654V38.0293C34.2625 38.6358 33.7692 39.1292 33.1627 39.1292H19.7244C19.3685 39.1292 19.0799 39.4177 19.0799 39.7737C19.0799 40.1296 19.3685 40.4182 19.7244 40.4182H26.6494V42.3428C26.6494 42.4695 26.6651 42.5924 26.6921 42.7111H17.3079C17.335 42.5924 17.3506 42.4695 17.3506 42.3428V39.7737C17.3506 39.4177 17.0621 39.1292 16.7061 39.1292H10.8374C10.231 39.1292 9.73762 38.6358 9.73762 38.0293V32.8654C9.73762 32.1253 10.0235 31.4271 10.5427 30.8995L12.2389 29.1758ZM28.3069 42.7109C28.1037 42.7109 27.9385 42.5457 27.9385 42.3426V40.418H30.7378V42.3426C30.7378 42.5457 30.5726 42.7109 30.3695 42.7109H28.3069ZM31.9842 42.7109C32.0112 42.5923 32.0269 42.4694 32.0269 42.3426V40.418H33.1627C34.4799 40.418 35.5515 39.3464 35.5515 38.0291V32.8652C35.5515 31.7846 35.1341 30.7653 34.3762 29.9952L33.1827 28.7824L34.1015 28.0518C34.3801 27.8303 34.4263 27.4248 34.2048 27.1462C33.9833 26.8676 33.5778 26.8213 33.2992 27.0429L32.5386 27.6477L31.2887 23.9339C30.9475 22.9205 29.9998 22.2395 28.9305 22.2395H15.0697C14.0003 22.2395 13.0526 22.9205 12.7115 23.9339L11.4616 27.6475L10.7013 27.0429C10.4227 26.8213 10.0173 26.8675 9.79571 27.1462C9.57416 27.4248 9.6204 27.8303 9.89901 28.0518L10.8175 28.7822L9.62384 29.9952C8.86587 30.7655 8.44847 31.7847 8.44847 32.8652V38.0291C8.44847 39.3464 9.52011 40.418 10.8374 40.418H11.9731V42.3426C11.9731 42.4694 11.9887 42.5923 12.0158 42.7109H6.52416V23.2744C6.52416 22.9184 6.23558 22.6298 5.87962 22.6298C5.52367 22.6298 5.23509 22.9184 5.23509 23.2744V42.7109H3.53817V10.6889H5.23509V20.2537C5.23509 20.6097 5.52367 20.8983 5.87962 20.8983H5.8798H37.4758V42.7109H31.9842ZM40.4619 42.7109H38.765V10.6889H40.4619V42.7109Z" fill="black"/>
<path d="M18.5105 7.37488C18.8469 7.37488 19.1831 7.2953 19.4889 7.13717L20.1616 7.80989C19.9008 7.91362 19.6564 8.0702 19.4456 8.28091L17.5301 10.1965C16.7002 11.0264 16.7002 12.3767 17.5301 13.2066C17.9451 13.6215 18.4901 13.829 19.0351 13.829C19.5802 13.829 20.1252 13.6215 20.5402 13.2066L22.4557 11.291C22.6632 11.0836 22.8222 10.8406 22.9278 10.576L23.5948 11.243C23.1807 12.0443 23.3085 13.0553 23.9795 13.7264L24.4189 14.1658C24.5448 14.2916 24.7098 14.3546 24.8747 14.3546C25.0396 14.3546 25.2046 14.2917 25.3305 14.1658C25.5822 13.9141 25.5822 13.506 25.3305 13.2544L24.8911 12.815C24.5638 12.4876 24.5638 11.9552 24.8911 11.6278C25.0497 11.4693 25.2604 11.382 25.4846 11.382C25.7088 11.382 25.9196 11.4693 26.0781 11.6278L26.5175 12.0672C26.7693 12.3189 27.1773 12.3189 27.429 12.0672C27.6807 11.8155 27.6807 11.4074 27.429 11.1558L26.9896 10.7164C26.5876 10.3144 26.0532 10.093 25.4845 10.093C25.138 10.093 24.8044 10.1757 24.5054 10.3309L22.9114 8.73681L26.9045 4.74381C27.1562 4.4921 27.1562 4.08398 26.9045 3.83236C26.6528 3.58073 26.2447 3.58056 25.9929 3.83236L21.9999 7.82527L20.4004 6.22572C20.8144 5.42444 20.6865 4.41338 20.0156 3.7423C19.1857 2.9124 17.8354 2.9124 17.0054 3.7423C16.1756 4.5722 16.1756 5.92253 17.0054 6.75243C17.4203 7.16734 17.9654 7.37488 18.5105 7.37488ZM21.7901 9.78602C21.7901 10.0102 21.7028 10.221 21.5442 10.3796L19.6287 12.2951C19.3013 12.6224 18.7689 12.6225 18.4415 12.2951C18.1142 11.9678 18.1142 11.4352 18.4415 11.108L20.3571 9.19254C20.684 8.86555 21.2158 8.86529 21.5431 9.19151L21.5452 9.19366C21.7031 9.35204 21.7901 9.56233 21.7901 9.78602ZM17.9169 4.65375C18.0806 4.49012 18.2955 4.40831 18.5104 4.40831C18.7254 4.40831 18.9404 4.49012 19.104 4.65375C19.4313 4.98109 19.4313 5.51355 19.104 5.84089C18.7767 6.16814 18.2441 6.16823 17.9169 5.84089C17.5896 5.51364 17.5896 4.98109 17.9169 4.65375Z" fill="black"/>
<path d="M13.7393 30.8064C16.48 31.1973 19.24 31.3928 22 31.3928C24.76 31.3928 27.52 31.1973 30.2608 30.8064C30.4503 30.7794 30.6181 30.6694 30.7185 30.5064C30.8189 30.3434 30.8418 30.1441 30.7807 29.9626L29.1382 25.0829C29.0499 24.8206 28.804 24.644 28.5273 24.644H15.4727C15.196 24.644 14.9501 24.8207 14.8619 25.0829L13.2194 29.9626C13.1584 30.1441 13.1811 30.3433 13.2816 30.5064C13.382 30.6694 13.5497 30.7793 13.7393 30.8064ZM15.9358 25.9331H28.0641L29.31 29.6345C24.4557 30.26 19.5444 30.26 14.6899 29.6345L15.9358 25.9331Z" fill="black"/>
<path d="M14.0977 37.9531H15.7572C16.8474 37.9531 17.7343 37.0662 17.7343 35.976C17.7343 35.0172 17.0493 34.1988 16.1055 34.0299L14.4719 33.7375C13.851 33.6265 13.2178 33.7949 12.7343 34.1995C12.2507 34.6042 11.9734 35.1981 11.9734 35.8287C11.9733 37.0002 12.9264 37.9531 14.0977 37.9531ZM13.5616 35.1882C13.7134 35.0612 13.9026 34.9933 14.097 34.9933C14.1461 34.9933 14.1956 34.9977 14.2449 35.0065L15.8785 35.2989C16.2068 35.3576 16.4452 35.6424 16.4452 35.976C16.4452 36.3555 16.1366 36.6641 15.7572 36.6641H14.0977C13.6371 36.6641 13.2624 36.2894 13.2624 35.8287C13.2624 35.5808 13.3714 35.3473 13.5616 35.1882Z" fill="black"/>
<path d="M29.215 33.7376L27.5814 34.0299C26.6376 34.1988 25.9526 35.0173 25.9526 35.9761C25.9526 37.0663 26.8395 37.9532 27.9297 37.9532H29.5893C30.7608 37.9532 31.7137 37.0002 31.7137 35.8288C31.7137 35.1982 31.4363 34.6044 30.9528 34.1997C30.4693 33.7949 29.8358 33.6265 29.215 33.7376ZM30.1254 35.1881C30.3156 35.3473 30.4246 35.5807 30.4246 35.8287C30.4246 36.2893 30.0499 36.664 29.5893 36.664H27.9296C27.5503 36.664 27.2416 36.3554 27.2416 35.976C27.2416 35.6424 27.4799 35.3575 27.8085 35.2988L29.442 35.0064C29.4913 34.9976 29.5407 34.9933 29.5899 34.9933C29.7843 34.9933 29.9736 35.0611 30.1254 35.1881Z" fill="black"/>
<path d="M23.7887 35.8167H20.2112C19.8552 35.8167 19.5667 36.1052 19.5667 36.4612C19.5667 36.8171 19.8552 37.1057 20.2112 37.1057H23.7887C24.1447 37.1057 24.4332 36.8171 24.4332 36.4612C24.4332 36.1052 24.1447 35.8167 23.7887 35.8167Z" fill="black"/>
</svg>
