<svg width="141" height="22" viewBox="0 0 141 22" fill="none" xmlns="http://www.w3.org/2000/svg">
<g clip-path="url(#clip0_856_516)">
<path d="M4.87566 13.2951L4.10988 16.1539L1.31093 16.2131C0.474461 14.6616 0 12.8865 0 11.0002C0 9.17614 0.443609 7.45601 1.22994 5.94141H1.23054L3.72238 6.39825L4.81396 8.87514C4.5855 9.5412 4.46097 10.2562 4.46097 11.0002C4.46106 11.8077 4.60732 12.5813 4.87566 13.2951Z" fill="#FBBB00"/>
<path d="M21.8082 8.94531C21.9345 9.61073 22.0004 10.2979 22.0004 11.0003C22.0004 11.7878 21.9176 12.556 21.7598 13.297C21.2243 15.8185 19.8252 18.0203 17.8869 19.5784L17.8863 19.5778L14.7477 19.4177L14.3035 16.6447C15.5896 15.8904 16.5947 14.71 17.1242 13.297H11.2422V8.94531H17.21H21.8082Z" fill="#518EF8"/>
<path d="M17.8855 19.5776L17.8861 19.5782C16.001 21.0934 13.6064 22 10.9996 22C6.81055 22 3.16847 19.6586 1.31055 16.2129L4.87528 13.2949C5.80422 15.7741 8.19582 17.539 10.9996 17.539C12.2048 17.539 13.3338 17.2132 14.3026 16.6445L17.8855 19.5776Z" fill="#28B446"/>
<path d="M18.0208 2.53241L14.4573 5.44981C13.4546 4.82307 12.2694 4.46102 10.9996 4.46102C8.13229 4.46102 5.69596 6.30682 4.81356 8.87494L1.23009 5.9412H1.22949C3.06022 2.41154 6.74823 0 10.9996 0C13.6686 0 16.1158 0.950727 18.0208 2.53241Z" fill="#F14336"/>
</g>
<path d="M87.8993 15.822L83.3754 18.1998C82.9322 18.4329 82.414 18.0565 82.4987 17.5627L83.3627 12.5261L79.7028 8.95978C79.344 8.61013 79.5419 8.00127 80.0376 7.92934L85.0955 7.19452L87.3577 2.6123C87.5793 2.16309 88.2198 2.16309 88.4414 2.6123L90.7037 7.19452L95.7615 7.92934C96.2572 8.00127 96.4548 8.61013 96.0963 8.95978L92.4365 12.5267L93.3004 17.5633C93.3851 18.0568 92.8669 18.4332 92.4237 18.2004L87.8993 15.822Z" fill="#FFB800"/>
<path d="M109.659 15.8217L105.135 18.1994C104.692 18.4325 104.174 18.0562 104.259 17.5623L105.123 12.5258L101.463 8.95881C101.104 8.60915 101.302 8.00029 101.798 7.92836L106.855 7.19354L109.118 2.61132C109.339 2.16211 109.98 2.16211 110.201 2.61132L112.464 7.19354L117.521 7.92836C118.017 8.00029 118.215 8.60915 117.856 8.95881L114.196 12.5258L115.06 17.5623C115.145 18.0559 114.627 18.4322 114.184 18.1994L109.659 15.8217Z" fill="#FFB800"/>
<path d="M131.539 15.8228L126.95 18.2008C126.501 18.4339 125.975 18.0575 126.061 17.5636L126.937 12.5266L123.225 8.95937C122.861 8.60969 123.062 8.00078 123.565 7.92884L128.695 7.19396L130.989 2.61135C131.214 2.1621 131.864 2.1621 132.089 2.61135L134.383 7.19396L139.514 7.92884C140.017 8.00078 140.217 8.60969 139.853 8.95937L136.141 12.5266L137.017 17.5636C137.103 18.0572 136.578 18.4336 136.128 18.2008L131.539 15.8228Z" fill="#9F9F9F"/>
<path d="M44.3797 15.8217L39.8559 18.1994C39.4127 18.4325 38.8945 18.0562 38.9792 17.5623L39.8431 12.5258L36.1833 8.95881C35.8244 8.60915 36.0224 8.00029 36.5181 7.92836L41.5759 7.19354L43.8381 2.61132C44.0598 2.16211 44.7003 2.16211 44.9219 2.61132L47.1841 7.19354L52.2419 7.92836C52.7377 8.00029 52.9353 8.60915 52.5768 8.95881L48.9169 12.5258L49.7809 17.5623C49.8656 18.0559 49.3474 18.4322 48.9042 18.1994L44.3797 15.8217Z" fill="#FFB800"/>
<path d="M66.1396 15.8217L61.6158 18.1994C61.1726 18.4325 60.6544 18.0562 60.7391 17.5623L61.603 12.5258L57.9431 8.95881C57.5843 8.60915 57.7823 8.00029 58.278 7.92836L63.3358 7.19354L65.598 2.61132C65.8196 2.16211 66.4602 2.16211 66.6818 2.61132L68.944 7.19354L74.0018 7.92836C74.4976 8.00029 74.6952 8.60915 74.3367 8.95881L70.6768 12.5258L71.5408 17.5623C71.6255 18.0559 71.1073 18.4322 70.6641 18.1994L66.1396 15.8217Z" fill="#FFB800"/>
<defs>
<clipPath id="clip0_856_516">
<rect width="22" height="22" fill="white"/>
</clipPath>
</defs>
</svg>
