<svg width="70" height="70" viewBox="0 0 70 70" fill="none" xmlns="http://www.w3.org/2000/svg">
<g clip-path="url(#clip0_884_1115)">
<path d="M18.4902 32.2602V30.0679C18.4902 27.3929 17.1 25.038 15.0053 23.6829C15.1347 23.2679 15.2022 22.8333 15.2022 22.3962C15.2022 20.0179 13.2674 18.083 10.889 18.083C8.51062 18.083 6.57577 20.018 6.57577 22.3962C6.57577 22.8388 6.64277 23.2692 6.77238 23.6832C4.67784 25.0382 3.28782 27.393 3.28782 30.0679V32.2598C3.28782 34.8502 4.59116 37.1408 6.57564 38.5138V40.7687C6.57564 41.2134 6.32859 41.6132 5.93087 41.8121L2.38424 43.5853C0.913556 44.3209 0 45.7991 0 47.4434V56.371C0 56.9373 0.459102 57.3964 1.02539 57.3964C1.59168 57.3964 2.05079 56.9373 2.05079 56.371V47.8869L3.72122 49.5574C4.14847 49.9847 4.38389 50.5528 4.38389 51.1572V56.371C4.38389 56.9373 4.843 57.3964 5.40929 57.3964C5.97558 57.3964 6.43468 56.9373 6.43468 56.371V51.1572C6.43468 50.0051 5.98597 48.922 5.1714 48.1073L2.84649 45.7824C2.83528 45.7712 2.82325 45.7615 2.81176 45.751C2.95764 45.6222 3.1213 45.5101 3.30149 45.4198L6.84812 43.6466C7.02982 43.5557 7.19894 43.4484 7.35658 43.3291L9.86359 45.8363V56.3712C9.86359 56.9375 10.3227 57.3966 10.889 57.3966C11.4553 57.3966 11.9144 56.9375 11.9144 56.3712V45.8361L14.4215 43.329C14.5793 43.4483 14.7483 43.5557 14.93 43.6465L15.9079 44.1355C16.0552 44.2092 16.2116 44.2441 16.3658 44.2441C16.7419 44.2441 17.1041 44.0362 17.2837 43.6771C17.5371 43.1705 17.3317 42.5546 16.8252 42.3014L15.8472 41.8124C15.4494 41.6134 15.2023 41.2137 15.2023 40.7691V38.5142C17.1868 37.1412 18.4902 34.8505 18.4902 32.2602ZM10.889 20.1338C12.1365 20.1338 13.1514 21.1488 13.1514 22.3962C13.1514 22.5336 13.1391 22.6683 13.1156 22.8002C12.4109 22.5839 11.6635 22.4668 10.889 22.4668C10.1156 22.4668 9.36908 22.5835 8.66552 22.7993C8.64187 22.6673 8.62656 22.5333 8.62656 22.3962C8.62656 21.1487 9.64143 20.1338 10.889 20.1338ZM10.889 24.5177C13.9494 24.5177 16.4394 27.0076 16.4394 30.0681V30.4397C12.1703 31.7467 9.62611 28.4992 9.51742 28.3569C9.339 28.1191 9.06625 27.9704 8.76984 27.9493C8.47343 27.9286 8.18222 28.037 7.97209 28.2471C6.99331 29.2259 6.03464 29.698 5.3423 29.9259C5.41817 26.9309 7.87625 24.5177 10.889 24.5177ZM10.889 43.9612L8.51951 41.5917C8.58869 41.3273 8.62656 41.0517 8.62656 40.7688V39.5171C9.34146 39.7405 10.1015 39.861 10.889 39.861C11.6765 39.861 12.4365 39.7405 13.1514 39.5171V40.7688C13.1514 41.0517 13.1893 41.3274 13.2585 41.5917L10.889 43.9612ZM10.889 37.8102C7.82853 37.8102 5.3386 35.3203 5.3386 32.2598V32.0474C6.15632 31.8595 7.36874 31.423 8.63353 30.4058C9.08101 30.828 9.72059 31.3458 10.535 31.79C11.4983 32.3155 12.8288 32.8015 14.4538 32.8015C15.0714 32.8015 15.7321 32.7297 16.4306 32.5648C16.2716 35.4841 13.847 37.8102 10.889 37.8102Z" fill="#9BA71F"/>
<path d="M47.0606 37.8379L41.1021 35.1896C40.6811 35.0026 40.4093 34.5841 40.4093 34.1236V32.4874C42.4109 30.8926 43.6974 28.4367 43.6974 25.6845V23.3812C44.3568 23.0169 44.7934 22.3128 44.7934 21.5242V21.3006C44.7934 16.5051 40.8918 12.6035 36.0963 12.6035H33.9044C29.1088 12.6035 25.2073 16.5051 25.2073 21.3006V23.3289C25.2073 24.022 25.5056 24.65 26.0255 25.0518C26.1137 25.1199 26.2066 25.1798 26.3032 25.2316V25.6844C26.3032 28.4365 27.5896 30.8924 29.591 32.4871V34.1235C29.591 34.584 29.3191 35.0025 28.8983 35.1895L22.9398 37.8377C20.9884 38.705 19.7274 40.6453 19.7274 42.7807V56.3711C19.7274 56.9374 20.1865 57.3965 20.7528 57.3965C21.3191 57.3965 21.7782 56.9374 21.7782 56.3711V42.7808C21.7782 42.662 21.7867 42.5446 21.799 42.4281L24.5446 45.1737C24.9719 45.6011 25.2073 46.1691 25.2073 46.7736V56.3712C25.2073 56.9375 25.6664 57.3966 26.2327 57.3966C26.799 57.3966 27.2581 56.9375 27.2581 56.3712V46.7736C27.2581 45.6214 26.8095 44.5383 25.9948 43.7236L22.7216 40.4503C23.0165 40.1443 23.3703 39.8907 23.7728 39.7118L29.6308 37.1082L33.9751 41.4525V56.3711C33.9751 56.9374 34.4342 57.3965 35.0005 57.3965C35.5668 57.3965 36.0259 56.9374 36.0259 56.3711V41.4526L40.3701 37.1084L46.228 39.7118C46.6305 39.8907 46.9843 40.1443 47.2792 40.4505L44.006 43.7236C43.1913 44.5383 42.7427 45.6214 42.7427 46.7736V56.3712C42.7427 56.9375 43.2018 57.3966 43.7681 57.3966C44.3344 57.3966 44.7935 56.9375 44.7935 56.3712V46.7736C44.7935 46.1693 45.0288 45.6011 45.4562 45.1737L48.2016 42.4282C48.2139 42.5447 48.2224 42.6619 48.2224 42.7807V56.3711C48.2224 56.9374 48.6815 57.3965 49.2478 57.3965C49.8141 57.3965 50.2732 56.9374 50.2732 56.3711V42.7808C50.2728 40.6454 49.012 38.7051 47.0606 37.8379ZM35.0001 39.5778L31.1882 35.7658C31.478 35.2781 31.6417 34.7139 31.6417 34.1236V33.7064C32.6757 34.1409 33.8103 34.3816 35.0002 34.3816C36.1901 34.3816 37.3245 34.141 38.3584 33.7065V34.1236C38.3584 34.714 38.5221 35.2781 38.812 35.7659L35.0001 39.5778ZM35.0002 32.3307C31.3354 32.3308 28.3539 29.3493 28.3539 25.6845V25.2234C28.9937 24.9698 29.6182 24.5662 30.2161 24.0145C30.6322 23.6305 30.6583 22.9817 30.2741 22.5655C29.89 22.1495 29.2414 22.1234 28.8251 22.5074C28.3123 22.9809 27.7999 23.2867 27.3025 23.4166C27.2905 23.4198 27.2816 23.4211 27.2753 23.4217C27.2679 23.4073 27.2579 23.3772 27.2579 23.329V21.3008C27.2579 17.636 30.2395 14.6544 33.9043 14.6544H36.0961C39.761 14.6544 42.7425 17.636 42.7425 21.3008V21.5243C42.7425 21.5575 42.7225 21.5864 42.6962 21.5916C36.5561 22.8043 33.4763 20.5187 32.4373 19.4797C32.0368 19.0792 31.3875 19.0792 30.9872 19.4797C30.5868 19.8801 30.5868 20.5294 30.9872 20.9297C34.1714 24.1139 38.8178 24.1713 41.6465 23.8314V25.6844C41.6465 29.3491 38.6649 32.3307 35.0002 32.3307Z" fill="#9BA71F"/>
<path d="M67.6161 41.394L61.8776 38.5246C61.4799 38.3257 61.2329 37.926 61.2329 37.4813V36.0282C62.5761 34.8356 63.4248 33.0976 63.4248 31.1644V29.9972C63.4484 29.9972 63.4716 29.9979 63.4953 29.9979C64.0616 29.9979 64.5207 29.5388 64.5207 28.9725V26.7806C64.5207 23.1937 61.6024 20.2754 58.0155 20.2754H55.8236C52.2366 20.2754 49.3184 23.1937 49.3184 26.7806V28.9725C49.3184 29.5388 49.7775 29.9979 50.3438 29.9979C50.3522 29.9979 50.3768 29.9976 50.4143 29.9961V31.1644C50.4143 33.0977 51.263 34.8357 52.6063 36.0283V37.4815C52.6063 37.9262 52.3593 38.326 51.9614 38.5248C51.4549 38.778 51.2495 39.3939 51.5029 39.9004C51.6825 40.2597 52.0447 40.4676 52.4208 40.4676C52.5749 40.4676 52.7313 40.4327 52.8785 40.3591C53.0602 40.2682 53.2293 40.1609 53.387 40.0417L55.8941 42.5488V56.3715C55.8941 56.9378 56.3532 57.3969 56.9195 57.3969C57.4858 57.3969 57.9449 56.9378 57.9449 56.3715V42.5486L60.4519 40.0414C60.6097 40.1608 60.7787 40.2681 60.9604 40.3589L66.5132 43.1354L64.829 44.8196C64.0144 45.6343 63.5657 46.7174 63.5657 47.8695V56.3713C63.5657 56.9376 64.0248 57.3967 64.5911 57.3967C65.1574 57.3967 65.6165 56.9376 65.6165 56.3713V47.8695C65.6165 47.2652 65.8518 46.697 66.2792 46.2696L67.8745 44.6743C67.9229 44.8598 67.9495 45.0533 67.9495 45.2518V56.3713C67.9495 56.9376 68.4086 57.3967 68.9749 57.3967C69.5412 57.3967 70.0003 56.9376 70.0003 56.3713V45.2518C70.0004 43.6076 69.0868 42.1294 67.6161 41.394ZM51.369 27.7361V26.7805H51.3691C51.3691 24.3243 53.3674 22.326 55.8236 22.326H58.0155C60.4716 22.326 62.4699 24.3243 62.4699 26.7805V27.9195C58.0125 27.679 55.3225 25.9444 55.2964 25.9274C55.1229 25.8117 54.9249 25.7551 54.7279 25.7551C54.4632 25.7551 54.2007 25.8574 54.0025 26.0555C53.0214 27.0366 52.0601 27.5088 51.369 27.7361ZM56.9195 40.6737L54.55 38.3043C54.6192 38.0398 54.6571 37.7642 54.6571 37.4813V37.263C55.362 37.5254 56.1242 37.6695 56.9195 37.6695C57.7148 37.6695 58.477 37.5254 59.182 37.263V37.4813C59.182 37.7642 59.2197 38.0398 59.289 38.3043L56.9195 40.6737ZM56.9195 35.6188C54.4634 35.6188 52.4651 33.6207 52.4651 31.1644V29.5113C53.1833 29.2243 54.02 28.7681 54.8715 28.0427C55.9483 28.6029 58.2011 29.5713 61.374 29.8912V31.1644C61.374 33.6205 59.3757 35.6188 56.9195 35.6188Z" fill="#9BA71F"/>
</g>
<defs>
<clipPath id="clip0_884_1115">
<rect width="70" height="70" fill="white"/>
</clipPath>
</defs>
</svg>
