<svg width="46" height="45" viewBox="0 0 46 45" fill="none" xmlns="http://www.w3.org/2000/svg">
<path d="M43.3505 4.15863V4.188C42.5656 4.36772 41.8654 4.76523 41.3169 5.31304C40.7691 5.86153 40.3716 6.56163 40.1919 7.34663H40.1625C39.8018 5.77536 38.5752 4.54876 37.0039 4.188V4.15863C37.7889 3.97891 38.489 3.5814 39.0375 3.0336C39.5853 2.48511 39.9828 1.785 40.1625 1H40.1919C40.3716 1.78495 40.7691 2.48511 41.3169 3.0336C41.8654 3.5814 42.5655 3.97891 43.3505 4.15863Z" stroke="black" stroke-width="2" stroke-miterlimit="10"/>
<path d="M6.2762 5.32201V5.33451C5.94239 5.41092 5.64465 5.57999 5.41136 5.81297C5.17837 6.04621 5.00936 6.34395 4.9329 6.67781H4.9204C4.76699 6.00961 4.24535 5.48796 3.57715 5.33456V5.32206C3.91096 5.24565 4.2087 5.07658 4.44199 4.8436C4.67497 4.61036 4.84399 4.31262 4.92045 3.97876H4.93295C5.00936 4.31257 5.17843 4.61031 5.41141 4.8436C5.6446 5.07653 5.94234 5.24554 6.2762 5.32201Z" stroke="black" stroke-width="2" stroke-miterlimit="10"/>
<path d="M23.5337 22.8687H16.249C15.8881 22.8687 15.5955 23.1612 15.5955 23.5222V35.2193H24.1872V23.5221C24.1873 23.1612 23.8947 22.8687 23.5337 22.8687Z" stroke="black" stroke-width="2" stroke-miterlimit="10"/>
<path d="M19.8915 17.9923C21.1403 17.9923 22.1527 16.9799 22.1527 15.7311C22.1527 14.4823 21.1403 13.47 19.8915 13.47C18.6427 13.47 17.6304 14.4823 17.6304 15.7311C17.6304 16.9799 18.6427 17.9923 19.8915 17.9923Z" stroke="black" stroke-width="2" stroke-miterlimit="10"/>
<path d="M31.9914 11.762V15.7444L26.4082 11.2784H26.4077L19.8906 6.06516L13.3741 11.2784H13.3735L6.19876 17.0186H6.19829V17.0196L4.12103 18.6812L2 16.3946L6.19876 13.0362L8.39531 11.2784L19.8911 2.08276L31.387 11.2784L31.9914 11.762Z" stroke="black" stroke-width="2" stroke-miterlimit="10"/>
<path d="M6.19824 17.0186H6.19916V17.0195L6.19824 17.0205V17.0186Z" stroke="black" stroke-width="2" stroke-miterlimit="10"/>
<path d="M31.9913 15.745V27.3057H30.1163C29.6941 27.3057 29.3263 27.5941 29.2257 28.0047L28.6862 30.2002C28.6862 30.2002 28.2917 32.6941 26.9079 35.2192H6.19824V17.0196L6.19877 17.0191V17.0186L13.3735 11.2785H13.3741L19.8907 6.06519L26.4077 11.2785H26.4083L31.9913 15.745Z" stroke="black" stroke-width="2" stroke-miterlimit="10"/>
<path d="M6.19916 17.0186V17.0195L6.19824 17.0205V17.0186H6.19916Z" stroke="black" stroke-width="2" stroke-miterlimit="10"/>
<path d="M19.8914 35.2193V22.8687" stroke="black" stroke-width="2" stroke-miterlimit="10"/>
<path d="M31.9915 9.05469H35.2392V27.3056H31.9915V9.05469Z" stroke="black" stroke-width="2" stroke-miterlimit="10"/>
<path d="M38.5352 30.2003H28.6863L29.2257 28.0049C29.3263 27.5943 29.6942 27.3059 30.1164 27.3059H37.112C37.5357 27.3059 37.9041 27.5957 38.0037 28.0074L38.5352 30.2003Z" stroke="black" stroke-width="2" stroke-miterlimit="10"/>
<path d="M43.3075 38.33C40.874 41.0529 35.9224 42.7674 31.9827 42.7674C31.7885 42.7674 31.5952 42.7634 31.4026 42.7548C31.8222 40.6056 31.5767 38.4961 31.5767 38.4961C31.1177 40.7198 30.0122 42.6219 30.0122 42.6219C27.3683 42.2294 24.9786 41.0579 23.0835 39.3481C24.8266 38.3436 26.055 36.7756 26.9079 35.2192C28.2918 32.6941 28.6863 30.2002 28.6863 30.2002H38.5351C38.5351 30.2002 40.1901 35.6721 43.3075 38.33Z" stroke="black" stroke-width="2" stroke-miterlimit="10"/>
<path d="M31.4002 42.7675C31.4009 42.7633 31.402 42.759 31.4027 42.7548C31.8221 40.6057 31.5767 38.4961 31.5767 38.4961C31.1178 40.72 30.0122 42.622 30.0122 42.622" stroke="black" stroke-width="2" stroke-miterlimit="10"/>
<path d="M35.8326 42.2742C35.8326 42.2742 35.8482 39.7315 34.9304 37.1545" stroke="black" stroke-width="2" stroke-miterlimit="10"/>
<path d="M40.2649 40.6378C39.8423 39.9582 38.8698 38.3475 38.2485 36.9429" stroke="black" stroke-width="2" stroke-miterlimit="10"/>
<path d="M43.5091 21.1247C43.8709 21.1247 44.1642 20.8314 44.1642 20.4696C44.1642 20.1078 43.8709 19.8145 43.5091 19.8145C43.1473 19.8145 42.854 20.1078 42.854 20.4696C42.854 20.8314 43.1473 21.1247 43.5091 21.1247Z" stroke="black" stroke-width="2" stroke-miterlimit="10"/>
<path d="M9.25226 43.2938C10.1035 43.2938 10.7936 42.6037 10.7936 41.7525C10.7936 40.9013 10.1035 40.2112 9.25226 40.2112C8.40101 40.2112 7.71094 40.9013 7.71094 41.7525C7.71094 42.6037 8.40101 43.2938 9.25226 43.2938Z" stroke="black" stroke-width="2" stroke-miterlimit="10"/>
</svg>
