<svg width="23" height="23" viewBox="0 0 23 23" fill="none" xmlns="http://www.w3.org/2000/svg">
<path d="M11.5 0.5625C9.33677 0.5625 7.22212 1.20397 5.42346 2.4058C3.62479 3.60763 2.22291 5.31583 1.39507 7.3144C0.567239 9.31297 0.35064 11.5121 0.772666 13.6338C1.19469 15.7555 2.23639 17.7043 3.76602 19.234C5.29566 20.7636 7.24454 21.8053 9.36621 22.2273C11.4879 22.6494 13.687 22.4328 15.6856 21.6049C17.6842 20.7771 19.3924 19.3752 20.5942 17.5765C21.796 15.7779 22.4375 13.6632 22.4375 11.5C22.4344 8.60015 21.2811 5.81995 19.2306 3.76945C17.1801 1.71894 14.3999 0.565602 11.5 0.5625ZM16.1875 12.2812H11.5C11.2928 12.2812 11.0941 12.1989 10.9476 12.0524C10.8011 11.9059 10.7188 11.7072 10.7188 11.5V6.03125C10.7188 5.82405 10.8011 5.62534 10.9476 5.47882C11.0941 5.33231 11.2928 5.25 11.5 5.25C11.7072 5.25 11.9059 5.33231 12.0524 5.47882C12.1989 5.62534 12.2813 5.82405 12.2813 6.03125V10.7188H16.1875C16.3947 10.7188 16.5934 10.8011 16.7399 10.9476C16.8864 11.0941 16.9688 11.2928 16.9688 11.5C16.9688 11.7072 16.8864 11.9059 16.7399 12.0524C16.5934 12.1989 16.3947 12.2812 16.1875 12.2812Z" fill="#2A343F"/>
</svg>
