<svg width="48" height="48" viewBox="0 0 48 48" fill="none" xmlns="http://www.w3.org/2000/svg">
<g clip-path="url(#clip0_1433_1414)">
<path d="M47.2 10.4H29.6C29.1582 10.4 28.8 10.7582 28.8 11.2V30.4H24.8V29.6H25.6C26.0418 29.6 26.4 29.2418 26.4 28.8C26.4 28.3582 26.0418 28 25.6 28H17.6C17.1582 28 16.8 28.3582 16.8 28.8C16.8 29.2418 17.1582 29.6 17.6 29.6H18.4V30.4H10.4V29.6H11.2C11.6418 29.6 12 29.2418 12 28.8C12 28.3582 11.6418 28 11.2 28H3.2C2.7582 28 2.4 28.3582 2.4 28.8C2.4 29.2418 2.7582 29.6 3.2 29.6H4V30.4H0.8C0.3582 30.4 0 30.7582 0 31.2V47.2C0 47.6418 0.3582 48 0.8 48H47.2C47.6418 48 48 47.6418 48 47.2V11.2C48 10.7582 47.6418 10.4 47.2 10.4ZM20 29.6H23.2V30.4H20V29.6ZM5.6 29.6H8.8V30.4H5.6V29.6ZM12.8 46.4H1.6V36.8H12.8V46.4ZM12.8 35.2H1.6V32H12.8V35.2ZM28.8 46.4H14.4V32H28.8V46.4ZM46.4 46.4H30.4V24.8H46.4V46.4ZM46.4 23.2H30.4V12H46.4V23.2Z" fill="black"/>
<path d="M16.8 44.8H26.4C26.8418 44.8 27.2 44.4418 27.2 44V34.4C27.2 33.9582 26.8418 33.6 26.4 33.6H16.8C16.3582 33.6 16 33.9582 16 34.4V44C16 44.4418 16.3582 44.8 16.8 44.8ZM17.6 35.2H25.6V43.2H17.6V35.2Z" fill="black"/>
<path d="M32 22.4C32.4418 22.4 32.8 22.0418 32.8 21.6V18.4C32.8 17.9582 32.4418 17.6 32 17.6C31.5582 17.6 31.2 17.9582 31.2 18.4V21.6C31.2 22.0418 31.5582 22.4 32 22.4Z" fill="black"/>
<path d="M32 30.4C32.4418 30.4 32.8 30.0418 32.8 29.6V26.4C32.8 25.9582 32.4418 25.6 32 25.6C31.5582 25.6 31.2 25.9582 31.2 26.4V29.6C31.2 30.0418 31.5582 30.4 32 30.4Z" fill="black"/>
<path d="M1.88607 14.214C2.03027 14.3344 2.21217 14.4002 2.40007 14.4H26.4001C26.8419 14.4006 27.2006 14.043 27.2013 13.6012C27.2016 13.4134 27.1357 13.2314 27.0153 13.0872L19.0153 3.4872C18.863 3.3049 18.6376 3.1997 18.4001 3.2H17.6001V0.8C17.6001 0.3582 17.2419 0 16.8001 0H12.0001C11.5583 0 11.2001 0.3582 11.2001 0.8V3.2H10.4001C10.1626 3.1997 9.93717 3.3049 9.78487 3.4872L1.78487 13.0872C1.50167 13.4263 1.54697 13.9308 1.88607 14.214ZM12.8001 1.6H16.0001V3.2H12.8001V1.6ZM10.7753 4.8H18.0249L24.6921 12.8H4.10807L10.7753 4.8Z" fill="black"/>
</g>
<defs>
<clipPath id="clip0_1433_1414">
<rect width="48" height="48" fill="white"/>
</clipPath>
</defs>
</svg>
