<svg width="25" height="25" viewBox="0 0 25 25" fill="none" xmlns="http://www.w3.org/2000/svg">
<g clip-path="url(#clip0_990_549)">
<path d="M10.5 0C8.01461 0.00329693 5.63195 0.992076 3.87452 2.74952C2.11708 4.50695 1.1283 6.88961 1.125 9.375C1.125 16.1055 9.85938 24.5352 10.2305 24.8906C10.3027 24.9608 10.3993 25 10.5 25C10.6007 25 10.6973 24.9608 10.7695 24.8906C11.1406 24.5352 19.875 16.1055 19.875 9.375C19.8717 6.88961 18.8829 4.50695 17.1255 2.74952C15.368 0.992076 12.9854 0.00329693 10.5 0ZM10.5 13.6719C9.65016 13.6719 8.8194 13.4199 8.11278 12.9477C7.40617 12.4756 6.85543 11.8045 6.53021 11.0193C6.20499 10.2342 6.11989 9.37023 6.28569 8.53672C6.45148 7.70321 6.86072 6.93758 7.46165 6.33665C8.06258 5.73572 8.82821 5.32648 9.66172 5.16069C10.4952 4.99489 11.3592 5.07998 12.1443 5.40521C12.9295 5.73043 13.6006 6.28117 14.0727 6.98778C14.5449 7.6944 14.7969 8.52516 14.7969 9.375C14.7962 10.5144 14.3433 11.6069 13.5376 12.4126C12.7319 13.2183 11.6394 13.6712 10.5 13.6719Z" fill="#FF0000"/>
</g>
<defs>
<clipPath id="clip0_990_549">
<rect width="25" height="25" fill="white"/>
</clipPath>
</defs>
</svg>
