<svg width="50" height="46" viewBox="0 0 50 46" fill="none" xmlns="http://www.w3.org/2000/svg">
<path d="M43.7424 12.688C43.3038 5.61959 37.4805 0 30.3655 0C29.8714 0 29.4709 0.403666 29.4709 0.902511C29.4709 1.40136 29.8714 1.80502 30.3655 1.80502C36.4983 1.80502 41.5249 6.62153 41.9537 12.7005C38.4917 13.0916 35.6642 16.3248 35.7338 19.8553C35.7338 19.8552 35.7338 25.8768 35.7338 25.8768C28.6871 23.9072 21.3142 23.905 14.2685 25.874V19.8552C14.3415 16.2789 11.448 13.0364 7.937 12.6942C8.36903 6.61829 13.3943 1.80502 19.525 1.80502H25.8927C27.064 1.79586 27.0695 0.0137272 25.8927 9.03736e-06C25.8927 1.22566e-08 19.525 0 19.525 0C12.4035 0 6.57642 5.62973 6.14712 12.7071C-1.22036 13.8334 -2.3137 24.1187 4.77051 26.6743C5.09537 26.7871 5.32209 27.1264 5.32209 27.4992V37.9054C5.32209 38.9013 5.86372 39.7637 6.65969 40.234V42.8692C6.79227 47.0365 12.7862 47.0507 12.9222 42.8692V40.613H37.0757V42.8692C37.1973 47.029 43.2067 47.054 43.3382 42.8692V40.2361C44.1363 39.7664 44.6798 38.9029 44.6798 37.9054V27.4992C44.6798 27.1264 44.9065 26.7871 45.2315 26.6743C52.3577 24.1021 51.1979 13.7157 43.7424 12.688ZM5.35486 24.968C1.76004 23.8037 0.509203 18.8589 3.2429 16.1518C6.48351 12.5637 12.5443 15.0526 12.4792 19.8554C12.4792 19.8552 12.4792 26.9828 12.4792 26.9828C12.4883 27.1472 12.4847 27.3216 12.5754 27.4655C12.7575 27.8551 13.2247 28.0696 13.6333 27.9373C16.2426 27.1236 18.9049 26.6018 21.5828 26.3595L25.3716 29.9935L24.3839 32.1793C24.2105 32.5627 24.3232 33.0166 24.6556 33.2722L27.2858 35.2931C27.676 35.593 28.2386 35.5204 28.5395 35.1212C28.8392 34.7255 28.7632 34.1588 28.37 33.8565L26.3082 32.2727L27.264 30.1574C27.4225 29.8067 27.343 29.3942 27.0665 29.1289L24.0314 26.2177C27.9609 26.1176 31.8994 26.6299 35.7338 27.7538V38.808H14.2685V31.5879C14.2495 30.4007 12.498 30.4027 12.4792 31.5879C12.4792 31.5879 12.4792 38.808 12.4792 38.808H8.00603C7.51284 38.808 7.11139 38.4034 7.11139 37.9055V27.4993C7.11139 26.3517 6.40545 25.3346 5.35486 24.968ZM11.1329 42.8693C11.1015 44.648 8.48021 44.6483 8.44897 42.8692V40.613H11.1329V42.8693ZM41.549 42.8693C41.5176 44.648 38.8963 44.6483 38.865 42.8692V40.613H41.549V42.8693ZM44.647 24.968C43.5964 25.3346 42.8905 26.3517 42.8905 27.4993V37.9054C42.8905 38.4034 42.489 38.808 41.9958 38.808H37.5231V19.8552C37.4556 15.0567 43.5217 12.5604 46.7587 16.1519C49.4916 18.8619 48.2412 23.8027 44.647 24.968Z" fill="black"/>
<path d="M26.199 8C25.6921 8 25.2812 8.37272 25.2812 8.83333V9.66667H23.9045C22.701 9.6842 22.696 11.3149 23.9046 11.3333H25.2812V12.1667C25.2812 12.6273 25.6921 13 26.199 13C26.7058 13 27.1167 12.6273 27.1167 12.1667V11.3333H29.87V12.1667C29.87 12.6273 30.281 13 30.7878 13C31.2946 13 31.7056 12.6273 31.7056 12.1667V11.3333H33.0822C33.5891 11.3333 34 10.9606 34 10.5C34 10.0394 33.5891 9.66667 33.0822 9.66667H31.7056V8.83333C31.6846 7.73849 29.8909 7.73731 29.87 8.83337V9.66667H27.1167V8.83333C27.1167 8.37272 26.7058 8 26.199 8Z" fill="black"/>
</svg>
