<svg width="58" height="58" viewBox="0 0 58 58" fill="none" xmlns="http://www.w3.org/2000/svg">
<path d="M57.0203 47.3002C56.552 47.3002 56.1726 47.6797 56.1726 48.1478V57.0202C56.1726 58.1134 57.868 58.1134 57.868 57.0202V48.1478C57.868 47.6797 57.4885 47.3002 57.0203 47.3002Z" fill="black"/>
<path d="M57.0202 28.1829H50.3638V25.1264H52.3995C53.6387 25.1264 54.6467 24.1184 54.6467 22.8792V2.24735C54.6467 1.00817 53.6387 0 52.3995 0H20.7747C19.5355 0 18.5275 1.00817 18.5275 2.24735V5.29096C18.5275 6.38423 20.2228 6.38423 20.2228 5.29096V2.24735C20.2228 1.94298 20.4703 1.69535 20.7747 1.69535H52.3996C52.7039 1.69535 52.9515 1.94298 52.9515 2.24735V18.6842H50.364V9.65286C50.364 9.37313 50.226 9.11148 49.9952 8.95348C49.7645 8.79547 49.4706 8.76145 49.2098 8.86249C48.988 8.9485 44.3113 10.8584 43.3161 18.6841H20.2228V9.69875C20.2228 8.60548 18.5275 8.60548 18.5275 9.69875V22.8792C18.5275 24.1184 19.5355 25.1264 20.7747 25.1264H32.1613V28.1829H12.9147C14.7923 26.3074 14.9756 23.3375 14.9756 20.8422C14.9756 20.374 14.5962 19.9945 14.1279 19.9945H9.55047V18.3942C12.2698 18.9722 15.2342 16.7422 15.1979 13.9134C15.193 13.5345 15.146 13.1496 14.796 12.9184C13.1859 11.8557 10.9683 12.2985 9.55047 13.459V11.9299C11.9729 10.258 12.1528 6.32071 9.825 4.48295C9.59048 4.29782 9.33097 4.12162 9.0526 4.00814C7.85783 3.52034 6.5445 5.64845 6.25979 6.4699C5.58719 8.41096 6.1956 10.6434 7.855 11.8751V13.4497C6.76693 12.5643 5.34589 12.1277 3.95762 12.4058C3.38392 12.5207 2.37857 12.7803 2.25346 13.4758C1.71569 16.4682 5.1056 18.9736 7.85512 18.3967V19.9945H2.9386C2.47035 19.9945 2.09093 20.374 2.09093 20.8422C2.09093 23.334 2.22611 26.3076 4.10342 28.1829H0.847674C0.379419 28.1829 0 28.5624 0 29.0306V57.0202C0 58.1135 1.69535 58.1135 1.69535 57.0202V53.0644H17.01V57.0202C17.01 58.1135 18.7054 58.1135 18.7054 57.0202V35.4328H48.6808C48.6852 35.7281 48.7135 37.3189 48.717 37.7957H34.3711C31.0198 37.7957 28.5368 38.668 26.9909 40.3883C25.1348 42.4537 25.3791 44.9574 25.3906 45.0628C25.4367 45.4936 25.8002 45.8202 26.2334 45.8202H37.1847V47.346H33.8505C32.7572 47.346 32.7572 49.0414 33.8505 49.0414H37.1847V56.1726H26.3344C25.2411 56.1726 25.2411 57.8679 26.3344 57.8679H37.73C37.824 57.9039 37.9256 57.9244 38.0323 57.9244C38.139 57.9244 38.2406 57.9039 38.3347 57.8679H49.7302C50.8235 57.8679 50.8235 56.1726 49.7302 56.1726H38.88V45.8203H44.5431C46.4892 45.8203 47.8959 45.3511 48.8439 44.386C50.5052 42.6946 50.4546 39.8626 50.3905 36.277C50.3855 35.9996 50.3807 35.7175 50.3764 35.4327H56.1726V43.4009C56.1726 44.4942 57.8679 44.4942 57.8679 43.4009V29.0306C57.8679 28.5624 57.4885 28.1829 57.0202 28.1829ZM10.9662 14.523C12.0571 13.8309 13.0062 13.994 13.5003 14.1685C13.3511 15.9257 11.2148 17.2043 9.582 16.6508C9.65049 16.1071 9.92649 15.1826 10.9662 14.523ZM5.33176 16.2863C4.61158 15.8294 3.99899 15.0425 3.91976 14.168C5.61737 13.5713 7.6137 14.8934 7.83489 16.6508C7.01151 16.93 6.05353 16.7442 5.33176 16.2863ZM8.74653 5.78329C10.1661 6.86311 10.1025 9.32758 8.74156 10.4233C8.32168 10.0781 7.68829 9.35177 7.68829 8.11304C7.68818 6.82118 8.33445 6.10721 8.74653 5.78329ZM3.79826 21.6898H13.2675C13.1239 26.269 11.7572 28.0757 8.53314 28.0757C5.26485 28.0758 3.9357 26.3272 3.79826 21.6898ZM47.6344 43.1981C47.0217 43.8218 46.0106 44.125 44.5431 44.125H27.0988C27.1772 43.4482 27.4385 42.4267 28.252 41.5215C29.4627 40.1741 31.5214 39.491 34.3712 39.491H48.6953C48.6252 41.1523 48.3741 42.4451 47.6344 43.1981ZM52.9514 20.3796V22.8793C52.9514 23.1837 52.7039 23.4312 52.3995 23.4312H50.3638V20.3796H52.9514ZM47.3427 12.586C47.8043 11.9763 48.2684 11.5225 48.6685 11.1934V32.4263C48.2697 32.0846 47.8091 31.6186 47.3508 30.9997C45.6989 28.7687 44.8257 25.569 44.8257 21.7462C44.8257 17.9291 45.6962 14.7615 47.3427 12.586ZM43.3583 25.1265C43.5202 26.2675 43.7599 27.2827 44.0521 28.183H41.0129V25.1265H43.3583ZM20.2228 22.8792V20.3794H43.1657C43.1127 21.3958 43.1188 22.4156 43.1848 23.4311H20.7747C20.4703 23.4312 20.2228 23.1836 20.2228 22.8792ZM33.8567 25.1265H39.3175V28.183H33.8567V25.1265ZM44.7178 29.8783C45.601 31.7658 46.6975 32.985 47.5846 33.7374H1.69535V29.8783H44.7178ZM1.69535 51.3691V44.2486H17.01V51.3691H1.69535ZM17.01 42.5533H1.69535V35.4328H17.01V42.5533ZM50.3638 33.7374V29.8783H56.1726V33.7374H50.3638Z" fill="black"/>
<path d="M6.1598 39.8407H12.6021C13.6954 39.8407 13.6954 38.1454 12.6021 38.1454H6.1598C5.06653 38.1454 5.06653 39.8407 6.1598 39.8407Z" fill="black"/>
<path d="M12.6021 46.9612H6.1598C5.06653 46.9612 5.06653 48.6565 6.1598 48.6565H12.6021C13.6954 48.6565 13.6954 46.9612 12.6021 46.9612Z" fill="black"/>
</svg>
