<svg width="85" height="73" viewBox="0 0 85 73" fill="none" xmlns="http://www.w3.org/2000/svg">
<path d="M73.4412 67.3975C74.1288 67.3975 74.6863 66.84 74.6863 66.1523C74.6863 65.4647 74.1288 64.9072 73.4412 64.9072C72.7535 64.9072 72.196 65.4647 72.196 66.1523C72.196 66.84 72.7535 67.3975 73.4412 67.3975Z" fill="#2A343F"/>
<path d="M37.3432 67.3975C38.0309 67.3975 38.5883 66.84 38.5883 66.1523C38.5883 65.4647 38.0309 64.9072 37.3432 64.9072C36.6556 64.9072 36.0981 65.4647 36.0981 66.1523C36.0981 66.84 36.6556 67.3975 37.3432 67.3975Z" fill="#2A343F"/>
<path d="M82.9248 54.5936H79.8432V41.1981C79.8432 40.0538 78.9124 39.1229 77.768 39.1229H72.1079V36.8714C72.1079 36.1838 71.5506 35.6263 70.8628 35.6263C70.175 35.6263 69.6177 36.1838 69.6177 36.8714V39.1229H56.6372V26.143H59.3038V29.6393C59.3038 30.5547 60.0485 31.2994 60.9639 31.2994H65.2906C66.206 31.2994 66.9508 30.5547 66.9508 29.6393V26.1427H69.6173V30.8949C69.6173 31.5825 70.1746 32.14 70.8624 32.14C71.5502 32.14 72.1076 31.5825 72.1076 30.8949V25.7276C72.1076 24.5833 71.1767 23.6524 70.0324 23.6524H66.2459C68.3596 21.1386 69.5295 17.9651 69.5295 14.5835C69.5295 12.9778 69.2645 11.4118 68.7409 9.91663L68.9005 9.75709C69.3059 9.35184 69.5292 8.81279 69.5292 8.23937C69.5292 7.66596 69.3059 7.12707 68.9006 6.72183L66.2165 4.03769C65.6564 3.47788 64.8615 3.29294 64.1461 3.48253C61.6585 1.51923 58.5831 0.447266 55.3918 0.447266C50.9879 0.447266 46.9134 2.44543 44.2128 5.92943C43.7914 6.47297 43.8905 7.25507 44.4341 7.67625C44.661 7.85223 44.9295 7.93739 45.1959 7.93739C45.5676 7.93739 45.9355 7.77154 46.1809 7.45495C48.4062 4.58404 51.7635 2.9375 55.3916 2.9375C57.8232 2.9375 60.1732 3.69287 62.1337 5.08574L56.7827 10.4368L53.7049 7.35883C53.2995 6.95358 52.7606 6.73029 52.1873 6.73029C51.6139 6.73029 51.075 6.95358 50.6696 7.35899L47.986 10.0428C47.5806 10.448 47.3573 10.9871 47.3573 11.5605C47.3573 12.1339 47.5806 12.6728 47.9858 13.0781L55.2651 20.3574C55.6705 20.7626 56.2094 20.9859 56.7827 20.9859C57.3561 20.9859 57.895 20.7626 58.3004 20.3572L66.7348 11.9226C66.9372 12.7884 67.0391 13.678 67.0391 14.5833C67.0391 18.1457 65.4628 21.4282 62.6998 23.6523H48.0836C45.3214 21.4275 43.7456 18.145 43.7456 14.5833C43.7456 13.8036 43.823 13.0244 43.9755 12.2677C44.1115 11.5936 43.6751 10.937 43.001 10.8012C42.3259 10.6644 41.6703 11.1017 41.5345 11.7757C41.3493 12.6941 41.2554 13.6387 41.2554 14.5835C41.2554 17.9649 42.4251 21.1385 44.5385 23.6524H40.7514C39.607 23.6524 38.6762 24.5833 38.6762 25.7276V39.1231H33.016C31.8717 39.1231 30.9408 40.0539 30.9408 41.1983V54.5938H28.2741V20.3945C28.2741 16.504 25.109 13.3389 21.2185 13.3389H12.804V12.0056C12.804 11.318 12.2465 10.7605 11.5588 10.7605C10.8712 10.7605 10.3137 11.318 10.3137 12.0056V13.3389H2.0752C0.93085 13.3389 0 14.2697 0 15.4141V18.9107C0 20.055 0.93085 20.9859 2.0752 20.9859H10.3137V22.3192C10.3137 23.0068 10.8712 23.5643 11.5588 23.5643C12.2465 23.5643 12.804 23.0068 12.804 22.3192V20.9859H20.6274V51.6224C20.6274 52.3101 21.1849 52.8675 21.8726 52.8675C22.5602 52.8675 23.1177 52.3101 23.1177 51.6224V20.5709C23.1177 19.4265 22.1868 18.4957 21.0425 18.4957H12.804V15.8291H21.2188C23.7362 15.8291 25.7842 17.8771 25.7842 20.3945V64.8977C24.2934 64.776 23.1177 63.5237 23.1177 62.0022V57.599C23.1177 56.9113 22.5602 56.3539 21.8726 56.3539C21.1849 56.3539 20.6274 56.9113 20.6274 57.599V62.0022C20.6274 64.9772 23.0479 67.3977 26.0229 67.3977H31.0629C31.6439 70.3339 34.2391 72.5545 37.3432 72.5545C40.4474 72.5545 43.0424 70.3339 43.6236 67.3977H67.161C67.742 70.3339 70.3372 72.5545 73.4413 72.5545C76.5455 72.5545 79.1405 70.3339 79.7217 67.3977H82.9248C84.0692 67.3977 85 66.4669 85 65.3225V56.669C85 55.5244 84.0692 54.5936 82.9248 54.5936ZM56.783 18.353L49.9905 11.5604L52.1877 9.36297L55.5839 12.7593C56.2449 13.4204 57.3209 13.4204 57.982 12.7593L64.6993 6.04199L66.8965 8.23937L56.783 18.353ZM2.49023 15.8288H10.3137V18.4953H2.49023V15.8288ZM77.353 54.5936H64.3726V41.6132H67.0391V45.1098C67.0391 46.0252 67.7839 46.7699 68.6993 46.7699H73.026C73.9414 46.7699 74.6861 46.0252 74.6861 45.1098V41.6132H77.3527V54.5936H77.353ZM48.9019 41.6132H51.5686V45.1098C51.5686 46.0252 52.3134 46.7699 53.2288 46.7699H57.5555C58.4709 46.7699 59.2156 46.0252 59.2156 45.1098V41.6132H61.8822V54.5936H48.9017V41.6132H48.9019ZM72.196 44.2797H69.5295V41.6132H72.196V44.2797ZM56.7255 44.2797H54.059V41.6132H56.7255V44.2797ZM64.4607 28.8092H61.7942V26.1427H64.4607V28.8092ZM46.3235 26.1425H48.99V28.809H46.3235V26.1425ZM41.1667 26.1425H43.8333V29.6391C43.8333 30.5545 44.578 31.2993 45.4934 31.2993H49.8201C50.7355 31.2993 51.4803 30.5545 51.4803 29.6391V26.1428H54.1468V39.1228H41.1664V26.1425H41.1667ZM38.5882 41.6132H41.2549V44.2797H38.5882V41.6132ZM33.4314 41.6132H36.0979V45.1098C36.0979 46.0252 36.8427 46.7699 37.7581 46.7699H42.085C43.0004 46.7699 43.7451 46.0252 43.7451 45.1098V41.6132H46.4117V54.5936H33.4314V41.6132ZM37.3431 70.0641C35.1862 70.0641 33.4314 68.3093 33.4314 66.1524C33.4314 63.9956 35.1862 62.2408 37.3431 62.2408C39.4999 62.2408 41.2549 63.9956 41.2549 66.1524C41.2549 68.3093 39.5001 70.0641 37.3431 70.0641ZM73.4412 70.0641C71.2843 70.0641 69.5295 68.3093 69.5295 66.1524C69.5295 63.9956 71.2843 62.2408 73.4412 62.2408C75.598 62.2408 77.3528 63.9956 77.3528 66.1524C77.3528 68.3093 75.598 70.0641 73.4412 70.0641ZM82.5098 64.9073H79.7215C79.1405 61.9712 76.5453 59.7504 73.4412 59.7504C70.337 59.7504 67.7418 61.9712 67.1608 64.9073H43.6234C43.0424 61.9712 40.4472 59.7505 37.3431 59.7505C34.2389 59.7505 31.6437 61.9713 31.0627 64.9075H28.2745V57.084H82.5098V64.9073Z" fill="#2A343F"/>
</svg>
