<svg width="83" height="90" viewBox="0 0 83 90" fill="none" xmlns="http://www.w3.org/2000/svg">
<path d="M74.3325 71.1245C69.0261 76.7061 62.2322 79.7806 55.2019 79.7806C43.6793 79.7806 33.7023 71.6889 29.0069 59.9921H61.0129C63.7882 59.9921 66.0384 57.7419 66.0384 54.9666C66.0384 52.1912 63.7882 49.941 61.0129 49.941H26.453C26.2554 48.298 26.1475 46.622 26.1475 44.9153C26.1475 42.9902 26.283 41.1031 26.5358 39.2614H61.0129C63.7882 39.2614 66.0384 37.0113 66.0384 34.2359C66.0384 31.4605 63.7882 29.2102 61.0129 29.2102H29.2742C34.0704 17.8559 43.8879 10.05 55.2019 10.05C62.2322 10.05 69.0261 13.1247 74.3325 18.7057C76.2428 20.7162 79.4219 20.7988 81.4367 18.8867C83.4488 16.9739 83.5285 13.7929 81.6183 11.7815C74.3964 4.184 65.0152 0 55.2031 0C38.4489 0 24.1273 12.1684 18.5697 29.2116H5.10255C2.3272 29.2116 0.0770264 31.4618 0.0770264 34.2371C0.0770264 37.0125 2.3272 39.2627 5.10255 39.2627H16.4163C16.2127 41.1172 16.0962 43.0006 16.0962 44.9166C16.0962 46.6171 16.1851 48.2908 16.3476 49.9423H5.10255C2.3272 49.9423 0.0770264 52.1925 0.0770264 54.9678C0.0770264 57.7432 2.3272 59.9934 5.10255 59.9934H18.3703C23.7763 77.366 38.2425 89.8331 55.2019 89.8331C65.015 89.8331 74.3939 85.6481 81.6158 78.0519C83.5272 76.0398 83.4488 72.8592 81.4354 70.9466C79.4246 69.0337 76.2428 69.1136 74.3325 71.1245Z" fill="#2A343F"/>
</svg>
