<svg width="70" height="70" viewBox="0 0 70 70" fill="none" xmlns="http://www.w3.org/2000/svg">
<g clip-path="url(#clip0_884_1127)">
<path d="M57.3282 28.8513C55.602 27.6253 54.7824 25.6469 55.1362 23.5591C55.6039 20.7953 54.975 18.6613 53.1567 16.8431C51.3628 15.049 49.1658 14.4017 46.4405 14.8638C44.3528 15.2176 42.3746 14.398 41.1484 12.6716C39.5254 10.3865 37.5715 9.32203 34.9997 9.32203C32.4279 9.32203 30.4741 10.3864 28.8509 12.6716C27.6248 14.3979 25.6468 15.2175 23.5587 14.8637C20.7949 14.3962 18.6607 15.0248 16.8427 16.8431C15.0486 18.6371 14.4014 20.8339 14.8635 23.5592C15.2172 25.6468 14.3977 27.6251 12.6714 28.8513C10.3862 30.4745 9.32176 32.4282 9.32176 35C9.32176 37.5718 10.3861 39.5257 12.6714 41.1487C14.3976 42.3747 15.2171 44.3531 14.8634 46.4409C14.3957 49.2047 15.0246 51.3387 16.8429 53.1569C18.637 54.9508 20.8339 55.5985 23.559 55.1361C25.6461 54.7822 27.625 55.6019 28.8511 57.3282C30.4742 59.6133 32.428 60.6778 34.9999 60.6778C37.5717 60.6778 39.5255 59.6135 41.1485 57.3282C42.3746 55.602 44.3531 54.7827 46.4408 55.1363C49.2047 55.6042 51.3387 54.975 53.1568 53.1568C54.9507 51.3628 55.598 49.166 55.1359 46.4406C54.7822 44.3531 55.6017 42.3747 57.3281 41.1485C59.6132 39.5255 60.6776 37.5717 60.6776 34.9999C60.6776 32.428 59.6132 30.4742 57.3281 28.8512L57.3282 28.8513ZM56.22 39.5881C53.8803 41.25 52.7696 43.9312 53.2491 46.7605C53.6097 48.8876 53.1639 50.4429 51.8036 51.8033C50.4438 53.1632 48.8882 53.6091 46.7605 53.2491C43.9314 52.7699 41.25 53.8802 39.5883 56.2198C38.3388 57.9791 36.9238 58.7636 35.0001 58.7636C33.0765 58.7636 31.6615 57.9791 30.4119 56.2198C29.005 54.2391 26.8677 53.1393 24.528 53.1393C24.1042 53.1393 23.6734 53.1755 23.2393 53.2489C21.1124 53.6096 19.5569 53.1638 18.1966 51.8034C16.8366 50.4435 16.3908 48.8882 16.7508 46.7604C17.2301 43.931 16.1196 41.2498 13.78 39.5881C12.0207 38.3387 11.2362 36.9236 11.2362 35C11.2362 33.0764 12.0207 31.6615 13.78 30.4119C16.1197 28.75 17.2304 26.0688 16.7509 23.2395C16.3901 21.1124 16.836 19.5571 18.1964 18.1966C19.5562 16.8366 21.1114 16.3908 23.2395 16.7509C26.0688 17.2304 28.75 16.1197 30.4117 13.7802C31.6613 12.0209 33.0764 11.2364 35 11.2364C36.9236 11.2364 38.3385 12.0209 39.5881 13.7802C41.2498 16.1198 43.9307 17.2303 46.7605 16.7511C48.8878 16.3903 50.4431 16.8362 51.8034 18.1966C53.1634 19.5565 53.6092 21.1118 53.2491 23.2396C52.7696 26.069 53.8803 28.7502 56.2198 30.4119C57.9791 31.6613 58.7635 33.0764 58.7635 35C58.7635 36.9236 57.979 38.3387 56.2198 39.5881H56.22ZM35 18.2923C25.7873 18.2923 18.2923 25.7873 18.2923 35C18.2923 44.2127 25.7873 51.7077 35 51.7077C44.2127 51.7077 51.7077 44.2127 51.7077 35C51.7077 25.7873 44.2127 18.2923 35 18.2923ZM35 49.7935C26.8428 49.7935 20.2063 43.1571 20.2063 34.9999C20.2063 26.8427 26.8428 20.2062 35 20.2062C43.1572 20.2062 49.7937 26.8427 49.7937 34.9999C49.7937 43.1571 43.1572 49.7935 35 49.7935ZM42.1251 26.4623C41.2111 26.4623 40.3536 26.8164 39.7105 27.4594L31.2692 35.9007L29.3465 32.5705C28.4052 30.94 26.3128 30.3795 24.6821 31.3206C23.0516 32.2621 22.4909 34.3545 23.4322 35.9851L27.7316 43.4317C28.2375 44.3081 29.0686 44.8634 30.0721 44.9955C30.2196 45.0149 30.3656 45.0245 30.5102 45.0245C31.3485 45.0245 32.1271 44.701 32.7374 44.0907L44.5397 32.2885C45.1828 31.6455 45.5369 30.788 45.5369 29.874C45.5369 28.96 45.1828 28.1025 44.5398 27.4596C43.8968 26.8164 43.0393 26.4625 42.1254 26.4625L42.1251 26.4623ZM43.186 30.9349L31.3837 42.7372C31.0903 43.0306 30.7329 43.1523 30.3215 43.0979C29.9101 43.0437 29.5963 42.8341 29.3889 42.4747L25.0895 35.028C24.676 34.3115 24.9223 33.3919 25.6387 32.9781C26.3555 32.5644 27.275 32.8107 27.6887 33.5274L30.2351 37.9378C30.3838 38.1955 30.644 38.3693 30.9389 38.4081C31.2338 38.447 31.5302 38.3465 31.7405 38.1361L41.0637 28.8128C41.3453 28.5313 41.7221 28.3763 42.1248 28.3763C42.5276 28.3763 42.9044 28.5313 43.1858 28.8128C43.4673 29.0943 43.6223 29.4711 43.6223 29.8739C43.6223 30.2766 43.4673 30.6534 43.1858 30.9349H43.186ZM17.4232 6.47008C17.1589 6.01234 17.3157 5.42705 17.7734 5.16277C18.2313 4.89863 18.8165 5.05531 19.0807 5.51305L21.4469 9.61133C21.7112 10.0691 21.5544 10.6544 21.0967 10.9186C20.946 11.0056 20.7814 11.047 20.619 11.047C20.2882 11.047 19.9665 10.8754 19.7894 10.5684L17.4232 6.47008ZM5.16277 17.7734C5.42705 17.3156 6.01234 17.1589 6.47008 17.4232L10.5684 19.7892C11.0261 20.0535 11.1829 20.6388 10.9186 21.0965C10.7414 21.4036 10.4197 21.5752 10.089 21.5752C9.9266 21.5752 9.76213 21.5339 9.61133 21.4468L5.51305 19.0807C5.05531 18.8165 4.8985 18.2312 5.16277 17.7734ZM6.23629 35.957H1.50391C0.975352 35.957 0.546875 35.5286 0.546875 35C0.546875 34.4714 0.975352 34.043 1.50391 34.043H6.23615C6.76471 34.043 7.19318 34.4714 7.19318 35C7.19318 35.5286 6.76484 35.957 6.23629 35.957ZM34.043 6.23615V1.50391C34.043 0.975352 34.4714 0.546875 35 0.546875C35.5286 0.546875 35.957 0.975352 35.957 1.50391V6.23615C35.957 6.76471 35.5286 7.19318 35 7.19318C34.4714 7.19318 34.043 6.76471 34.043 6.23615ZM48.5531 9.61133L50.9191 5.51305C51.1834 5.05518 51.7687 4.8985 52.2264 5.16277C52.6842 5.42705 52.841 6.01234 52.5767 6.47008L50.2106 10.5684C50.0335 10.8754 49.7118 11.047 49.381 11.047C49.2186 11.047 49.0541 11.0057 48.9033 10.9186C48.4456 10.6544 48.2888 10.0691 48.5531 9.61133ZM59.0812 21.0967C58.817 20.6389 58.9738 20.0536 59.4315 19.7894L63.5298 17.4232C63.9878 17.159 64.573 17.3158 64.8371 17.7734C65.1014 18.2312 64.9445 18.8165 64.4868 19.0807L60.3885 21.4469C60.2377 21.5339 60.0733 21.5753 59.9108 21.5753C59.5801 21.5753 59.2584 21.4037 59.0812 21.0967ZM10.9186 48.9035C11.1829 49.3612 11.0261 49.9465 10.5684 50.2108L6.47008 52.577C6.31928 52.6639 6.1548 52.7054 5.99238 52.7054C5.66166 52.7054 5.33996 52.5338 5.16277 52.2267C4.8985 51.769 5.05531 51.1837 5.51305 50.9194L9.61133 48.5532C10.0692 48.2891 10.6544 48.4457 10.9186 48.9035ZM64.8372 52.2266C64.66 52.5335 64.3383 52.7052 64.0075 52.7052C63.8451 52.7052 63.6806 52.6639 63.5299 52.5768L59.4316 50.2108C58.9739 49.9465 58.8171 49.3612 59.0814 48.9035C59.3456 48.4456 59.9311 48.2889 60.3887 48.5532L64.487 50.9193C64.9447 51.1835 65.1015 51.7688 64.8372 52.2266ZM69.453 35C69.453 35.5286 69.0245 35.957 68.496 35.957H63.7637C63.2352 35.957 62.8067 35.5286 62.8067 35C62.8067 34.4714 63.2352 34.043 63.7637 34.043H68.496C69.0245 34.043 69.453 34.4714 69.453 35ZM52.5767 63.5299C52.841 63.9877 52.6842 64.573 52.2264 64.8372C52.0756 64.9242 51.9112 64.9656 51.7487 64.9656C51.418 64.9656 51.0963 64.794 50.9191 64.487L48.5529 60.3887C48.2887 59.9309 48.4455 59.3456 48.9032 59.0814C49.3611 58.8171 49.9462 58.9739 50.2105 59.4316L52.5767 63.5299ZM35.9569 63.7637V68.496C35.9569 69.0245 35.5284 69.453 34.9999 69.453C34.4713 69.453 34.0428 69.0245 34.0428 68.496V63.7637C34.0428 63.2352 34.4713 62.8067 34.9999 62.8067C35.5284 62.8067 35.9569 63.2352 35.9569 63.7637ZM21.4467 60.3887L19.0806 64.487C18.9034 64.794 18.5817 64.9656 18.2509 64.9656C18.0884 64.9656 17.924 64.9243 17.7733 64.8372C17.3156 64.573 17.1587 63.9877 17.423 63.5299L19.7891 59.4316C20.0534 58.9738 20.6387 58.817 21.0964 59.0814C21.5541 59.3456 21.7109 59.9309 21.4467 60.3887Z" fill="#9BA71F"/>
</g>
<defs>
<clipPath id="clip0_884_1127">
<rect width="70" height="70" fill="white"/>
</clipPath>
</defs>
</svg>
