<svg width="82" height="76" viewBox="0 0 82 76" fill="none" xmlns="http://www.w3.org/2000/svg">
<path d="M79.6026 23.0157H67.2958C65.7498 23.0157 64.2172 22.5049 62.9804 21.5773C60.9191 20.0313 58.3647 19.1798 55.7881 19.1798H43.2285C40.5164 19.1798 37.8669 20.1113 35.7492 21.8023L35.7468 21.7999C34.0572 20.1104 31.8108 19.1797 29.4214 19.1797H16.945C14.5556 19.1797 12.3092 20.1102 10.6197 21.7999C10.2319 22.1875 9.77929 22.4901 9.27247 22.6997C8.76694 22.9094 8.23279 23.0157 7.68458 23.0157H2.56527C1.24125 23.0157 0.167847 24.0891 0.167847 25.4132V54.8216C0.167847 56.1456 1.24125 57.219 2.56527 57.219H12.0035L29.8541 74.0187C31.1971 75.2833 32.8978 75.9129 34.5968 75.9127C36.3645 75.9125 38.13 75.231 39.4869 73.8741L39.5828 73.7782C40.8041 72.5569 41.4706 70.9889 41.5858 69.388C43.1865 69.2725 44.7545 68.6063 45.976 67.3851C47.0152 66.3457 47.6816 65.0341 47.912 63.6121H53.992C57.7705 63.6121 61.4509 62.2797 64.3548 59.8607C65.3759 59.0107 66.5249 58.3512 67.7716 57.9C69.0178 57.4481 70.3226 57.2189 71.65 57.2189H79.6026C80.9266 57.2189 82 56.1455 82 54.8214V25.413C82 24.089 80.9266 23.0157 79.6026 23.0157ZM42.5854 63.9946C41.7646 64.8153 40.4035 64.8152 39.5827 63.9946L31.2716 55.6835C30.3355 54.7474 28.8174 54.7474 27.8811 55.6835C26.9449 56.6197 26.9449 58.1377 27.8811 59.074C27.8811 59.074 36.1831 67.376 36.1922 67.3851C37.0692 68.262 36.9393 69.6409 36.0963 70.4837C35.2798 71.3001 33.9816 71.3194 33.1405 70.5275L14.5972 53.0758C14.1525 52.6572 13.5648 52.4242 12.9541 52.4242H4.9627V27.8106H7.68458C8.86619 27.8106 10.0184 27.5812 11.1073 27.1297C12.1978 26.6784 13.1745 26.0259 14.0099 25.1904C14.7939 24.4064 15.8363 23.9747 16.9449 23.9747H29.4212C30.3674 23.9747 31.2649 24.2902 31.9951 24.8699L24.2222 31.2295C23.6981 31.6585 23.3797 32.2891 23.346 32.9655C23.3123 33.6419 23.5662 34.3012 24.0453 34.7802L26.0275 36.7624C29.3802 40.1151 34.7689 40.4982 38.5623 37.6533L42.1377 34.9719C42.1377 34.9719 55.3409 48.1751 55.3715 48.2057C56.1879 49.0221 56.185 50.3948 55.3715 51.2083C54.5436 52.0363 53.1967 52.0363 52.3688 51.2083L44.0577 42.8973C43.1216 41.9612 41.6035 41.9612 40.6673 42.8973C39.731 43.8334 39.731 45.3514 40.6673 46.2877C40.6673 46.2877 48.9398 54.5603 48.9782 54.5986C49.7867 55.4072 49.7805 56.7991 48.9785 57.6013C48.1576 58.4224 46.796 58.4216 45.9756 57.6015L37.6646 49.2904C36.7284 48.3543 35.2104 48.3543 34.2741 49.2904C33.3378 50.2265 33.3378 51.7446 34.2741 52.6808C34.2741 52.6808 42.5596 60.9664 42.5852 60.9919C43.395 61.8016 43.3903 63.1896 42.5854 63.9946ZM66.1382 53.3918C64.3687 54.032 62.7365 54.9686 61.2862 56.176C59.2416 57.8791 56.6511 58.8171 53.9917 58.8171H53.8422C54.1398 58.1208 54.3206 57.3753 54.3759 56.6053C56.0328 56.4862 57.5752 55.7857 58.7621 54.5986C60.0693 53.2914 60.7893 51.5541 60.7893 49.7069C60.7893 47.8598 60.0693 46.1223 58.7621 44.8152L53.2084 39.2615C53.7057 39.2984 54.2063 39.3181 54.7103 39.3181H62.8206C64.1446 39.3181 65.218 38.2447 65.218 36.9206C65.218 35.5966 64.1446 34.5232 62.8206 34.5232H54.7101C50.6861 34.5232 46.9031 32.9561 44.0579 30.111C43.2143 29.2673 41.8788 29.1723 40.9243 29.8882L35.6856 33.8173C33.7889 35.2399 31.0943 35.0483 29.418 33.3718L29.309 33.2627L37.098 26.8898C37.0986 26.8893 37.0994 26.8887 37.1 26.8881L38.674 25.6002C39.9555 24.5517 41.573 23.9744 43.2285 23.9744H55.7881C57.3342 23.9744 58.8668 24.4852 60.1035 25.4128C62.1648 26.9589 64.7192 27.8103 67.2958 27.8103H77.2052V52.4238H71.6495C69.7632 52.4242 67.9082 52.7499 66.1382 53.3918Z" fill="white"/>
<path d="M35.9693 12.4666C37.2934 12.4666 38.3668 11.3932 38.3668 10.0692V2.39743C38.3668 1.07341 37.2934 0 35.9693 0C34.6453 0 33.5719 1.07341 33.5719 2.39743V10.0692C33.5719 11.3932 34.6453 12.4666 35.9693 12.4666Z" fill="white"/>
<path d="M24.0452 13.0427C24.5134 13.5108 25.1269 13.745 25.7404 13.745C26.3538 13.745 26.9675 13.5108 27.4355 13.0427C28.3718 12.1066 28.3718 10.5885 27.4355 9.65223L23.5996 5.81634C22.6635 4.88023 21.1455 4.88023 20.2092 5.81634C19.2729 6.75246 19.2729 8.27051 20.2092 9.20679L24.0452 13.0427Z" fill="white"/>
<path d="M46.1985 13.745C46.8121 13.745 47.4257 13.5108 47.8937 13.0427L51.7296 9.20679C52.6658 8.27067 52.6658 6.75262 51.7296 5.81634C50.7934 4.88023 49.2754 4.88023 48.3391 5.81634L44.5032 9.65223C43.567 10.5883 43.567 12.1064 44.5032 13.0427C44.9714 13.5108 45.5849 13.745 46.1985 13.745Z" fill="white"/>
</svg>
