<svg width="48" height="48" viewBox="0 0 48 48" fill="none" xmlns="http://www.w3.org/2000/svg">
<g clip-path="url(#clip0_1460_1894)">
<path d="M13.6467 28.6506C14.0499 29.3326 14.7932 29.7562 15.5869 29.7562C15.9881 29.7562 16.3842 29.6475 16.7328 29.4415C17.8011 28.8088 18.1557 27.4246 17.5234 26.356C17.0196 25.5046 16.7533 24.5133 16.7533 23.4891C16.7533 22.3694 17.0822 21.2832 17.6747 20.389C17.9782 20.6629 18.3786 20.8312 18.8187 20.8312H22.1554V27.107C22.1554 28.349 23.1659 29.3594 24.4079 29.3594C25.6499 29.3594 26.6603 28.349 26.6603 27.107V20.8312H29.9964C30.4367 20.8312 30.8374 20.6628 31.1412 20.3888C31.7337 21.283 32.0627 22.3693 32.0627 23.4891C32.0627 24.5137 31.7961 25.5049 31.2913 26.3566C30.6599 27.4259 31.0153 28.8099 32.0836 29.4418C33.1786 30.0892 34.5502 29.6942 35.1689 28.6509C36.0837 27.1055 36.5672 25.3205 36.5672 23.4891C36.5672 21.6242 36.0644 19.81 35.1129 18.2428C34.2617 16.8404 33.0903 15.6952 31.7091 14.9065V14.6644C31.7091 13.7205 30.9407 12.9525 29.9963 12.9525H26.7792V1.17188C26.7792 0.525656 26.2535 0 25.6073 0H23.2082C22.562 0 22.0364 0.525656 22.0364 1.17188V4.29244C22.0364 4.68084 22.3511 4.99556 22.7395 4.99556C23.1279 4.99556 23.4426 4.68084 23.4426 4.29244V1.40625H25.3729V12.9525H23.4426V7.57369C23.4426 7.18528 23.1279 6.87056 22.7395 6.87056C22.3511 6.87056 22.0364 7.18528 22.0364 7.57369V12.9525H18.8186C17.8746 12.9525 17.1066 13.7204 17.1066 14.6644V14.9064C15.725 15.695 14.5535 16.8403 13.7021 18.2427C12.7505 19.8099 12.2476 21.6241 12.2476 23.4891C12.2476 25.3193 12.7314 27.1042 13.6467 28.6506ZM24.4078 27.9532C23.9411 27.9532 23.5616 27.5736 23.5616 27.107V17.9216C23.5616 17.4549 23.9412 17.0754 24.4078 17.0754C24.8745 17.0754 25.254 17.455 25.254 17.9216V27.107C25.254 27.5737 24.8745 27.9532 24.4078 27.9532ZM35.161 23.489C35.161 25.0686 34.7452 26.6058 33.959 27.934C33.7152 28.3453 33.1964 28.4659 32.7993 28.2313C32.3981 27.9939 32.2648 27.4736 32.5016 27.0726C33.1344 26.0048 33.4688 24.7657 33.4688 23.489C33.4688 21.7522 32.8305 20.073 31.7091 18.8331V16.5775C33.8368 18.119 35.161 20.7142 35.161 23.489ZM18.5129 14.6644C18.5129 14.4958 18.65 14.3588 18.8186 14.3588H29.9963C30.1654 14.3588 30.303 14.4958 30.303 14.6644V19.1184C30.303 19.2876 30.1654 19.425 29.9963 19.425H26.6602V17.9216C26.6602 16.6796 25.6498 15.6692 24.4078 15.6692C23.1658 15.6692 22.1553 16.6796 22.1553 17.9216V19.425H18.8186C18.65 19.425 18.5129 19.2875 18.5129 19.1184V14.6644ZM17.1066 16.5773V18.8331C15.9854 20.073 15.3469 21.7522 15.3469 23.489C15.3469 24.7649 15.681 26.004 16.313 27.0721C16.5507 27.4736 16.4175 27.9938 16.0168 28.2311C15.8852 28.3088 15.7367 28.35 15.5869 28.35C15.2882 28.35 15.0085 28.191 14.857 27.9346C14.0699 26.6047 13.6538 25.0674 13.6538 23.489C13.6538 20.7141 14.9785 18.1186 17.1066 16.5773Z" fill="black"/>
<path d="M43.6397 46.5937H41.8459V43.1971C41.8459 42.0151 40.8843 41.0534 39.7022 41.0534H39.1642C38.8798 41.0534 38.6178 40.887 38.4967 40.6295L38.1661 39.9258C38.0008 39.5743 37.5818 39.4232 37.2306 39.5883C36.8792 39.7535 36.7281 40.1722 36.8932 40.5238L37.2239 41.2276C37.5756 41.9761 38.3373 42.4597 39.1641 42.4597H39.7021C40.1088 42.4597 40.4396 42.7905 40.4396 43.1972V46.5938H8.23826L8.52935 44.9178C8.56085 44.7363 8.70363 44.5936 8.88513 44.5623L10.3038 44.3178C10.7869 44.2351 11.2249 43.9567 11.5063 43.553L13.3648 40.8735C13.5784 40.5663 13.9287 40.383 14.3015 40.383H15.7612L15.4182 40.9771C15.1406 41.4579 15.1406 42.0553 15.4182 42.5361L16.7275 44.8039C17.0052 45.2847 17.5224 45.5833 18.0776 45.5833H20.6962C21.2514 45.5833 21.7686 45.2846 22.0463 44.8039L23.3557 42.5359C23.633 42.0552 23.633 41.458 23.3556 40.9771L22.0463 38.7094C21.8584 38.3839 21.5605 38.1424 21.2155 38.0199L21.6456 35.7595C21.7485 35.22 22.2216 34.8283 22.7709 34.8283H26.0859C26.3778 34.8283 26.6561 34.9382 26.8693 35.1374L27.8798 36.0828L26.8402 37.1223C26.3774 37.5853 26.3774 38.3384 26.8402 38.8015L27.7188 39.68L25.7539 41.6448C25.57 41.8289 25.4503 42.0723 25.4165 42.3302L25.1668 44.242C25.1186 44.6105 25.2417 44.9726 25.5046 45.2354C25.7299 45.4608 26.0283 45.5834 26.3411 45.5834C26.393 45.5834 26.4454 45.58 26.4979 45.5732L28.4096 45.3234C28.6675 45.2898 28.9111 45.1699 29.0955 44.9856L31.0599 43.0211L31.9385 43.8997C32.1701 44.1312 32.4741 44.2469 32.7781 44.2469C33.0821 44.2469 33.3861 44.1312 33.6177 43.8997L35.3466 42.1708C35.8096 41.7078 35.8096 40.9546 35.3466 40.4916L32.229 37.374L34.4417 36.7543C34.79 36.6571 35.1544 36.8237 35.3084 37.1517L35.4959 37.5501C35.6157 37.8048 35.8686 37.9541 36.1325 37.9541C36.2328 37.9541 36.3347 37.9325 36.4314 37.887C36.7828 37.7216 36.9335 37.3028 36.7683 36.9514L36.5811 36.5538C36.1347 35.6022 35.0754 35.1169 34.0628 35.4001L31.0882 36.2332L30.2484 35.3934C30.0241 35.1692 29.726 35.0457 29.4089 35.0457C29.243 35.0457 29.0827 35.0802 28.9352 35.1445L27.8297 34.1103C27.3548 33.6665 26.7354 33.4221 26.0858 33.4221H22.7708C21.5472 33.4221 20.493 34.2946 20.2641 35.4966L19.801 37.9299H18.0776C17.5224 37.9299 17.0051 38.2287 16.7275 38.7094L16.5732 38.9768H15.2016L12.2896 33.9346C11.955 33.3538 11.2092 33.1532 10.6257 33.4882L8.94541 34.4583C8.36557 34.7945 8.16616 35.5403 8.50085 36.1212L11.4305 41.1949L10.3517 42.7504C10.285 42.8462 10.181 42.9123 10.0655 42.9321L8.64663 43.1767C7.88069 43.3083 7.27676 43.9114 7.14382 44.6775L6.81101 46.594H5.17554C4.78713 46.594 4.47241 46.9087 4.47241 47.2971C4.47241 47.6855 4.78713 48.0003 5.17554 48.0003H43.6397C44.0281 48.0003 44.3428 47.6855 44.3428 47.2971C44.3428 46.9084 44.0281 46.5937 43.6397 46.5937ZM28.1538 43.9385L26.5981 44.1418L26.8013 42.5861L28.7132 40.6743L30.0655 42.0266L28.1538 43.9385ZM32.7781 42.7503C32.1093 42.0815 27.9895 37.9617 27.9895 37.9617L29.4089 36.5424L34.1974 41.331L32.7781 42.7503ZM18.0776 39.3359H20.6962C20.7506 39.3359 20.8013 39.3651 20.8285 39.4123L22.1377 41.6797C22.1649 41.727 22.1649 41.7857 22.1378 41.8327L20.8285 44.1003C20.8013 44.1475 20.7506 44.1768 20.6962 44.1768H18.0776C18.0232 44.1768 17.9725 44.1475 17.9453 44.1004L16.636 41.8327C16.6088 41.7856 16.6088 41.7271 16.636 41.6799L17.9453 39.4123C17.9726 39.3652 18.0232 39.3359 18.0776 39.3359ZM11.1655 34.8L13.6303 39.0679C13.1192 39.208 12.6595 39.5052 12.3207 39.9243L9.81269 35.5809L11.1655 34.8Z" fill="black"/>
<path d="M37.5976 10.4734C37.607 10.4734 37.6164 10.4732 37.6259 10.4728C38.0139 10.4576 38.316 10.1306 38.3007 9.74253L38.2088 7.41359C39.6851 8.97912 40.8734 10.7652 41.7465 12.7391C42.8151 15.1549 43.357 17.731 43.357 20.3955C43.357 23.936 42.375 27.3875 40.5173 30.3769C40.3123 30.7068 40.4136 31.1403 40.7433 31.3452C41.072 31.5494 41.5059 31.4502 41.7117 31.1192C43.708 27.9068 44.7632 24.1986 44.7632 20.3955C44.7632 17.5338 44.181 14.7663 43.0325 12.1702C42.122 10.1119 40.8934 8.24337 39.3721 6.59778L41.3669 6.67643C41.7535 6.69022 42.0819 6.38956 42.0972 6.00162C42.1125 5.61368 41.8103 5.28659 41.4224 5.27131L38.517 5.15665C38.1446 5.14287 37.7812 5.255 37.4821 5.46781C37.4449 5.49097 37.4102 5.51862 37.3764 5.54853C37.3404 5.58022 37.3034 5.61087 37.2692 5.645C36.9406 5.97368 36.7627 6.42847 36.7811 6.89281L36.8957 9.79803C36.9105 10.1766 37.2221 10.4734 37.5976 10.4734Z" fill="black"/>
<path d="M8.62811 29.9624L9.31867 27.1381C9.41092 26.7609 9.17992 26.3803 8.80267 26.2882C8.42542 26.1958 8.04489 26.4269 7.95274 26.8042L7.43411 28.9251C6.60639 27.2823 6.02449 25.5266 5.70039 23.6896C4.49299 16.8411 7.1267 9.89381 12.5737 5.55872C12.8775 5.31694 12.9278 4.87453 12.686 4.57078C12.4443 4.26684 12.0019 4.21659 11.698 4.45847C5.84739 9.11465 3.01858 16.5772 4.31561 23.9337C4.66474 25.913 5.29267 27.8047 6.18667 29.5748L4.16017 28.9062C3.79145 28.7844 3.39386 28.9849 3.27217 29.3536C3.15049 29.7224 3.35083 30.1199 3.71955 30.2416L6.48058 31.1526C7.40552 31.4581 8.39673 30.9085 8.62811 29.9624Z" fill="black"/>
</g>
<defs>
<clipPath id="clip0_1460_1894">
<rect width="48" height="48" fill="white"/>
</clipPath>
</defs>
</svg>
