<svg width="74" height="47" viewBox="0 0 74 47" fill="none" xmlns="http://www.w3.org/2000/svg">
<path d="M73.8478 20.8924L66.8288 8.3787C66.6334 8.03053 66.2793 7.81694 65.897 7.81694H51.2904V1.14831C51.2904 0.513984 50.8052 0 50.2064 0H18.9801C18.6927 0 18.417 0.120955 18.2135 0.336226L15.9996 2.68154L14.1135 0.683629C13.6903 0.235328 13.0039 0.235328 12.5806 0.683629L5.87447 7.78754C5.45114 8.23615 5.45114 8.96311 5.87447 9.41156C6.2978 9.85971 6.98404 9.86002 7.40752 9.41156L13.3472 3.11943L14.4669 4.3054L4.00785 15.3851L2.88817 14.1991L3.88471 13.1433C4.30804 12.6948 4.30804 11.9677 3.88457 11.5194C3.46138 11.0711 2.775 11.0709 2.35167 11.5196L0.588531 13.3875C0.165199 13.8359 0.165199 14.563 0.588676 15.0113L2.47466 17.0091L0.317391 19.2945C0.11418 19.51 0 19.8019 0 20.1066V35.9879C0 36.3104 0.134992 36.6295 0.361906 36.8444L4.97982 41.2143C5.17841 41.4023 5.43553 41.5061 5.7019 41.5061H13.5447C14.0503 44.1956 16.2949 46.2293 18.9801 46.2293C21.6652 46.2293 23.9099 44.1958 24.4154 41.5061H27.282C27.7876 44.1956 30.0321 46.2293 32.7174 46.2293C35.4026 46.2293 37.6474 44.1958 38.1528 41.5061H49.0441C49.6429 41.5061 50.1281 40.9921 50.1281 40.3578C50.1281 39.7235 49.6429 39.2095 49.0441 39.2095H38.1528C38.0113 38.4568 37.7334 37.756 37.3477 37.1362H53.8166C53.2408 38.0618 52.9045 39.1688 52.9045 40.3578C52.9045 43.5954 55.3909 46.2293 58.447 46.2293C61.1322 46.2293 63.377 44.1958 63.8824 41.5061H72.916C73.5148 41.5061 74 40.9921 74 40.3578V21.4789C74 21.2726 73.9475 21.07 73.8478 20.8924ZM65.2801 10.1136L71.832 21.7945V34.8395H60.3411C59.1267 34.3703 57.7678 34.3703 56.5533 34.8395H51.2902V10.1136H65.2801ZM19.4292 2.29662H49.1224V34.8395H34.6115C33.397 34.3703 32.0382 34.3703 30.8237 34.8395H20.8741C20.6128 34.7386 20.3422 34.6583 20.0643 34.5997V7.03823C20.0643 6.4039 19.5791 5.88992 18.9803 5.88992C18.3815 5.88992 17.8963 6.4039 17.8963 7.03823V34.5997C17.6184 34.6583 17.3478 34.7386 17.0863 34.8395H2.16797V20.5822L19.4292 2.29662ZM27.2822 39.2093H24.4155C24.274 38.4566 23.9961 37.7559 23.6105 37.1361H28.0872C27.7016 37.7559 27.4236 38.4566 27.2822 39.2093ZM3.9246 37.1361H14.3496C13.9642 37.7559 13.6861 38.4566 13.5446 39.2093H6.11555L3.9246 37.1361ZM18.9801 43.9326C17.1194 43.9326 15.6055 42.3288 15.6055 40.3576C15.6055 38.3865 17.1194 36.7827 18.9801 36.7827C20.8408 36.7827 22.3546 38.3865 22.3546 40.3576C22.3546 42.3288 20.8408 43.9326 18.9801 43.9326ZM32.7175 43.9326C30.8568 43.9326 29.3429 42.3288 29.3429 40.3576C29.3429 38.3865 30.8568 36.7827 32.7175 36.7827C34.5782 36.7827 36.0922 38.3865 36.0922 40.3576C36.0922 42.3288 34.5782 43.9326 32.7175 43.9326ZM58.4473 43.9326C56.5866 43.9326 55.0728 42.3288 55.0728 40.3576C55.0728 38.3865 56.5866 36.7827 58.4473 36.7827C60.308 36.7827 61.8219 38.3865 61.8219 40.3576C61.8219 42.3288 60.308 43.9326 58.4473 43.9326ZM71.832 39.2093H63.8827C63.7412 38.4566 63.4632 37.7559 63.0776 37.1361H71.832V39.2093Z" fill="black"/>
<path d="M54.8027 22.8302H61.4149V26.9275C61.4149 27.5618 61.9001 28.0758 62.4989 28.0758H67.7075C68.3063 28.0758 68.7915 27.5618 68.7915 26.9275V21.6819C68.7915 21.4833 68.7406 21.2812 68.6471 21.1092L64.4453 13.3733C64.2518 13.0172 63.8936 12.7976 63.5057 12.7976H54.8027C54.2039 12.7976 53.7188 13.3116 53.7188 13.9459V21.6819C53.7188 22.316 54.2039 22.8302 54.8027 22.8302ZM66.6235 25.779H63.5829V22.83H66.6235V25.779ZM55.8867 15.0941H62.8787L65.8331 20.5334H55.8867V15.0941Z" fill="black"/>
<path d="M26.7492 28.2154C27.348 28.2154 27.8332 27.7014 27.8332 27.067C27.8332 26.4327 27.348 25.9187 26.7492 25.9187C26.4507 25.9187 26.26 25.5755 26.4048 25.299L29.9475 18.5377L30.2863 19.8768C30.4369 20.4725 31.0532 20.8483 31.614 20.6887C32.1922 20.5247 32.5354 19.8948 32.3804 19.2823L31.3479 15.2001C31.195 14.5971 30.5904 14.2262 30.0202 14.3882L26.1666 15.482C25.5883 15.6459 25.2452 16.2757 25.4001 16.8884C25.5549 17.501 26.1493 17.8652 26.7278 17.7003L28.1129 17.3073L24.5094 24.1846C23.577 25.9644 24.8356 28.2154 26.7492 28.2154Z" fill="black"/>
<path d="M42.7816 25.299C42.9264 25.5754 42.7358 25.9188 42.4373 25.9188H35.2877L36.2582 24.8906C36.6815 24.4421 36.6815 23.715 36.258 23.2667C35.8348 22.8184 35.1485 22.8182 34.7251 23.2668L31.9042 26.2554C31.4886 26.6955 31.4886 27.439 31.9042 27.8792L34.7251 30.8676C35.1436 31.3105 35.8399 31.3105 36.2582 30.8676C36.6815 30.419 36.6815 29.692 36.2582 29.2436L35.2878 28.2156H42.4373C44.3502 28.2156 45.6108 25.9661 44.6771 24.1847C44.3865 23.6303 43.7264 23.4302 43.2033 23.738C42.6798 24.0455 42.4911 24.7445 42.7816 25.299Z" fill="black"/>
<path d="M32.7753 10.7749C33.2989 11.0826 33.9587 10.8826 34.2491 10.3281C34.3982 10.0435 34.7886 10.0435 34.9378 10.3281L39.1202 18.3105L37.7353 17.9175C37.1569 17.7529 36.5626 18.117 36.4077 18.7294C36.2527 19.342 36.5958 19.9718 37.1741 20.1359L41.0273 21.2296C41.5937 21.3905 42.2025 21.0215 42.3551 20.4178L43.3877 16.3356C43.5426 15.723 43.1995 15.0933 42.6212 14.9291C42.0428 14.7647 41.4485 15.1286 41.2935 15.7411L40.9548 17.0802L36.833 9.21361C35.8761 7.38719 33.3119 7.38382 32.3533 9.21361C32.0631 9.76802 32.2517 10.4673 32.7753 10.7749Z" fill="black"/>
<path d="M58.4473 41.5059C59.0459 41.5059 59.5312 40.9917 59.5312 40.3575C59.5312 39.7233 59.0459 39.2092 58.4473 39.2092C57.8486 39.2092 57.3633 39.7233 57.3633 40.3575C57.3633 40.9917 57.8486 41.5059 58.4473 41.5059Z" fill="black"/>
<path d="M32.7175 41.5059C33.3162 41.5059 33.8015 40.9917 33.8015 40.3575C33.8015 39.7233 33.3162 39.2092 32.7175 39.2092C32.1189 39.2092 31.6335 39.7233 31.6335 40.3575C31.6335 40.9917 32.1189 41.5059 32.7175 41.5059Z" fill="black"/>
<path d="M18.9802 41.5059C19.5789 41.5059 20.0642 40.9917 20.0642 40.3575C20.0642 39.7233 19.5789 39.2092 18.9802 39.2092C18.3816 39.2092 17.8962 39.7233 17.8962 40.3575C17.8962 40.9917 18.3816 41.5059 18.9802 41.5059Z" fill="black"/>
</svg>
