<svg width="66" height="68" viewBox="0 0 66 68" fill="none" xmlns="http://www.w3.org/2000/svg">
<path d="M61.3736 24.9516L55.431 19.0095L55.6268 18.1873L62.1249 16.2649C62.6185 16.1191 62.9579 15.6653 62.9579 15.1505C62.9579 14.6357 62.6185 14.1819 62.1249 14.036L55.6268 12.1136L54.2105 6.16568C54.0855 5.64186 53.6181 5.2726 53.08 5.2726C52.542 5.2726 52.0745 5.64186 51.9496 6.16568L50.5344 12.1136L48.9918 12.57L39.71 3.28948C37.9942 1.57305 35.7118 0.627686 33.2857 0.627686C30.8583 0.627686 28.5771 1.57305 26.8613 3.28948L5.19796 24.9516C1.655 28.494 1.655 34.2592 5.19796 37.8016L6.28278 38.8864L5.00708 43.4139C4.33742 46.9395 0.241883 53.0013 0.200919 53.062C-0.112267 53.5233 -0.0544528 54.1425 0.340371 54.5367L13.2258 67.4221C13.4503 67.6467 13.7478 67.7626 14.0474 67.7626C14.2653 67.7626 14.4855 67.7013 14.6784 67.5758L21.6022 63.0941C23.3802 61.9431 25.0824 60.672 26.7122 59.3153L26.861 59.4637C28.5768 61.1801 30.858 62.1249 33.2854 62.1249C35.7118 62.1249 37.9939 61.1801 39.7098 59.4637L61.3731 37.8016C64.9154 34.2586 64.9154 28.4946 61.3736 24.9516ZM51.8383 14.1516C52.2378 14.0337 52.5431 13.7112 52.6396 13.3062L53.08 11.4547L53.5216 13.3062C53.6181 13.7115 53.9234 14.0337 54.3229 14.1516L57.6991 15.1505L54.3229 16.1493C53.9234 16.2672 53.6181 16.5897 53.5216 16.9947L53.08 18.8462L52.6396 16.9947C52.5431 16.5894 52.2378 16.2672 51.8383 16.1493L48.4621 15.1505L51.8383 14.1516ZM20.339 61.1435L14.2051 65.1144L2.65324 53.5626C3.84934 51.7044 6.6776 47.0693 7.26766 43.9462L12.2226 26.3592C12.4166 25.3401 13.321 24.6399 14.3742 24.7433C14.9111 24.7945 15.3945 25.053 15.735 25.472C16.063 25.8749 16.2185 26.3775 16.1755 26.8929L13.8649 36.9059C13.7493 37.4114 13.9805 37.9323 14.4346 38.1836C14.8852 38.4349 15.4515 38.3562 15.8193 37.989L32.503 21.3058C33.1532 20.6562 34.2801 20.6582 34.9283 21.3058C35.2516 21.6298 35.4309 22.0606 35.4309 22.5185C35.4309 22.9769 35.2516 23.4078 34.9283 23.7317C34.9283 23.7317 34.9283 23.732 34.928 23.732L22.6536 36.007C22.1998 36.4608 22.1998 37.1964 22.6536 37.6502C23.1074 38.104 23.843 38.104 24.2968 37.6502L39.9625 21.9839C40.6322 21.3154 41.7193 21.3154 42.389 21.9839C42.7123 22.3079 42.8907 22.7387 42.8907 23.1971C42.8907 23.655 42.7126 24.0859 42.389 24.4098L38.2943 28.5042C38.2937 28.5048 38.2929 28.5053 38.292 28.5059L26.7221 40.0758C26.2683 40.5296 26.2683 41.2652 26.7221 41.719C26.949 41.9459 27.2465 42.0595 27.5437 42.0595C27.8409 42.0595 28.1384 41.9459 28.3653 41.719L39.9367 30.1483C40.62 29.4661 41.7312 29.4664 42.4163 30.1491C43.0996 30.833 43.0996 31.9463 42.4163 32.6299L39.0799 35.9663L30.2224 44.8233C29.7686 45.2771 29.7686 46.0127 30.2224 46.4665C30.6762 46.9203 31.4118 46.9203 31.8656 46.4665L32.4882 45.8439C32.4888 45.8433 32.4893 45.8433 32.4896 45.8427L40.7231 37.6092C41.3553 36.9765 42.4596 36.9747 43.0938 37.6098C43.4105 37.9259 43.5851 38.3469 43.5851 38.7946C43.5851 39.2423 43.4102 39.6633 43.0938 39.9799L28.6582 54.4158C26.1338 56.9399 23.3352 59.2034 20.339 61.1435ZM59.7301 36.1584L38.0668 57.8205C36.7891 59.0977 35.0913 59.8007 33.2857 59.8007C31.4789 59.8007 29.7813 59.0977 28.5045 57.8199L28.4757 57.7912C29.0966 57.2267 29.7084 56.6526 30.3011 56.0596L44.7367 41.6237C45.4927 40.8678 45.909 39.8634 45.909 38.7952C45.909 37.726 45.4924 36.7217 44.7367 35.9672C44.3175 35.5471 43.8079 35.256 43.2635 35.0692L44.0592 34.2734C45.6493 32.6834 45.6493 30.096 44.0592 28.5053C43.6133 28.0603 43.0857 27.7532 42.5273 27.5576L44.0319 26.053C44.7945 25.2904 45.2143 24.2759 45.2143 23.1971C45.2143 22.1178 44.7945 21.1033 44.0319 20.3401C42.4532 18.7643 39.8931 18.7672 38.319 20.3407L37.5041 21.1556C37.3094 20.6112 37.0067 20.0975 36.5715 19.6626C35.0474 18.1368 32.3862 18.1345 30.8598 19.6626L17.0418 33.4806L18.4581 27.3427C18.4683 27.2985 18.4753 27.254 18.4808 27.2099C18.6089 26.0495 18.2754 24.9118 17.5389 24.0057C16.8024 23.1001 15.7571 22.54 14.595 22.4293C12.3524 22.2181 10.3586 23.7195 9.96257 25.827L7.0059 36.3222L6.84175 36.1581C4.20552 33.5213 4.20552 29.2314 6.84175 26.5946L28.5051 4.9324C29.7819 3.65525 31.4795 2.9516 33.2862 2.9516C35.0919 2.9516 36.7897 3.65525 38.0674 4.9324L46.4558 13.3199L44.0357 14.0357C43.5421 14.1816 43.2027 14.6354 43.2027 15.1502C43.2027 15.665 43.5421 16.1188 44.0357 16.2646L50.535 18.187L51.9502 24.135C52.0751 24.6588 52.5425 25.028 53.0806 25.028C53.6187 25.028 54.0861 24.6588 54.211 24.135L54.7994 21.6638L59.731 26.5948C62.3655 29.2317 62.3655 33.5215 59.7301 36.1584Z" fill="black"/>
<path d="M6.55737 4.64841C7.19972 4.64841 7.71947 4.12808 7.71947 3.4863V1.1621C7.71947 0.520331 7.19972 0 6.55737 0C5.91501 0 5.39526 0.520331 5.39526 1.1621V3.4863C5.39526 4.12808 5.91501 4.64841 6.55737 4.64841Z" fill="black"/>
<path d="M6.55737 6.97266C5.91501 6.97266 5.39526 7.49299 5.39526 8.13476V10.459C5.39526 11.1007 5.91501 11.6211 6.55737 11.6211C7.19972 11.6211 7.71947 11.1007 7.71947 10.459V8.13476C7.71947 7.49299 7.19972 6.97266 6.55737 6.97266Z" fill="black"/>
<path d="M1.90868 6.97288H4.23289C4.87524 6.97288 5.39499 6.45255 5.39499 5.81078C5.39499 5.16901 4.87524 4.64868 4.23289 4.64868H1.90868C1.26633 4.64868 0.746582 5.16901 0.746582 5.81078C0.746582 6.45255 1.26633 6.97288 1.90868 6.97288Z" fill="black"/>
<path d="M8.88134 6.97288H11.2055C11.8479 6.97288 12.3676 6.45255 12.3676 5.81078C12.3676 5.16901 11.8479 4.64868 11.2055 4.64868H8.88134C8.23899 4.64868 7.71924 5.16901 7.71924 5.81078C7.71924 6.45255 8.23899 6.97288 8.88134 6.97288Z" fill="black"/>
<path d="M55.9467 56.9426C53.7042 56.9426 51.8794 58.7674 51.8794 61.01C51.8794 63.2525 53.7042 65.0773 55.9467 65.0773C58.1893 65.0773 60.0141 63.2525 60.0141 61.01C60.0141 58.7674 58.1893 56.9426 55.9467 56.9426ZM55.9467 62.7531C54.9854 62.7531 54.2036 61.9713 54.2036 61.01C54.2036 60.0486 54.9854 59.2668 55.9467 59.2668C56.9081 59.2668 57.6899 60.0486 57.6899 61.01C57.6899 61.9713 56.9078 62.7531 55.9467 62.7531Z" fill="black"/>
<path d="M64.7577 49.4229C64.0714 49.4229 63.5154 49.9792 63.5154 50.6651C63.5154 51.3514 64.0714 51.9077 64.7577 51.9077C65.4439 51.9077 66 51.3514 66 50.6651C66.0002 49.9789 65.4439 49.4229 64.7577 49.4229Z" fill="black"/>
</svg>
