<svg width="23" height="16" viewBox="0 0 23 16" fill="none" xmlns="http://www.w3.org/2000/svg">
<path d="M22 7C22.5523 7 23 7.44772 23 8C23 8.55228 22.5523 9 22 9L22 7ZM0.292893 8.70711C-0.0976314 8.31658 -0.0976315 7.68342 0.292892 7.2929L6.65685 0.928934C7.04738 0.538409 7.68054 0.538409 8.07107 0.928933C8.46159 1.31946 8.46159 1.95262 8.07107 2.34315L2.41421 8L8.07107 13.6569C8.46159 14.0474 8.46159 14.6805 8.07107 15.0711C7.68054 15.4616 7.04738 15.4616 6.65686 15.0711L0.292893 8.70711ZM22 9L1 9L1 7L22 7L22 9Z" fill="#5D6412"/>
</svg>
