<svg width="52" height="36" viewBox="0 0 52 36" fill="none" xmlns="http://www.w3.org/2000/svg">
<path d="M51.7047 17.7641L42.5133 8.51764C42.3226 8.32579 42.0633 8.21803 41.793 8.21803H36.7656V3.04688C36.7656 1.36683 35.3988 0 33.7188 0H15.3359C14.7751 0 14.3203 0.454797 14.3203 1.01562C14.3203 1.57645 14.7751 2.03125 15.3359 2.03125H33.7188C34.2788 2.03125 34.7344 2.48686 34.7344 3.04688V27.7268C34.7344 28.2868 34.2788 28.7424 33.7188 28.7424H15.6455C15.1616 25.9254 12.703 23.7746 9.75 23.7746C6.79697 23.7746 4.33845 25.9254 3.8545 28.7424H3.04688C2.48686 28.7424 2.03125 28.2868 2.03125 27.7268V3.04688C2.03125 2.48686 2.48686 2.03125 3.04688 2.03125H7.00781C7.56864 2.03125 8.02344 1.57645 8.02344 1.01562C8.02344 0.454797 7.56864 0 7.00781 0H3.04688C1.36683 0 0 1.36683 0 3.04688V27.7268C0 29.4068 1.36683 30.7736 3.04688 30.7736H3.8545C4.04584 31.8875 4.54553 32.8966 5.26317 33.7102H2.64062C2.0798 33.7102 1.625 34.165 1.625 34.7258C1.625 35.2867 2.0798 35.7415 2.64062 35.7415H21.1042C21.665 35.7415 22.1198 35.2867 22.1198 34.7258C22.1198 34.165 21.665 33.7102 21.1042 33.7102H14.2368C14.9544 32.8966 15.4542 31.8874 15.6455 30.7736H33.7188C34.0964 30.7736 34.4579 30.7041 34.792 30.5779C34.956 31.7692 35.4716 32.8492 36.231 33.7102H30.5233C29.9625 33.7102 29.5077 34.165 29.5077 34.7258C29.5077 35.2867 29.9625 35.7415 30.5233 35.7415H47.792C48.3528 35.7415 48.8076 35.2867 48.8076 34.7258C48.8076 34.165 48.3528 33.7102 47.792 33.7102H45.2047C45.9222 32.8966 46.422 31.8874 46.6133 30.7736H50.9844C51.5452 30.7736 52 30.3188 52 29.758V18.4801C52 18.2118 51.8939 17.9543 51.7047 17.7641ZM9.75 33.7102C7.57077 33.7102 5.7978 31.9372 5.7978 29.758C5.7978 27.5788 7.57077 25.8058 9.75 25.8058C11.9292 25.8058 13.7022 27.5788 13.7022 29.758C13.7022 31.9372 11.9292 33.7102 9.75 33.7102ZM41.9549 10.8372L49.8567 18.7864H43.1907C42.5093 18.7864 41.9549 18.2321 41.9549 17.5507V10.8372ZM40.7178 33.7102C38.5386 33.7102 36.7656 31.9372 36.7656 29.758C36.7656 27.5788 38.5386 25.8058 40.7178 25.8058C42.8971 25.8058 44.67 27.5788 44.67 29.758C44.67 31.9372 42.8971 33.7102 40.7178 33.7102ZM49.9688 28.7424H46.6133C46.1294 25.9254 43.6709 23.7746 40.7178 23.7746C39.2039 23.7746 37.8206 24.3408 36.7656 25.2712V10.2493H39.9237V17.5507C39.9237 19.3521 41.3894 20.8177 43.1908 20.8177H49.9688V28.7424Z" fill="black"/>
<path d="M27.8346 20.5314H27.0157V13.0449H27.8486C28.2739 13.0449 28.654 12.7801 28.8013 12.3813C28.9486 11.9825 28.832 11.5341 28.509 11.2577L19.7037 3.72249C19.3237 3.39719 18.763 3.39719 18.383 3.72249L9.57773 11.2577C9.25466 11.5342 9.13806 11.9826 9.28543 12.3813C9.43269 12.7801 9.81284 13.0449 10.2381 13.0449H11.071V20.5314H10.2521C9.69127 20.5314 9.23648 20.9862 9.23648 21.547C9.23648 22.1078 9.69127 22.5626 10.2521 22.5626H12.0866H16.6974H21.1043H26.0001H27.8346C28.3954 22.5626 28.8502 22.1078 28.8502 21.547C28.8502 20.9862 28.3954 20.5314 27.8346 20.5314ZM20.0886 20.5314H17.713V16.8899H20.0886V20.5314ZM24.9845 20.5314H22.1199V15.8742C22.1199 15.3134 21.6651 14.8586 21.1043 14.8586H16.6974C16.1365 14.8586 15.6817 15.3134 15.6817 15.8742V20.5314H13.1022V13.0449H24.9845V20.5314ZM12.9869 11.0137L19.0434 5.83083L25.0998 11.0137H12.9869Z" fill="black"/>
<path d="M26.007 34.0083C25.8182 33.8194 25.5562 33.7107 25.2891 33.7107C25.022 33.7107 24.7599 33.8194 24.571 34.0083C24.3821 34.1972 24.2734 34.4582 24.2734 34.7263C24.2734 34.9934 24.382 35.2555 24.571 35.4444C24.7599 35.6332 25.022 35.7419 25.2891 35.7419C25.5562 35.7419 25.8182 35.6333 26.007 35.4444C26.1959 35.2555 26.3047 34.9934 26.3047 34.7263C26.3047 34.4592 26.196 34.1972 26.007 34.0083Z" fill="black"/>
<path d="M11.7883 0.297578C11.5995 0.108672 11.3374 0 11.0703 0C10.8032 0 10.5412 0.10857 10.3523 0.297578C10.1634 0.486586 10.0547 0.748516 10.0547 1.01562C10.0547 1.28273 10.1633 1.54477 10.3523 1.73357C10.5412 1.92349 10.8032 2.03125 11.0703 2.03125C11.3374 2.03125 11.5995 1.92349 11.7883 1.73357C11.9773 1.54477 12.0859 1.28273 12.0859 1.01562C12.0859 0.748516 11.9773 0.486484 11.7883 0.297578Z" fill="black"/>
</svg>
