<svg width="44" height="44" viewBox="0 0 44 44" fill="none" xmlns="http://www.w3.org/2000/svg">
<g clip-path="url(#clip0_1433_1522)">
<path d="M14.1874 20.2727C13.6958 19.8258 12.9449 19.8258 12.4532 20.2727L0.421971 31.2102C-0.104825 31.6892 -0.143669 32.5045 0.335261 33.0312C0.814104 33.5579 1.62939 33.5966 2.15619 33.1179L2.57814 32.7343V42.7109C2.57814 43.4228 3.1553 44 3.86721 44H22.7735C23.4854 44 24.0625 43.4228 24.0625 42.7109V32.7343L24.4845 33.1179C24.7315 33.3424 25.0418 33.4531 25.3512 33.4531C25.7017 33.4531 26.051 33.311 26.3054 33.0312C26.7843 32.5044 26.7455 31.6891 26.2187 31.2102L14.1874 20.2727ZM14.6094 41.4219H12.0313V36.2656H14.6094V41.4219ZM21.4844 41.4219H17.1875V34.9765C17.1875 34.2646 16.6104 33.6875 15.8985 33.6875H10.7422C10.0303 33.6875 9.45314 34.2646 9.45314 34.9765V41.4219H5.15627V30.3906L13.3203 22.9687L21.4844 30.3906V41.4219Z" fill="black"/>
<path d="M10.7422 29.8203C10.7422 30.5322 11.3193 31.1094 12.0312 31.1094H14.6094C15.3213 31.1094 15.8984 30.5322 15.8984 29.8203C15.8984 29.1084 15.3213 28.5312 14.6094 28.5312H12.0312C11.3193 28.5312 10.7422 29.1084 10.7422 29.8203Z" fill="black"/>
<path d="M17.6946 13.0937C18.1735 13.6204 18.9888 13.6592 19.5156 13.1804L19.9375 12.7968V22.7734C19.9375 23.4853 20.5147 24.0625 21.2266 24.0625H40.1328C40.8447 24.0625 41.4219 23.4853 41.4219 22.7734V12.7968L41.8438 13.1804C42.0908 13.4049 42.4012 13.5156 42.7105 13.5156C43.0611 13.5156 43.4104 13.3735 43.6648 13.0937C44.1437 12.5669 44.1049 11.7516 43.5781 11.2727L31.5468 0.335221C31.0552 -0.11174 30.3042 -0.11174 29.8126 0.335221L17.7813 11.2727C17.2545 11.7517 17.2157 12.5669 17.6946 13.0937ZM31.9688 21.4844H29.3906V16.3281H31.9688V21.4844ZM30.6797 3.03117L38.8438 10.4531V21.4844H34.5469V15.039C34.5469 14.3271 33.9697 13.75 33.2578 13.75H28.1016C27.3897 13.75 26.8125 14.3271 26.8125 15.039V21.4844H22.5156V10.4531L30.6797 3.03117Z" fill="black"/>
<path d="M29.3906 11.1719H31.9688C32.6807 11.1719 33.2578 10.5947 33.2578 9.88281C33.2578 9.17091 32.6807 8.59375 31.9688 8.59375H29.3906C28.6787 8.59375 28.1016 9.17091 28.1016 9.88281C28.1016 10.5947 28.6787 11.1719 29.3906 11.1719Z" fill="black"/>
<path d="M43.6225 30.6276L40.185 27.1901C39.6816 26.6866 38.8654 26.6866 38.362 27.1901L34.9245 30.6276C34.4211 31.131 34.4211 31.9471 34.9245 32.4506C35.4278 32.954 36.2441 32.954 36.7475 32.4506L37.9844 31.2136V39.2734C37.9844 40.458 37.0206 41.4218 35.8359 41.4218H28.1016C27.3897 41.4218 26.8125 41.999 26.8125 42.7109C26.8125 43.4228 27.3897 44 28.1016 44H35.8359C38.4422 44 40.5625 41.8796 40.5625 39.2734V31.2136L41.7995 32.4505C42.0511 32.7023 42.381 32.8281 42.7109 32.8281C43.0409 32.8281 43.3708 32.7023 43.6224 32.4505C44.1258 31.9471 44.1258 31.131 43.6225 30.6276Z" fill="black"/>
<path d="M3.81491 21.1069C4.06653 21.3586 4.39645 21.4844 4.72636 21.4844C5.05628 21.4844 5.38619 21.3586 5.63781 21.1068L9.07532 17.6693C9.57874 17.1658 9.57874 16.3497 9.07532 15.8463C8.57198 15.3429 7.75574 15.3429 7.25232 15.8463L6.01542 17.0833V4.72656C6.01542 3.54191 6.97921 2.57812 8.16386 2.57812H21.9139C22.6258 2.57812 23.2029 2.00097 23.2029 1.28906C23.2029 0.577156 22.6258 0 21.9139 0H8.16386C5.55764 0 3.4373 2.12034 3.4373 4.72656V17.0833L2.20031 15.8464C1.69698 15.3429 0.880744 15.3429 0.377322 15.8464C-0.1261 16.3498 -0.1261 17.1659 0.377322 17.6694L3.81491 21.1069Z" fill="black"/>
</g>
<defs>
<clipPath id="clip0_1433_1522">
<rect width="44" height="44" fill="white"/>
</clipPath>
</defs>
</svg>
